<svg width="148" height="80" viewBox="0 0 148 80" fill="none" xmlns="http://www.w3.org/2000/svg">
    <path
        d="M23.4431 28.8626C23.8484 28.0912 24.9946 28.2402 25.1891 29.0896V29.0896C25.2503 29.3567 25.425 29.5837 25.6675 29.7111V29.7111C26.4389 30.1164 26.2899 31.2626 25.4405 31.4571V31.4571C25.1734 31.5182 24.9464 31.693 24.819 31.9355V31.9355C24.4137 32.7069 23.2675 32.5578 23.073 31.7084V31.7084C23.0119 31.4414 22.8371 31.2144 22.5946 31.087V31.087C21.8232 30.6817 21.9723 29.5355 22.8217 29.341V29.341C23.0887 29.2799 23.3157 29.1051 23.4431 28.8626V28.8626Z"
        fill="#E53935" fill-opacity="0.1" />
    <path
        d="M50.3741 8.53762C50.7793 7.76622 51.9256 7.91529 52.12 8.76469V8.76469C52.1812 9.03174 52.3559 9.25876 52.5985 9.38617V9.38617C53.3699 9.79145 53.2208 10.9377 52.3714 11.1321V11.1321C52.1043 11.1933 51.8773 11.368 51.7499 11.6106V11.6106C51.3446 12.382 50.1984 12.2329 50.0039 11.3835V11.3835C49.9428 11.1164 49.768 10.8894 49.5255 10.762V10.762C48.7541 10.3567 48.9032 9.21052 49.7526 9.01604V9.01604C50.0196 8.9549 50.2466 8.78014 50.3741 8.53762V8.53762Z"
        fill="#E53935" fill-opacity="0.1" />
    <path
        d="M1.63929 71.251C1.79337 70.9577 2.22916 71.0144 2.3031 71.3373V71.3373C2.32635 71.4389 2.39279 71.5252 2.48499 71.5736V71.5736C2.77828 71.7277 2.7216 72.1635 2.39866 72.2374V72.2374C2.29713 72.2607 2.21082 72.3271 2.16238 72.4193V72.4193C2.0083 72.7126 1.57251 72.6559 1.49857 72.333V72.333C1.47532 72.2315 1.40888 72.1452 1.31668 72.0967V72.0967C1.02339 71.9426 1.08007 71.5068 1.40301 71.4329V71.4329C1.50454 71.4097 1.59085 71.3432 1.63929 71.251V71.251Z"
        fill="#E53935" fill-opacity="0.1" />
    <path
        d="M42.7356 40.2906C42.9868 39.8124 43.6972 39.9048 43.8178 40.4313V40.4313C43.8557 40.5968 43.964 40.7376 44.1143 40.8165V40.8165C44.5924 41.0677 44.5 41.7782 43.9736 41.8987V41.8987C43.808 41.9366 43.6673 42.045 43.5883 42.1953V42.1953C43.3371 42.6734 42.6267 42.581 42.5061 42.0545V42.0545C42.4682 41.889 42.3599 41.7483 42.2096 41.6693V41.6693C41.7315 41.4181 41.8239 40.7077 42.3503 40.5871V40.5871C42.5159 40.5492 42.6566 40.4409 42.7356 40.2906V40.2906Z"
        fill="#E53935" fill-opacity="0.1" />
    <path
        d="M23.711 59.4596C24.0134 58.6424 25.1693 58.6424 25.4717 59.4596V59.4596C25.5668 59.7166 25.7693 59.9192 26.0263 60.0142V60.0142C26.8435 60.3166 26.8435 61.4725 26.0263 61.7749V61.7749C25.7693 61.87 25.5668 62.0726 25.4717 62.3295V62.3295C25.1693 63.1467 24.0134 63.1467 23.711 62.3295V62.3295C23.6159 62.0726 23.4134 61.87 23.1564 61.7749V61.7749C22.3392 61.4725 22.3392 60.3166 23.1564 60.0142V60.0142C23.4134 59.9192 23.6159 59.7166 23.711 59.4596V59.4596Z"
        fill="#E53935" fill-opacity="0.1" />
    <path
        d="M127.846 35.0783C127.507 34.4335 126.549 34.5581 126.386 35.2681V35.2681C126.335 35.4913 126.189 35.6811 125.986 35.7876V35.7876C125.341 36.1263 125.466 37.0844 126.176 37.247V37.247C126.399 37.2981 126.589 37.4442 126.696 37.6469V37.6469C127.034 38.2917 127.992 38.1671 128.155 37.4571V37.4571C128.206 37.2339 128.352 37.0441 128.555 36.9376V36.9376C129.2 36.5988 129.075 35.6407 128.365 35.4782V35.4782C128.142 35.4271 127.952 35.281 127.846 35.0783V35.0783Z"
        fill="#E53935" fill-opacity="0.1" />
    <path
        d="M105.335 18.0893C104.996 17.4445 104.038 17.5691 103.875 18.2791V18.2791C103.824 18.5023 103.678 18.6921 103.475 18.7986V18.7986C102.831 19.1373 102.955 20.0954 103.665 20.258V20.258C103.889 20.3091 104.078 20.4551 104.185 20.6579V20.6579C104.524 21.3027 105.482 21.178 105.644 20.4681V20.4681C105.695 20.2448 105.841 20.0551 106.044 19.9486V19.9486C106.689 19.6098 106.564 18.6517 105.854 18.4892V18.4892C105.631 18.4381 105.441 18.292 105.335 18.0893V18.0893Z"
        fill="#E53935" fill-opacity="0.1" />
    <path
        d="M146.071 70.5096C145.942 70.2645 145.578 70.3119 145.516 70.5818V70.5818C145.496 70.6667 145.441 70.7388 145.364 70.7793V70.7793C145.119 70.9081 145.166 71.2723 145.436 71.3341V71.3341C145.521 71.3536 145.593 71.4091 145.633 71.4862V71.4862C145.762 71.7313 146.127 71.684 146.188 71.414V71.414C146.208 71.3292 146.263 71.257 146.34 71.2165V71.2165C146.586 71.0877 146.538 70.7235 146.268 70.6617V70.6617C146.183 70.6422 146.111 70.5867 146.071 70.5096V70.5096Z"
        fill="#E53935" fill-opacity="0.1" />
    <path
        d="M111.719 44.6307C111.509 44.2311 110.916 44.3083 110.815 44.7484V44.7484C110.783 44.8867 110.693 45.0043 110.567 45.0704V45.0704C110.167 45.2803 110.244 45.8742 110.685 45.9749V45.9749C110.823 46.0066 110.941 46.0972 111.007 46.2228V46.2228C111.217 46.6225 111.81 46.5452 111.911 46.1052V46.1052C111.943 45.9668 112.033 45.8492 112.159 45.7832V45.7832C112.559 45.5732 112.481 44.9794 112.041 44.8786V44.8786C111.903 44.8469 111.785 44.7564 111.719 44.6307V44.6307Z"
        fill="#E53935" fill-opacity="0.1" />
    <path
        d="M127.622 60.6534C127.369 59.9703 126.403 59.9703 126.15 60.6534V60.6534C126.071 60.8682 125.901 61.0375 125.687 61.117V61.117C125.003 61.3697 125.003 62.3359 125.687 62.5886V62.5886C125.901 62.6681 126.071 62.8374 126.15 63.0522V63.0522C126.403 63.7353 127.369 63.7353 127.622 63.0522V63.0522C127.701 62.8374 127.871 62.6681 128.085 62.5886V62.5886C128.768 62.3359 128.768 61.3697 128.085 61.117V61.117C127.871 61.0375 127.701 60.8682 127.622 60.6534V60.6534Z"
        fill="#E53935" fill-opacity="0.1" />
    <path
        d="M90.3065 35.9448C90.0028 35.9448 89.7044 35.8657 89.4405 35.7153C89.1766 35.565 88.9564 35.3486 88.8015 35.0873L84.059 27.1948H68.554L63.8115 35.0873C63.5567 35.4377 63.181 35.6811 62.7571 35.7704C62.3332 35.8598 61.8912 35.7887 61.5167 35.5709C61.1421 35.3532 60.8617 35.0042 60.7296 34.5916C60.5975 34.179 60.6231 33.7321 60.8015 33.3373L65.544 25.4448C65.8494 24.9158 66.2879 24.476 66.816 24.169C67.344 23.862 67.9432 23.6985 68.554 23.6948H84.059C84.6698 23.6985 85.269 23.862 85.7971 24.169C86.3251 24.476 86.7636 24.9158 87.069 25.4448L91.8115 33.3548C92.0482 33.754 92.1166 34.2308 92.0017 34.6804C91.8869 35.13 91.5981 35.5156 91.199 35.7523C90.9238 35.8943 90.6158 35.9608 90.3065 35.9448Z"
        fill="#FFD64F" />
    <path
        d="M95.5566 34.1948V34.2823L93.8066 69.3698C93.7617 70.2674 93.3732 71.1133 92.7216 71.7323C92.0701 72.3513 91.2054 72.6959 90.3066 72.6948H62.3066C61.4079 72.6959 60.5432 72.3513 59.8916 71.7323C59.2401 71.1133 58.8516 70.2674 58.8066 69.3698V69.1948V68.3198L57.0566 34.2823V34.1948H95.5566Z"
        fill="#F94B3E" />
    <path
        d="M90.1491 34.1948L88.5566 65.8698C88.5117 66.7674 88.1232 67.6133 87.4716 68.2323C86.8201 68.8513 85.9554 69.1959 85.0566 69.1948H58.8066V68.3198L57.0566 34.2823V34.1948H90.1491Z"
        fill="#F95B53" />
    <path
        d="M99.0566 34.1948C99.0566 34.659 98.8723 35.1041 98.5441 35.4323C98.2159 35.7604 97.7708 35.9448 97.3066 35.9448H55.3066C54.8425 35.9448 54.3974 35.7604 54.0692 35.4323C53.741 35.1041 53.5566 34.659 53.5566 34.1948C53.5566 33.7307 53.741 33.2856 54.0692 32.9574C54.3974 32.6292 54.8425 32.4448 55.3066 32.4448H97.3066C97.7708 32.4448 98.2159 32.6292 98.5441 32.9574C98.8723 33.2856 99.0566 33.7307 99.0566 34.1948Z"
        fill="#FFC166" />
    <path
        d="M97.3066 32.4448C97.3066 32.909 97.1223 33.3541 96.7941 33.6823C96.4659 34.0104 96.0208 34.1948 95.5566 34.1948H53.5566C53.5566 33.7307 53.741 33.2856 54.0692 32.9574C54.3974 32.6292 54.8425 32.4448 55.3066 32.4448H97.3066Z"
        fill="#FFD64F" />
    <path
        d="M70.1816 58.6948C69.7175 58.6948 69.2724 58.5105 68.9442 58.1823C68.616 57.8541 68.4316 57.409 68.4316 56.9448V46.4448C68.4316 45.9807 68.616 45.5356 68.9442 45.2074C69.2724 44.8792 69.7175 44.6948 70.1816 44.6948C70.6458 44.6948 71.0909 44.8792 71.4191 45.2074C71.7473 45.5356 71.9316 45.9807 71.9316 46.4448V56.9448C71.9316 57.409 71.7473 57.8541 71.4191 58.1823C71.0909 58.5105 70.6458 58.6948 70.1816 58.6948Z"
        fill="#E8ECED" />
    <path
        d="M82.4316 58.6948C81.9675 58.6948 81.5224 58.5105 81.1942 58.1823C80.866 57.8541 80.6816 57.409 80.6816 56.9448V46.4448C80.6816 45.9807 80.866 45.5356 81.1942 45.2074C81.5224 44.8792 81.9675 44.6948 82.4316 44.6948C82.8958 44.6948 83.3409 44.8792 83.6691 45.2074C83.9973 45.5356 84.1816 45.9807 84.1816 46.4448V56.9448C84.1816 57.409 83.9973 57.8541 83.6691 58.1823C83.3409 58.5105 82.8958 58.6948 82.4316 58.6948Z"
        fill="#E8ECED" />
</svg>
