<svg width="184" height="131" viewBox="0 0 184 131" fill="none" xmlns="http://www.w3.org/2000/svg">
<path d="M44.1089 46.9013L45.0341 50.9421L48.7038 52.87L44.663 53.7952L42.735 57.4649L41.8099 53.4241L38.1402 51.4962L42.181 50.571L44.1089 46.9013Z" fill="#FFAC0B" fill-opacity="0.5"/>
<path d="M81.7182 18.5173L82.6433 22.558L86.313 24.486L82.2723 25.4112L80.3443 29.0809L79.4191 25.0401L75.7494 23.1121L79.7902 22.187L81.7182 18.5173Z" fill="#FFAC0B" fill-opacity="0.5"/>
<path d="M12.6384 108.041L12.9902 109.577L14.3854 110.31L12.8491 110.662L12.1161 112.057L11.7643 110.521L10.3691 109.788L11.9054 109.436L12.6384 108.041Z" fill="#FFAC0B" fill-opacity="0.5"/>
<path d="M70.4248 64.053L70.9982 66.5576L73.2728 67.7526L70.7682 68.326L69.5732 70.6006L68.9997 68.096L66.7252 66.901L69.2297 66.3276L70.4248 64.053Z" fill="#FFAC0B" fill-opacity="0.5"/>
<path d="M44.0645 89.4441L45.5031 93.3318L49.3908 94.7704L45.5031 96.209L44.0645 100.097L42.626 96.209L38.7383 94.7704L42.626 93.3318L44.0645 89.4441Z" fill="#FFAC0B" fill-opacity="0.5"/>
<path d="M139.891 46.9013L138.966 50.9421L135.296 52.87L139.337 53.7952L141.265 57.4649L142.19 53.4241L145.86 51.4962L141.819 50.571L139.891 46.9013Z" fill="#FFAC0B" fill-opacity="0.5"/>
<path d="M102.282 18.5173L101.357 22.558L97.687 24.486L101.728 25.4112L103.656 29.0809L104.581 25.0401L108.251 23.1121L104.21 22.187L102.282 18.5173Z" fill="#FFAC0B" fill-opacity="0.5"/>
<path d="M171.362 108.041L171.01 109.577L169.615 110.31L171.151 110.662L171.884 112.057L172.236 110.521L173.631 109.788L172.095 109.436L171.362 108.041Z" fill="#FFAC0B" fill-opacity="0.5"/>
<path d="M113.575 64.053L113.002 66.5576L110.727 67.7526L113.232 68.326L114.427 70.6006L115 68.096L117.275 66.901L114.77 66.3276L113.575 64.053Z" fill="#FFAC0B" fill-opacity="0.5"/>
<path d="M139.935 89.4441L138.497 93.3318L134.609 94.7704L138.497 96.209L139.935 100.097L141.374 96.209L145.262 94.7704L141.374 93.3318L139.935 89.4441Z" fill="#FFAC0B" fill-opacity="0.5"/>
<g clip-path="url(#clip0_206_7880)">
<path d="M93.2938 46.23H74.1363V40.7738C74.1363 38.9657 75.602 37.5 77.41 37.5H90.02C91.828 37.5 93.2938 38.9657 93.2938 40.7738V46.23Z" fill="url(#paint0_linear_206_7880)"/>
<path d="M88.3713 46.23H69.2137V40.7738C69.2137 38.9657 70.6795 37.5 72.4875 37.5H85.0975C86.9055 37.5 88.3713 38.9657 88.3713 40.7738V46.23Z" fill="url(#paint1_linear_206_7880)"/>
<path d="M83.1575 43.714V40.7738C83.1575 38.9657 81.6918 37.5 79.8838 37.5H67.2738C65.4657 37.5 64 38.9657 64 40.7738V76.1224C64 78.6982 66.0881 80.7864 68.6639 80.7864H115.336C117.912 80.7864 120 78.6982 120 76.1224V49.8027C120 47.2269 117.912 45.1387 115.336 45.1387H84.5822C83.7953 45.1387 83.1575 44.5009 83.1575 43.714Z" fill="url(#paint2_linear_206_7880)"/>
<path d="M106.529 51.555H105.406C104.762 51.555 104.239 51.0327 104.239 50.3885V49.2653C104.239 48.6211 104.762 48.0989 105.406 48.0989H106.529C107.173 48.0989 107.695 48.6211 107.695 49.2653V50.3885C107.695 51.0327 107.173 51.555 106.529 51.555Z" fill="url(#paint3_linear_206_7880)"/>
<path d="M110.935 51.555H109.812C109.168 51.555 108.646 51.0327 108.646 50.3885V49.2653C108.646 48.6211 109.168 48.0989 109.812 48.0989H110.935C111.58 48.0989 112.102 48.6211 112.102 49.2653V50.3885C112.102 51.0327 111.58 51.555 110.935 51.555Z" fill="url(#paint4_linear_206_7880)"/>
<path d="M115.342 51.555H114.219C113.575 51.555 113.052 51.0327 113.052 50.3885V49.2653C113.052 48.6211 113.575 48.0989 114.219 48.0989H115.342C115.986 48.0989 116.508 48.6211 116.508 49.2653V50.3885C116.508 51.0327 115.986 51.555 115.342 51.555Z" fill="url(#paint5_linear_206_7880)"/>
<path d="M64 70.9651V76.1225C64 78.6982 66.0881 80.7864 68.6639 80.7864H115.336C117.912 80.7864 120 78.6982 120 76.1225V70.9651H64Z" fill="url(#paint6_linear_206_7880)"/>
<g filter="url(#filter0_d_206_7880)">
<path d="M86.1624 64.5608C86.1325 61.4877 88.7895 58.9867 91.9953 58.9867C92.7885 58.9867 93.5849 59.1326 94.303 59.4219L93.0927 60.5658L99.5269 62.1144L97.8872 56.0368L96.6383 57.2163C95.2506 56.4196 93.6312 56 91.9953 56C87.192 56 83.2352 59.5833 83.0201 64.1149L83 64.535L86.1686 65.183L86.1624 64.5608Z" fill="white"/>
<path d="M97.8282 64.4955C97.8282 67.5449 95.1477 70.0044 91.9953 70.0044C91.2141 70.0044 90.4084 69.8557 89.6975 69.5703L90.8657 68.4667L84.4293 66.9044L86.084 72.9822L87.3488 71.788C88.7478 72.5764 90.3684 72.9911 91.9953 72.9911C96.7878 72.9911 100.744 69.4219 100.97 64.9073L100.991 64.4863C101.196 64.5256 97.9344 63.899 97.8282 63.8787V64.4955Z" fill="white"/>
</g>
</g>
<defs>
<filter id="filter0_d_206_7880" x="80" y="54" width="24" height="23" filterUnits="userSpaceOnUse" color-interpolation-filters="sRGB">
<feFlood flood-opacity="0" result="BackgroundImageFix"/>
<feColorMatrix in="SourceAlpha" type="matrix" values="0 0 0 0 0 0 0 0 0 0 0 0 0 0 0 0 0 0 127 0" result="hardAlpha"/>
<feOffset dy="1"/>
<feGaussianBlur stdDeviation="1.5"/>
<feComposite in2="hardAlpha" operator="out"/>
<feColorMatrix type="matrix" values="0 0 0 0 0.441667 0 0 0 0 0.242622 0 0 0 0 0.13066 0 0 0 0.25 0"/>
<feBlend mode="normal" in2="BackgroundImageFix" result="effect1_dropShadow_206_7880"/>
<feBlend mode="normal" in="SourceGraphic" in2="effect1_dropShadow_206_7880" result="shape"/>
</filter>
<linearGradient id="paint0_linear_206_7880" x1="83.7151" y1="39.3188" x2="83.7151" y2="46.2342" gradientUnits="userSpaceOnUse">
<stop stop-color="#FF9100"/>
<stop offset="1" stop-color="#E63950"/>
</linearGradient>
<linearGradient id="paint1_linear_206_7880" x1="78.7926" y1="39.3188" x2="78.7926" y2="46.2342" gradientUnits="userSpaceOnUse">
<stop stop-color="#FDBF00"/>
<stop offset="1" stop-color="#FF9100"/>
</linearGradient>
<linearGradient id="paint2_linear_206_7880" x1="70.3813" y1="41.3437" x2="103.1" y2="74.0621" gradientUnits="userSpaceOnUse">
<stop stop-color="#FFDA2D"/>
<stop offset="1" stop-color="#FDBF00"/>
</linearGradient>
<linearGradient id="paint3_linear_206_7880" x1="105.583" y1="49.5343" x2="107.162" y2="50.7375" gradientUnits="userSpaceOnUse">
<stop stop-color="#76E2F8"/>
<stop offset="1" stop-color="#48B2E3"/>
</linearGradient>
<linearGradient id="paint4_linear_206_7880" x1="109.99" y1="49.5343" x2="111.569" y2="50.7375" gradientUnits="userSpaceOnUse">
<stop stop-color="#76E2F8"/>
<stop offset="1" stop-color="#48B2E3"/>
</linearGradient>
<linearGradient id="paint5_linear_206_7880" x1="114.396" y1="49.5343" x2="115.975" y2="50.7375" gradientUnits="userSpaceOnUse">
<stop stop-color="#76E2F8"/>
<stop offset="1" stop-color="#48B2E3"/>
</linearGradient>
<linearGradient id="paint6_linear_206_7880" x1="92" y1="75.0876" x2="92" y2="84.1846" gradientUnits="userSpaceOnUse">
<stop stop-color="#FF9100" stop-opacity="0"/>
<stop offset="1" stop-color="#FF9100"/>
</linearGradient>
<clipPath id="clip0_206_7880">
<rect width="56" height="56" fill="white" transform="translate(64 37.5)"/>
</clipPath>
</defs>
</svg>
