<svg width="148" height="80" viewBox="0 0 148 80" fill="none" xmlns="http://www.w3.org/2000/svg">
    <path
        d="M23.4431 28.8626C23.8484 28.0912 24.9946 28.2402 25.1891 29.0896C25.2503 29.3567 25.425 29.5837 25.6675 29.7111C26.4389 30.1164 26.2899 31.2626 25.4405 31.4571C25.1734 31.5182 24.9464 31.693 24.819 31.9355C24.4137 32.7069 23.2675 32.5578 23.073 31.7084C23.0119 31.4414 22.8371 31.2144 22.5946 31.087C21.8232 30.6817 21.9723 29.5355 22.8217 29.341C23.0887 29.2799 23.3157 29.1051 23.4431 28.8626Z"
        fill="#BCE4DB" />
    <path
        d="M50.3741 8.53762C50.7793 7.76622 51.9256 7.91529 52.12 8.76469C52.1812 9.03174 52.3559 9.25876 52.5985 9.38617C53.3699 9.79145 53.2208 10.9377 52.3714 11.1321C52.1043 11.1933 51.8773 11.368 51.7499 11.6106C51.3446 12.382 50.1984 12.2329 50.0039 11.3835C49.9428 11.1164 49.768 10.8894 49.5255 10.762C48.7541 10.3567 48.9032 9.21052 49.7526 9.01604C50.0196 8.9549 50.2466 8.78014 50.3741 8.53762Z"
        fill="#BCE4DB" />
    <path
        d="M1.63929 71.251C1.79337 70.9577 2.22916 71.0144 2.3031 71.3373C2.32635 71.4389 2.39279 71.5252 2.48499 71.5736C2.77828 71.7277 2.7216 72.1635 2.39866 72.2374C2.29713 72.2607 2.21082 72.3271 2.16238 72.4193C2.0083 72.7126 1.57251 72.6559 1.49857 72.333C1.47532 72.2315 1.40888 72.1452 1.31668 72.0967C1.02339 71.9426 1.08007 71.5068 1.40301 71.4329C1.50454 71.4097 1.59085 71.3432 1.63929 71.251Z"
        fill="#BCE4DB" />
    <path
        d="M42.7356 40.2906C42.9868 39.8124 43.6972 39.9048 43.8178 40.4313C43.8557 40.5968 43.964 40.7376 44.1143 40.8165C44.5924 41.0677 44.5 41.7782 43.9736 41.8987C43.808 41.9366 43.6673 42.045 43.5883 42.1953C43.3371 42.6734 42.6267 42.581 42.5061 42.0545C42.4682 41.889 42.3599 41.7483 42.2096 41.6693C41.7315 41.4181 41.8239 40.7077 42.3503 40.5871C42.5159 40.5492 42.6566 40.4409 42.7356 40.2906Z"
        fill="#BCE4DB" />
    <path
        d="M23.711 59.4596C24.0134 58.6424 25.1693 58.6424 25.4717 59.4596C25.5668 59.7166 25.7693 59.9192 26.0263 60.0142C26.8435 60.3166 26.8435 61.4725 26.0263 61.7749C25.7693 61.87 25.5668 62.0726 25.4717 62.3295C25.1693 63.1467 24.0134 63.1467 23.711 62.3295C23.6159 62.0726 23.4134 61.87 23.1564 61.7749C22.3392 61.4725 22.3392 60.3166 23.1564 60.0142C23.4134 59.9192 23.6159 59.7166 23.711 59.4596Z"
        fill="#BCE4DB" />
    <path
        d="M127.846 35.0783C127.507 34.4335 126.549 34.5581 126.386 35.2681C126.335 35.4913 126.189 35.6811 125.986 35.7876C125.341 36.1263 125.466 37.0844 126.176 37.247C126.399 37.2981 126.589 37.4442 126.696 37.6469C127.034 38.2917 127.992 38.1671 128.155 37.4571C128.206 37.2339 128.352 37.0441 128.555 36.9376C129.2 36.5988 129.075 35.6407 128.365 35.4782C128.142 35.4271 127.952 35.281 127.846 35.0783Z"
        fill="#BCE4DB" />
    <path
        d="M105.335 18.0893C104.996 17.4445 104.038 17.5691 103.875 18.2791C103.824 18.5023 103.678 18.6921 103.475 18.7986C102.831 19.1373 102.955 20.0954 103.665 20.258C103.889 20.3091 104.078 20.4551 104.185 20.6579C104.524 21.3027 105.482 21.178 105.644 20.4681C105.695 20.2448 105.841 20.0551 106.044 19.9486C106.689 19.6098 106.564 18.6517 105.854 18.4892C105.631 18.4381 105.441 18.292 105.335 18.0893Z"
        fill="#BCE4DB" />
    <path
        d="M146.071 70.5096C145.942 70.2645 145.578 70.3119 145.516 70.5818C145.496 70.6667 145.441 70.7388 145.364 70.7793C145.119 70.9081 145.166 71.2723 145.436 71.3341C145.521 71.3536 145.593 71.4091 145.633 71.4862C145.762 71.7313 146.127 71.684 146.188 71.414C146.208 71.3292 146.263 71.257 146.34 71.2165C146.586 71.0877 146.538 70.7235 146.268 70.6617C146.183 70.6422 146.111 70.5867 146.071 70.5096Z"
        fill="#BCE4DB" />
    <path
        d="M111.719 44.6307C111.509 44.2311 110.916 44.3083 110.815 44.7484C110.783 44.8867 110.693 45.0043 110.567 45.0704C110.167 45.2803 110.244 45.8742 110.685 45.9749C110.823 46.0066 110.941 46.0972 111.007 46.2228C111.217 46.6225 111.81 46.5452 111.911 46.1052C111.943 45.9668 112.033 45.8492 112.159 45.7832C112.559 45.5732 112.481 44.9794 112.041 44.8786C111.903 44.8469 111.785 44.7564 111.719 44.6307Z"
        fill="#BCE4DB" />
    <path
        d="M127.622 60.6534C127.369 59.9703 126.403 59.9703 126.15 60.6534C126.071 60.8682 125.901 61.0375 125.687 61.117C125.003 61.3697 125.003 62.3359 125.687 62.5886C125.901 62.6681 126.071 62.8374 126.15 63.0522C126.403 63.7353 127.369 63.7353 127.622 63.0522C127.701 62.8374 127.871 62.6681 128.085 62.5886C128.768 62.3359 128.768 61.3697 128.085 61.117C127.871 61.0375 127.701 60.8682 127.622 60.6534Z"
        fill="#BCE4DB" />
    <g clip-path="url(#clip0_63_6256)">
        <path
            d="M87.6816 25.4448H68.4316C67.9484 25.4448 67.5566 25.8366 67.5566 26.3198V70.0698C67.5566 70.5531 67.9484 70.9448 68.4316 70.9448H87.6816C88.1649 70.9448 88.5566 70.5531 88.5566 70.0698V26.3198C88.5566 25.8366 88.1649 25.4448 87.6816 25.4448Z"
            fill="#BCE4DB" />
        <path
            d="M104.05 47.5762L96.1753 39.7012C96.0941 39.6199 95.9976 39.5555 95.8915 39.5115C95.7853 39.4675 95.6715 39.4448 95.5566 39.4448C95.4417 39.4448 95.328 39.4675 95.2218 39.5115C95.1157 39.5555 95.0192 39.6199 94.938 39.7012L92.313 42.3262C92.2317 42.4074 92.1672 42.5039 92.1233 42.61C92.0793 42.7162 92.0566 42.83 92.0566 42.9449C92.0566 43.0598 92.0793 43.1735 92.1233 43.2797C92.1672 43.3858 92.2317 43.4823 92.313 43.5635L94.3193 45.5699H76.3066C76.0746 45.5699 75.852 45.662 75.6879 45.8261C75.5238 45.9902 75.4316 46.2128 75.4316 46.4449V49.9449C75.4316 50.1769 75.5238 50.3995 75.6879 50.5636C75.852 50.7277 76.0746 50.8199 76.3066 50.8199H94.3193L92.313 52.8262C92.2317 52.9074 92.1672 53.0039 92.1233 53.11C92.0793 53.2162 92.0566 53.33 92.0566 53.4449C92.0566 53.5598 92.0793 53.6735 92.1233 53.7797C92.1672 53.8858 92.2317 53.9823 92.313 54.0635L94.938 56.6885C95.0192 56.7698 95.1157 56.8342 95.2218 56.8782C95.328 56.9222 95.4417 56.9448 95.5566 56.9448C95.6715 56.9448 95.7853 56.9222 95.8915 56.8782C95.9976 56.8342 96.094 56.7698 96.1753 56.6885L104.05 48.8135C104.132 48.7323 104.196 48.6358 104.24 48.5297C104.284 48.4235 104.307 48.3098 104.307 48.1949C104.307 48.08 104.284 47.9662 104.24 47.86C104.196 47.7539 104.132 47.6574 104.05 47.5762Z"
            fill="#1AA483" />
        <path
            d="M68.9443 20.361C68.8321 20.2799 68.7023 20.2265 68.5655 20.2053C68.4287 20.184 68.2889 20.1954 68.1573 20.2385L48.9073 26.5968C48.7325 26.6545 48.5803 26.7659 48.4724 26.9152C48.3646 27.0644 48.3066 27.2439 48.3066 27.4281V68.9615C48.3066 69.1456 48.3646 69.3251 48.4724 69.4743C48.5803 69.6236 48.7325 69.735 48.9073 69.7927L68.1573 76.151C68.2888 76.1944 68.4287 76.206 68.5656 76.1848C68.7024 76.1636 68.8322 76.1103 68.9444 76.0291C69.0566 75.948 69.148 75.8414 69.2109 75.7181C69.2739 75.5947 69.3067 75.4582 69.3066 75.3198V21.0698C69.3065 20.9314 69.2736 20.7951 69.2106 20.6719C69.1477 20.5487 69.0564 20.4421 68.9443 20.361Z"
            fill="#1AA483" />
        <path
            d="M63.1816 50.8198C64.6314 50.8198 65.8066 49.6446 65.8066 48.1948C65.8066 46.7451 64.6314 45.5698 63.1816 45.5698C61.7319 45.5698 60.5566 46.7451 60.5566 48.1948C60.5566 49.6446 61.7319 50.8198 63.1816 50.8198Z"
            fill="#0C7259" />
    </g>
    <defs>
        <clipPath id="clip0_63_6256">
            <rect width="56" height="56" fill="white" transform="translate(48.3066 20.1948)" />
        </clipPath>
    </defs>
</svg>
