<svg width="148" height="79" viewBox="0 0 148 79" fill="none" xmlns="http://www.w3.org/2000/svg">
    <path fill-rule="evenodd" clip-rule="evenodd"
        d="M96.9423 30.5742C96.9423 28.8854 95.5649 27.5081 93.8762 27.5081H59.4304C57.7416 27.5081 56.3643 28.8854 56.3643 30.5742V72.8417C56.3643 74.5303 57.7416 75.9078 59.4304 75.9078H93.8761C95.5649 75.9078 96.9422 74.5304 96.9422 72.8417V30.5742H96.9423Z"
        fill="#DEA368" />
    <path fill-rule="evenodd" clip-rule="evenodd"
        d="M96.9424 30.5742C96.9424 28.8854 95.565 27.5081 93.8763 27.5081H60.6871C58.9983 27.5081 57.6208 28.8854 57.6208 30.5742V72.8417C57.6208 74.5303 58.9982 75.9078 60.6871 75.9078H93.8761C95.565 75.9078 96.9423 74.5304 96.9424 72.8417V30.5742Z"
        fill="#E6B17C" />
    <path d="M93.8577 30.5928H94.817V72.8233H93.8577V30.5928Z" fill="#DEA368" />
    <path d="M59.4487 30.5928H93.8576V72.8233H59.4487V30.5928Z" fill="#F3F3FF" />
    <path fill-rule="evenodd" clip-rule="evenodd"
        d="M76.6531 22.2729C78.6452 22.2729 80.2599 23.8878 80.2599 25.8797V26.3751L83.8356 25.75C84.373 25.656 84.8733 25.7907 85.291 26.1417C85.7087 26.4926 85.9275 26.9624 85.9275 27.5079V31.3894H67.3787V27.508C67.3787 26.9623 67.5974 26.4927 68.0151 26.1418C68.4328 25.7908 68.9331 25.6561 69.4706 25.7501L73.0463 26.3752V25.8798C73.0463 23.8879 74.6611 22.2731 76.653 22.2731L76.6531 22.2729Z"
        fill="#AB733A" />
    <path fill-rule="evenodd" clip-rule="evenodd"
        d="M77.7086 22.43C79.1856 22.8813 80.26 24.2551 80.26 25.8797V26.3751L83.8357 25.75C84.3732 25.656 84.8735 25.7907 85.2912 26.1417C85.7089 26.4926 85.9276 26.9623 85.9276 27.5079V31.3894H68.251V27.6604C68.251 27.1148 68.4697 26.6451 68.8874 26.2942C69.3051 25.9433 69.8054 25.8086 70.3429 25.9026L73.0464 26.3752L73.9186 26.5276V26.0323C73.9186 24.0403 75.5334 22.4255 77.5253 22.4255C77.5868 22.4255 77.6479 22.427 77.7086 22.43Z"
        fill="#BA8047" />
    <path fill-rule="evenodd" clip-rule="evenodd"
        d="M76.6531 26.8311C77.1714 26.8311 77.5941 26.4084 77.5941 25.8902C77.5941 25.372 77.1713 24.9492 76.6531 24.9492C76.1349 24.9492 75.7122 25.372 75.7122 25.8902C75.7122 26.4084 76.1349 26.8311 76.6531 26.8311Z"
        fill="#E9E9FF" />
    <path fill-rule="evenodd" clip-rule="evenodd"
        d="M74.3562 39.9153C74.0542 39.9153 73.8093 39.6704 73.8093 39.3684C73.8093 39.0665 74.0542 38.8216 74.3562 38.8216H87.507C87.809 38.8216 88.0539 39.0665 88.0539 39.3684C88.0539 39.6704 87.809 39.9153 87.507 39.9153H74.3562ZM74.3562 37.0918C74.0542 37.0918 73.8093 36.8469 73.8093 36.5449C73.8093 36.2429 74.0542 35.998 74.3562 35.998H84.6195C84.9215 35.998 85.1664 36.2429 85.1664 36.5449C85.1664 36.8469 84.9215 37.0918 84.6195 37.0918H74.3562ZM74.3562 42.7389C74.0542 42.7389 73.8093 42.494 73.8093 42.1921C73.8093 41.8901 74.0542 41.6452 74.3562 41.6452H89.6726C89.9746 41.6452 90.2195 41.8901 90.2195 42.1921C90.2195 42.494 89.9746 42.7389 89.6726 42.7389H74.3562Z"
        fill="#A3A3CC" />
    <path
        d="M70.0788 35.6243H64.6775C64.1012 35.6243 63.634 36.0914 63.634 36.6677V42.0691C63.634 42.6454 64.1012 43.1125 64.6775 43.1125H70.0788C70.6551 43.1125 71.1223 42.6454 71.1223 42.0691V36.6677C71.1223 36.0914 70.6551 35.6243 70.0788 35.6243Z"
        fill="#F9AC00" />
    <path
        d="M70.0788 35.6243H65.5962C65.0199 35.6243 64.5527 36.0914 64.5527 36.6677V42.0691C64.5527 42.6454 65.0199 43.1125 65.5962 43.1125H70.0788C70.6551 43.1125 71.1222 42.6454 71.1222 42.0691V36.6677C71.1222 36.0914 70.6551 35.6243 70.0788 35.6243Z"
        fill="#FDC72E" />
    <path fill-rule="evenodd" clip-rule="evenodd"
        d="M65.0253 39.4231C64.8755 39.1613 64.9664 38.8275 65.2283 38.6776C65.4902 38.5278 65.824 38.6187 65.9738 38.8805L66.5513 39.8884L68.8702 37.5695C69.0837 37.356 69.43 37.356 69.6435 37.5695C69.857 37.783 69.857 38.1293 69.6435 38.3428L66.8193 41.1669L66.8191 41.1666C66.7855 41.2 66.7471 41.2298 66.7039 41.2544C66.4421 41.4042 66.1083 41.3133 65.9584 41.0514L65.0253 39.4229V39.4231Z"
        fill="#F3F3FF" />
    <path
        d="M70.0788 47.9617H64.6775C64.1012 47.9617 63.634 48.4288 63.634 49.0051V54.4065C63.634 54.9828 64.1012 55.4499 64.6775 55.4499H70.0788C70.6551 55.4499 71.1223 54.9828 71.1223 54.4065V49.0051C71.1223 48.4288 70.6551 47.9617 70.0788 47.9617Z"
        fill="#29B933" />
    <path
        d="M70.0788 60.2991H64.6775C64.1012 60.2991 63.634 60.7662 63.634 61.3425V66.7439C63.634 67.3202 64.1012 67.7873 64.6775 67.7873H70.0788C70.6551 67.7873 71.1223 67.3202 71.1223 66.7439V61.3425C71.1223 60.7662 70.6551 60.2991 70.0788 60.2991Z"
        fill="#2A92FA" />
    <path fill-rule="evenodd" clip-rule="evenodd"
        d="M74.3562 52.2527C74.0542 52.2527 73.8093 52.0078 73.8093 51.7058C73.8093 51.4039 74.0542 51.159 74.3562 51.159H87.507C87.809 51.159 88.0539 51.4039 88.0539 51.7058C88.0539 52.0078 87.809 52.2527 87.507 52.2527H74.3562ZM74.3562 49.4292C74.0542 49.4292 73.8093 49.1843 73.8093 48.8823C73.8093 48.5803 74.0542 48.3354 74.3562 48.3354H84.6195C84.9215 48.3354 85.1664 48.5803 85.1664 48.8823C85.1664 49.1843 84.9215 49.4292 84.6195 49.4292H74.3562ZM74.3562 55.0763C74.0542 55.0763 73.8093 54.8314 73.8093 54.5295C73.8093 54.2275 74.0542 53.9826 74.3562 53.9826H89.6726C89.9746 53.9826 90.2195 54.2275 90.2195 54.5295C90.2195 54.8314 89.9746 55.0763 89.6726 55.0763H74.3562Z"
        fill="#A3A3CC" />
    <path fill-rule="evenodd" clip-rule="evenodd"
        d="M74.3562 64.5901C74.0542 64.5901 73.8093 64.3452 73.8093 64.0432C73.8093 63.7413 74.0542 63.4964 74.3562 63.4964H87.507C87.809 63.4964 88.0539 63.7413 88.0539 64.0432C88.0539 64.3452 87.809 64.5901 87.507 64.5901H74.3562ZM74.3562 61.7666C74.0542 61.7666 73.8093 61.5217 73.8093 61.2197C73.8093 60.9177 74.0542 60.6729 74.3562 60.6729H84.6195C84.9215 60.6729 85.1664 60.9177 85.1664 61.2197C85.1664 61.5217 84.9215 61.7666 84.6195 61.7666H74.3562ZM74.3562 67.4137C74.0542 67.4137 73.8093 67.1688 73.8093 66.8669C73.8093 66.5649 74.0542 66.32 74.3562 66.32H89.6726C89.9746 66.32 90.2195 66.5649 90.2195 66.8669C90.2195 67.1688 89.9746 67.4137 89.6726 67.4137H74.3562Z"
        fill="#A3A3CC" />
    <path
        d="M70.0788 47.9617H65.5962C65.0199 47.9617 64.5527 48.4288 64.5527 49.0051V54.4065C64.5527 54.9828 65.0199 55.4499 65.5962 55.4499H70.0788C70.6551 55.4499 71.1222 54.9828 71.1222 54.4065V49.0051C71.1222 48.4288 70.6551 47.9617 70.0788 47.9617Z"
        fill="#2DD62D" />
    <path
        d="M70.0788 60.2991H65.5962C65.0199 60.2991 64.5527 60.7662 64.5527 61.3425V66.7439C64.5527 67.3202 65.0199 67.7873 65.5962 67.7873H70.0788C70.6551 67.7873 71.1222 67.3202 71.1222 66.7439V61.3425C71.1222 60.7662 70.6551 60.2991 70.0788 60.2991Z"
        fill="#4EB1FC" />
    <path fill-rule="evenodd" clip-rule="evenodd"
        d="M65.0253 51.7608C64.8755 51.4989 64.9664 51.1651 65.2283 51.0153C65.4902 50.8654 65.824 50.9563 65.9738 51.2182L66.5513 52.2261L68.8702 49.9072C69.0837 49.6937 69.43 49.6937 69.6435 49.9072C69.857 50.1207 69.857 50.467 69.6435 50.6805L66.8193 53.5045L66.8191 53.5043C66.7855 53.5378 66.7471 53.5675 66.7039 53.5921C66.4421 53.742 66.1083 53.6511 65.9584 53.3892L65.0253 51.7607V51.7608Z"
        fill="#F3F3FF" />
    <path
        d="M23.7898 28.0178C24.1951 27.2464 25.3413 27.3955 25.5358 28.2449C25.5969 28.512 25.7717 28.739 26.0142 28.8664C26.7856 29.2717 26.6366 30.4179 25.7871 30.6124C25.5201 30.6735 25.2931 30.8483 25.1657 31.0908C24.7604 31.8622 23.6142 31.7131 23.4197 30.8637C23.3586 30.5967 23.1838 30.3697 22.9413 30.2422C22.1699 29.837 22.3189 28.6907 23.1683 28.4963C23.4354 28.4351 23.6624 28.2604 23.7898 28.0178Z"
        fill="#88D6BF" />
    <path
        d="M50.7207 7.69289C51.126 6.92149 52.2722 7.07056 52.4667 7.91997C52.5279 8.18702 52.7026 8.41403 52.9451 8.54145C53.7165 8.94672 53.5675 10.0929 52.7181 10.2874C52.451 10.3486 52.224 10.5233 52.0966 10.7658C51.6913 11.5372 50.5451 11.3882 50.3506 10.5388C50.2895 10.2717 50.1147 10.0447 49.8722 9.91729C49.1008 9.51201 49.2499 8.36579 50.0993 8.17132C50.3663 8.11017 50.5933 7.93542 50.7207 7.69289Z"
        fill="#88D6BF" />
    <path
        d="M1.98597 70.4063C2.14005 70.113 2.57584 70.1697 2.64978 70.4926C2.67302 70.5941 2.73947 70.6805 2.83167 70.7289C3.12496 70.883 3.06828 71.3188 2.74534 71.3927C2.64381 71.416 2.5575 71.4824 2.50906 71.5746C2.35497 71.8679 1.91919 71.8112 1.84525 71.4883C1.822 71.3867 1.75556 71.3004 1.66336 71.252C1.37007 71.0979 1.42675 70.6621 1.74969 70.5882C1.85122 70.5649 1.93753 70.4985 1.98597 70.4063Z"
        fill="#88D6BF" />
    <path
        d="M43.0822 39.4458C43.3334 38.9677 44.0439 39.0601 44.1644 39.5866C44.2023 39.7521 44.3107 39.8928 44.461 39.9718C44.9391 40.223 44.8467 40.9335 44.3202 41.054C44.1547 41.0919 44.014 41.2002 43.935 41.3506C43.6838 41.8287 42.9734 41.7363 42.8528 41.2098C42.8149 41.0443 42.7066 40.9036 42.5563 40.8246C42.0781 40.5734 42.1705 39.8629 42.697 39.7424C42.8626 39.7045 43.0033 39.5962 43.0822 39.4458Z"
        fill="#88D6BF" />
    <path
        d="M24.0577 58.6149C24.3601 57.7977 25.516 57.7977 25.8184 58.6149C25.9134 58.8719 26.116 59.0744 26.3729 59.1695C27.1902 59.4719 27.1902 60.6278 26.3729 60.9302C26.116 61.0253 25.9134 61.2278 25.8184 61.4848C25.516 62.302 24.3601 62.302 24.0577 61.4848C23.9626 61.2278 23.76 61.0253 23.5031 60.9302C22.6859 60.6278 22.6859 59.4719 23.5031 59.1695C23.76 59.0744 23.9626 58.8719 24.0577 58.6149Z"
        fill="#88D6BF" />
    <path
        d="M128.192 34.2336C127.853 33.5888 126.895 33.7134 126.733 34.4234C126.682 34.6466 126.536 34.8363 126.333 34.9428C125.688 35.2816 125.813 36.2397 126.523 36.4022C126.746 36.4534 126.936 36.5994 127.042 36.8022C127.381 37.4469 128.339 37.3223 128.502 36.6123C128.553 36.3891 128.699 36.1994 128.902 36.0929C129.546 35.7541 129.422 34.796 128.712 34.6335C128.488 34.5824 128.299 34.4363 128.192 34.2336Z"
        fill="#88D6BF" />
    <path
        d="M105.681 17.2445C105.343 16.5998 104.385 16.7244 104.222 17.4344C104.171 17.6576 104.025 17.8473 103.822 17.9538C103.177 18.2926 103.302 19.2507 104.012 19.4132C104.235 19.4643 104.425 19.6104 104.531 19.8131C104.87 20.4579 105.828 20.3333 105.991 19.6233C106.042 19.4001 106.188 19.2104 106.391 19.1039C107.036 18.7651 106.911 17.807 106.201 17.6445C105.978 17.5933 105.788 17.4473 105.681 17.2445Z"
        fill="#88D6BF" />
    <path
        d="M146.417 69.6649C146.289 69.4198 145.924 69.4671 145.863 69.7371C145.843 69.8219 145.788 69.8941 145.71 69.9346C145.465 70.0634 145.513 70.4276 145.783 70.4894C145.868 70.5089 145.94 70.5644 145.98 70.6415C146.109 70.8866 146.473 70.8392 146.535 70.5693C146.554 70.4844 146.61 70.4123 146.687 70.3718C146.932 70.243 146.885 69.8787 146.615 69.8169C146.53 69.7975 146.458 69.742 146.417 69.6649Z"
        fill="#88D6BF" />
    <path
        d="M112.066 43.786C111.856 43.3863 111.262 43.4636 111.161 43.9036C111.13 44.042 111.039 44.1596 110.914 44.2256C110.514 44.4356 110.591 45.0295 111.031 45.1302C111.17 45.1619 111.287 45.2524 111.353 45.3781C111.563 45.7777 112.157 45.7005 112.258 45.2604C112.289 45.1221 112.38 45.0045 112.506 44.9385C112.905 44.7285 112.828 44.1346 112.388 44.0339C112.25 44.0022 112.132 43.9117 112.066 43.786Z"
        fill="#88D6BF" />
    <path
        d="M127.968 59.8087C127.716 59.1256 126.75 59.1256 126.497 59.8087C126.417 60.0234 126.248 60.1928 126.033 60.2722C125.35 60.525 125.35 61.4912 126.033 61.7439C126.248 61.8234 126.417 61.9927 126.497 62.2075C126.75 62.8906 127.716 62.8906 127.968 62.2075C128.048 61.9927 128.217 61.8234 128.432 61.7439C129.115 61.4912 129.115 60.525 128.432 60.2722C128.217 60.1928 128.048 60.0234 127.968 59.8087Z"
        fill="#88D6BF" />
</svg>
