<svg width="148" height="79" viewBox="0 0 148 79" fill="none" xmlns="http://www.w3.org/2000/svg">
    <path
        d="M23.7898 28.0178C24.1951 27.2464 25.3413 27.3955 25.5358 28.2449V28.2449C25.5969 28.512 25.7717 28.739 26.0142 28.8664V28.8664C26.7856 29.2717 26.6366 30.4179 25.7871 30.6124V30.6124C25.5201 30.6735 25.2931 30.8483 25.1657 31.0908V31.0908C24.7604 31.8622 23.6142 31.7131 23.4197 30.8637V30.8637C23.3586 30.5967 23.1838 30.3697 22.9413 30.2422V30.2422C22.1699 29.837 22.3189 28.6907 23.1683 28.4963V28.4963C23.4354 28.4351 23.6624 28.2604 23.7898 28.0178V28.0178Z"
        fill="#A5CBFA" />
    <path
        d="M50.7207 7.69289C51.126 6.92149 52.2722 7.07056 52.4667 7.91997V7.91997C52.5278 8.18702 52.7026 8.41403 52.9451 8.54145V8.54145C53.7165 8.94672 53.5675 10.0929 52.7181 10.2874V10.2874C52.451 10.3486 52.224 10.5233 52.0966 10.7658V10.7658C51.6913 11.5372 50.5451 11.3882 50.3506 10.5388V10.5388C50.2895 10.2717 50.1147 10.0447 49.8722 9.91729V9.91729C49.1008 9.51201 49.2499 8.36579 50.0993 8.17132V8.17132C50.3663 8.11017 50.5933 7.93542 50.7207 7.69289V7.69289Z"
        fill="#A5CBFA" />
    <path
        d="M1.98597 70.4063C2.14005 70.113 2.57584 70.1697 2.64978 70.4926V70.4926C2.67302 70.5941 2.73947 70.6805 2.83167 70.7289V70.7289C3.12496 70.883 3.06828 71.3188 2.74534 71.3927V71.3927C2.64381 71.416 2.5575 71.4824 2.50906 71.5746V71.5746C2.35497 71.8679 1.91919 71.8112 1.84525 71.4883V71.4883C1.822 71.3867 1.75556 71.3004 1.66336 71.252V71.252C1.37007 71.0979 1.42675 70.6621 1.74969 70.5882V70.5882C1.85122 70.5649 1.93753 70.4985 1.98597 70.4063V70.4063Z"
        fill="#A5CBFA" />
    <path
        d="M43.0822 39.4458C43.3334 38.9677 44.0439 39.0601 44.1644 39.5866V39.5866C44.2023 39.7521 44.3107 39.8928 44.461 39.9718V39.9718C44.9391 40.223 44.8467 40.9335 44.3202 41.054V41.054C44.1547 41.0919 44.014 41.2002 43.935 41.3506V41.3506C43.6838 41.8287 42.9734 41.7363 42.8528 41.2098V41.2098C42.8149 41.0443 42.7066 40.9036 42.5563 40.8246V40.8246C42.0781 40.5734 42.1705 39.8629 42.697 39.7424V39.7424C42.8626 39.7045 43.0033 39.5962 43.0822 39.4458V39.4458Z"
        fill="#A5CBFA" />
    <path
        d="M24.0577 58.6149C24.3601 57.7977 25.516 57.7977 25.8184 58.6149V58.6149C25.9134 58.8719 26.116 59.0744 26.3729 59.1695V59.1695C27.1902 59.4719 27.1902 60.6278 26.3729 60.9302V60.9302C26.116 61.0253 25.9134 61.2278 25.8184 61.4848V61.4848C25.516 62.302 24.3601 62.302 24.0577 61.4848V61.4848C23.9626 61.2278 23.76 61.0253 23.5031 60.9302V60.9302C22.6859 60.6278 22.6859 59.4719 23.5031 59.1695V59.1695C23.76 59.0744 23.9626 58.8719 24.0577 58.6149V58.6149Z"
        fill="#A5CBFA" />
    <path
        d="M128.192 34.2336C127.853 33.5888 126.895 33.7134 126.733 34.4234V34.4234C126.682 34.6466 126.536 34.8363 126.333 34.9428V34.9428C125.688 35.2816 125.813 36.2397 126.523 36.4022V36.4022C126.746 36.4534 126.936 36.5994 127.042 36.8022V36.8022C127.381 37.4469 128.339 37.3223 128.502 36.6123V36.6123C128.553 36.3891 128.699 36.1994 128.902 36.0929V36.0929C129.546 35.7541 129.422 34.796 128.712 34.6335V34.6335C128.488 34.5824 128.299 34.4363 128.192 34.2336V34.2336Z"
        fill="#A5CBFA" />
    <path
        d="M105.681 17.2445C105.343 16.5998 104.385 16.7244 104.222 17.4344V17.4344C104.171 17.6576 104.025 17.8473 103.822 17.9538V17.9538C103.177 18.2926 103.302 19.2507 104.012 19.4132V19.4132C104.235 19.4643 104.425 19.6104 104.531 19.8131V19.8131C104.87 20.4579 105.828 20.3333 105.991 19.6233V19.6233C106.042 19.4001 106.188 19.2104 106.391 19.1039V19.1039C107.036 18.7651 106.911 17.807 106.201 17.6445V17.6445C105.978 17.5933 105.788 17.4473 105.681 17.2445V17.2445Z"
        fill="#A5CBFA" />
    <path
        d="M146.417 69.6649C146.289 69.4198 145.924 69.4671 145.863 69.7371V69.7371C145.843 69.8219 145.788 69.8941 145.71 69.9346V69.9346C145.465 70.0634 145.513 70.4276 145.783 70.4894V70.4894C145.868 70.5089 145.94 70.5644 145.98 70.6415V70.6415C146.109 70.8866 146.473 70.8392 146.535 70.5693V70.5693C146.554 70.4844 146.61 70.4123 146.687 70.3718V70.3718C146.932 70.243 146.885 69.8787 146.615 69.8169V69.8169C146.53 69.7975 146.458 69.742 146.417 69.6649V69.6649Z"
        fill="#A5CBFA" />
    <path
        d="M112.066 43.786C111.856 43.3863 111.262 43.4636 111.161 43.9036V43.9036C111.13 44.042 111.039 44.1596 110.914 44.2256V44.2256C110.514 44.4356 110.591 45.0295 111.031 45.1302V45.1302C111.17 45.1619 111.287 45.2524 111.353 45.3781V45.3781C111.563 45.7777 112.157 45.7005 112.258 45.2604V45.2604C112.289 45.1221 112.38 45.0045 112.506 44.9385V44.9385C112.905 44.7285 112.828 44.1346 112.388 44.0339V44.0339C112.25 44.0022 112.132 43.9117 112.066 43.786V43.786Z"
        fill="#A5CBFA" />
    <path
        d="M127.968 59.8087C127.716 59.1256 126.75 59.1256 126.497 59.8087V59.8087C126.417 60.0234 126.248 60.1928 126.033 60.2722V60.2722C125.35 60.525 125.35 61.4912 126.033 61.7439V61.7439C126.248 61.8234 126.417 61.9927 126.497 62.2075V62.2075C126.75 62.8906 127.716 62.8906 127.968 62.2075V62.2075C128.048 61.9927 128.217 61.8234 128.432 61.7439V61.7439C129.115 61.4912 129.115 60.525 128.432 60.2722V60.2722C128.217 60.1928 128.048 60.0234 127.968 59.8087V59.8087Z"
        fill="#A5CBFA" />
    <path
        d="M49.9924 42.3584L61.974 52.0278L61.5928 73.5771L73.5744 62.1528L82.3079 71.0459L101.366 29.7021L49.9924 42.3584Z"
        fill="#48ACFF" />
    <path d="M101.366 29.7021L68.669 57.1578L61.5928 73.5771L61.9739 52.0278L101.366 29.7021Z"
        fill="#337FEF" />
    <path d="M73.5743 62.1527L61.5928 73.5771L68.669 57.1577L73.5743 62.1527Z" fill="#185BD1" />
</svg>
