<svg width="163" height="173" viewBox="0 0 163 173" fill="none" xmlns="http://www.w3.org/2000/svg">
    <g clip-path="url(#clip0_63_6256)">
        <path
            d="M85.6933 100.037L72.6386 113.092L77.8604 131.368L77.8604 133.979C77.8604 138.313 81.359 141.812 85.6933 141.812C90.0273 141.812 93.5261 138.313 93.5262 133.979L93.5262 131.368L98.748 113.092L85.6933 100.037ZM72.1874 130.226C72.6744 129.51 72.7738 128.602 72.4549 127.796C70.6651 123.273 69.0486 115.581 68.1332 107.217C68.0388 106.368 67.5366 105.619 66.7843 105.211C65.238 104.369 63.9993 105.424 63.638 105.535C63.1536 105.777 51.7511 111.674 51.7511 128.758C51.7511 141.665 59.2652 141.812 59.584 141.812C61.0272 141.812 62.195 140.645 62.1949 139.202C62.195 134.882 65.7085 131.369 70.0278 131.369C70.8919 131.369 71.7003 130.94 72.1874 130.226ZM104.602 105.211C103.85 105.619 103.348 106.368 103.254 107.217C102.305 115.871 100.734 123.362 98.9393 127.773C98.6129 128.579 98.7073 129.494 99.1916 130.216C99.6785 130.935 100.49 131.368 101.359 131.368C105.678 131.368 109.192 134.882 109.192 139.201C109.192 140.644 110.36 141.812 111.803 141.812C112.121 141.812 119.636 141.664 119.636 128.757C119.636 111.674 108.233 105.776 107.751 105.537C107.407 105.432 106.144 104.369 104.602 105.211ZM87.2599 48.3403C86.32 47.6614 85.0668 47.6614 84.1265 48.3403C83.6044 48.7578 75.7193 54.8154 69.5574 66.0945L85.5757 71.3164L101.829 66.0945C95.6671 54.8154 87.7819 48.7579 87.2599 48.3403ZM75.2495 84.3712C75.2495 90.1154 79.9491 94.815 85.6933 94.815C91.4895 94.815 96.1371 90.1154 96.1371 84.3712C96.1371 78.5751 91.4895 73.9274 85.6933 73.9274C79.9491 73.9274 75.2496 78.575 75.2495 84.3712Z"
            fill="url(#paint0_linear_63_6256)" />
        <path
            d="M69.5576 66.0945C65.4847 73.4576 62.1949 83.0657 62.1949 94.815C62.1949 98.6793 62.4558 103.17 62.9256 107.765C63.9178 116.59 65.6412 124.789 67.6255 129.697C67.991 130.689 68.931 131.368 70.0277 131.368L77.8605 131.368L77.8604 113.092C77.8604 108.757 81.359 105.259 85.6933 105.259C90.0794 105.259 93.5261 108.705 93.5262 113.092L93.5262 131.368L101.359 131.368C102.403 131.368 103.395 130.742 103.761 129.749C105.745 124.893 107.469 116.903 108.461 107.765C108.931 103.17 109.192 98.6791 109.192 94.8151C109.192 83.0658 105.902 73.4577 101.829 66.0947L69.5576 66.0945ZM96.1371 84.3712C96.1371 90.1154 91.4896 94.8149 85.6933 94.815C79.9491 94.815 75.2495 90.1154 75.2495 84.3712C75.2495 78.575 79.9491 73.9274 85.6933 73.9274C91.4895 73.9274 96.1371 78.575 96.1371 84.3712ZM85.7189 147.011C84.2758 147.011 83.1081 148.179 83.108 149.622L83.0823 168.714C83.0823 170.157 84.2501 171.325 85.6932 171.325C87.1363 171.325 88.3042 170.157 88.3041 168.714L88.3298 149.622C88.3298 148.179 87.162 147.011 85.7189 147.011ZM93.5517 149.622L93.5517 154.844C93.5517 156.287 94.7195 157.455 96.1626 157.455C97.6058 157.455 98.7736 156.287 98.7735 154.844L98.7735 149.622C98.7736 148.179 97.6057 147.011 96.1626 147.011C94.7195 147.011 93.5518 148.179 93.5517 149.622ZM77.886 154.844L77.886 149.622C77.886 148.179 76.7182 147.011 75.2751 147.011C73.8318 147.011 72.6641 148.179 72.6642 149.622L72.6642 154.844C72.6641 156.287 73.832 157.455 75.2751 157.455C76.7182 157.455 77.886 156.287 77.886 154.844Z"
            fill="url(#paint1_linear_63_6256)" />
    </g>
    <path
        d="M33.4329 48.6806C33.8646 47.8588 35.0857 48.0177 35.2929 48.9226L35.5123 49.8808C35.5774 50.1653 35.7636 50.4072 36.022 50.5429L36.8923 51.0001C37.7141 51.4319 37.5552 52.653 36.6503 52.8602L35.6921 53.0796C35.4076 53.1447 35.1657 53.3309 35.03 53.5892L34.5728 54.4595C34.141 55.2813 32.9199 55.1225 32.7127 54.2176L32.4933 53.2593C32.4282 52.9748 32.242 52.733 31.9837 52.5972L31.1134 52.14C30.2916 51.7083 30.4504 50.4872 31.3553 50.28L32.3136 50.0606C32.5981 49.9955 32.8399 49.8093 32.9757 49.5509L33.4329 48.6806Z"
        fill="#32B597" fill-opacity="0.3" />
    <path
        d="M71.042 20.2966C71.4738 19.4748 72.6949 19.6336 72.902 20.5385L73.1214 21.4968C73.1866 21.7813 73.3728 22.0231 73.6311 22.1589L74.5014 22.6161C75.3232 23.0478 75.1644 24.2689 74.2595 24.4761L73.3012 24.6955C73.0167 24.7607 72.7749 24.9468 72.6391 25.2052L72.1819 26.0755C71.7502 26.8973 70.5291 26.7384 70.3219 25.8336L70.1025 24.8753C70.0373 24.5908 69.8512 24.349 69.5928 24.2132L68.7225 23.756C67.9007 23.3242 68.0595 22.1031 68.9644 21.896L69.9227 21.6766C70.2072 21.6114 70.449 21.4252 70.5848 21.1669L71.042 20.2966Z"
        fill="#32B597" fill-opacity="0.3" />
    <path
        d="M2.59287 108.62C2.80805 108.211 3.41663 108.29 3.51989 108.741V108.741C3.55235 108.883 3.64514 109.003 3.77391 109.071V109.071C4.18348 109.286 4.10433 109.895 3.65334 109.998V109.998C3.51155 110.03 3.39102 110.123 3.32337 110.252V110.252C3.10819 110.661 2.49961 110.582 2.39636 110.131V110.131C2.36389 109.989 2.27111 109.869 2.14234 109.801V109.801C1.73277 109.586 1.81192 108.978 2.2629 108.874V108.874C2.40469 108.842 2.52522 108.749 2.59287 108.62V108.62Z"
        fill="#32B597" fill-opacity="0.3" />
    <path
        d="M59.9843 65.3838C60.3351 64.7161 61.3272 64.8451 61.4956 65.5804V65.5804C61.5485 65.8115 61.6998 66.008 61.9097 66.1183V66.1183C62.5774 66.4691 62.4484 67.4613 61.7131 67.6296V67.6296C61.482 67.6825 61.2855 67.8338 61.1752 68.0437V68.0437C60.8244 68.7115 59.8322 68.5824 59.6639 67.8472V67.8472C59.611 67.616 59.4597 67.4195 59.2498 67.3092V67.3092C58.582 66.9584 58.7111 65.9663 59.4463 65.7979V65.7979C59.6775 65.745 59.874 65.5937 59.9843 65.3838V65.3838Z"
        fill="#32B597" fill-opacity="0.3" />
    <path
        d="M33.7075 91.3656C34.0297 90.4949 35.2611 90.4949 35.5832 91.3656L35.9244 92.2875C36.0257 92.5612 36.2415 92.7771 36.5152 92.8783L37.4372 93.2195C38.3078 93.5417 38.3078 94.773 37.4372 95.0952L36.5152 95.4364C36.2415 95.5376 36.0257 95.7535 35.9244 96.0272L35.5832 96.9491C35.2611 97.8198 34.0297 97.8198 33.7075 96.9491L33.3664 96.0272C33.2651 95.7535 33.0493 95.5376 32.7756 95.4364L31.8536 95.0952C30.983 94.773 30.983 93.5417 31.8536 93.2195L32.7756 92.8783C33.0493 92.7771 33.2651 92.5612 33.3664 92.2875L33.7075 91.3656Z"
        fill="#32B597" fill-opacity="0.3" />
    <path
        d="M129.841 18.0346C129.409 17.2128 128.188 17.3717 127.981 18.2766L127.762 19.2348C127.696 19.5193 127.51 19.7612 127.252 19.8969L126.382 20.3541C125.56 20.7859 125.719 22.007 126.624 22.2142L127.582 22.4336C127.866 22.4987 128.108 22.6849 128.244 22.9432L128.701 23.8135C129.133 24.6353 130.354 24.4765 130.561 23.5716L130.781 22.6133C130.846 22.3288 131.032 22.087 131.29 21.9512L132.161 21.494C132.982 21.0623 132.824 19.8412 131.919 19.634L130.96 19.4146C130.676 19.3495 130.434 19.1633 130.298 18.9049L129.841 18.0346Z"
        fill="#32B597" fill-opacity="0.3" />
    <path
        d="M160.681 77.9743C160.466 77.5647 159.857 77.6438 159.754 78.0948V78.0948C159.722 78.2366 159.629 78.3571 159.5 78.4248V78.4248C159.09 78.64 159.17 79.2485 159.621 79.3518V79.3518C159.762 79.3843 159.883 79.4771 159.951 79.6058V79.6058C160.166 80.0154 160.774 79.9362 160.878 79.4853V79.4853C160.91 79.3435 161.003 79.2229 161.132 79.1553V79.1553C161.541 78.9401 161.462 78.3315 161.011 78.2283V78.2283C160.869 78.1958 160.749 78.103 160.681 77.9743V77.9743Z"
        fill="#32B597" fill-opacity="0.3" />
    <path
        d="M103.29 34.7378C102.939 34.0701 101.947 34.1991 101.778 34.9344V34.9344C101.725 35.1655 101.574 35.362 101.364 35.4723V35.4723C100.697 35.8231 100.826 36.8153 101.561 36.9836V36.9836C101.792 37.0365 101.988 37.1878 102.099 37.3977V37.3977C102.45 38.0655 103.442 37.9364 103.61 37.2012V37.2012C103.663 36.97 103.814 36.7735 104.024 36.6632V36.6632C104.692 36.3124 104.563 35.3203 103.828 35.1519V35.1519C103.596 35.099 103.4 34.9477 103.29 34.7378V34.7378Z"
        fill="#32B597" fill-opacity="0.3" />
    <path
        d="M129.566 60.7196C129.244 59.8489 128.013 59.8489 127.691 60.7196L127.35 61.6415C127.248 61.9152 127.032 62.1311 126.759 62.2323L125.837 62.5735C124.966 62.8957 124.966 64.127 125.837 64.4492L126.759 64.7904C127.032 64.8916 127.248 65.1075 127.35 65.3812L127.691 66.3031C128.013 67.1738 129.244 67.1738 129.566 66.3031L129.908 65.3812C130.009 65.1075 130.225 64.8916 130.498 64.7904L131.42 64.4492C132.291 64.127 132.291 62.8957 131.42 62.5735L130.498 62.2323C130.225 62.1311 130.009 61.9152 129.908 61.6415L129.566 60.7196Z"
        fill="#32B597" fill-opacity="0.3" />
    <defs>
        <linearGradient id="paint0_linear_63_6256" x1="85.6866" y1="141.801" x2="85.6866"
            y2="47.8338" gradientUnits="userSpaceOnUse">
            <stop stop-color="#75CBAC" />
            <stop offset="0.5028" stop-color="#EAFFFA" />
            <stop offset="1" stop-color="#ACF8D3" />
        </linearGradient>
        <linearGradient id="paint1_linear_63_6256" x1="85.6866" y1="171.309" x2="85.6866"
            y2="66.0944" gradientUnits="userSpaceOnUse">
            <stop stop-color="#0E9577" />
            <stop offset="1" stop-color="#60DEC0" />
        </linearGradient>
        <clipPath id="clip0_63_6256">
            <rect width="89.1203" height="89.1203" fill="white"
                transform="translate(22.6755 109.39) rotate(-45)" />
        </clipPath>
    </defs>
</svg>
