<svg width="336" height="389" viewBox="0 0 336 389" fill="none" xmlns="http://www.w3.org/2000/svg">
<path d="M78.6064 176.524C51.3159 234.224 -0.990925 269.442 -23.7331 279.838L-33.4797 286.661V389H387.574V187.245C224.806 23.502 112.719 104.399 78.6064 176.524Z" fill="#ECFFFC"/>
<g clip-path="url(#clip0_63_6256)">
<path d="M168 100.037L154.945 113.092L160.167 131.368L160.167 133.979C160.167 138.313 163.666 141.812 168 141.812C172.334 141.812 175.833 138.313 175.833 133.979L175.833 131.368L181.055 113.092L168 100.037ZM154.494 130.226C154.981 129.51 155.081 128.602 154.762 127.796C152.972 123.273 151.355 115.581 150.44 107.217C150.346 106.368 149.844 105.619 149.091 105.211C147.545 104.369 146.306 105.424 145.945 105.535C145.46 105.777 134.058 111.674 134.058 128.758C134.058 141.665 141.572 141.812 141.891 141.812C143.334 141.812 144.502 140.645 144.502 139.202C144.502 134.882 148.015 131.369 152.335 131.369C153.199 131.369 154.007 130.94 154.494 130.226ZM186.909 105.211C186.157 105.619 185.655 106.368 185.56 107.217C184.612 115.871 183.041 123.362 181.246 127.773C180.92 128.579 181.014 129.494 181.499 130.216C181.985 130.935 182.796 131.368 183.666 131.368C187.985 131.368 191.499 134.882 191.499 139.201C191.499 140.644 192.667 141.812 194.11 141.812C194.428 141.812 201.943 141.664 201.943 128.757C201.943 111.674 190.54 105.776 190.058 105.537C189.714 105.432 188.45 104.369 186.909 105.211ZM169.567 48.3403C168.627 47.6614 167.374 47.6614 166.433 48.3403C165.911 48.7578 158.026 54.8154 151.864 66.0945L167.883 71.3164L184.136 66.0945C177.974 54.8154 170.089 48.7579 169.567 48.3403ZM157.556 84.3712C157.556 90.1154 162.256 94.815 168 94.815C173.796 94.815 178.444 90.1154 178.444 84.3712C178.444 78.5751 173.796 73.9274 168 73.9274C162.256 73.9274 157.557 78.575 157.556 84.3712Z" fill="url(#paint0_linear_63_6256)"/>
<path d="M151.864 66.0945C147.792 73.4576 144.502 83.0657 144.502 94.815C144.502 98.6793 144.763 103.17 145.233 107.765C146.225 116.59 147.948 124.789 149.932 129.697C150.298 130.689 151.238 131.368 152.335 131.368L160.167 131.368L160.167 113.092C160.167 108.757 163.666 105.259 168 105.259C172.386 105.259 175.833 108.705 175.833 113.092L175.833 131.368L183.666 131.368C184.71 131.368 185.702 130.742 186.068 129.749C188.052 124.893 189.775 116.903 190.768 107.765C191.237 103.17 191.499 98.6791 191.499 94.8151C191.499 83.0658 188.209 73.4577 184.136 66.0947L151.864 66.0945ZM178.444 84.3712C178.444 90.1154 173.796 94.8149 168 94.815C162.256 94.815 157.556 90.1154 157.556 84.3712C157.556 78.575 162.256 73.9274 168 73.9274C173.796 73.9274 178.444 78.575 178.444 84.3712ZM168.026 147.011C166.583 147.011 165.415 148.179 165.415 149.622L165.389 168.714C165.389 170.157 166.557 171.325 168 171.325C169.443 171.325 170.611 170.157 170.611 168.714L170.637 149.622C170.637 148.179 169.469 147.011 168.026 147.011ZM175.859 149.622L175.859 154.844C175.859 156.287 177.026 157.455 178.469 157.455C179.913 157.455 181.081 156.287 181.08 154.844L181.08 149.622C181.081 148.179 179.913 147.011 178.469 147.011C177.026 147.011 175.859 148.179 175.859 149.622ZM160.193 154.844L160.193 149.622C160.193 148.179 159.025 147.011 157.582 147.011C156.139 147.011 154.971 148.179 154.971 149.622L154.971 154.844C154.971 156.287 156.139 157.455 157.582 157.455C159.025 157.455 160.193 156.287 160.193 154.844Z" fill="url(#paint1_linear_63_6256)"/>
</g>
<path d="M115.74 48.6806C116.172 47.8588 117.393 48.0177 117.6 48.9226L117.819 49.8808C117.884 50.1653 118.071 50.4072 118.329 50.5429L119.199 51.0001C120.021 51.4319 119.862 52.653 118.957 52.8602L117.999 53.0796C117.714 53.1447 117.473 53.3309 117.337 53.5892L116.88 54.4595C116.448 55.2813 115.227 55.1225 115.02 54.2176L114.8 53.2593C114.735 52.9748 114.549 52.733 114.291 52.5972L113.42 52.14C112.598 51.7083 112.757 50.4872 113.662 50.28L114.62 50.0606C114.905 49.9955 115.147 49.8093 115.283 49.5509L115.74 48.6806Z" fill="#32B597" fill-opacity="0.3"/>
<path d="M153.349 20.2966C153.781 19.4748 155.002 19.6336 155.209 20.5385L155.428 21.4968C155.493 21.7813 155.68 22.0231 155.938 22.1589L156.808 22.6161C157.63 23.0478 157.471 24.2689 156.566 24.4761L155.608 24.6955C155.324 24.7607 155.082 24.9468 154.946 25.2052L154.489 26.0755C154.057 26.8973 152.836 26.7384 152.629 25.8336L152.409 24.8753C152.344 24.5908 152.158 24.349 151.9 24.2132L151.029 23.756C150.208 23.3242 150.366 22.1031 151.271 21.896L152.23 21.6766C152.514 21.6114 152.756 21.4252 152.892 21.1669L153.349 20.2966Z" fill="#32B597" fill-opacity="0.3"/>
<path d="M84.8998 108.62C85.1149 108.211 85.7235 108.29 85.8268 108.741C85.8592 108.883 85.952 109.003 86.0808 109.071C86.4904 109.286 86.4112 109.895 85.9602 109.998C85.8184 110.03 85.6979 110.123 85.6303 110.252C85.4151 110.661 84.8065 110.582 84.7032 110.131C84.6708 109.989 84.578 109.869 84.4492 109.801C84.0397 109.586 84.1188 108.978 84.5698 108.874C84.7116 108.842 84.8321 108.749 84.8998 108.62Z" fill="#32B597" fill-opacity="0.3"/>
<path d="M142.291 65.3838C142.642 64.7161 143.634 64.8451 143.802 65.5804C143.855 65.8115 144.007 66.008 144.217 66.1183C144.884 66.4691 144.755 67.4613 144.02 67.6296C143.789 67.6825 143.592 67.8338 143.482 68.0437C143.131 68.7115 142.139 68.5824 141.971 67.8472C141.918 67.616 141.767 67.4195 141.557 67.3092C140.889 66.9584 141.018 65.9663 141.753 65.7979C141.984 65.745 142.181 65.5937 142.291 65.3838Z" fill="#32B597" fill-opacity="0.3"/>
<path d="M116.014 91.3656C116.337 90.4949 117.568 90.4949 117.89 91.3656L118.231 92.2875C118.333 92.5612 118.548 92.7771 118.822 92.8783L119.744 93.2195C120.615 93.5417 120.615 94.773 119.744 95.0952L118.822 95.4364C118.548 95.5376 118.333 95.7535 118.231 96.0272L117.89 96.9491C117.568 97.8198 116.337 97.8198 116.014 96.9491L115.673 96.0272C115.572 95.7535 115.356 95.5376 115.082 95.4364L114.16 95.0952C113.29 94.773 113.29 93.5417 114.16 93.2195L115.082 92.8783C115.356 92.7771 115.572 92.5612 115.673 92.2875L116.014 91.3656Z" fill="#32B597" fill-opacity="0.3"/>
<path d="M212.148 18.0346C211.716 17.2128 210.495 17.3717 210.288 18.2766L210.069 19.2348C210.003 19.5193 209.817 19.7612 209.559 19.8969L208.689 20.3541C207.867 20.7859 208.026 22.007 208.93 22.2142L209.889 22.4336C210.173 22.4987 210.415 22.6849 210.551 22.9432L211.008 23.8135C211.44 24.6353 212.661 24.4765 212.868 23.5716L213.087 22.6133C213.153 22.3288 213.339 22.087 213.597 21.9512L214.467 21.494C215.289 21.0623 215.13 19.8412 214.225 19.634L213.267 19.4146C212.983 19.3495 212.741 19.1633 212.605 18.9049L212.148 18.0346Z" fill="#32B597" fill-opacity="0.3"/>
<path d="M242.988 77.9743C242.773 77.5647 242.164 77.6438 242.061 78.0948C242.028 78.2366 241.936 78.3571 241.807 78.4248C241.397 78.64 241.476 79.2485 241.927 79.3518C242.069 79.3843 242.19 79.4771 242.257 79.6058C242.473 80.0154 243.081 79.9362 243.184 79.4853C243.217 79.3435 243.31 79.2229 243.438 79.1553C243.848 78.9401 243.769 78.3315 243.318 78.2283C243.176 78.1958 243.056 78.103 242.988 77.9743Z" fill="#32B597" fill-opacity="0.3"/>
<path d="M185.597 34.7378C185.246 34.0701 184.254 34.1991 184.085 34.9344C184.032 35.1655 183.881 35.362 183.671 35.4723C183.003 35.8231 183.132 36.8153 183.868 36.9836C184.099 37.0365 184.295 37.1878 184.406 37.3977C184.756 38.0655 185.749 37.9364 185.917 37.2012C185.97 36.97 186.121 36.7735 186.331 36.6632C186.999 36.3124 186.87 35.3203 186.135 35.1519C185.903 35.099 185.707 34.9477 185.597 34.7378Z" fill="#32B597" fill-opacity="0.3"/>
<path d="M211.873 60.7196C211.551 59.8489 210.32 59.8489 209.998 60.7196L209.656 61.6415C209.555 61.9152 209.339 62.1311 209.066 62.2323L208.144 62.5735C207.273 62.8957 207.273 64.127 208.144 64.4492L209.066 64.7904C209.339 64.8916 209.555 65.1075 209.656 65.3812L209.998 66.3031C210.32 67.1738 211.551 67.1738 211.873 66.3031L212.214 65.3812C212.316 65.1075 212.532 64.8916 212.805 64.7904L213.727 64.4492C214.598 64.127 214.598 62.8957 213.727 62.5735L212.805 62.2323C212.532 62.1311 212.316 61.9152 212.214 61.6415L211.873 60.7196Z" fill="#32B597" fill-opacity="0.3"/>
<defs>
<linearGradient id="paint0_linear_63_6256" x1="167.994" y1="141.801" x2="167.994" y2="47.8338" gradientUnits="userSpaceOnUse">
<stop stop-color="#75CBAC"/>
<stop offset="0.5028" stop-color="#EAFFFA"/>
<stop offset="1" stop-color="#ACF8D3"/>
</linearGradient>
<linearGradient id="paint1_linear_63_6256" x1="167.993" y1="171.309" x2="167.993" y2="66.0944" gradientUnits="userSpaceOnUse">
<stop stop-color="#0E9577"/>
<stop offset="1" stop-color="#60DEC0"/>
</linearGradient>
<clipPath id="clip0_63_6256">
<rect width="89.1203" height="89.1203" fill="white" transform="translate(104.982 109.39) rotate(-45)"/>
</clipPath>
</defs>
</svg>
