<svg width="21" height="20" viewBox="0 0 21 20" fill="none" xmlns="http://www.w3.org/2000/svg">
<path fill-rule="evenodd" clip-rule="evenodd" d="M20.6751 6.37915C20.9755 6.67955 20.9755 7.1666 20.6751 7.46701L14.5212 13.6209C14.2208 13.9213 13.7338 13.9213 13.4334 13.6209C13.133 13.3205 13.133 12.8334 13.4334 12.533L18.2741 7.69231L7.82347 7.69231C4.84963 7.69231 2.43885 10.1031 2.43885 13.0769L2.43885 19.2308C2.43885 19.6556 2.09445 20 1.66962 20C1.24479 20 0.900388 19.6556 0.900388 19.2308L0.900388 13.0769C0.900388 9.25341 3.99996 6.15385 7.82347 6.15385L18.2741 6.15385L13.4334 1.31316C13.133 1.01276 13.133 0.525705 13.4334 0.225302C13.7338 -0.0751012 14.2208 -0.0751011 14.5212 0.225302L20.6751 6.37915Z" fill="white"/>
</svg>
