<svg width="18" height="18" viewBox="0 0 18 18" fill="none" xmlns="http://www.w3.org/2000/svg">
<path d="M4.5 15.0655H6.45772C6.71297 15.0655 6.96666 15.0959 7.21411 15.1566L9.28267 15.6593C9.73151 15.7687 10.1991 15.7793 10.6526 15.6912L12.9397 15.2462C13.5439 15.1286 14.0997 14.8392 14.5353 14.4155L16.1534 12.8414C16.6155 12.3927 16.6155 11.6645 16.1534 11.215C15.7374 10.8102 15.0785 10.7647 14.6078 11.1079L12.7219 12.4838C12.4519 12.6812 12.1232 12.7875 11.7852 12.7875H9.96412L11.1233 12.7875C11.7767 12.7875 12.3059 12.2727 12.3059 11.6371V11.407C12.3059 10.8793 11.9367 10.4191 11.4106 10.2916L9.62145 9.85647C9.33029 9.78585 9.0321 9.75016 8.73235 9.75016C8.00875 9.75016 6.69892 10.3493 6.69892 10.3493L4.5 11.2688M1.5 10.9502L1.5 15.3002C1.5 15.7202 1.5 15.9302 1.58175 16.0907C1.65365 16.2318 1.76839 16.3465 1.90951 16.4184C2.06994 16.5002 2.27996 16.5002 2.7 16.5002H3.3C3.72004 16.5002 3.93006 16.5002 4.09049 16.4184C4.23161 16.3465 4.34635 16.2318 4.41825 16.0907C4.5 15.9302 4.5 15.7202 4.5 15.3002V10.9502C4.5 10.5301 4.5 10.3201 4.41825 10.1597C4.34635 10.0186 4.23161 9.90382 4.09049 9.83191C3.93006 9.75017 3.72004 9.75016 3.3 9.75016H2.7C2.27996 9.75016 2.06994 9.75016 1.90951 9.83191C1.76839 9.90381 1.65365 10.0186 1.58175 10.1597C1.5 10.3201 1.5 10.5301 1.5 10.9502ZM12.8935 2.69436C12.4459 1.75771 11.4139 1.2615 10.4103 1.74045C9.40671 2.21939 8.97915 3.3552 9.39934 4.35228C9.65903 4.96851 10.4031 6.16517 10.9336 6.98944C11.1296 7.294 11.2276 7.44628 11.3707 7.53536C11.4935 7.61177 11.6472 7.65296 11.7918 7.64818C11.9603 7.64261 12.1213 7.55973 12.4434 7.39399C13.3149 6.9454 14.5576 6.28108 15.0906 5.87726C15.9531 5.22385 16.1667 4.02285 15.521 3.10985C14.8753 2.19684 13.7495 2.10701 12.8935 2.69436Z" stroke="#5D646F" stroke-width="1.25" stroke-linecap="round" stroke-linejoin="round"/>
</svg>
