<svg width="834" height="497" viewBox="0 0 834 497" fill="none" xmlns="http://www.w3.org/2000/svg">
<mask id="mask0_90_14640" style="mask-type:alpha" maskUnits="userSpaceOnUse" x="0" y="-199" width="834" height="696">
<path d="M0 -199H834V476.958C834 488.003 825.046 496.958 814 496.958H20C8.95429 496.958 0 488.003 0 476.958V-199Z" fill="#D9D9D9"/>
</mask>
<g mask="url(#mask0_90_14640)">
<path fill-rule="evenodd" clip-rule="evenodd" d="M415.947 -34.9073C405.925 -7.85676 406.639 -22.7743 406.96 153.115L407.256 314.911L394.477 314.792C378.509 314.643 368.228 320.553 361.912 333.514C354.978 347.744 355.039 347.797 377.933 347.069C389.06 346.716 400.576 347.355 403.56 348.49C408.638 350.421 408.981 351.291 408.981 362.274V373.996L401.589 375.923C397.524 376.982 384.884 380.141 373.5 382.943C362.117 385.745 351.25 388.496 349.354 389.056C346.088 390.022 345.907 381.218 345.958 223.007L346.011 55.9394L351.704 62.7618L357.396 69.5822L359.773 64.4008C361.861 59.846 360.53 53.85 348.804 14.9876C341.464 -9.3391 334.841 -29.2422 334.086 -29.2422C333.331 -29.2422 330.713 -22.412 328.265 -14.0662L323.816 1.10984L324.12 198.132L324.421 395.156L314.96 396.31C309.754 396.942 297.291 398.056 287.264 398.785L269.031 400.108V239.879V79.6493L275.532 85.9076C282.992 93.0923 283.915 93.3665 285.632 88.9194C287.047 85.2556 260.847 -6.34307 259 -4.19101C258.345 -3.42926 254.906 5.34344 251.354 15.3028C245.07 32.9286 244.955 33.8059 247.108 48.183C248.608 58.205 249.32 116.444 249.32 229.32C249.32 411.713 250.193 399.84 237.398 391.275C227.947 384.946 223.772 376.555 220.389 357.081C215.676 329.946 211.47 324.961 196.689 328.989C181.696 333.073 171.728 342.996 162.766 362.756C156.219 377.19 150.763 399.599 150.763 412.057C150.763 420.607 150.472 421.006 137.559 430.161C130.297 435.309 111.447 451.928 95.6724 467.095C79.8975 482.259 63.8033 497.069 59.9064 500.006C52.9444 505.254 45.6177 506.726 40.9974 503.807C34.3803 499.628 32.4939 480.537 37.5183 468.591C41.8193 458.367 52.1244 442.423 57.4287 437.788C62.2855 433.545 71.9184 415.568 71.9184 410.749C71.9184 408.276 70.9486 408.139 66.1627 409.935C57.9628 413.009 54.1783 409.341 54.1783 398.319C54.1783 388.301 59.6462 376.577 72.2988 359.46C83.4337 344.398 84.366 342.815 82.1229 342.815C75.9671 342.815 53.7959 371.184 42.3318 393.729C34.0472 410.023 31.9538 429.389 37.7154 436.449C41.3955 440.96 41.3601 441.098 31.536 460.703C21.9681 479.797 21.6547 480.953 21.6725 497.29C21.6843 509.766 22.6068 515.838 25.2166 520.608C29.2436 527.969 39.1682 534.701 46.0119 534.711C49.69 534.717 50.3464 535.434 49.1677 538.146C32.5195 576.431 28.6956 599.05 36.0696 615.612C42.0066 628.947 49.6979 633.099 66.4978 632.036C73.8166 631.573 79.7714 631.736 79.7319 632.402C79.6945 633.065 78.3778 638.895 76.8068 645.357C72.3501 663.694 73.034 677.15 79.0302 689.105C88.188 707.362 103.127 713.085 123.227 706.04C127.869 704.413 131.921 703.335 132.235 703.645C132.546 703.956 131.886 708.151 130.768 712.968C129.649 717.785 129.107 728.522 129.562 736.828C130.246 749.267 131.417 753.575 136.205 761.269C144.361 774.377 152.697 779.494 165.894 779.494C185.004 779.494 195.638 772.278 239.762 729.368C261.247 708.472 279.594 691.375 280.528 691.375C281.465 691.375 283.828 694.898 285.783 699.204C290.526 709.649 306.908 724.715 320.28 730.928C350.61 745.018 382.457 742.668 418.373 723.687C433.616 715.631 434.946 715.247 433.671 719.275C430.842 728.201 430.16 758.51 432.549 769.111C437.008 788.909 452.594 799.837 469.802 795.236C480.018 792.502 493.177 782.21 502.784 769.436C507.131 763.66 515.894 752.028 522.261 743.592C550.434 706.245 572.793 702.468 602.46 730.038C607.745 734.947 612.408 738.61 612.824 738.178C614.356 736.592 623.833 712.163 623.833 709.803C623.833 708.462 616.958 702.554 608.557 696.674C573.767 672.323 565.543 656.867 576.043 635.566C580.06 627.414 590.415 616.963 594.471 616.963C596.519 616.963 602.267 623.564 609.093 633.759C619.646 649.514 630.949 660.253 639.973 663.098C651.857 666.844 667.817 656.636 676.409 639.794L681.425 629.96L685.109 634.722C687.134 637.34 688.813 640.072 688.837 640.791C688.86 641.511 691.868 643.936 695.519 646.176C710.399 655.313 728.025 648.612 739.319 629.527C741.298 626.182 741.974 626.476 747.988 633.281C756.574 642.994 763.505 646.336 775.062 646.336C782.729 646.336 785.964 645.193 791.793 640.421C801.232 632.69 808.981 616.172 810.394 600.765C811.409 589.715 810.769 586.729 803.594 568.987C799.237 558.217 792.926 543.36 789.569 535.972C785.205 526.367 784.312 522.88 786.437 523.733C788.071 524.391 790.738 525.463 792.364 526.117C798.979 528.776 795.039 515.403 782.323 492.03C775.174 478.891 769.036 468.14 768.687 468.14C768.336 468.14 765.651 475.293 762.72 484.035L757.392 499.932L762.624 521.374C768.261 544.481 777.265 567.854 789.841 592.012C798.613 608.864 798.203 611.895 786.942 613.536C772.026 615.712 762.711 608.755 751.808 587.299C748.605 580.997 745.664 575.841 745.27 575.841C744.876 575.841 742.583 581.069 740.179 587.459C734.013 603.837 724.011 615.005 715.512 615.005C705.617 615.005 698.383 604.83 690.477 579.789C689.945 578.103 685.994 583.69 681.065 593.105C660.449 632.472 639.827 638.605 622.323 610.578C618.274 604.098 612.229 595.701 608.888 591.918C603.848 586.214 601.924 585.264 597.59 586.345C588.475 588.616 578.779 599.151 570.567 615.706C560.931 635.131 556.387 654.903 558.053 670.185L559.263 681.306L551.319 683.43C539.179 686.677 521.423 700.882 505.526 720.06C486.655 742.832 472.321 757.601 465.755 761.038C460.892 763.583 460.003 763.446 455.308 759.418C448.131 753.264 444.762 733.623 447.831 715.825C449.761 704.626 451.237 701.757 459.912 692.325C476.62 674.164 485.679 650.245 486.446 622.268C486.795 609.528 486.225 606.949 481.49 599.841C475.502 590.845 457.137 577.088 440.026 568.78L428.692 563.275V521.658V480.04L436.084 478.154C440.15 477.119 445.178 475.983 447.262 475.632C450.869 475.023 467.941 450.197 468.059 445.384C468.091 444.176 463.457 442.576 457.766 441.828C452.075 441.08 443.176 439.564 437.99 438.462L428.562 436.457L429.12 415.582L429.677 394.708L450.374 389.597C461.757 386.785 474.369 383.983 478.398 383.366C485.423 382.293 485.776 382.51 486.937 388.653C487.601 392.176 487.187 422.211 486.014 455.396C484.843 488.582 483.883 519.124 483.883 523.267C483.883 527.411 483.083 530.803 482.105 530.803C475.175 530.803 474.024 491.758 479.941 457.37C484.626 430.145 484.49 432.893 481.147 432.893C475.279 432.893 466.226 482.149 466.212 514.158C466.204 536.771 469.51 553.081 475.916 562.018C479.588 567.141 480.243 570.082 479.476 578.013C478.4 589.137 480.662 589.797 486.84 580.159C489.008 576.775 492.767 571.116 495.192 567.581C504.334 554.254 509.634 540.523 518.394 507.455C526.229 477.888 539.516 442.408 541.852 444.82C542.278 445.261 540.892 459.72 538.773 476.952C534.407 512.454 535.034 529.234 541.198 541.884C545.767 551.262 554.7 559.102 563.221 561.215C568.569 562.541 568.642 562.77 568.642 578.175C568.642 589.756 569.278 593.6 571.105 593.052C573.321 592.388 580.157 580.417 585.396 568.028C586.654 565.055 590.342 562.394 595.575 560.685C606.436 557.136 620.437 542.17 625.102 529.119C627.081 523.583 629.2 519.053 629.813 519.053C630.424 519.053 632.098 522.359 633.531 526.397C639.941 544.473 653.688 554.18 672.981 554.258C694.204 554.344 708.932 541.878 716.547 517.387C723.592 494.729 720.974 470.96 708.388 443.322C698.32 421.212 698.176 420.707 702.597 423.059C704.689 424.171 706.945 425.957 707.612 427.028C710.062 430.968 712.534 428.806 712.534 422.724C712.534 418.431 707.811 408.58 697.486 391.328C689.209 377.501 682.19 366.435 681.887 366.741C681.583 367.044 679.519 374.339 677.3 382.949L673.267 398.607L683.905 438.757C689.757 460.842 696.875 486.242 699.725 495.2C705.465 513.245 705.158 514.551 693.912 519.852C684.382 524.344 670.878 523.89 664.442 518.859C651.184 508.501 644.386 484.564 642.807 442.684C642.176 425.99 640.728 406.774 639.584 399.981C637.069 385.019 631.82 371.303 629.494 373.614C628.562 374.54 625.317 382.749 622.28 391.857L616.761 408.415L619.38 436.809C622.692 472.732 621.748 495.718 616.469 507.569C611.754 518.16 599.636 530.803 594.201 530.803C590.367 530.803 590.324 528.218 590.324 304.304V77.8066L597.038 85.4749L603.751 93.1452L605.121 87.8189C606.093 84.0395 602.983 70.3948 594.406 40.8221C587.76 17.9033 581.604 -2.58332 580.729 -4.70601C579.495 -7.69618 577.618 -3.95211 572.383 11.9387L565.63 32.441L567.358 279.769C568.308 415.799 568.47 527.709 567.715 528.458C565.277 530.881 555.096 517.487 553.681 509.991C552.8 505.322 554.189 491.084 557.56 470.251C561.059 448.637 562.799 430.39 562.772 415.647L562.728 393.507L556.639 397.044C546.813 402.754 535.369 416.416 528.523 430.609C525.017 437.88 517.379 459.428 511.55 478.497C505.721 497.564 500.654 512.867 500.287 512.503C499.92 512.139 500.999 490.773 502.684 465.025C504.369 439.274 506.232 410.089 506.821 400.169L507.894 382.132L523.824 381.566L539.755 381L545.82 369.903C549.157 363.802 551.426 358.35 550.864 357.79C550.3 357.232 540.756 355.532 529.653 354.016C518.549 352.499 508.889 350.685 508.185 349.986C507.48 349.287 506.557 281.959 506.135 200.368L505.365 52.023L512.078 59.613L518.794 67.201L521.887 62.8146C523.588 60.4021 524.658 57.4276 524.266 56.2038C523.875 54.9819 520.465 43.8475 516.693 31.4619C512.918 19.0763 507.026 -0.196266 503.598 -11.3639C500.171 -22.5334 496.66 -30.9047 495.797 -29.9668C494.933 -29.0307 492.235 -22.2104 489.801 -14.8123L485.375 -1.35942L485.726 171.706C485.919 266.894 485.805 344.758 485.474 344.738C485.141 344.719 472.007 339.937 456.288 334.111L427.706 323.521L427.278 184.834L426.853 46.1484L433.689 53.9812C439.336 60.4511 440.863 61.3029 442.464 58.8767C443.528 57.2612 444.413 54.7664 444.431 53.3311C444.467 50.2391 419.219 -35.389 417.88 -36.7206C417.372 -37.2239 416.502 -36.4073 415.947 -34.9073ZM136.417 287.827C132.126 292.891 129.377 300.853 123.513 325.192L121.861 332.045L117.365 323.233C110.679 310.133 105.772 305.61 98.2546 305.61C90.4883 305.61 87.6874 309.714 87.6874 321.101C87.6874 327.418 88.6986 329.676 92.696 332.278C97.7953 335.598 97.9924 335.566 109.612 329.58C110.288 329.231 113.344 334.658 116.405 341.635C119.464 348.614 122.578 353.948 123.325 353.488C124.072 353.029 125.308 348.52 126.071 343.464C128.251 329.022 134.933 309.426 138.087 308.224C139.666 307.623 142.315 308.249 143.973 309.616C148.276 313.164 151.004 309.712 152.196 299.212C154.035 282.991 145.644 276.934 136.417 287.827ZM745.248 298.39C739.871 303.73 733.625 319.523 730.384 335.962C726.747 354.422 726.56 354.524 720.229 341.417C713.691 327.886 706.685 321.26 698.962 321.305C689.974 321.358 684.938 327.824 684.938 339.314C684.938 352.798 696.731 360.179 706.646 352.898L711.911 349.031L719.515 364.526C723.698 373.048 727.725 379.359 728.466 378.553C729.205 377.744 730.847 369.841 732.113 360.99C734.782 342.328 739.136 328.448 743.435 324.904C745.901 322.871 747.495 323.01 752.159 325.669C757.828 328.902 757.885 328.885 761.043 322.816C764.597 315.988 763.939 301.703 759.841 296.8C756.295 292.552 750.486 293.185 745.248 298.39ZM277.534 310.016C278.656 323.359 279.152 324.553 285.803 329.866C296.916 338.742 301.203 348.89 302.449 369.251C303.462 385.855 303.691 386.591 306.401 381.979C308.38 378.607 309.301 370.992 309.358 357.502C309.433 339.571 308.924 336.847 303.338 325.192C297.59 313.198 282.817 295.819 278.368 295.819C277.059 295.819 276.765 300.836 277.534 310.016ZM642.001 309.573C640.27 312.326 639.896 317.361 640.783 325.957C641.603 333.898 641.313 338.827 639.982 339.645C636.947 341.509 635.415 338.053 632.469 322.689C631.02 315.138 629.295 308.428 628.635 307.775C627.976 307.123 625.857 308.524 623.926 310.889C620.932 314.557 620.703 316.632 622.368 325C624.614 336.275 623.328 341.425 618.505 340.503C614.484 339.733 612.47 333.432 612.203 320.786C612.095 315.669 611.439 311.484 610.745 311.484C608.912 311.484 604.622 317.238 599.951 325.961C596.839 331.773 596.562 333.32 598.782 332.474C600.96 331.644 602.026 333.426 603.008 339.537C605.616 355.765 613.893 360.964 623.24 352.24C626.78 348.937 628.363 348.49 630.166 350.282C633.892 353.983 645.056 353.063 649.458 348.69C653.997 344.18 654.474 332.32 650.747 316.538C648.192 305.721 645.679 303.722 642.001 309.573ZM115.417 362.209C109.898 369.911 110.28 371.666 117.254 370.647C125.482 369.449 124.636 371.636 115.464 375.282C103.46 380.055 102.272 385.187 107.223 410.892C109.488 422.651 111.341 434.616 111.341 437.479C111.341 447.119 114.987 442.783 116.432 431.424C117.771 420.893 115.405 406.598 110.432 395.174C109.192 392.327 111.181 390.709 121.817 385.917C133.883 380.483 140.908 374.286 140.908 369.075C140.908 366.359 126.371 356.523 122.359 356.523C120.783 356.523 117.66 359.082 115.417 362.209ZM440.138 358.747C453.102 361.865 453.934 363.494 443.858 366.014C439.048 367.217 433.669 368.752 431.903 369.425C429.301 370.416 428.692 369.308 428.692 363.586C428.692 359.701 429.187 356.523 429.79 356.523C430.395 356.523 435.051 357.523 440.138 358.747ZM205.919 372.678C218.377 407.05 228.806 422.234 241.768 424.864L248.334 426.196L248.917 454.511C249.239 470.085 248.975 485.703 248.33 489.22C246.434 499.573 235.882 507.749 201.709 525.351C183.989 534.478 154.493 551.751 136.165 563.735C99.3032 587.835 74.1142 601.116 62.2678 602.694C45.9784 604.864 40.3035 590.036 47.2636 563.491C51.9233 545.716 58.7592 534.157 68.3191 527.881C73.0084 524.803 90.8215 508.559 107.901 491.785C138.696 461.541 153.215 450.563 162.46 450.532C170.256 450.507 182.65 457.554 198.439 470.991L213.244 483.59L216.372 466.564L219.502 449.537L213.22 444.101C209.767 441.111 198.733 432.456 188.7 424.866C178.667 417.276 169.576 409.426 168.496 407.422C161.26 393.991 173.551 370.422 192.157 362.045C199.344 358.81 201.496 360.473 205.919 372.678ZM408.981 416.503V433.402L399.618 432.199C394.467 431.538 379.832 430.408 367.094 429.687L343.933 428.379V422.878C343.933 418.188 345.023 417.078 351.325 415.349C355.392 414.233 369.361 410.305 382.37 406.619C395.38 402.936 406.688 399.85 407.502 399.762C408.316 399.676 408.981 407.209 408.981 416.503ZM750.095 408.985C746.11 412.942 744.072 416.916 744.072 420.724C744.072 426.405 744.243 426.495 756.994 427.512C764.102 428.079 770.532 429.152 771.281 429.899C773.398 432 766.375 436.267 749.557 443.097C737.963 447.806 734.924 449.774 737.248 451.067C742.138 453.787 753.823 450.912 769.755 443.073C781.068 437.508 786.191 433.56 791.862 426.039C795.922 420.654 799.247 415.537 799.253 414.67C799.273 411.478 780.423 404.939 768.448 403.984C756.73 403.05 755.818 403.298 750.095 408.985ZM324.222 426.942C324.222 429.805 322.088 431.353 315.845 433.022C301.966 436.731 296.538 440.5 292.572 449.177C290.508 453.696 288.809 461.815 288.785 467.284C288.738 478.307 289.956 479.866 310.424 494.958C316.387 499.356 323.286 504.87 325.758 507.214L330.248 511.477L318.5 524.215C312.039 531.22 302.38 543.499 297.038 551.503C288.086 564.914 285.679 567.037 266.34 578.575C254.797 585.462 232.056 600.661 215.803 612.352C163.144 650.227 148.116 660.167 130.067 669.059C93.6717 686.992 81.4172 682.259 84.3779 651.412C86.2642 631.775 88.5783 627.624 102.228 619.403C108.928 615.369 126.639 603.696 141.59 593.465C156.539 583.233 184.882 564.701 204.571 552.282C258.887 518.029 266.845 506.172 268.556 456.965L269.522 429.143L277.654 428.152C282.127 427.607 291.994 426.368 299.583 425.397C322.326 422.491 324.222 422.608 324.222 426.942ZM324.222 468.266V478.182L316.831 474.021C300.259 464.694 299.495 462.945 310.817 460.28C323.86 457.212 324.222 457.429 324.222 468.266ZM389.269 461.939L400.111 463.28L385.134 471.471C376.897 475.977 366.122 482.725 361.189 486.465C352.926 492.731 351.893 493.039 348.077 490.383C343.687 487.329 342.583 477.293 345.207 464.261L346.48 457.934L362.454 459.266C371.239 459.998 383.307 461.2 389.269 461.939ZM153.227 494.57C149.705 499.328 146.821 504.014 146.821 504.98C146.821 507.872 170.786 523.663 172.162 521.677C172.86 520.669 176.327 515.742 179.867 510.731L186.305 501.616L174.555 493.691C168.093 489.33 162.093 485.799 161.22 485.84C160.347 485.881 156.75 489.812 153.227 494.57ZM410.952 523.101C410.952 555.873 410.697 558.407 407.502 557.479C400.369 555.407 380.415 552.343 374.058 552.343C370.427 552.343 362.925 550.061 357.388 547.275L347.322 542.207L342.883 546.962C338.381 551.787 321.252 557.877 318.861 555.501C318.141 554.788 323.929 548.009 331.718 540.437L345.881 526.669L352.486 531.674C356.117 534.425 359.671 536.677 360.381 536.677C361.092 536.677 361.674 531.895 361.674 526.05C361.674 516.157 362.182 515.006 369.042 509.388C376.926 502.933 404.4 487.885 408.488 487.783C410.37 487.736 410.952 496.072 410.952 523.101ZM116.359 504.649C112.516 509.65 109.393 514.275 109.423 514.929C109.451 515.581 114.895 519.946 121.518 524.626L133.559 533.135L138.061 527.564C140.537 524.499 143.987 519.615 145.727 516.711L148.889 511.432L137.123 503.494C130.65 499.127 124.904 495.555 124.352 495.555C123.8 495.555 120.203 499.648 116.359 504.649ZM522.535 580.803C520.249 583.075 519.975 585.013 521.41 588.763C522.452 591.489 523.306 595.803 523.306 598.349C523.306 603.001 527.053 608.087 531.586 609.589C535.034 610.73 520.668 634.092 505.524 651.972L493.287 666.422L501.32 661.935C512.776 655.54 519.88 647.591 532.726 626.805C542.146 611.565 545.138 608.204 550.901 606.397C556.395 604.676 557.932 603.089 558.447 598.613C559.492 589.535 557.15 583.946 550.97 580.772C543.338 576.852 526.495 576.869 522.535 580.803ZM174.91 589.104C171.387 594.238 168.503 599.055 168.503 599.805C168.503 600.557 173.384 604.83 179.347 609.305C191.514 618.43 191.544 618.424 201.585 604.535L207.867 595.844L195.439 587.802C188.605 583.376 182.63 579.759 182.163 579.761C181.698 579.763 178.432 583.968 174.91 589.104ZM341.763 589.66C344.543 598.879 356.107 611.145 367.427 616.883C379.662 623.083 380.082 622.707 378.765 606.683C378.125 598.875 376.991 589.922 376.246 586.791L374.894 581.097L386.516 582.311C392.908 582.977 401.021 584.524 404.546 585.748L410.952 587.974V603.42V618.867L403.56 623.713C399.496 626.378 392.441 629.862 387.884 631.454C372.428 636.853 294.186 656.313 292.939 655.07C290.581 652.714 292.144 610.19 294.908 601.539L297.646 592.967L315.368 587.457C325.117 584.428 334.504 581.896 336.23 581.831C338.233 581.757 340.234 584.586 341.763 589.66ZM550.669 591.323C552.811 592.67 552.498 593.32 549.208 594.356C544.748 595.764 541.046 594.418 541.046 591.391C541.046 589.082 547.042 589.039 550.669 591.323ZM534.784 596.075C535.213 598.276 534.09 599.339 531.334 599.339C526.83 599.339 526.7 599.12 528.476 594.522C529.978 590.635 533.912 591.605 534.784 596.075ZM462.477 617.016C473.054 626.925 474.028 628.542 474.028 636.185C474.028 648.138 468.317 657.678 452.393 672.323C436.726 686.734 411.027 701.019 392.226 705.77C356.45 714.805 321.128 709.876 308.641 694.103C302.593 686.466 303.476 684.267 313.612 681.731C332.625 676.974 380.868 661.51 391.786 656.674C410.737 648.277 421.276 633.007 425.252 608.187L427.576 593.667L439.253 599.931C445.675 603.375 456.126 611.063 462.477 617.016ZM277.108 613.008C275.918 618.52 274.944 632.098 274.944 643.182C274.944 662.532 274.757 663.416 270.227 665.466C264.046 668.264 243.284 686.099 214.427 713.403C180.281 745.707 165.072 754.051 150.935 748.233C142.191 744.636 138.231 734.531 138.333 716.073C138.395 705.094 139.207 700.163 141.142 699.014C142.64 698.125 174.023 675.917 210.883 649.663C247.743 623.41 278.208 602.167 278.587 602.457C278.963 602.749 278.297 607.495 277.108 613.008ZM743.323 660.862C739.398 665.621 736.187 670.436 736.187 671.56C736.187 673.35 758.11 689.417 760.55 689.417C762.929 689.417 775.927 669.398 774.395 668.094C771.251 665.419 751.964 652.211 751.203 652.211C750.795 652.211 747.249 656.104 743.323 660.862ZM674.832 671.401C667.899 672.212 661.383 679.469 660.003 687.915L658.876 694.807L671.832 695.626C678.958 696.078 685.421 697.077 686.197 697.847C688.403 700.04 681.238 704.497 666.212 710.275C648.202 717.201 646.682 718.79 658.071 718.79C664.133 718.79 672.735 716.612 682.291 712.66C694.865 707.461 698.424 704.867 705.804 695.526C710.588 689.473 714.503 683.515 714.503 682.287C714.507 677.474 687.132 669.964 674.832 671.401ZM709.088 723.603C689.412 730.701 663.149 744.119 645.017 756.34C637.363 761.498 632.703 766.297 630.679 771.109C629.031 775.029 627.925 778.887 628.221 779.682C628.518 780.477 637.032 775.953 647.142 769.632C667.787 756.722 702.574 738.773 717.461 733.351C722.882 731.377 727.969 728.835 728.766 727.701C730.668 724.997 730.692 716.804 728.795 716.929C727.981 716.982 719.113 719.986 709.088 723.603ZM570.179 733.966C568.521 735.849 562.263 744.998 556.271 754.296C537.677 783.146 513.915 802.718 471.002 824.523C451.724 834.319 451.535 834.482 460.801 833.303C500.618 828.237 533.934 804.668 558.013 764.537C560.138 760.997 560.475 760.995 570.25 764.488C581.677 768.569 583.723 767.897 587.543 758.815C594.481 742.319 580.47 722.269 570.179 733.966ZM269.031 745.631C262.144 746.819 259.175 751.466 259.175 761.053V769.28L266.49 765.575C273.353 762.099 278.886 760.816 278.886 762.698C278.886 763.154 275.409 769.983 271.16 777.874C260.076 798.453 260.054 806.321 271.069 810.852C278.981 814.109 289.239 811.348 303.033 802.252C314.089 794.962 333.313 776.124 331.517 774.34C330.973 773.799 321.112 778.262 309.604 784.258C284.9 797.129 274.944 798.694 274.944 789.706C274.944 786.344 279.48 777.353 286.771 766.266C293.276 756.373 298.598 747.373 298.598 746.263C298.598 744.281 279.243 743.866 269.031 745.631ZM578.627 746.273C583.216 748.713 583.638 752.079 579.353 752.079C574.654 752.079 568.383 748.204 569.688 746.106C571.184 743.702 573.885 743.753 578.627 746.273ZM379.449 774.547C363.44 797.662 357.402 820.085 365.279 827.166C373.889 834.907 389.38 827.618 392.289 814.459C394.026 806.599 392.496 805.643 386.137 810.611C382.075 813.786 380.198 814.242 378.15 812.554C374.035 809.16 374.977 799.659 381.184 781.941C384.298 773.055 386.545 765.786 386.181 765.786C385.816 765.786 382.786 769.728 379.449 774.547Z" fill="white" fill-opacity="0.03"/>
<path fill-rule="evenodd" clip-rule="evenodd" d="M394.486 204.378C394.483 196.291 395.984 192.011 400.4 187.514C402.77 185.1 402.909 185.26 401.701 189.017C398.12 200.167 405.511 214.348 417.985 220.259C424.811 223.494 438.696 223.402 445.738 220.075L450.797 217.684L447.869 221.099C446.259 222.977 442.509 225.868 439.537 227.522C435.099 229.992 432.652 230.597 425.849 230.905L417.565 231.278V236.374C417.565 239.764 418.209 242.105 419.489 243.368C421.058 244.917 421.162 245.622 420.053 247.208C417.933 250.238 418.366 253.985 420.918 254.709C424.435 255.706 427.713 260.184 427.713 263.992C427.713 266.5 426.778 268.292 424.33 270.477C422.47 272.139 420.948 273.874 420.948 274.334C420.948 275.766 430.262 283.81 436.006 287.338C439.016 289.188 446.119 292.581 451.791 294.881C470.26 302.369 476.525 305.844 484.652 313.106C492.614 320.221 497.127 326.5 501.164 336.079C502.375 338.951 503.155 340.044 502.898 338.508C502.641 336.973 502.87 335.473 503.406 335.177C504.862 334.373 504.586 328.293 503.03 326.904C501.978 325.964 501.993 325.696 503.096 325.696C503.877 325.696 504.184 325.216 503.78 324.631C502.438 322.692 504.23 319.206 508.831 314.801L513.376 310.451L518.454 315.051C523.526 319.644 523.533 319.662 523.561 326.952C523.61 340.555 523.989 343.314 525.805 343.314C526.945 343.314 527.611 342.085 527.846 339.539C528.115 336.644 528.685 335.764 530.289 335.764C532.171 335.764 532.334 335.076 531.889 328.968C531.27 320.462 533.285 316.513 540.745 311.605C543.691 309.667 546.1 307.272 546.1 306.285C546.1 305.298 546.861 304.229 547.792 303.911C548.91 303.527 549.483 301.948 549.483 299.243C549.483 294.611 550.209 294.481 550.755 299.016C550.954 300.677 552.019 303.116 553.119 304.437C554.22 305.758 555.12 307.426 555.12 308.144C555.12 308.863 556.035 309.71 557.151 310.027C558.268 310.343 561.185 312.436 563.634 314.677L568.087 318.753L568.064 327.258C568.044 334.62 568.3 335.764 569.969 335.764C571.374 335.764 571.991 336.765 572.247 339.461C572.439 341.495 573.231 343.345 574.006 343.572C575.07 343.884 575.415 341.521 575.415 333.918C575.415 326.807 575.002 323.7 574.006 323.339C572.916 322.944 572.947 322.61 574.147 321.86C575.417 321.066 575.59 316.579 575.109 297.044L574.521 273.199L577.661 270.33L580.803 267.461L583.84 270.292L586.878 273.123L586.068 285.804C585.481 295.02 585.624 298.875 586.593 299.918C587.503 300.897 587.552 301.561 586.746 302.006C586.064 302.381 585.563 306.452 585.563 311.61C585.563 319.087 585.888 320.724 587.536 321.551C589.416 322.493 589.416 322.573 587.536 323.219C585.794 323.818 585.564 325.451 585.575 337.13C585.59 352.474 586.357 357.913 588.506 357.913C589.685 357.913 589.894 356.451 589.439 351.4C589.021 346.759 589.33 344.059 590.517 342.012C592.322 338.894 600.655 331.736 602.479 331.736C603.097 331.736 603.603 330.886 603.603 329.846C603.603 328.807 604.364 327.392 605.294 326.702C606.224 326.013 607.022 324.032 607.064 322.301C607.131 319.684 607.298 319.492 608.051 321.165C608.55 322.273 608.75 323.502 608.494 323.898C608.239 324.292 609.083 325.555 610.368 326.702C611.653 327.85 612.426 329.193 612.084 329.687C611.742 330.18 613.775 332.067 616.6 333.878C624.146 338.716 626.444 342.576 625.974 349.623C625.597 355.279 625.647 355.389 628.408 355.039C636.496 354.016 640.738 354.481 643.359 356.68C648.715 361.173 648.917 360.455 648.303 339.036L647.733 319.152L650.614 316.179L653.496 313.208L656.639 316.351L659.784 319.493L659.215 341.219C658.902 353.17 659.073 362.947 659.594 362.947C660.116 362.946 662.665 360.745 665.259 358.055C670.018 353.12 676.415 349.74 683.64 348.341C685.801 347.923 688.166 346.853 688.893 345.964C690.108 344.48 690.387 344.481 692.292 345.969C693.433 346.86 696.143 347.878 698.313 348.23C706.985 349.635 715.633 355.7 721.448 364.454C722.469 365.99 723.128 365.723 727.368 362.049C730.532 359.306 732.183 356.984 732.271 355.145L732.405 352.376L733.227 354.893C735.084 360.578 735.828 361.668 738.989 363.335C740.809 364.295 743.068 366.412 744.012 368.041C744.954 369.669 746.121 371.001 746.604 371.001C747.086 371.001 749.827 369.673 752.695 368.049C757.041 365.588 758.089 364.374 758.996 360.75C759.729 357.821 760.128 357.224 760.221 358.92C760.551 365.043 761.482 365.946 772.208 370.542C784.523 375.82 788.513 379.401 788.513 385.174C788.513 387.346 789.054 389.123 789.716 389.123C790.473 389.123 790.835 386.599 790.69 382.327C790.432 374.677 792.59 368.797 796.31 367.019C797.603 366.402 798.661 365.231 798.661 364.419C798.661 363.581 800.37 364.63 802.607 366.841C804.777 368.987 806.553 371.479 806.553 372.381C806.553 373.284 807.002 374.021 807.551 374.021C808.1 374.021 808.284 376.966 807.96 380.566C807.637 384.165 807.822 387.108 808.372 387.105C810.396 387.096 817.643 380.038 819.739 376.035C820.941 373.741 821.065 373.703 821.134 375.619C821.177 376.775 823.747 380.046 826.848 382.888C832.063 387.669 833.115 389.747 832.677 394.409C832.571 395.546 833.308 396.171 834.754 396.171C836.946 396.171 836.996 396.908 836.996 429.395V439.234H871.255V594.044C871.255 605.09 862.301 614.044 851.255 614.044H-17.2539C-28.2996 614.044 -37.2539 605.09 -37.2539 594.044V439.234H-2.99256V429.969V397.318L-0.455681 396.996C1.4171 396.759 1.99325 396.103 1.74408 394.493C1.2164 391.072 4.49517 385.218 7.66007 383.93C9.24308 383.286 10.5375 382.301 10.5375 381.742C10.5375 381.182 11.3842 379.888 12.4193 378.867C14.2402 377.071 14.3608 377.089 16.0836 379.42C18.1165 382.169 27.1467 389.123 28.6846 389.123C29.2461 389.123 29.705 386.831 29.705 384.03C29.705 381.229 29.316 379.151 28.8413 379.414C28.3655 379.676 27.3981 378.797 26.6923 377.46C25.9853 376.123 25.867 375.028 26.4285 375.028C26.99 375.028 27.45 374.398 27.45 373.627C27.45 372.857 29.0803 370.465 31.0726 368.315L34.6953 364.404L38.4014 367.912C40.4399 369.841 42.1075 372.232 42.1075 373.224C42.1075 374.217 42.4874 375.027 42.9531 375.026C43.4188 375.024 43.6319 378.422 43.4278 382.577C43.1166 388.914 43.3421 390.13 44.8293 390.13C46.1778 390.13 46.5589 389.158 46.4224 386.063C46.1789 380.494 49.1183 377.232 57.9444 373.28C68.9341 368.36 73.6775 365.628 73.6775 364.219C73.6775 362.475 75.5469 362.613 76.3215 364.414C77.0916 366.205 85.39 371.001 87.7194 371.001C88.6462 371.001 90.1762 369.669 91.1188 368.041C92.0625 366.412 94.3221 364.295 96.1418 363.335C97.9605 362.376 99.6912 360.763 99.9877 359.751C100.676 357.403 103.044 357.367 103.725 359.694C104.182 361.254 110.547 365.967 112.195 365.967C112.53 365.967 114.306 363.815 116.144 361.185C120.967 354.279 132.14 348.025 139.897 347.889C141.679 347.858 142.639 347.041 143.188 345.084L143.964 342.323L144.948 344.96C145.691 346.949 146.91 347.737 149.924 348.173C156.441 349.118 163.243 352.61 169.341 358.142L175.074 363.341L175.084 350.811C175.091 343.92 175.376 337.012 175.72 335.463C176.064 333.912 176.004 332.152 175.588 331.551C175.172 330.95 174.85 327.994 174.873 324.983C174.906 320.7 175.493 318.921 177.57 316.813C179.031 315.331 180.32 313.959 180.435 313.764C180.549 313.569 182.096 314.737 183.87 316.359L187.098 319.307L186.733 338.61C186.532 349.226 186.682 357.913 187.066 357.913C187.449 357.913 189.054 357.007 190.63 355.899C194.065 353.486 201.889 353.197 205.098 355.364C206.301 356.177 207.612 356.857 208.009 356.874C208.407 356.892 208.498 354.075 208.213 350.614C207.768 345.221 208.071 343.821 210.334 340.823C211.786 338.899 215.089 335.954 217.673 334.279C220.256 332.603 222.401 330.496 222.439 329.594C222.477 328.693 223.269 327.392 224.199 326.702C225.129 326.013 225.971 324.032 226.071 322.301L226.251 319.152L226.7 322.349C226.947 324.107 227.88 326.088 228.774 326.751C229.668 327.413 230.4 328.541 230.4 329.257C230.4 329.972 232.879 332.183 235.91 334.17C243.295 339.01 245.403 343.148 244.644 351.323C244.017 358.088 244.342 359.102 246.859 358.239C248.979 357.512 249.191 324.755 247.087 322.877C246.035 321.937 246.066 321.669 247.226 321.669C248.438 321.669 248.609 317.125 248.138 297.439C247.562 273.347 247.572 273.196 250.102 270.759C253.284 267.693 253.756 267.706 257.116 270.942C259.813 273.541 259.839 273.747 259.053 286.648C258.404 297.314 258.547 299.886 259.832 300.612C260.957 301.248 261.004 301.507 259.997 301.518C258.964 301.529 258.588 304.226 258.588 311.601C258.588 318.76 258.979 321.669 259.941 321.669C260.993 321.669 260.993 321.937 259.941 322.877C259.072 323.652 258.588 327.62 258.588 333.951C258.588 342.05 258.891 343.818 260.279 343.818C261.5 343.818 261.97 342.699 261.97 339.791C261.97 336.454 262.351 335.764 264.194 335.764C266.235 335.764 266.396 335.13 266.168 327.961C265.95 321.161 266.255 319.758 268.538 317.041C269.979 315.328 273.136 312.836 275.553 311.504C277.972 310.173 279.963 308.347 279.98 307.445C279.997 306.544 280.771 305.243 281.701 304.553C282.632 303.863 283.474 301.883 283.573 300.151L283.753 297.002L284.213 300.332C284.466 302.163 285.4 303.911 286.288 304.215C287.175 304.52 287.903 305.584 287.903 306.58C287.903 307.599 290.35 309.962 293.493 311.977C301.337 317.009 303.002 320.299 302.055 328.885C301.339 335.379 301.426 335.764 303.619 335.764C305.585 335.764 305.943 336.395 305.943 339.861C305.943 343.534 306.205 343.925 308.48 343.637C310.933 343.326 311.024 342.918 311.257 331.305L311.496 319.298L316.661 314.751C321.361 310.612 321.88 310.391 322.435 312.288C322.771 313.434 324.238 314.941 325.694 315.638C328.707 317.077 331.329 321.884 330.347 324.167C329.987 325.008 330.055 325.696 330.501 325.695C330.947 325.695 331.131 328.013 330.912 330.848C330.61 334.744 330.869 335.895 331.978 335.565C332.784 335.326 333.802 333.932 334.241 332.469C335.624 327.849 342.306 318.342 347.31 313.874C354.004 307.897 366.872 300.605 378.772 296.047C394.192 290.139 404.358 283.944 409.87 277.096L412.117 274.304L408.64 270.768C402.96 264.991 404.376 258.205 411.997 254.686C414.309 253.618 415.31 252.402 415.31 250.664C415.31 249.294 414.803 248.173 414.183 248.173C412.425 248.173 412.859 243.532 414.747 242.132C415.851 241.314 416.438 239.072 416.438 235.667C416.438 230.593 416.33 230.42 412.362 229.14C407.024 227.416 399.977 221.658 396.926 216.528C395.016 213.317 394.49 210.691 394.486 204.378ZM251.336 280.709C252.201 282.725 256.333 281.634 256.333 279.389C256.333 278.414 255.607 277.079 254.72 276.421C253.433 275.467 252.866 275.63 251.905 277.232C251.244 278.335 250.988 279.9 251.336 280.709ZM581.053 282.404C582.675 282.404 583.308 281.732 583.308 280.01C583.308 277.511 580.823 274.89 579.54 276.036C579.132 276.4 578.798 277.982 578.798 279.552C578.798 281.732 579.329 282.404 581.053 282.404ZM140.901 332.303C144.809 330.784 148.093 327.206 148.093 324.464C148.093 323.481 148.346 322.675 148.656 322.675C148.966 322.675 149.22 324.243 149.22 326.16C149.22 330.528 145.624 333.765 140.833 333.711L137.381 333.671L140.901 332.303ZM323.983 328.414C323.983 326.587 323.374 324.548 322.63 323.883C321.886 323.219 320.889 322.675 320.414 322.675C319.031 322.675 317.218 326.349 317.218 329.153C317.218 331.352 317.721 331.736 320.6 331.736C323.675 331.736 323.983 331.434 323.983 328.414ZM507.202 331.736C508.419 331.736 508.893 330.624 508.893 327.769C508.893 323.588 507.347 321.587 506.193 324.274C504.858 327.381 505.446 331.736 507.202 331.736ZM516.785 328.414C516.785 326.587 516.177 324.548 515.432 323.883C514.688 323.219 513.775 322.675 513.403 322.675C511.635 322.675 510.02 325.415 510.02 328.414C510.02 331.434 510.328 331.736 513.403 331.736C516.478 331.736 516.785 331.434 516.785 328.414ZM519.604 331.736C520.764 331.736 521.29 330.708 521.278 328.464C521.259 324.907 519.907 322.236 518.682 323.332C518.259 323.709 517.913 325.754 517.913 327.877C517.913 330.636 518.395 331.736 519.604 331.736ZM693.662 334.085C689.178 334.085 684.783 329.905 684.783 325.639C684.783 324.009 685.29 322.675 685.911 322.675C686.531 322.675 687.038 323.556 687.038 324.632C687.038 328.004 691.893 332.072 695.917 332.072C698.316 332.072 699.14 332.408 698.389 333.078C697.768 333.632 695.641 334.085 693.662 334.085ZM314.963 331.736C315.583 331.736 316.09 329.924 316.09 327.709C316.09 325.494 315.583 323.682 314.963 323.682C314.343 323.682 313.835 325.494 313.835 327.709C313.835 329.924 314.343 331.736 314.963 331.736ZM327.365 331.736C327.985 331.736 328.493 329.924 328.493 327.709C328.493 325.494 327.985 323.682 327.365 323.682C326.745 323.682 326.238 325.494 326.238 327.709C326.238 329.924 326.745 331.736 327.365 331.736ZM179.513 328.985C181.221 330.51 183.607 328.453 182.666 326.266C182.293 325.399 181.45 324.689 180.79 324.689C178.964 324.689 178.069 327.696 179.513 328.985ZM653.213 328.716C654.453 328.716 655.468 328.064 655.468 327.265C655.468 325.514 654.275 324.801 652.367 325.412C650.093 326.141 650.752 328.716 653.213 328.716ZM38.725 385.533C38.725 383.559 38.1996 381.067 37.558 379.996C36.3911 378.05 34.1293 377.454 32.712 378.72C32.2982 379.089 31.96 381.58 31.96 384.257C31.96 388.992 32.0502 389.123 35.3425 389.123C38.4679 389.123 38.725 388.851 38.725 385.533ZM803.171 385.533C803.171 383.559 802.645 381.067 802.004 379.996C800.837 378.05 798.575 377.454 797.158 378.72C796.744 379.089 796.406 381.58 796.406 384.257C796.406 388.992 796.496 389.123 799.788 389.123C802.914 389.123 803.171 388.851 803.171 385.533ZM40.98 389.123C41.6001 389.123 42.1075 386.858 42.1075 384.089C42.1075 378.985 41.9496 378.526 40.6045 379.727C39.4037 380.799 39.7364 389.123 40.98 389.123ZM793.023 389.123C793.643 389.123 794.151 386.858 794.151 384.089C794.151 378.985 793.993 378.526 792.648 379.727C791.447 380.799 791.779 389.123 793.023 389.123ZM805.426 389.123C806.046 389.123 806.553 386.858 806.553 384.089C806.553 378.985 806.395 378.526 805.05 379.727C803.849 380.799 804.182 389.123 805.426 389.123Z" fill="#22836C"/>
</g>
</svg>
