<svg width="360" height="301" fill="none" xmlns="http://www.w3.org/2000/svg">
    <mask id="a" style="mask-type:alpha" x="0" y="0" width="360" height="360">
        <path d="M0 0h360v280.433c0 11.045-8.954 20-20 20H20c-11.046 0-20-8.955-20-20V0z"
            fill="#FFF" />
    </mask>
    <g mask="url(#a)" fill-rule="evenodd" clip-rule="evenodd">
        <path
            d="M179.526-10.016c-5.027 13.57-4.669 6.086-4.508 94.315l.149 81.16-6.41-.06c-8.009-.075-13.166 2.89-16.334 9.392-3.478 7.138-3.448 7.164 8.036 6.799 5.581-.177 11.357.143 12.854.713 2.547.968 2.719 1.405 2.719 6.914v5.88l-3.708.966c-2.038.532-8.379 2.116-14.089 3.522-5.709 1.406-11.16 2.786-12.111 3.067-1.638.484-1.729-3.933-1.703-83.294l.026-83.804 2.856 3.423 2.855 3.42 1.192-2.598c1.047-2.285.38-5.293-5.502-24.787-3.682-12.202-7.004-22.186-7.382-22.186-.379 0-1.692 3.426-2.92 7.612l-2.231 7.613.152 98.83.151 98.83-4.746.579c-2.611.317-8.862.876-13.892 1.241l-9.145.664V47.448l3.261 3.139c3.742 3.604 4.205 3.741 5.066 1.51.71-1.837-12.432-47.785-13.358-46.705-.329.382-2.054 4.783-3.835 9.778-3.152 8.842-3.21 9.282-2.13 16.494.752 5.027 1.11 34.24 1.11 90.861 0 91.491.437 85.536-5.98 81.239-4.741-3.174-6.835-7.383-8.532-17.152-2.364-13.611-4.474-16.112-11.888-14.091-7.52 2.049-12.52 7.026-17.015 16.938-3.283 7.24-6.02 18.481-6.02 24.73 0 4.289-.146 4.489-6.623 9.081-3.643 2.583-13.097 10.919-21.01 18.527-7.912 7.606-15.985 15.035-17.94 16.509-3.492 2.632-7.166 3.371-9.484 1.906-3.319-2.096-4.265-11.672-1.745-17.665 2.157-5.128 7.326-13.126 9.987-15.451 2.436-2.128 7.268-11.146 7.268-13.563 0-1.241-.487-1.309-2.887-.409-4.113 1.543-6.012-.297-6.012-5.826 0-5.026 2.743-10.906 9.09-19.492 5.584-7.556 6.052-8.35 4.927-8.35-3.088 0-14.208 14.23-19.959 25.539-4.155 8.174-5.205 17.888-2.315 21.429 1.846 2.263 1.828 2.332-3.1 12.167-4.799 9.578-4.956 10.157-4.947 18.352.006 6.258.469 9.304 1.778 11.697 2.02 3.692 6.998 7.069 10.43 7.074 1.845.003 2.174.363 1.583 1.723-8.35 19.205-10.268 30.551-6.57 38.859 2.978 6.689 6.836 8.771 15.263 8.238 3.67-.232 6.657-.15 6.638.184-.02.333-.68 3.257-1.468 6.498-2.235 9.198-1.892 15.948 1.116 21.945 4.593 9.158 12.086 12.029 22.168 8.495 2.328-.816 4.361-1.357 4.518-1.202.157.157-.175 2.261-.735 4.677-.562 2.416-.834 7.802-.605 11.969.343 6.239.93 8.4 3.331 12.26 4.092 6.575 8.273 9.142 14.892 9.142 9.585 0 14.92-3.62 37.051-25.145 10.777-10.481 19.979-19.057 20.448-19.057.47 0 1.655 1.767 2.636 3.927 2.379 5.239 10.596 12.797 17.303 15.913 15.213 7.068 31.187 5.889 49.202-3.632 7.645-4.041 8.313-4.234 7.673-2.213-1.419 4.477-1.761 19.681-.563 24.999 2.237 9.93 10.054 15.412 18.686 13.104 5.124-1.371 11.724-6.534 16.543-12.941 2.18-2.898 6.576-8.733 9.77-12.964 14.131-18.734 25.345-20.629 40.226-6.8 2.651 2.463 4.99 4.301 5.199 4.084.768-.796 5.521-13.05 5.521-14.233 0-.673-3.448-3.637-7.662-6.586-17.45-12.215-21.575-19.968-16.308-30.653 2.015-4.089 7.208-9.332 9.243-9.332 1.027 0 3.91 3.312 7.334 8.425 5.294 7.904 10.963 13.29 15.489 14.718 5.961 1.879 13.966-3.242 18.276-11.69l2.516-4.933 1.848 2.389c1.015 1.313 1.858 2.683 1.869 3.044.012.361 1.521 1.577 3.352 2.701 7.464 4.583 16.304 1.222 21.97-8.351.992-1.678 1.331-1.531 4.348 1.883 4.307 4.872 7.783 6.548 13.579 6.548 3.846 0 5.469-.573 8.392-2.967 4.735-3.878 8.622-12.163 9.331-19.892.509-5.543.187-7.041-3.411-15.94-2.185-5.402-5.351-12.855-7.035-16.561-2.189-4.818-2.637-6.567-1.571-6.139l2.973 1.195c3.318 1.334 1.342-5.374-5.036-17.098-3.586-6.591-6.665-11.984-6.84-11.984-.176 0-1.523 3.589-2.993 7.973l-2.672 7.974 2.624 10.756c2.827 11.591 7.344 23.315 13.652 35.433 4.399 8.454 4.194 9.974-1.455 10.798-7.481 1.091-12.154-2.399-17.622-13.162-1.607-3.161-3.082-5.747-3.28-5.747-.197 0-1.347 2.623-2.553 5.828-3.093 8.215-8.11 13.817-12.373 13.817-4.963 0-8.591-5.104-12.557-17.665-.267-.846-2.248 1.957-4.721 6.68-10.341 19.747-20.684 22.823-29.464 8.764-2.031-3.25-5.063-7.462-6.739-9.36-2.528-2.861-3.493-3.337-5.667-2.795-4.572 1.139-9.435 6.424-13.554 14.728-4.833 9.744-7.112 19.662-6.277 27.328l.607 5.578-3.984 1.066c-6.09 1.628-14.996 8.753-22.969 18.374-9.466 11.423-16.656 18.831-19.949 20.555-2.439 1.277-2.885 1.208-5.24-.813-3.6-3.087-5.29-12.939-3.75-21.867.968-5.617 1.708-7.056 6.059-11.788 8.38-9.11 12.925-21.108 13.309-35.142.175-6.39-.111-7.684-2.485-11.249-3.004-4.513-12.216-11.413-20.798-15.581l-5.685-2.761v-41.752l3.707-.946c2.04-.52 4.562-1.09 5.607-1.266 1.809-.305 10.372-12.758 10.432-15.173.015-.606-2.309-1.408-5.163-1.783-2.855-.376-7.318-1.136-9.92-1.689l-4.729-1.006.28-10.471.28-10.471 10.381-2.563c5.71-1.411 12.035-2.817 14.056-3.126 3.524-.538 3.701-.429 4.283 2.652.333 1.767.126 16.833-.462 33.48-.588 16.646-1.069 31.967-1.069 34.045 0 2.078-.402 3.78-.892 3.78-3.476 0-4.054-19.586-1.086-36.835 2.351-13.657 2.282-12.278.606-12.278-2.944 0-7.485 24.707-7.492 40.764-.004 11.343 1.654 19.524 4.868 24.007 1.841 2.57 2.17 4.045 1.785 8.023-.54 5.581.595 5.912 3.694 1.077a289.693 289.693 0 0 1 4.189-6.309c4.585-6.686 7.244-13.573 11.638-30.161 3.93-14.831 10.594-32.629 11.766-31.418.214.221-.481 7.474-1.544 16.117-2.19 17.809-1.876 26.226 1.216 32.571 2.292 4.705 6.772 8.637 11.046 9.697 2.683.665 2.719.78 2.719 8.508 0 5.809.32 7.737 1.236 7.462 1.111-.333 4.54-6.338 7.168-12.552.631-1.491 2.481-2.826 5.106-3.684 5.447-1.78 12.47-9.287 14.81-15.834.993-2.777 2.056-5.049 2.363-5.049.307 0 1.146 1.658 1.865 3.684 3.215 9.067 10.11 13.936 19.787 13.975 10.646.044 18.033-6.21 21.852-18.495 3.534-11.366 2.221-23.288-4.092-37.152-5.05-11.091-5.122-11.344-2.905-10.164 1.049.558 2.181 1.453 2.516 1.991 1.229 1.976 2.468.892 2.468-2.159 0-2.154-2.369-7.095-7.547-15.749-4.152-6.936-7.672-12.487-7.825-12.333-.152.152-1.187 3.811-2.3 8.13l-2.023 7.854 5.336 20.14c2.935 11.078 6.505 23.819 7.935 28.313 2.879 9.052 2.725 9.707-2.916 12.366-4.78 2.253-11.554 2.025-14.782-.498-6.65-5.196-10.059-17.203-10.851-38.211-.317-8.374-1.043-18.013-1.617-21.42-1.261-7.506-3.894-14.386-5.061-13.227-.468.465-2.095 4.583-3.619 9.151l-2.768 8.306 1.314 14.243c1.661 18.02 1.187 29.55-1.46 35.494-2.365 5.313-8.444 11.655-11.169 11.655-1.923 0-1.945-1.297-1.945-113.616V46.523l3.367 3.847 3.368 3.847.687-2.671c.487-1.896-1.073-8.74-5.375-23.575-3.333-11.496-6.421-21.773-6.86-22.837-.619-1.5-1.56.378-4.186 8.349l-3.387 10.284.867 124.064c.476 68.235.557 124.371.179 124.747-1.223 1.215-6.33-5.504-7.04-9.264-.442-2.341.255-9.483 1.946-19.934 1.755-10.842 2.628-19.995 2.614-27.39l-.022-11.106-3.054 1.774c-4.928 2.864-10.669 9.718-14.102 16.837-1.759 3.647-5.59 14.456-8.514 24.022-2.924 9.564-5.465 17.24-5.649 17.058-.184-.183.357-10.901 1.202-23.816.845-12.917 1.78-27.557 2.075-32.533l.538-9.048 7.991-.284 7.99-.284 3.042-5.566c1.674-3.061 2.812-5.795 2.53-6.076-.282-.28-5.07-1.133-10.639-1.893-5.569-.761-10.415-1.671-10.768-2.022-.354-.35-.816-34.124-1.028-75.051l-.386-74.412 3.367 3.807 3.368 3.806 1.552-2.2c.853-1.21 1.39-2.702 1.193-3.316-.196-.613-1.906-6.198-3.799-12.41-1.893-6.214-4.848-15.881-6.567-21.483-1.72-5.603-3.481-9.802-3.914-9.332-.433.47-1.786 3.891-3.007 7.602l-2.22 6.748.176 86.813c.097 47.748.04 86.806-.126 86.796-.167-.01-6.755-2.409-14.64-5.331l-14.336-5.312-.214-69.568-.214-69.567 3.429 3.93c2.833 3.245 3.599 3.672 4.402 2.455.533-.81.977-2.062.986-2.782.018-1.551-12.646-44.504-13.317-45.171-.255-.253-.691.157-.97.91zM39.318 151.873c-2.152 2.54-3.531 6.534-6.473 18.743l-.828 3.438-2.255-4.42c-3.354-6.572-5.815-8.841-9.586-8.841-3.895 0-5.3 2.059-5.3 7.771 0 3.169.507 4.301 2.512 5.607 2.558 1.665 2.657 1.649 8.485-1.354.34-.175 1.872 2.547 3.407 6.047 1.535 3.501 3.097 6.176 3.471 5.946.375-.23.995-2.492 1.378-5.029 1.093-7.244 4.445-17.073 6.027-17.676.792-.302 2.12.012 2.952.698 2.158 1.78 3.527.048 4.125-5.219.922-8.137-3.287-11.175-7.915-5.711zm305.381 5.299c-2.698 2.678-5.831 10.6-7.456 18.846-1.824 9.26-1.918 9.311-5.094 2.737-3.279-6.787-6.793-10.111-10.667-10.089-4.508.027-7.034 3.27-7.034 9.034 0 6.764 5.915 10.466 10.888 6.814l2.641-1.94 3.814 7.773c2.098 4.275 4.118 7.44 4.49 7.036.371-.406 1.194-4.37 1.829-8.81 1.339-9.361 3.523-16.324 5.679-18.101 1.237-1.02 2.037-.95 4.376.384 2.843 1.621 2.872 1.612 4.456-1.432 1.782-3.425 1.452-10.59-.603-13.05-1.779-2.13-4.693-1.813-7.319.798zM110.1 163.003c.563 6.694.812 7.293 4.148 9.958 5.574 4.452 7.724 9.542 8.349 19.756.508 8.329.623 8.698 1.983 6.385.992-1.692 1.454-5.512 1.483-12.279.037-8.994-.218-10.361-3.02-16.207-2.883-6.016-10.293-14.734-12.524-14.734-.657 0-.804 2.516-.419 7.121zm182.811-.222c-.868 1.381-1.056 3.907-.611 8.219.411 3.983.266 6.455-.401 6.866-1.523.935-2.291-.799-3.769-8.505-.727-3.788-1.592-7.154-1.923-7.481-.33-.327-1.393.375-2.362 1.561-1.502 1.84-1.617 2.881-.781 7.079 1.126 5.656.481 8.239-1.938 7.776-2.017-.386-3.027-3.547-3.161-9.89-.054-2.567-.383-4.666-.731-4.666-.92 0-3.071 2.886-5.414 7.262-1.562 2.915-1.7 3.691-.587 3.267 1.093-.417 1.628.477 2.12 3.543 1.308 8.14 5.46 10.748 10.148 6.372 1.776-1.657 2.569-1.881 3.474-.982 1.869 1.856 7.469 1.394 9.676-.799 2.277-2.262 2.517-8.212.647-16.128-1.281-5.426-2.542-6.429-4.387-3.494zM28.785 189.185c-2.768 3.863-2.577 4.743.921 4.232 4.127-.601 3.703.496-.897 2.325-6.021 2.394-6.618 4.969-4.134 17.863 1.136 5.898 2.065 11.9 2.065 13.336 0 4.836 1.83 2.661 2.554-3.037.671-5.283-.515-12.453-3.01-18.184-.621-1.428.376-2.239 5.711-4.643 6.052-2.726 9.576-5.835 9.576-8.449 0-1.362-7.292-6.296-9.304-6.296-.79 0-2.357 1.284-3.482 2.853zm162.875-1.737c6.503 1.564 6.92 2.381 1.866 3.645-2.413.603-5.111 1.373-5.997 1.711-1.305.497-1.61-.059-1.61-2.929 0-1.949.248-3.543.55-3.543.304 0 2.639.502 5.191 1.116zm-117.48 6.988c6.248 17.242 11.479 24.858 17.98 26.177l3.294.668.293 14.204c.16 7.812.028 15.646-.295 17.41-.951 5.194-6.244 9.295-23.385 18.124-8.888 4.579-23.682 13.243-32.875 19.255-18.49 12.088-31.124 18.75-37.066 19.542-8.17 1.088-11.017-6.35-7.526-19.665 2.337-8.916 5.766-14.715 10.561-17.863 2.352-1.544 11.287-9.692 19.854-18.106 15.446-15.171 22.729-20.678 27.366-20.693 3.91-.013 10.127 3.522 18.046 10.262l7.426 6.32 1.57-8.54 1.57-8.541-3.151-2.727c-1.733-1.5-7.267-5.842-12.3-9.649-5.032-3.807-9.592-7.745-10.134-8.75-3.63-6.737 2.536-18.56 11.868-22.762 3.605-1.623 4.685-.789 6.903 5.334zm101.852 21.983v8.477l-4.696-.603c-2.584-.332-9.925-.899-16.314-1.26l-11.617-.657v-2.759c0-2.352.547-2.909 3.708-3.777 2.039-.559 9.046-2.53 15.572-4.379 6.525-1.847 12.197-3.395 12.605-3.439.409-.044.742 3.735.742 8.397zm171.098-3.771c-1.999 1.985-3.022 3.978-3.022 5.889 0 2.849.086 2.894 6.482 3.404 3.565.285 6.79.823 7.166 1.198 1.062 1.054-2.461 3.194-10.896 6.62-5.816 2.362-7.34 3.35-6.175 3.998 2.453 1.364 8.314-.078 16.306-4.01 5.674-2.791 8.244-4.772 11.088-8.544 2.037-2.702 3.705-5.268 3.708-5.703.009-1.602-9.445-4.881-15.452-5.361-5.877-.468-6.335-.343-9.205 2.509zm-213.612 9.007c0 1.436-1.07 2.213-4.202 3.05-6.961 1.861-9.684 3.752-11.673 8.104-1.035 2.267-1.887 6.34-1.899 9.083-.024 5.529.587 6.311 10.854 13.881 2.99 2.207 6.451 4.973 7.69 6.148l2.253 2.139-5.893 6.389c-3.241 3.514-8.085 9.674-10.765 13.688-4.49 6.728-5.697 7.793-15.397 13.58-5.79 3.455-17.197 11.079-25.35 16.943-26.412 18.999-33.95 23.985-43.003 28.446-18.255 8.995-24.402 6.621-22.917-8.853.946-9.85 2.107-11.932 8.954-16.056 3.36-2.023 12.243-7.878 19.743-13.011 7.498-5.132 21.714-14.428 31.59-20.658 27.244-17.182 31.236-23.129 32.094-47.812l.484-13.956 4.08-.498c2.243-.273 7.192-.894 10.999-1.382 11.407-1.457 12.358-1.398 12.358.775zm0 20.729v4.974l-3.707-2.087c-8.312-4.679-8.696-5.556-3.017-6.892 6.542-1.54 6.724-1.431 6.724 4.005zm32.627-3.174 5.438.673-7.512 4.109c-4.132 2.26-9.536 5.645-12.011 7.521-4.144 3.144-4.663 3.298-6.577 1.966-2.201-1.532-2.755-6.567-1.439-13.104l.639-3.173 8.012.668c4.406.367 10.459.97 13.45 1.34zM47.75 255.579c-1.767 2.387-3.213 4.737-3.213 5.222 0 1.45 12.02 9.371 12.71 8.375.35-.505 2.09-2.977 3.865-5.49l3.229-4.573-5.894-3.975c-3.24-2.188-6.25-3.959-6.688-3.938-.438.021-2.242 1.992-4.01 4.379zm129.27 14.312c0 16.439-.127 17.71-1.73 17.244-3.578-1.039-13.586-2.576-16.775-2.576-1.821 0-5.584-1.145-8.361-2.542l-5.049-2.543-2.227 2.385c-2.258 2.421-10.85 5.476-12.049 4.284-.361-.357 2.542-3.758 6.449-7.556l7.104-6.907 3.313 2.511c1.821 1.38 3.604 2.51 3.96 2.51.357 0 .648-2.399.648-5.331 0-4.963.255-5.54 3.696-8.358 3.955-3.238 17.735-10.787 19.786-10.838.944-.023 1.235 4.158 1.235 17.717zm-147.763-9.256c-1.928 2.508-3.494 4.828-3.479 5.157.014.327 2.745 2.516 6.067 4.864l6.04 4.268 2.258-2.795c1.242-1.537 2.972-3.987 3.845-5.444l1.586-2.648-5.902-3.982c-3.247-2.19-6.129-3.982-6.405-3.982-.277 0-2.082 2.053-4.01 4.562zm203.732 38.2c-1.147 1.139-1.284 2.112-.565 3.993.523 1.367.952 3.531.952 4.808 0 2.334 1.879 4.885 4.153 5.638 1.729.573-5.476 12.291-13.072 21.26l-6.138 7.249 4.029-2.251c5.746-3.208 9.309-7.195 15.752-17.622 4.725-7.645 6.226-9.33 9.117-10.237 2.756-.863 3.527-1.659 3.785-3.904.524-4.554-.651-7.358-3.75-8.95-3.828-1.966-12.277-1.957-14.263.016zm-174.364 4.164c-1.766 2.575-3.213 4.992-3.213 5.368 0 .377 2.448 2.52 5.439 4.765 6.103 4.577 6.118 4.574 11.154-2.393l3.151-4.359-6.234-4.034c-3.427-2.22-6.424-4.035-6.658-4.034-.234.001-1.872 2.11-3.639 4.687zm83.692.279c1.394 4.624 7.194 10.777 12.872 13.655 6.137 3.11 6.348 2.921 5.687-5.116-.321-3.917-.89-8.408-1.263-9.978l-.679-2.857 5.83.609c3.206.334 7.275 1.11 9.043 1.724l3.213 1.117v15.496l-3.707 2.431c-2.039 1.337-5.577 3.085-7.863 3.883-7.752 2.708-46.997 12.47-47.623 11.846-1.183-1.181-.399-22.512.988-26.852l1.373-4.299 8.889-2.764c4.89-1.52 9.598-2.79 10.464-2.822 1.005-.038 2.008 1.382 2.776 3.927zm104.783.834c1.075.676.918 1.002-.732 1.521-2.238.706-4.094.032-4.094-1.487 0-1.158 3.007-1.18 4.826-.034zm-7.967 2.384c.215 1.104-.348 1.637-1.731 1.637-2.259 0-2.324-.11-1.433-2.416.753-1.95 2.727-1.464 3.164.779zM202.865 317c5.305 4.97 5.793 5.782 5.793 9.615 0 5.996-2.864 10.782-10.851 18.128-7.858 7.229-20.749 14.394-30.179 16.777-17.945 4.532-35.662 2.06-41.925-5.852-3.034-3.831-2.591-4.934 2.493-6.206 9.537-2.386 33.735-10.143 39.211-12.569 9.506-4.212 14.792-11.872 16.786-24.322l1.166-7.283 5.857 3.142c3.221 1.728 8.463 5.584 11.649 8.57zm-92.978-2.011c-.597 2.765-1.086 9.576-1.086 15.136 0 9.707-.094 10.15-2.366 11.178-3.1 1.404-13.514 10.35-27.989 24.046-17.127 16.205-24.755 20.39-31.846 17.472-4.386-1.805-6.372-6.873-6.32-16.132.03-5.508.437-7.981 1.408-8.558.752-.446 16.492-11.585 34.98-24.755 18.49-13.169 33.77-23.825 33.96-23.679.189.146-.145 2.527-.741 5.292zm233.846 24.005c-1.969 2.387-3.579 4.802-3.579 5.366 0 .898 10.996 8.957 12.22 8.957 1.193 0 7.712-10.041 6.944-10.696-1.577-1.341-11.251-7.967-11.633-7.967-.204 0-1.983 1.953-3.952 4.34zm-34.354 5.286c-3.477.407-6.746 4.047-7.438 8.284l-.566 3.457 6.499.411c3.574.227 6.816.728 7.205 1.114 1.107 1.1-2.487 3.336-10.024 6.234-9.033 3.475-9.796 4.271-4.083 4.271 3.04 0 7.355-1.092 12.148-3.074 6.307-2.608 8.092-3.91 11.794-8.595 2.4-3.036 4.363-6.025 4.363-6.641.002-2.415-13.729-6.182-19.898-5.461zm17.182 26.186c-9.869 3.56-23.042 10.291-32.137 16.421-3.839 2.588-6.176 4.995-7.192 7.408-.826 1.967-1.381 3.902-1.233 4.301.15.399 4.42-1.87 9.491-5.041 10.355-6.476 27.804-15.48 35.271-18.2 2.719-.99 5.271-2.265 5.67-2.833.954-1.357.966-5.467.015-5.404-.408.027-4.856 1.533-9.885 3.348zm-69.675 5.198c-.831.945-3.97 5.534-6.976 10.198-9.326 14.471-21.245 24.289-42.769 35.227-9.67 4.914-9.764 4.996-5.117 4.404 19.972-2.541 36.683-14.363 48.76-34.494 1.066-1.776 1.235-1.777 6.138-.025 5.731 2.047 6.758 1.711 8.674-2.845 3.48-8.275-3.548-18.332-8.71-12.465zm-151.051 5.851c-3.454.596-4.943 2.927-4.943 7.737v4.126l3.669-1.858c3.442-1.744 6.218-2.387 6.218-1.443 0 .228-1.745 3.654-3.876 7.612-5.56 10.323-5.57 14.27-.046 16.543 3.969 1.633 9.114.248 16.033-4.315 5.545-3.657 15.188-13.106 14.287-14.001-.272-.271-5.219 1.968-10.991 4.975-12.391 6.457-17.385 7.242-17.385 2.733 0-1.686 2.275-6.196 5.932-11.758 3.263-4.962 5.932-9.477 5.932-10.034 0-.994-9.708-1.202-14.83-.317zm155.289.322c2.302 1.224 2.513 2.913.364 2.913-2.357 0-5.502-1.944-4.848-2.996.751-1.206 2.105-1.181 4.484.083zm-99.905 14.183c-8.03 11.595-11.058 22.843-7.107 26.395 4.318 3.883 12.088.227 13.548-6.374.871-3.943.103-4.422-3.086-1.93-2.038 1.592-2.979 1.821-4.006.974-2.065-1.702-1.592-6.468 1.521-15.356 1.562-4.457 2.69-8.103 2.507-8.103-.183 0-1.703 1.977-3.377 4.394z"
            fill="#fff" fill-opacity=".03" />
        <path
            d="M170.282 123.587c-.002-3.491.646-5.338 2.552-7.28 1.023-1.042 1.083-.973.562.649-1.546 4.814 1.645 10.935 7.029 13.487 2.946 1.396 8.94 1.357 11.98-.08l2.184-1.032-1.264 1.475c-.695.81-2.314 2.058-3.597 2.772-1.916 1.067-2.972 1.328-5.909 1.46l-3.575.162v2.2c0 1.463.278 2.473.83 3.018.678.669.722.974.243 1.658-.915 1.308-.728 2.926.374 3.238 1.518.431 2.933 2.364 2.933 4.007 0 1.083-.403 1.857-1.46 2.8-.803.717-1.46 1.467-1.46 1.665 0 .618 4.02 4.091 6.5 5.614 1.299.798 4.365 2.263 6.813 3.256 7.973 3.232 10.677 4.732 14.185 7.867 3.437 3.072 5.385 5.782 7.127 9.917.523 1.24.86 1.712.749 1.049-.111-.663-.012-1.31.22-1.438.628-.347.509-2.972-.163-3.571-.454-.406-.448-.522.029-.522.336 0 .469-.207.295-.459-.58-.837.194-2.343 2.18-4.244l1.962-1.878 2.192 1.986c2.189 1.983 2.192 1.99 2.204 5.137.022 5.872.185 7.064.969 7.064.492 0 .779-.531.881-1.63.116-1.25.362-1.63 1.055-1.63.812 0 .882-.297.69-2.934-.267-3.671.603-5.376 3.823-7.495 1.271-.836 2.312-1.87 2.312-2.296 0-.426.328-.888.73-1.025.482-.166.73-.848.73-2.015 0-2 .313-2.056.549-.098.086.717.545 1.77 1.02 2.34.475.57.864 1.291.864 1.6 0 .311.395.676.877.813.482.137 1.741 1.04 2.798 2.008l1.922 1.759-.01 3.672c-.008 3.177.102 3.671.822 3.671.607 0 .873.433.984 1.596.083.878.425 1.677.759 1.775.46.135.609-.885.609-4.168 0-3.069-.179-4.41-.609-4.566-.47-.171-.457-.315.061-.639.548-.342.623-2.279.415-10.712l-.253-10.294 1.355-1.238 1.356-1.239 1.311 1.222 1.311 1.222-.349 5.474c-.254 3.979-.192 5.643.227 6.093.392.423.413.709.065.902-.294.162-.51 1.919-.51 4.145 0 3.228.14 3.935.851 4.292.812.406.812.441 0 .72-.751.258-.851.963-.846 6.005.006 6.624.337 8.972 1.265 8.972.509 0 .599-.631.403-2.812-.181-2.003-.047-3.169.465-4.053.779-1.346 4.376-4.435 5.164-4.435.266 0 .485-.368.485-.817 0-.448.328-1.059.73-1.356.401-.298.745-1.153.764-1.901.029-1.129.101-1.212.426-.49.215.478.302 1.009.191 1.18-.11.17.254.715.809 1.211.555.495.888 1.075.741 1.288-.148.213.73 1.027 1.949 1.809 3.257 2.089 4.249 3.755 4.046 6.797-.162 2.442-.141 2.489 1.051 2.338 3.491-.442 5.322-.241 6.454.708 2.312 1.94 2.399 1.63 2.134-7.616l-.246-8.584 1.243-1.283 1.244-1.283 1.357 1.357 1.358 1.356-.246 9.379c-.135 5.159-.061 9.38.163 9.38.226-.001 1.326-.951 2.446-2.112 2.054-2.131 4.815-3.59 7.934-4.193.933-.181 1.954-.643 2.268-1.026.524-.641.644-.641 1.467.002.492.384 1.662.824 2.599.975 3.743.607 7.476 3.225 9.986 7.004.441.663.725.548 2.555-1.038 1.367-1.184 2.079-2.187 2.117-2.98l.058-1.196.355 1.087c.801 2.454 1.123 2.925 2.487 3.644.785.415 1.761 1.329 2.168 2.032.407.703.911 1.278 1.119 1.278.208 0 1.391-.574 2.629-1.275 1.876-1.062 2.328-1.586 2.72-3.151.316-1.264.489-1.522.529-.79.142 2.644.544 3.033 5.174 5.017 5.316 2.279 7.038 3.825 7.038 6.317 0 .937.234 1.705.519 1.705.327 0 .483-1.09.421-2.934-.112-3.303.82-5.841 2.426-6.608.558-.267 1.014-.772 1.014-1.123 0-.362.738.091 1.704 1.046.937.926 1.703 2.002 1.703 2.391 0 .39.194.708.431.708s.316 1.272.177 2.825c-.14 1.554-.06 2.824.177 2.823.874-.004 4.002-3.05 4.907-4.778.519-.991.572-1.007.602-.18.019.499 1.128 1.911 2.467 3.138 2.251 2.064 2.705 2.961 2.516 4.973-.046.491.272.761.896.761.946 0 .968.318.968 14.342v4.247h14.788v55.463c0 11.046-8.954 20-20 20H3.919c-11.046 0-20-8.954-20-20V224.97h14.789v-18.094l1.095-.139c.808-.102 1.057-.385.95-1.08-.228-1.477 1.187-4.004 2.553-4.56.684-.278 1.242-.703 1.242-.945s.366-.8.813-1.241c.786-.775.838-.767 1.581.239.878 1.187 4.776 4.189 5.44 4.189.242 0 .44-.99.44-2.199 0-1.209-.168-2.106-.373-1.993-.205.113-.623-.266-.927-.843-.306-.578-.357-1.05-.114-1.05.242 0 .44-.272.44-.605 0-.332.704-1.365 1.564-2.293l1.564-1.688 1.6 1.514c.88.833 1.6 1.865 1.6 2.293 0 .429.164.779.365.778.2-.001.293 1.466.205 3.26-.135 2.735-.037 3.26.605 3.26.582 0 .746-.42.687-1.756-.105-2.403 1.164-3.812 4.974-5.517 4.744-2.124 6.791-3.304 6.791-3.912 0-.753.807-.694 1.141.084.333.773 3.915 2.844 4.92 2.844.4 0 1.06-.575 1.468-1.278.407-.703 1.382-1.617 2.168-2.032.785-.414 1.532-1.11 1.66-1.547.297-1.013 1.32-1.029 1.613-.025.197.674 2.945 2.708 3.656 2.708.145 0 .911-.929 1.705-2.064 2.082-2.981 6.904-5.681 10.253-5.739.77-.014 1.184-.367 1.42-1.211l.335-1.192.425 1.138c.321.859.847 1.199 2.148 1.387 2.813.408 5.75 1.915 8.382 4.304l2.474 2.244.005-5.409c.002-2.975.126-5.957.274-6.626.148-.669.123-1.429-.057-1.688-.18-.26-.318-1.536-.309-2.836.015-1.849.268-2.617 1.165-3.527.63-.639 1.187-1.232 1.236-1.316.05-.084.717.42 1.483 1.12l1.394 1.273-.158 8.333c-.087 4.583-.022 8.333.144 8.333.165 0 .858-.392 1.538-.87 1.483-1.041 4.86-1.166 6.245-.231.52.351 1.085.645 1.257.652.172.008.211-1.208.088-2.702-.192-2.328-.061-2.933.915-4.227.627-.83 2.053-2.102 3.168-2.825 1.115-.723 2.041-1.633 2.057-2.022.017-.389.359-.951.76-1.248.402-.298.765-1.153.808-1.901l.078-1.359.194 1.38c.106.759.51 1.614.895 1.9.386.286.702.773.702 1.082 0 .309 1.07 1.264 2.379 2.121 3.187 2.09 4.097 3.876 3.769 7.405-.27 2.92-.13 3.358.957 2.985.915-.313 1.006-14.454.098-15.265-.454-.405-.441-.521.06-.521.523 0 .597-1.962.394-10.46-.249-10.4-.245-10.465.847-11.517 1.374-1.324 1.578-1.318 3.028.079 1.164 1.122 1.176 1.211.836 6.78-.28 4.604-.218 5.714.337 6.028.485.274.505.386.071.391-.446.005-.609 1.169-.609 4.352 0 3.091.169 4.347.584 4.347.454 0 .454.116 0 .521-.374.335-.584 2.048-.584 4.781 0 3.496.131 4.259.73 4.259.527 0 .73-.483.73-1.738 0-1.441.165-1.739.96-1.739.882 0 .951-.273.852-3.368-.094-2.936.038-3.541 1.023-4.714.622-.74 1.985-1.815 3.029-2.39 1.044-.575 1.903-1.363 1.91-1.753.008-.389.342-.95.744-1.248.401-.298.765-1.152.807-1.9l.078-1.359.199 1.437c.109.79.512 1.545.895 1.676.383.132.697.591.697 1.021 0 .44 1.057 1.46 2.413 2.33 3.386 2.172 4.105 3.592 3.696 7.299-.309 2.803-.271 2.969.675 2.969.849 0 1.003.273 1.003 1.769 0 1.585.114 1.754 1.095 1.63 1.059-.135 1.099-.311 1.199-5.323l.103-5.184 2.23-1.963c2.029-1.786 2.253-1.882 2.492-1.063.145.495.778 1.145 1.407 1.446 1.301.621 2.433 2.697 2.009 3.682-.156.363-.126.66.066.66.193 0 .272 1 .178 2.224-.131 1.682-.019 2.179.46 2.036.348-.103.787-.704.976-1.336.597-1.994 3.482-6.098 5.642-8.027 2.889-2.581 8.444-5.728 13.581-7.696 6.656-2.55 11.044-5.224 13.423-8.181l.97-1.205-1.501-1.526c-2.452-2.494-1.841-5.424 1.449-6.943.998-.461 1.43-.985 1.43-1.736 0-.591-.219-1.075-.486-1.075-.759 0-.572-2.004.243-2.608.477-.353.73-1.321.73-2.791 0-2.19-.047-2.265-1.759-2.818-2.304-.744-5.346-3.229-6.663-5.444-.825-1.386-1.052-2.519-1.053-5.245zm-61.792 32.951c.374.87 2.157.399 2.157-.57 0-.421-.313-.997-.696-1.281-.556-.412-.801-.341-1.215.35-.285.476-.396 1.152-.246 1.501zm142.324.732c.7 0 .973-.29.973-1.034 0-1.079-1.072-2.21-1.626-1.715-.176.157-.32.84-.32 1.517 0 .942.229 1.232.973 1.232zM60.821 178.81c1.686-.655 3.104-2.2 3.104-3.384 0-.424.11-.772.243-.772.134 0 .243.677.243 1.504 0 1.886-1.552 3.283-3.62 3.26l-1.49-.017 1.52-.591zm79.027-1.679c0-.788-.262-1.668-.584-1.955-.321-.287-.751-.522-.956-.522-.597 0-1.38 1.586-1.38 2.796 0 .95.217 1.116 1.46 1.116 1.328 0 1.46-.131 1.46-1.435zm79.088 1.435c.525 0 .73-.481.73-1.713 0-1.805-.667-2.669-1.166-1.509-.576 1.342-.322 3.222.436 3.222zm4.137-1.435c0-.788-.263-1.668-.584-1.955-.322-.287-.716-.522-.876-.522-.764 0-1.461 1.183-1.461 2.477 0 1.304.133 1.435 1.461 1.435 1.327 0 1.46-.131 1.46-1.435zm1.216 1.435c.501 0 .728-.444.723-1.413-.008-1.535-.592-2.688-1.121-2.215-.182.162-.332 1.045-.332 1.962 0 1.191.209 1.666.73 1.666zm75.133 1.014c-1.935 0-3.832-1.805-3.832-3.646 0-.704.219-1.28.486-1.28.268 0 .487.38.487.845 0 1.456 2.096 3.211 3.833 3.211 1.035 0 1.391.146 1.066.435-.267.239-1.186.435-2.04.435zm-163.467-1.014c.268 0 .487-.783.487-1.739 0-.956-.219-1.738-.487-1.738s-.487.782-.487 1.738.219 1.739.487 1.739zm5.353 0c.268 0 .487-.783.487-1.739 0-.956-.219-1.738-.487-1.738-.267 0-.486.782-.486 1.738s.219 1.739.486 1.739zm-63.82-1.188c.737.658 1.766-.23 1.36-1.174-.16-.374-.525-.681-.81-.681-.788 0-1.174 1.299-.55 1.855zm204.474-.116c.536 0 .974-.282.974-.626 0-.756-.515-1.064-1.339-.801-.981.315-.697 1.427.365 1.427zM16.716 201.789c0-.853-.227-1.928-.504-2.391-.504-.84-1.48-1.097-2.092-.55-.179.159-.325 1.234-.325 2.39 0 2.044.04 2.101 1.46 2.101 1.35 0 1.46-.118 1.46-1.55zm329.976 0c0-.853-.227-1.928-.504-2.391-.503-.84-1.48-1.097-2.091-.55-.179.159-.325 1.234-.325 2.39 0 2.044.039 2.101 1.46 2.101 1.349 0 1.46-.118 1.46-1.55zm-329.003 1.55c.268 0 .487-.978.487-2.173 0-2.204-.068-2.402-.65-1.884-.517.463-.374 4.057.163 4.057zm324.623 0c.268 0 .487-.978.487-2.173 0-2.204-.069-2.402-.649-1.884-.518.463-.375 4.057.162 4.057zm5.353 0c.268 0 .487-.978.487-2.173 0-2.204-.068-2.402-.649-1.884-.518.463-.374 4.057.162 4.057z"
            fill="#22836C" />
    </g>
</svg>