<svg width="834" height="696" viewBox="0 0 834 696" fill="none" xmlns="http://www.w3.org/2000/svg">
<mask id="mask0_771_6273" style="mask-type:alpha" maskUnits="userSpaceOnUse" x="0" y="0" width="834" height="696">
<path d="M0 0H834V675.958C834 687.003 825.046 695.958 814 695.958H20C8.95429 695.958 0 687.003 0 675.958V0Z" fill="#D9D9D9"/>
</mask>
<g mask="url(#mask0_771_6273)">
<path fill-rule="evenodd" clip-rule="evenodd" d="M415.947 164.093C405.925 191.143 406.639 176.226 406.96 352.115L407.256 513.911L394.477 513.792C378.509 513.643 368.228 519.553 361.912 532.514C354.978 546.744 355.039 546.797 377.933 546.069C389.06 545.716 400.576 546.355 403.56 547.49C408.638 549.421 408.981 550.291 408.981 561.274V572.996L401.589 574.923C397.524 575.982 384.884 579.141 373.5 581.943C362.117 584.745 351.25 587.496 349.354 588.056C346.088 589.022 345.907 580.218 345.958 422.007L346.011 254.939L351.704 261.762L357.396 268.582L359.773 263.401C361.861 258.846 360.53 252.85 348.804 213.988C341.464 189.661 334.841 169.758 334.086 169.758C333.331 169.758 330.713 176.588 328.265 184.934L323.816 200.11L324.12 397.132L324.421 594.156L314.96 595.31C309.754 595.942 297.291 597.056 287.264 597.785L269.031 599.108V438.879V278.649L275.532 284.908C282.992 292.092 283.915 292.366 285.632 287.919C287.047 284.256 260.847 192.657 259 194.809C258.345 195.571 254.906 204.343 251.354 214.303C245.07 231.929 244.955 232.806 247.108 247.183C248.608 257.205 249.32 315.444 249.32 428.32C249.32 610.713 250.193 598.84 237.398 590.275C227.947 583.946 223.772 575.555 220.389 556.081C215.676 528.946 211.47 523.961 196.689 527.989C181.696 532.073 171.728 541.996 162.766 561.756C156.219 576.19 150.763 598.599 150.763 611.057C150.763 619.607 150.472 620.006 137.559 629.161C130.297 634.309 111.447 650.928 95.6724 666.095C79.8975 681.259 63.8033 696.069 59.9064 699.006C52.9444 704.254 45.6177 705.726 40.9974 702.807C34.3803 698.628 32.4939 679.537 37.5183 667.591C41.8193 657.367 52.1244 641.423 57.4287 636.788C62.2855 632.545 71.9184 614.568 71.9184 609.749C71.9184 607.276 70.9486 607.139 66.1627 608.935C57.9628 612.009 54.1783 608.341 54.1783 597.319C54.1783 587.301 59.6462 575.577 72.2988 558.46C83.4337 543.398 84.366 541.815 82.1229 541.815C75.9671 541.815 53.7959 570.184 42.3318 592.729C34.0472 609.023 31.9538 628.389 37.7154 635.449C41.3955 639.96 41.3601 640.098 31.536 659.703C21.9681 678.797 21.6547 679.953 21.6725 696.29C21.6843 708.766 22.6068 714.838 25.2166 719.608C29.2436 726.969 39.1682 733.701 46.0119 733.711C49.69 733.717 50.3464 734.434 49.1677 737.146C32.5195 775.431 28.6956 798.05 36.0696 814.612C42.0066 827.947 49.6979 832.099 66.4978 831.036C73.8166 830.573 79.7714 830.736 79.7319 831.402C79.6945 832.065 78.3778 837.895 76.8068 844.357C72.3501 862.694 73.034 876.15 79.0302 888.105C88.188 906.362 103.127 912.085 123.227 905.04C127.869 903.413 131.921 902.335 132.235 902.645C132.546 902.956 131.886 907.151 130.768 911.968C129.649 916.785 129.107 927.522 129.562 935.828C130.246 948.267 131.417 952.575 136.205 960.269C144.361 973.377 152.697 978.494 165.894 978.494C185.004 978.494 195.638 971.278 239.762 928.368C261.247 907.472 279.594 890.375 280.528 890.375C281.465 890.375 283.828 893.898 285.783 898.204C290.526 908.649 306.908 923.715 320.28 929.928C350.61 944.018 382.457 941.668 418.373 922.687C433.616 914.631 434.946 914.247 433.671 918.275C430.842 927.201 430.16 957.51 432.549 968.111C437.008 987.909 452.594 998.837 469.802 994.236C480.018 991.502 493.177 981.21 502.784 968.436C507.131 962.66 515.894 951.028 522.261 942.592C550.434 905.245 572.793 901.468 602.46 929.038C607.745 933.947 612.408 937.61 612.824 937.178C614.356 935.592 623.833 911.163 623.833 908.803C623.833 907.462 616.958 901.554 608.557 895.674C573.767 871.323 565.543 855.867 576.043 834.566C580.06 826.414 590.415 815.963 594.471 815.963C596.519 815.963 602.267 822.564 609.093 832.759C619.646 848.514 630.949 859.253 639.973 862.098C651.857 865.844 667.817 855.636 676.409 838.794L681.425 828.96L685.109 833.722C687.134 836.34 688.813 839.072 688.837 839.791C688.86 840.511 691.868 842.936 695.519 845.176C710.399 854.313 728.025 847.612 739.319 828.527C741.298 825.182 741.974 825.476 747.988 832.281C756.574 841.994 763.505 845.336 775.062 845.336C782.729 845.336 785.964 844.193 791.793 839.421C801.232 831.69 808.981 815.172 810.394 799.765C811.409 788.715 810.769 785.729 803.594 767.987C799.237 757.217 792.926 742.36 789.569 734.972C785.205 725.367 784.312 721.88 786.437 722.733C788.071 723.391 790.738 724.463 792.364 725.117C798.979 727.776 795.039 714.403 782.323 691.03C775.174 677.891 769.036 667.14 768.687 667.14C768.336 667.14 765.651 674.293 762.72 683.035L757.392 698.932L762.624 720.374C768.261 743.481 777.265 766.854 789.841 791.012C798.613 807.864 798.203 810.895 786.942 812.536C772.026 814.712 762.711 807.755 751.808 786.299C748.605 779.997 745.664 774.841 745.27 774.841C744.876 774.841 742.583 780.069 740.179 786.459C734.013 802.837 724.011 814.005 715.512 814.005C705.617 814.005 698.383 803.83 690.477 778.789C689.945 777.103 685.994 782.69 681.065 792.105C660.449 831.472 639.827 837.605 622.323 809.578C618.274 803.098 612.229 794.701 608.888 790.918C603.848 785.214 601.924 784.264 597.59 785.345C588.475 787.616 578.779 798.151 570.567 814.706C560.931 834.131 556.387 853.903 558.053 869.185L559.263 880.306L551.319 882.43C539.179 885.677 521.423 899.882 505.526 919.06C486.655 941.832 472.321 956.601 465.755 960.038C460.892 962.583 460.003 962.446 455.308 958.418C448.131 952.264 444.762 932.623 447.831 914.825C449.761 903.626 451.237 900.757 459.912 891.325C476.62 873.164 485.679 849.245 486.446 821.268C486.795 808.528 486.225 805.949 481.49 798.841C475.502 789.845 457.137 776.088 440.026 767.78L428.692 762.275V720.658V679.04L436.084 677.154C440.15 676.119 445.178 674.983 447.262 674.632C450.869 674.023 467.941 649.197 468.059 644.384C468.091 643.176 463.457 641.576 457.766 640.828C452.075 640.08 443.176 638.564 437.99 637.462L428.562 635.457L429.12 614.582L429.677 593.708L450.374 588.597C461.757 585.785 474.369 582.983 478.398 582.366C485.423 581.293 485.776 581.51 486.937 587.653C487.601 591.176 487.187 621.211 486.014 654.396C484.843 687.582 483.883 718.124 483.883 722.267C483.883 726.411 483.083 729.803 482.105 729.803C475.175 729.803 474.024 690.758 479.941 656.37C484.626 629.145 484.49 631.893 481.147 631.893C475.279 631.893 466.226 681.149 466.212 713.158C466.204 735.771 469.51 752.081 475.916 761.018C479.588 766.141 480.243 769.082 479.476 777.013C478.4 788.137 480.662 788.797 486.84 779.159C489.008 775.775 492.767 770.116 495.192 766.581C504.334 753.254 509.634 739.523 518.394 706.455C526.229 676.888 539.516 641.408 541.852 643.82C542.278 644.261 540.892 658.72 538.773 675.952C534.407 711.454 535.034 728.234 541.198 740.884C545.767 750.262 554.7 758.102 563.221 760.215C568.569 761.541 568.642 761.77 568.642 777.175C568.642 788.756 569.278 792.6 571.105 792.052C573.321 791.388 580.157 779.417 585.396 767.028C586.654 764.055 590.342 761.394 595.575 759.685C606.436 756.136 620.437 741.17 625.102 728.119C627.081 722.583 629.2 718.053 629.813 718.053C630.424 718.053 632.098 721.359 633.531 725.397C639.941 743.473 653.688 753.18 672.981 753.258C694.204 753.344 708.932 740.878 716.547 716.387C723.592 693.729 720.974 669.96 708.388 642.322C698.32 620.212 698.176 619.707 702.597 622.059C704.689 623.171 706.945 624.957 707.612 626.028C710.062 629.968 712.534 627.806 712.534 621.724C712.534 617.431 707.811 607.58 697.486 590.328C689.209 576.501 682.19 565.435 681.887 565.741C681.583 566.044 679.519 573.339 677.3 581.949L673.267 597.607L683.905 637.757C689.757 659.842 696.875 685.242 699.725 694.2C705.465 712.245 705.158 713.551 693.912 718.852C684.382 723.344 670.878 722.89 664.442 717.859C651.184 707.501 644.386 683.564 642.807 641.684C642.176 624.99 640.728 605.774 639.584 598.981C637.069 584.019 631.82 570.303 629.494 572.614C628.562 573.54 625.317 581.749 622.28 590.857L616.761 607.415L619.38 635.809C622.692 671.732 621.748 694.718 616.469 706.569C611.754 717.16 599.636 729.803 594.201 729.803C590.367 729.803 590.324 727.218 590.324 503.304V276.807L597.038 284.475L603.751 292.145L605.121 286.819C606.093 283.04 602.983 269.395 594.406 239.822C587.76 216.903 581.604 196.417 580.729 194.294C579.495 191.304 577.618 195.048 572.383 210.939L565.63 231.441L567.358 478.769C568.308 614.799 568.47 726.709 567.715 727.458C565.277 729.881 555.096 716.487 553.681 708.991C552.8 704.322 554.189 690.084 557.56 669.251C561.059 647.637 562.799 629.39 562.772 614.647L562.728 592.507L556.639 596.044C546.813 601.754 535.369 615.416 528.523 629.609C525.017 636.88 517.379 658.428 511.55 677.497C505.721 696.564 500.654 711.867 500.287 711.503C499.92 711.139 500.999 689.773 502.684 664.025C504.369 638.274 506.232 609.089 506.821 599.169L507.894 581.132L523.824 580.566L539.755 580L545.82 568.903C549.157 562.802 551.426 557.35 550.864 556.79C550.3 556.232 540.756 554.532 529.653 553.016C518.549 551.499 508.889 549.685 508.185 548.986C507.48 548.287 506.557 480.959 506.135 399.368L505.365 251.023L512.078 258.613L518.794 266.201L521.887 261.815C523.588 259.402 524.658 256.428 524.266 255.204C523.875 253.982 520.465 242.848 516.693 230.462C512.918 218.076 507.026 198.804 503.598 187.636C500.171 176.467 496.66 168.095 495.797 169.033C494.933 169.969 492.235 176.79 489.801 184.188L485.375 197.641L485.726 370.706C485.919 465.894 485.805 543.758 485.474 543.738C485.141 543.719 472.007 538.937 456.288 533.111L427.706 522.521L427.278 383.834L426.853 245.148L433.689 252.981C439.336 259.451 440.863 260.303 442.464 257.877C443.528 256.261 444.413 253.766 444.431 252.331C444.467 249.239 419.219 163.611 417.88 162.279C417.372 161.776 416.502 162.593 415.947 164.093ZM136.417 486.827C132.126 491.891 129.377 499.853 123.513 524.192L121.861 531.045L117.365 522.233C110.679 509.133 105.772 504.61 98.2546 504.61C90.4883 504.61 87.6874 508.714 87.6874 520.101C87.6874 526.418 88.6986 528.676 92.696 531.278C97.7953 534.598 97.9924 534.566 109.612 528.58C110.288 528.231 113.344 533.658 116.405 540.635C119.464 547.614 122.578 552.948 123.325 552.488C124.072 552.029 125.308 547.52 126.071 542.464C128.251 528.022 134.933 508.426 138.087 507.224C139.666 506.623 142.315 507.249 143.973 508.616C148.276 512.164 151.004 508.712 152.196 498.212C154.035 481.991 145.644 475.934 136.417 486.827ZM745.248 497.39C739.871 502.73 733.625 518.523 730.384 534.962C726.747 553.422 726.56 553.524 720.229 540.417C713.691 526.886 706.685 520.26 698.962 520.305C689.974 520.358 684.938 526.824 684.938 538.314C684.938 551.798 696.731 559.179 706.646 551.898L711.911 548.031L719.515 563.526C723.698 572.048 727.725 578.359 728.466 577.553C729.205 576.744 730.847 568.841 732.113 559.99C734.782 541.328 739.136 527.448 743.435 523.904C745.901 521.871 747.495 522.01 752.159 524.669C757.828 527.902 757.885 527.885 761.043 521.816C764.597 514.988 763.939 500.703 759.841 495.8C756.295 491.552 750.486 492.185 745.248 497.39ZM277.534 509.016C278.656 522.359 279.152 523.553 285.803 528.866C296.916 537.742 301.203 547.89 302.449 568.251C303.462 584.855 303.691 585.591 306.401 580.979C308.38 577.607 309.301 569.992 309.358 556.502C309.433 538.571 308.924 535.847 303.338 524.192C297.59 512.198 282.817 494.819 278.368 494.819C277.059 494.819 276.765 499.836 277.534 509.016ZM642.001 508.573C640.27 511.326 639.896 516.361 640.783 524.957C641.603 532.898 641.313 537.827 639.982 538.645C636.947 540.509 635.415 537.053 632.469 521.689C631.02 514.138 629.295 507.428 628.635 506.775C627.976 506.123 625.857 507.524 623.926 509.889C620.932 513.557 620.703 515.632 622.368 524C624.614 535.275 623.328 540.425 618.505 539.503C614.484 538.733 612.47 532.432 612.203 519.786C612.095 514.669 611.439 510.484 610.745 510.484C608.912 510.484 604.622 516.238 599.951 524.961C596.839 530.773 596.562 532.32 598.782 531.474C600.96 530.644 602.026 532.426 603.008 538.537C605.616 554.765 613.893 559.964 623.24 551.24C626.78 547.937 628.363 547.49 630.166 549.282C633.892 552.983 645.056 552.063 649.458 547.69C653.997 543.18 654.474 531.32 650.747 515.538C648.192 504.721 645.679 502.722 642.001 508.573ZM115.417 561.209C109.898 568.911 110.28 570.666 117.254 569.647C125.482 568.449 124.636 570.636 115.464 574.282C103.46 579.055 102.272 584.187 107.223 609.892C109.488 621.651 111.341 633.616 111.341 636.479C111.341 646.119 114.987 641.783 116.432 630.424C117.771 619.893 115.405 605.598 110.432 594.174C109.192 591.327 111.181 589.709 121.817 584.917C133.883 579.483 140.908 573.286 140.908 568.075C140.908 565.359 126.371 555.523 122.359 555.523C120.783 555.523 117.66 558.082 115.417 561.209ZM440.138 557.747C453.102 560.865 453.934 562.494 443.858 565.014C439.048 566.217 433.669 567.752 431.903 568.425C429.301 569.416 428.692 568.308 428.692 562.586C428.692 558.701 429.187 555.523 429.79 555.523C430.395 555.523 435.051 556.523 440.138 557.747ZM205.919 571.678C218.377 606.05 228.806 621.234 241.768 623.864L248.334 625.196L248.917 653.511C249.239 669.085 248.975 684.703 248.33 688.22C246.434 698.573 235.882 706.749 201.709 724.351C183.989 733.478 154.493 750.751 136.165 762.735C99.3032 786.835 74.1142 800.116 62.2678 801.694C45.9784 803.864 40.3035 789.036 47.2636 762.491C51.9233 744.716 58.7592 733.157 68.3191 726.881C73.0084 723.803 90.8215 707.559 107.901 690.785C138.696 660.541 153.215 649.563 162.46 649.532C170.256 649.507 182.65 656.554 198.439 669.991L213.244 682.59L216.372 665.564L219.502 648.537L213.22 643.101C209.767 640.111 198.733 631.456 188.7 623.866C178.667 616.276 169.576 608.426 168.496 606.422C161.26 592.991 173.551 569.422 192.157 561.045C199.344 557.81 201.496 559.473 205.919 571.678ZM408.981 615.503V632.402L399.618 631.199C394.467 630.538 379.832 629.408 367.094 628.687L343.933 627.379V621.878C343.933 617.188 345.023 616.078 351.325 614.349C355.392 613.233 369.361 609.305 382.37 605.619C395.38 601.936 406.688 598.85 407.502 598.762C408.316 598.676 408.981 606.209 408.981 615.503ZM750.095 607.985C746.11 611.942 744.072 615.916 744.072 619.724C744.072 625.405 744.243 625.495 756.994 626.512C764.102 627.079 770.532 628.152 771.281 628.899C773.398 631 766.375 635.267 749.557 642.097C737.963 646.806 734.924 648.774 737.248 650.067C742.138 652.787 753.823 649.912 769.755 642.073C781.068 636.508 786.191 632.56 791.862 625.039C795.922 619.654 799.247 614.537 799.253 613.67C799.273 610.478 780.423 603.939 768.448 602.984C756.73 602.05 755.818 602.298 750.095 607.985ZM324.222 625.942C324.222 628.805 322.088 630.353 315.845 632.022C301.966 635.731 296.538 639.5 292.572 648.177C290.508 652.696 288.809 660.815 288.785 666.284C288.738 677.307 289.956 678.866 310.424 693.958C316.387 698.356 323.286 703.87 325.758 706.214L330.248 710.477L318.5 723.215C312.039 730.22 302.38 742.499 297.038 750.503C288.086 763.914 285.679 766.037 266.34 777.575C254.797 784.462 232.056 799.661 215.803 811.352C163.144 849.227 148.116 859.167 130.067 868.059C93.6717 885.992 81.4172 881.259 84.3779 850.412C86.2642 830.775 88.5783 826.624 102.228 818.403C108.928 814.369 126.639 802.696 141.59 792.465C156.539 782.233 184.882 763.701 204.571 751.282C258.887 717.029 266.845 705.172 268.556 655.965L269.522 628.143L277.654 627.152C282.127 626.607 291.994 625.368 299.583 624.397C322.326 621.491 324.222 621.608 324.222 625.942ZM324.222 667.266V677.182L316.831 673.021C300.259 663.694 299.495 661.945 310.817 659.28C323.86 656.212 324.222 656.429 324.222 667.266ZM389.269 660.939L400.111 662.28L385.134 670.471C376.897 674.977 366.122 681.725 361.189 685.465C352.926 691.731 351.893 692.039 348.077 689.383C343.687 686.329 342.583 676.293 345.207 663.261L346.48 656.934L362.454 658.266C371.239 658.998 383.307 660.2 389.269 660.939ZM153.227 693.57C149.705 698.328 146.821 703.014 146.821 703.98C146.821 706.872 170.786 722.663 172.162 720.677C172.86 719.669 176.327 714.742 179.867 709.731L186.305 700.616L174.555 692.691C168.093 688.33 162.093 684.799 161.22 684.84C160.347 684.881 156.75 688.812 153.227 693.57ZM410.952 722.101C410.952 754.873 410.697 757.407 407.502 756.479C400.369 754.407 380.415 751.343 374.058 751.343C370.427 751.343 362.925 749.061 357.388 746.275L347.322 741.207L342.883 745.962C338.381 750.787 321.252 756.877 318.861 754.501C318.141 753.788 323.929 747.009 331.718 739.437L345.881 725.669L352.486 730.674C356.117 733.425 359.671 735.677 360.381 735.677C361.092 735.677 361.674 730.895 361.674 725.05C361.674 715.157 362.182 714.006 369.042 708.388C376.926 701.933 404.4 686.885 408.488 686.783C410.37 686.736 410.952 695.072 410.952 722.101ZM116.359 703.649C112.516 708.65 109.393 713.275 109.423 713.929C109.451 714.581 114.895 718.946 121.518 723.626L133.559 732.135L138.061 726.564C140.537 723.499 143.987 718.615 145.727 715.711L148.889 710.432L137.123 702.494C130.65 698.127 124.904 694.555 124.352 694.555C123.8 694.555 120.203 698.648 116.359 703.649ZM522.535 779.803C520.249 782.075 519.975 784.013 521.41 787.763C522.452 790.489 523.306 794.803 523.306 797.349C523.306 802.001 527.053 807.087 531.586 808.589C535.034 809.73 520.668 833.092 505.524 850.972L493.287 865.422L501.32 860.935C512.776 854.54 519.88 846.591 532.726 825.805C542.146 810.565 545.138 807.204 550.901 805.397C556.395 803.676 557.932 802.089 558.447 797.613C559.492 788.535 557.15 782.946 550.97 779.772C543.338 775.852 526.495 775.869 522.535 779.803ZM174.91 788.104C171.387 793.238 168.503 798.055 168.503 798.805C168.503 799.557 173.384 803.83 179.347 808.305C191.514 817.43 191.544 817.424 201.585 803.535L207.867 794.844L195.439 786.802C188.605 782.376 182.63 778.759 182.163 778.761C181.698 778.763 178.432 782.968 174.91 788.104ZM341.763 788.66C344.543 797.879 356.107 810.145 367.427 815.883C379.662 822.083 380.082 821.707 378.765 805.683C378.125 797.875 376.991 788.922 376.246 785.791L374.894 780.097L386.516 781.311C392.908 781.977 401.021 783.524 404.546 784.748L410.952 786.974V802.42V817.867L403.56 822.713C399.496 825.378 392.441 828.862 387.884 830.454C372.428 835.853 294.186 855.313 292.939 854.07C290.581 851.714 292.144 809.19 294.908 800.539L297.646 791.967L315.368 786.457C325.117 783.428 334.504 780.896 336.23 780.831C338.233 780.757 340.234 783.586 341.763 788.66ZM550.669 790.323C552.811 791.67 552.498 792.32 549.208 793.356C544.748 794.764 541.046 793.418 541.046 790.391C541.046 788.082 547.042 788.039 550.669 790.323ZM534.784 795.075C535.213 797.276 534.09 798.339 531.334 798.339C526.83 798.339 526.7 798.12 528.476 793.522C529.978 789.635 533.912 790.605 534.784 795.075ZM462.477 816.016C473.054 825.925 474.028 827.542 474.028 835.185C474.028 847.138 468.317 856.678 452.393 871.323C436.726 885.734 411.027 900.019 392.226 904.77C356.45 913.805 321.128 908.876 308.641 893.103C302.593 885.466 303.476 883.267 313.612 880.731C332.625 875.974 380.868 860.51 391.786 855.674C410.737 847.277 421.276 832.007 425.252 807.187L427.576 792.667L439.253 798.931C445.675 802.375 456.126 810.063 462.477 816.016ZM277.108 812.008C275.918 817.52 274.944 831.098 274.944 842.182C274.944 861.532 274.757 862.416 270.227 864.466C264.046 867.264 243.284 885.099 214.427 912.403C180.281 944.707 165.072 953.051 150.935 947.233C142.191 943.636 138.231 933.531 138.333 915.073C138.395 904.094 139.207 899.163 141.142 898.014C142.64 897.125 174.023 874.917 210.883 848.663C247.743 822.41 278.208 801.167 278.587 801.457C278.963 801.749 278.297 806.495 277.108 812.008ZM743.323 859.862C739.398 864.621 736.187 869.436 736.187 870.56C736.187 872.35 758.11 888.417 760.55 888.417C762.929 888.417 775.927 868.398 774.395 867.094C771.251 864.419 751.964 851.211 751.203 851.211C750.795 851.211 747.249 855.104 743.323 859.862ZM674.832 870.401C667.899 871.212 661.383 878.469 660.003 886.915L658.876 893.807L671.832 894.626C678.958 895.078 685.421 896.077 686.197 896.847C688.403 899.04 681.238 903.497 666.212 909.275C648.202 916.201 646.682 917.79 658.071 917.79C664.133 917.79 672.735 915.612 682.291 911.66C694.865 906.461 698.424 903.867 705.804 894.526C710.588 888.473 714.503 882.515 714.503 881.287C714.507 876.474 687.132 868.964 674.832 870.401ZM709.088 922.603C689.412 929.701 663.149 943.119 645.017 955.34C637.363 960.498 632.703 965.297 630.679 970.109C629.031 974.029 627.925 977.887 628.221 978.682C628.518 979.477 637.032 974.953 647.142 968.632C667.787 955.722 702.574 937.773 717.461 932.351C722.882 930.377 727.969 927.835 728.766 926.701C730.668 923.997 730.692 915.804 728.795 915.929C727.981 915.982 719.113 918.986 709.088 922.603ZM570.179 932.966C568.521 934.849 562.263 943.998 556.271 953.296C537.677 982.146 513.915 1001.72 471.002 1023.52C451.724 1033.32 451.535 1033.48 460.801 1032.3C500.618 1027.24 533.934 1003.67 558.013 963.537C560.138 959.997 560.475 959.995 570.25 963.488C581.677 967.569 583.723 966.897 587.543 957.815C594.481 941.319 580.47 921.269 570.179 932.966ZM269.031 944.631C262.144 945.819 259.175 950.466 259.175 960.053V968.28L266.49 964.575C273.353 961.099 278.886 959.816 278.886 961.698C278.886 962.154 275.409 968.983 271.16 976.874C260.076 997.453 260.054 1005.32 271.069 1009.85C278.981 1013.11 289.239 1010.35 303.033 1001.25C314.089 993.962 333.313 975.124 331.517 973.34C330.973 972.799 321.112 977.262 309.604 983.258C284.9 996.129 274.944 997.694 274.944 988.706C274.944 985.344 279.48 976.353 286.771 965.266C293.276 955.373 298.598 946.373 298.598 945.263C298.598 943.281 279.243 942.866 269.031 944.631ZM578.627 945.273C583.216 947.713 583.638 951.079 579.353 951.079C574.654 951.079 568.383 947.204 569.688 945.106C571.184 942.702 573.885 942.753 578.627 945.273ZM379.449 973.547C363.44 996.662 357.402 1019.09 365.279 1026.17C373.889 1033.91 389.38 1026.62 392.289 1013.46C394.026 1005.6 392.496 1004.64 386.137 1009.61C382.075 1012.79 380.198 1013.24 378.15 1011.55C374.035 1008.16 374.977 998.659 381.184 980.941C384.298 972.055 386.545 964.786 386.181 964.786C385.816 964.786 382.786 968.728 379.449 973.547Z" fill="#2C2C2C"/>
<path fill-rule="evenodd" clip-rule="evenodd" d="M394.486 403.378C394.483 395.291 395.984 391.011 400.4 386.514C402.77 384.1 402.909 384.26 401.701 388.017C398.12 399.167 405.511 413.348 417.985 419.259C424.811 422.494 438.696 422.402 445.738 419.075L450.797 416.684L447.869 420.099C446.259 421.977 442.509 424.868 439.537 426.522C435.099 428.992 432.652 429.598 425.849 429.905L417.565 430.278V435.374C417.565 438.764 418.209 441.105 419.489 442.368C421.058 443.917 421.162 444.622 420.053 446.209C417.933 449.238 418.366 452.985 420.918 453.709C424.435 454.706 427.713 459.184 427.713 462.992C427.713 465.5 426.778 467.292 424.33 469.477C422.47 471.139 420.948 472.874 420.948 473.334C420.948 474.766 430.262 482.81 436.006 486.338C439.016 488.188 446.119 491.581 451.791 493.881C470.26 501.369 476.525 504.844 484.652 512.106C492.614 519.221 497.127 525.5 501.164 535.079C502.375 537.951 503.155 539.044 502.898 537.508C502.641 535.973 502.87 534.473 503.406 534.177C504.862 533.373 504.586 527.293 503.03 525.904C501.978 524.965 501.993 524.696 503.096 524.696C503.877 524.696 504.184 524.216 503.78 523.632C502.438 521.692 504.23 518.206 508.831 513.801L513.376 509.451L518.454 514.051C523.526 518.644 523.533 518.662 523.56 525.952C523.61 539.555 523.989 542.314 525.805 542.314C526.945 542.314 527.611 541.085 527.846 538.539C528.115 535.645 528.685 534.764 530.289 534.764C532.171 534.764 532.334 534.076 531.889 527.968C531.27 519.462 533.285 515.513 540.745 510.605C543.691 508.667 546.1 506.272 546.1 505.285C546.1 504.298 546.861 503.229 547.792 502.911C548.91 502.527 549.483 500.948 549.483 498.243C549.483 493.611 550.209 493.481 550.755 498.016C550.954 499.677 552.019 502.116 553.119 503.437C554.22 504.758 555.12 506.427 555.12 507.144C555.12 507.863 556.035 508.71 557.151 509.027C558.268 509.343 561.185 511.436 563.634 513.677L568.087 517.753L568.064 526.258C568.044 533.62 568.3 534.764 569.968 534.764C571.374 534.764 571.991 535.765 572.247 538.462C572.439 540.495 573.231 542.345 574.006 542.572C575.07 542.884 575.415 540.521 575.415 532.918C575.415 525.807 575.002 522.7 574.006 522.339C572.916 521.944 572.947 521.61 574.147 520.86C575.417 520.066 575.59 515.579 575.109 496.045L574.521 472.199L577.661 469.33L580.803 466.461L583.84 469.292L586.878 472.123L586.068 484.804C585.481 494.02 585.624 497.875 586.593 498.918C587.503 499.898 587.552 500.561 586.746 501.006C586.064 501.382 585.563 505.452 585.563 510.61C585.563 518.087 585.888 519.724 587.536 520.551C589.416 521.493 589.416 521.573 587.536 522.219C585.794 522.818 585.564 524.451 585.575 536.13C585.59 551.474 586.357 556.913 588.506 556.913C589.685 556.913 589.894 555.451 589.439 550.4C589.021 545.759 589.33 543.06 590.517 541.012C592.322 537.894 600.655 530.736 602.479 530.736C603.097 530.736 603.603 529.886 603.603 528.846C603.603 527.807 604.364 526.392 605.294 525.702C606.224 525.013 607.022 523.032 607.064 521.301C607.131 518.684 607.298 518.492 608.051 520.165C608.55 521.273 608.75 522.502 608.494 522.898C608.239 523.292 609.083 524.555 610.368 525.702C611.653 526.85 612.426 528.193 612.084 528.687C611.742 529.18 613.775 531.067 616.6 532.878C624.146 537.716 626.444 541.577 625.974 548.623C625.597 554.279 625.647 554.389 628.408 554.04C636.496 553.016 640.738 553.481 643.359 555.68C648.715 560.173 648.917 559.455 648.303 538.036L647.733 518.152L650.614 515.18L653.496 512.209L656.639 515.351L659.784 518.493L659.215 540.219C658.902 552.17 659.073 561.947 659.594 561.947C660.116 561.946 662.665 559.745 665.259 557.055C670.018 552.12 676.415 548.74 683.64 547.341C685.801 546.923 688.166 545.853 688.893 544.964C690.108 543.48 690.387 543.481 692.292 544.969C693.433 545.86 696.143 546.878 698.313 547.23C706.985 548.635 715.633 554.7 721.448 563.454C722.469 564.99 723.128 564.723 727.368 561.049C730.532 558.306 732.183 555.984 732.271 554.145L732.405 551.376L733.227 553.893C735.084 559.578 735.828 560.668 738.989 562.335C740.809 563.295 743.068 565.412 744.012 567.041C744.954 568.669 746.121 570.001 746.604 570.001C747.086 570.001 749.827 568.673 752.695 567.049C757.041 564.588 758.089 563.374 758.996 559.75C759.729 556.821 760.128 556.224 760.221 557.92C760.551 564.043 761.482 564.946 772.208 569.542C784.523 574.82 788.513 578.401 788.513 584.174C788.513 586.346 789.054 588.123 789.716 588.123C790.473 588.123 790.835 585.599 790.69 581.328C790.432 573.677 792.59 567.797 796.31 566.019C797.603 565.402 798.661 564.231 798.661 563.419C798.661 562.581 800.37 563.63 802.607 565.841C804.777 567.987 806.553 570.479 806.553 571.381C806.553 572.284 807.002 573.022 807.551 573.022C808.1 573.022 808.284 575.966 807.96 579.566C807.637 583.165 807.822 586.108 808.372 586.105C810.396 586.096 817.643 579.038 819.739 575.035C820.941 572.741 821.065 572.703 821.134 574.619C821.177 575.775 823.747 579.046 826.848 581.888C832.063 586.67 833.115 588.748 832.677 593.409C832.571 594.546 833.308 595.171 834.754 595.171C836.946 595.171 836.996 595.908 836.996 628.395V638.234H871.255V793.044C871.255 804.09 862.301 813.044 851.255 813.044H-17.2539C-28.2996 813.044 -37.2539 804.09 -37.2539 793.044V638.234H-2.99256V628.969V596.318L-0.455681 595.996C1.4171 595.759 1.99325 595.103 1.74408 593.494C1.2164 590.072 4.49517 584.218 7.66007 582.93C9.24308 582.286 10.5375 581.301 10.5375 580.742C10.5375 580.182 11.3842 578.888 12.4193 577.867C14.2402 576.071 14.3608 576.089 16.0836 578.42C18.1165 581.169 27.1467 588.123 28.6846 588.123C29.2461 588.123 29.705 585.831 29.705 583.03C29.705 580.229 29.316 578.151 28.8413 578.414C28.3655 578.676 27.3981 577.797 26.6923 576.46C25.9853 575.123 25.867 574.028 26.4285 574.028C26.99 574.028 27.45 573.398 27.45 572.627C27.45 571.857 29.0803 569.466 31.0726 567.315L34.6953 563.404L38.4014 566.912C40.4399 568.841 42.1075 571.232 42.1075 572.224C42.1075 573.217 42.4874 574.027 42.9531 574.026C43.4188 574.024 43.6319 577.422 43.4278 581.577C43.1166 587.914 43.3421 589.13 44.8293 589.13C46.1778 589.13 46.5589 588.158 46.4224 585.063C46.1789 579.494 49.1183 576.232 57.9444 572.281C68.9341 567.36 73.6775 564.628 73.6775 563.219C73.6775 561.475 75.5469 561.613 76.3215 563.414C77.0916 565.205 85.39 570.001 87.7194 570.001C88.6462 570.001 90.1762 568.669 91.1188 567.041C92.0625 565.412 94.322 563.295 96.1418 562.335C97.9605 561.376 99.6912 559.763 99.9877 558.751C100.676 556.403 103.044 556.367 103.725 558.694C104.182 560.254 110.547 564.967 112.195 564.967C112.53 564.967 114.306 562.815 116.144 560.185C120.967 553.279 132.14 547.025 139.897 546.889C141.679 546.858 142.639 546.041 143.188 544.084L143.964 541.323L144.948 543.96C145.691 545.949 146.91 546.737 149.924 547.173C156.441 548.118 163.243 551.61 169.341 557.142L175.074 562.342L175.084 549.811C175.091 542.92 175.376 536.012 175.72 534.463C176.064 532.912 176.004 531.152 175.588 530.551C175.172 529.95 174.85 526.994 174.873 523.983C174.906 519.7 175.493 517.921 177.57 515.813C179.031 514.331 180.32 512.959 180.435 512.764C180.549 512.569 182.096 513.737 183.87 515.359L187.098 518.307L186.733 537.61C186.532 548.226 186.682 556.913 187.066 556.913C187.449 556.913 189.054 556.007 190.63 554.899C194.065 552.486 201.889 552.197 205.098 554.364C206.301 555.177 207.612 555.857 208.009 555.874C208.407 555.892 208.498 553.075 208.213 549.614C207.768 544.221 208.071 542.821 210.334 539.823C211.786 537.899 215.089 534.954 217.673 533.279C220.256 531.603 222.401 529.496 222.439 528.594C222.477 527.693 223.269 526.392 224.199 525.702C225.129 525.013 225.971 523.032 226.071 521.301L226.251 518.152L226.7 521.349C226.947 523.107 227.88 525.088 228.774 525.751C229.668 526.413 230.4 527.541 230.4 528.257C230.4 528.973 232.879 531.183 235.91 533.17C243.295 538.01 245.403 542.148 244.644 550.323C244.017 557.088 244.342 558.102 246.859 557.239C248.979 556.512 249.191 523.755 247.087 521.877C246.035 520.937 246.066 520.669 247.226 520.669C248.438 520.669 248.609 516.125 248.138 496.439C247.562 472.347 247.572 472.196 250.102 469.759C253.284 466.693 253.756 466.706 257.116 469.943C259.813 472.541 259.839 472.747 259.053 485.648C258.404 496.314 258.547 498.886 259.832 499.612C260.957 500.248 261.004 500.507 259.997 500.518C258.964 500.529 258.588 503.226 258.588 510.601C258.588 517.76 258.979 520.669 259.941 520.669C260.993 520.669 260.993 520.937 259.941 521.877C259.072 522.652 258.588 526.62 258.588 532.951C258.588 541.05 258.891 542.818 260.279 542.818C261.5 542.818 261.97 541.699 261.97 538.791C261.97 535.454 262.351 534.764 264.194 534.764C266.235 534.764 266.396 534.13 266.168 526.961C265.95 520.161 266.255 518.758 268.538 516.041C269.979 514.328 273.136 511.836 275.553 510.504C277.972 509.173 279.963 507.347 279.98 506.445C279.997 505.544 280.771 504.243 281.701 503.553C282.632 502.864 283.474 500.883 283.573 499.151L283.753 496.002L284.214 499.332C284.466 501.163 285.4 502.911 286.288 503.215C287.175 503.52 287.903 504.584 287.903 505.58C287.903 506.599 290.35 508.962 293.493 510.977C301.337 516.009 303.002 519.299 302.055 527.885C301.339 534.379 301.426 534.764 303.619 534.764C305.585 534.764 305.943 535.395 305.943 538.861C305.943 542.534 306.205 542.925 308.48 542.637C310.933 542.326 311.024 541.918 311.257 530.306L311.496 518.298L316.661 513.751C321.361 509.612 321.88 509.392 322.435 511.288C322.771 512.434 324.238 513.941 325.694 514.638C328.707 516.077 331.329 520.884 330.347 523.167C329.987 524.008 330.055 524.696 330.501 524.695C330.947 524.695 331.131 527.013 330.912 529.848C330.61 533.744 330.869 534.895 331.978 534.565C332.784 534.326 333.802 532.932 334.241 531.469C335.624 526.849 342.306 517.342 347.31 512.874C354.004 506.897 366.872 499.606 378.772 495.047C394.192 489.139 404.358 482.944 409.87 476.096L412.117 473.304L408.64 469.768C402.96 463.991 404.376 457.205 411.997 453.686C414.309 452.618 415.31 451.403 415.31 449.664C415.31 448.294 414.803 447.173 414.183 447.173C412.425 447.173 412.859 442.532 414.747 441.132C415.851 440.314 416.438 438.072 416.438 434.667C416.438 429.594 416.33 429.42 412.362 428.14C407.024 426.416 399.977 420.658 396.926 415.528C395.016 412.317 394.49 409.691 394.486 403.378ZM251.336 479.709C252.201 481.725 256.333 480.634 256.333 478.39C256.333 477.414 255.607 476.079 254.72 475.421C253.433 474.467 252.866 474.63 251.905 476.232C251.244 477.335 250.988 478.9 251.336 479.709ZM581.053 481.404C582.675 481.404 583.308 480.732 583.308 479.01C583.308 476.511 580.823 473.89 579.54 475.036C579.132 475.4 578.798 476.982 578.798 478.552C578.798 480.732 579.329 481.404 581.053 481.404ZM140.901 531.303C144.809 529.784 148.093 526.206 148.093 523.464C148.093 522.481 148.346 521.675 148.656 521.675C148.966 521.675 149.22 523.243 149.22 525.16C149.22 529.528 145.624 532.765 140.833 532.711L137.381 532.671L140.901 531.303ZM323.983 527.414C323.983 525.587 323.374 523.548 322.63 522.883C321.886 522.219 320.889 521.675 320.414 521.675C319.031 521.675 317.218 525.349 317.218 528.153C317.218 530.352 317.721 530.736 320.6 530.736C323.675 530.736 323.983 530.434 323.983 527.414ZM507.202 530.736C508.419 530.736 508.893 529.624 508.893 526.769C508.893 522.588 507.347 520.587 506.193 523.274C504.858 526.381 505.446 530.736 507.202 530.736ZM516.785 527.414C516.785 525.587 516.177 523.548 515.432 522.883C514.688 522.219 513.775 521.675 513.403 521.675C511.635 521.675 510.02 524.415 510.02 527.414C510.02 530.434 510.328 530.736 513.403 530.736C516.478 530.736 516.785 530.434 516.785 527.414ZM519.604 530.736C520.764 530.736 521.29 529.708 521.278 527.464C521.259 523.907 519.907 521.236 518.682 522.332C518.259 522.709 517.913 524.754 517.913 526.877C517.913 529.636 518.395 530.736 519.604 530.736ZM693.662 533.085C689.178 533.085 684.783 528.905 684.783 524.639C684.783 523.009 685.29 521.675 685.91 521.675C686.531 521.675 687.038 522.556 687.038 523.633C687.038 527.004 691.893 531.072 695.917 531.072C698.316 531.072 699.139 531.408 698.389 532.078C697.768 532.632 695.641 533.085 693.662 533.085ZM314.963 530.736C315.583 530.736 316.09 528.924 316.09 526.709C316.09 524.494 315.583 522.682 314.963 522.682C314.343 522.682 313.835 524.494 313.835 526.709C313.835 528.924 314.343 530.736 314.963 530.736ZM327.365 530.736C327.985 530.736 328.493 528.924 328.493 526.709C328.493 524.494 327.985 522.682 327.365 522.682C326.745 522.682 326.238 524.494 326.238 526.709C326.238 528.924 326.745 530.736 327.365 530.736ZM179.513 527.985C181.221 529.51 183.607 527.453 182.666 525.267C182.293 524.399 181.45 523.689 180.79 523.689C178.964 523.689 178.069 526.696 179.513 527.985ZM653.213 527.716C654.453 527.716 655.468 527.064 655.468 526.265C655.468 524.514 654.275 523.801 652.367 524.412C650.093 525.141 650.752 527.716 653.213 527.716ZM38.725 584.533C38.725 582.559 38.1996 580.067 37.558 578.996C36.3911 577.05 34.1293 576.454 32.712 577.72C32.2982 578.089 31.96 580.58 31.96 583.258C31.96 587.992 32.0502 588.123 35.3425 588.123C38.4679 588.123 38.725 587.852 38.725 584.533ZM803.171 584.533C803.171 582.559 802.645 580.067 802.004 578.996C800.837 577.05 798.575 576.454 797.158 577.72C796.744 578.089 796.406 580.58 796.406 583.258C796.406 587.992 796.496 588.123 799.788 588.123C802.914 588.123 803.171 587.852 803.171 584.533ZM40.98 588.123C41.6001 588.123 42.1075 585.858 42.1075 583.089C42.1075 577.985 41.9496 577.526 40.6045 578.727C39.4037 579.799 39.7363 588.123 40.98 588.123ZM793.023 588.123C793.643 588.123 794.151 585.858 794.151 583.089C794.151 577.985 793.993 577.526 792.648 578.727C791.447 579.799 791.779 588.123 793.023 588.123ZM805.426 588.123C806.046 588.123 806.553 585.858 806.553 583.089C806.553 577.985 806.395 577.526 805.05 578.727C803.849 579.799 804.182 588.123 805.426 588.123Z" fill="#3A3A3A"/>
</g>
</svg>
