<svg width="23" height="20" viewBox="0 0 23 20" fill="none" xmlns="http://www.w3.org/2000/svg">
<path d="M20.6764 1.05699C20.1581 0.624581 19.55 0.313017 18.8964 0.144917C18.2427 -0.0231824 17.5598 -0.0435979 16.8972 0.0851532L15.2935 0.477887C14.4567 0.631247 13.7 1.0732 13.1554 1.72684C12.6107 2.38047 12.3125 3.20439 12.3126 4.05521V18.1163C11.7097 18.2045 11.0972 18.2045 10.4944 18.1163V4.05521C10.4974 3.21224 10.206 2.39465 9.67062 1.74355C9.1352 1.09244 8.38929 0.648662 7.5616 0.488796L5.85794 0.0742439C5.20262 -0.0456726 4.52895 -0.0200756 3.88461 0.149223C3.24028 0.318522 2.64104 0.627383 2.1293 1.05394C1.61757 1.48051 1.20585 2.01434 0.9233 2.61765C0.640746 3.22097 0.494263 3.87902 0.494218 4.54522C0.221954 7.81021 0.221954 11.0922 0.494218 14.3572C0.494271 15.4216 0.867839 16.4522 1.54981 17.2694C2.23178 18.0866 3.17891 18.6386 4.22609 18.8291L9.94073 19.8682C10.908 20.0439 11.899 20.0439 12.8662 19.8682L18.5854 18.8291C19.6318 18.6376 20.5778 18.0852 21.2589 17.2681C21.94 16.451 22.3129 15.4209 22.3127 14.3572C22.6072 11.141 22.6115 7.90487 22.3254 4.68794L22.3127 4.54522C22.3132 3.87925 22.1667 3.22138 21.8839 2.61846C21.601 2.01553 21.1887 1.48239 20.6764 1.05699Z" fill="#1AA483"/>
</svg>
