<svg width="21" height="20" viewBox="0 0 21 20" fill="none" xmlns="http://www.w3.org/2000/svg">
<path fill-rule="evenodd" clip-rule="evenodd" d="M3.07888 3.92648C3.07888 2.38908 4.34166 1.14278 5.89939 1.14278H10.002C10.4268 1.14278 10.7712 1.48268 10.7712 1.90197C10.7712 2.32126 10.4268 2.66116 10.002 2.66116H5.89939C5.19133 2.66116 4.61734 3.22766 4.61734 3.92648V4.93873C4.61734 5.35802 4.27294 5.69792 3.84811 5.69792C3.42327 5.69792 3.07888 5.35802 3.07888 4.93873V3.92648ZM3.84811 14.3021C4.27294 14.3021 4.61734 14.642 4.61734 15.0613V16.0735C4.61734 16.7723 5.19133 17.3388 5.89939 17.3388H10.002C10.4268 17.3388 10.7712 17.6788 10.7712 18.098C10.7712 18.5173 10.4268 18.8572 10.002 18.8572H5.89939C4.34166 18.8572 3.07888 17.6109 3.07888 16.0735V15.0613C3.07888 14.642 3.42327 14.3021 3.84811 14.3021Z" fill="#35414D"/>
<path fill-rule="evenodd" clip-rule="evenodd" d="M10.7712 2.78618C10.7712 1.90491 11.6612 1.29355 12.4985 1.59962L17.6267 3.47416C18.1297 3.658 18.4635 4.13139 18.4635 4.66071V15.3393C18.4635 15.8686 18.1297 16.342 17.6267 16.5258L12.4985 18.4004C11.6612 18.7065 10.7712 18.0951 10.7712 17.2138V2.78618ZM13.0328 0.175764C11.1907 -0.497603 9.23272 0.847383 9.23272 2.78618V17.2138C9.23272 19.1526 11.1907 20.4976 13.0328 19.8242L18.1611 17.9497C19.2675 17.5452 20.002 16.5038 20.002 15.3393V4.66071C20.002 3.4962 19.2675 2.45475 18.161 2.0503L13.0328 0.175764Z" fill="#35414D"/>
<path fill-rule="evenodd" clip-rule="evenodd" d="M4.32982 7.43867C4.63022 7.14218 5.11727 7.14218 5.41768 7.43867L7.46896 9.46317C7.76936 9.75966 7.76936 10.2403 7.46896 10.5368L5.41768 12.5613C5.11727 12.8578 4.63022 12.8578 4.32982 12.5613C4.02942 12.2649 4.02942 11.7842 4.32982 11.4877L5.06794 10.7592H0.771184C0.346349 10.7592 0.00195312 10.4193 0.00195312 10C0.00195312 9.58071 0.346349 9.24081 0.771184 9.24081H5.06794L4.32982 8.51232C4.02942 8.21584 4.02942 7.73515 4.32982 7.43867Z" fill="#35414D"/>
</svg>
