<svg width="17" height="17" viewBox="0 0 17 17" fill="none" xmlns="http://www.w3.org/2000/svg">
<path d="M2.19055 16.5C1.64055 16.5 1.16955 16.304 0.777553 15.912C0.385553 15.52 0.189887 15.0493 0.190553 14.5V11.5H2.19055V14.5H14.1906V11.5H16.1906V14.5C16.1906 15.05 15.9946 15.521 15.6026 15.913C15.2106 16.305 14.7399 16.5007 14.1906 16.5H2.19055Z" fill="white"/>
<path d="M11.7906 6.05L9.19055 8.65L9.19055 4.575L9.19055 0.5L7.19055 0.499999L7.19055 4.575L7.19055 8.65L4.59055 6.05L3.19055 7.5L8.19055 12.5L13.1906 7.5L11.7906 6.05Z" fill="white"/>
</svg>
