<svg width="338" height="90" viewBox="0 0 338 90" fill="none" xmlns="http://www.w3.org/2000/svg">
    <g clip-path="url(#clip0_1000_7650)">
        <rect x="1" y="1" width="336" height="88" rx="15" fill="url(#paint0_radial_1000_7650)" />
        <path
            d="M209 59C115.4 43.4 64.3333 69.8333 50.5 85L46 90.5H340.5V17.5C335.667 37.8333 302.6 74.6 209 59Z"
            fill="white" fill-opacity="0.13" />
        <path
            d="M89.517 40H88.269V39.857C88.269 38.661 87.7793 38.063 86.8 38.063H86.111C85.4697 38.7737 84.603 39.129 83.511 39.129C82.3757 39.129 81.4787 38.778 80.82 38.076C80.1613 37.3653 79.832 36.4077 79.832 35.203C79.832 34.7523 79.8667 34.3103 79.936 33.877H81.145C81.0843 34.2757 81.054 34.722 81.054 35.216C81.054 36.1173 81.2707 36.815 81.704 37.309C82.146 37.7943 82.744 38.037 83.498 38.037C84.2 38.037 84.7417 37.8247 85.123 37.4C85.5043 36.9753 85.695 36.4207 85.695 35.736C85.695 35.32 85.6127 34.982 85.448 34.722C85.2833 34.462 85.0363 34.332 84.707 34.332C84.421 34.332 84.2 34.436 84.044 34.644C83.8967 34.8433 83.823 35.1033 83.823 35.424C83.823 35.7187 83.8663 36.0177 83.953 36.321H82.848C82.7267 36.0003 82.666 35.658 82.666 35.294C82.666 34.7133 82.8437 34.2367 83.199 33.864C83.563 33.4827 84.057 33.292 84.681 33.292C85.3657 33.292 85.9117 33.526 86.319 33.994C86.735 34.462 86.943 35.047 86.943 35.749C86.943 36.1823 86.8693 36.607 86.722 37.023H86.878C87.5193 37.023 87.983 37.2267 88.269 37.634V32.59H78.74V31.55H90.882V32.59H89.517V40ZM92.9172 40H91.5912C92.0852 39.2027 92.3322 38.4963 92.3322 37.881C92.3322 37.5257 92.1935 36.9623 91.9162 36.191C91.6389 35.4197 91.5002 34.852 91.5002 34.488C91.5002 33.7253 91.7992 33.0927 92.3972 32.59H93.7102C93.4415 32.7893 93.2119 33.0537 93.0212 33.383C92.8392 33.7123 92.7482 34.072 92.7482 34.462C92.7482 34.826 92.8869 35.398 93.1642 36.178C93.4415 36.958 93.5802 37.5257 93.5802 37.881C93.5802 38.5917 93.3592 39.298 92.9172 40ZM94.7892 32.59H90.3562V31.55H94.7892V32.59ZM98.2187 32.59H96.8537V40H95.6187V33.565C95.6187 33.227 95.5623 32.98 95.4497 32.824C95.337 32.668 95.129 32.59 94.8257 32.59H94.2537V31.55H94.9297C95.2937 31.55 95.571 31.7277 95.7617 32.083C95.6837 31.6323 95.6447 31.2077 95.6447 30.809V30.471H96.8537V31.55H98.2187V32.59ZM98.7341 36.711L99.9951 35.97C99.7091 35.4067 99.2368 35.008 98.5781 34.774V34.176C98.5781 33.4567 98.8164 32.8197 99.2931 32.265C99.7698 31.7017 100.433 31.42 101.282 31.42C102.218 31.42 102.885 31.745 103.284 32.395V30.471H104.519V31.55H105.884V32.59H104.519V40H103.284V35.307L98.7341 38.037V36.711ZM99.7871 34.189C100.29 34.4317 100.68 34.8347 100.957 35.398L103.232 34.046C103.154 33.578 102.963 33.2053 102.66 32.928C102.365 32.642 101.967 32.499 101.464 32.499C100.944 32.499 100.532 32.6593 100.229 32.98C99.9344 33.292 99.7871 33.695 99.7871 34.189ZM115.221 40H113.973V37.387C113.973 37.0403 113.904 36.7543 113.765 36.529C113.627 36.295 113.41 36.178 113.115 36.178C112.916 36.178 112.73 36.2517 112.556 36.399C112.383 36.5463 112.223 36.7283 112.075 36.945C111.937 37.153 111.785 37.3653 111.62 37.582C111.456 37.7987 111.239 37.9807 110.97 38.128C110.702 38.2753 110.398 38.349 110.06 38.349C109.766 38.349 109.458 38.2883 109.137 38.167V37.114C109.423 37.2007 109.675 37.244 109.891 37.244C110.073 37.244 110.242 37.1963 110.398 37.101C110.554 36.997 110.68 36.8843 110.775 36.763C110.871 36.6417 110.992 36.477 111.139 36.269C111.287 36.0523 111.404 35.892 111.49 35.788C111.404 35.0947 111.161 34.5487 110.762 34.15C110.364 33.7513 109.844 33.552 109.202 33.552V32.59H108.396V31.55H116.586V32.59H115.221V40ZM112.881 35.086C113.375 35.086 113.739 35.255 113.973 35.593V32.59H110.437C110.992 32.7893 111.447 33.1187 111.802 33.578C112.166 34.0287 112.405 34.5443 112.517 35.125C112.63 35.099 112.751 35.086 112.881 35.086ZM118.209 35.853H116.974C116.931 35.6537 116.909 35.4673 116.909 35.294C116.909 34.9213 116.996 34.605 117.169 34.345C117.351 34.085 117.607 33.903 117.936 33.799C117.85 33.2617 117.62 32.8587 117.247 32.59H116.064V31.55H123.058C123.128 31.7233 123.193 31.8967 123.253 32.07C123.73 31.6367 124.328 31.42 125.047 31.42C125.983 31.42 126.651 31.745 127.049 32.395V30.471H128.284V31.55H129.649V32.59H128.284V40H127.049V35.307L122.499 38.037V36.711L123.76 35.97C123.561 35.58 123.279 35.268 122.915 35.034C122.586 35.346 122.127 35.502 121.537 35.502C121.069 35.502 120.562 35.3807 120.016 35.138C119.47 34.8867 119.059 34.761 118.781 34.761C118.591 34.761 118.439 34.8217 118.326 34.943C118.214 35.0557 118.157 35.2203 118.157 35.437C118.157 35.541 118.175 35.6797 118.209 35.853ZM121.485 34.449C121.789 34.449 122.014 34.3537 122.161 34.163C122.309 33.9723 122.382 33.7253 122.382 33.422C122.382 33.0927 122.352 32.8153 122.291 32.59H118.729C118.937 32.9193 119.059 33.3007 119.093 33.734C119.405 33.7773 119.813 33.9073 120.315 34.124C120.818 34.3407 121.208 34.449 121.485 34.449ZM123.552 34.189C124.055 34.4317 124.445 34.8347 124.722 35.398L126.997 34.046C126.919 33.578 126.729 33.2053 126.425 32.928C126.131 32.642 125.732 32.499 125.229 32.499C124.709 32.499 124.298 32.6593 123.994 32.98C123.7 33.292 123.552 33.695 123.552 34.189ZM133.067 40.091C132.928 40.1083 132.798 40.117 132.677 40.117C131.819 40.117 131.186 39.7833 130.779 39.116C130.38 38.44 130.172 37.5733 130.155 36.516C130.155 34.592 130.514 33.2833 131.234 32.59H129.128V31.55H133.457V32.59H133.197C131.983 32.59 131.377 33.8987 131.377 36.516C131.377 38.18 131.853 39.012 132.807 39.012H133.067V40.091ZM142.504 36.425C142.504 37.205 142.292 37.8117 141.867 38.245C141.443 38.6697 140.892 38.882 140.216 38.882C140.095 38.882 140.008 38.8777 139.956 38.869V37.725H140.112C140.892 37.725 141.282 37.2917 141.282 36.425C141.282 35.8703 141.07 35.4197 140.645 35.073C140.229 34.7263 139.675 34.54 138.981 34.514V40H137.759L133.729 37.01V35.697C135.185 34.4143 136.529 33.6647 137.759 33.448V32.59H132.936V31.55H143.271V32.59H138.981V33.422C139.969 33.4393 140.801 33.7253 141.477 34.28C142.162 34.826 142.504 35.541 142.504 36.425ZM137.759 38.622V34.566C136.849 34.8087 135.866 35.4067 134.808 36.36L137.759 38.622ZM137.777 30.9L139.727 28.872H140.923V28.924L139.012 30.952H137.777V30.9ZM153.987 35.749C153.987 36.1823 153.913 36.607 153.766 37.023H153.922C154.563 37.023 155.027 37.2267 155.313 37.634V32.59H145.784V31.55H158.082C158.446 31.55 158.723 31.7277 158.914 32.083C158.836 31.6323 158.797 31.2077 158.797 30.809V30.471H160.006V31.55H161.371V32.59H160.006V40H158.771V33.565C158.771 33.227 158.715 32.98 158.602 32.824C158.489 32.668 158.281 32.59 157.978 32.59H156.561V40H155.313V39.857C155.313 38.661 154.823 38.063 153.844 38.063H153.155C152.514 38.7737 151.647 39.129 150.555 39.129C149.42 39.129 148.523 38.778 147.864 38.076C147.205 37.3653 146.876 36.4077 146.876 35.203C146.876 34.7523 146.911 34.3103 146.98 33.877H148.189C148.128 34.2757 148.098 34.722 148.098 35.216C148.098 36.1173 148.315 36.815 148.748 37.309C149.19 37.7943 149.788 38.037 150.542 38.037C151.244 38.037 151.786 37.8247 152.167 37.4C152.548 36.9753 152.739 36.4207 152.739 35.736C152.739 35.32 152.657 34.982 152.492 34.722C152.327 34.462 152.08 34.332 151.751 34.332C151.465 34.332 151.244 34.436 151.088 34.644C150.941 34.8433 150.867 35.1033 150.867 35.424C150.867 35.7187 150.91 36.0177 150.997 36.321H149.892C149.771 36.0003 149.71 35.658 149.71 35.294C149.71 34.7133 149.888 34.2367 150.243 33.864C150.607 33.4827 151.101 33.292 151.725 33.292C152.41 33.292 152.956 33.526 153.363 33.994C153.779 34.462 153.987 35.047 153.987 35.749ZM161.893 36.711L163.154 35.97C162.868 35.4067 162.396 35.008 161.737 34.774V34.176C161.737 33.4567 161.976 32.8197 162.452 32.265C162.929 31.7017 163.592 31.42 164.441 31.42C165.377 31.42 166.045 31.745 166.443 32.395V30.471H167.678V31.55H169.043V32.59H167.678V40H166.443V35.307L161.893 38.037V36.711ZM162.946 34.189C163.449 34.4317 163.839 34.8347 164.116 35.398L166.391 34.046C166.313 33.578 166.123 33.2053 165.819 32.928C165.525 32.642 165.126 32.499 164.623 32.499C164.103 32.499 163.692 32.6593 163.388 32.98C163.094 33.292 162.946 33.695 162.946 34.189ZM175.177 40H173.929V39.961C173.877 39.4757 173.799 39.0163 173.695 38.583C173.6 38.141 173.466 37.7207 173.292 37.322C173.119 36.9233 172.894 36.607 172.616 36.373C172.348 36.1303 172.04 36.009 171.693 36.009C171.303 36.009 171.004 36.1303 170.796 36.373C170.597 36.6157 170.497 36.9407 170.497 37.348C170.497 37.5213 170.515 37.7293 170.549 37.972H169.34C169.288 37.7553 169.262 37.5127 169.262 37.244C169.262 36.5767 169.466 36.0177 169.873 35.567C170.281 35.1163 170.84 34.891 171.55 34.891C172.642 34.891 173.435 35.4717 173.929 36.633V32.59H168.521V31.55H176.49V32.59H175.177V40ZM179.938 32.59H178.573V40H177.338V33.565C177.338 33.227 177.282 32.98 177.169 32.824C177.057 32.668 176.849 32.59 176.545 32.59H175.973V31.55H176.649C177.013 31.55 177.291 31.7277 177.481 32.083C177.403 31.6323 177.364 31.2077 177.364 30.809V30.471H178.573V31.55H179.938V32.59ZM186.811 32.59H185.459V40H184.237L180.207 37.01V35.697C181.472 34.579 182.815 33.8337 184.237 33.461V32.59H179.414V31.55H186.811V32.59ZM181.429 39.103C181.585 39.2503 181.663 39.4323 181.663 39.649C181.663 39.8657 181.585 40.0477 181.429 40.195C181.281 40.3423 181.099 40.416 180.883 40.416C180.666 40.416 180.484 40.3423 180.337 40.195C180.189 40.0477 180.116 39.8657 180.116 39.649C180.116 39.4323 180.189 39.2503 180.337 39.103C180.484 38.947 180.666 38.869 180.883 38.869C181.099 38.869 181.281 38.947 181.429 39.103ZM184.237 38.609V34.631C183.188 35.0123 182.209 35.5843 181.299 36.347L184.237 38.609ZM197.922 32.59H196.388V40H195.14V38.765C195.14 38.0457 194.958 37.4823 194.594 37.075C194.239 36.659 193.732 36.451 193.073 36.451C192.622 36.451 192.263 36.5593 191.994 36.776C191.734 36.9927 191.604 37.3003 191.604 37.699C191.604 38.1063 191.73 38.414 191.981 38.622C192.232 38.8213 192.553 38.921 192.943 38.921C193.108 38.921 193.329 38.9037 193.606 38.869V39.922C193.346 39.974 193.064 40 192.761 40C192.05 40 191.47 39.8007 191.019 39.402C190.568 39.0033 190.343 38.4357 190.343 37.699C190.343 37.127 190.499 36.646 190.811 36.256C191.132 35.866 191.565 35.6017 192.111 35.463C191.99 34.189 191.344 33.552 190.174 33.552V32.59H189.329V31.55H197.922V32.59ZM195.14 36.438V32.59H191.409C191.981 32.798 192.423 33.1533 192.735 33.656C193.056 34.15 193.246 34.722 193.307 35.372C194.165 35.4673 194.776 35.8227 195.14 36.438ZM205.505 35.944C205.505 36.9493 205.197 37.7987 204.582 38.492C203.975 39.1853 203.108 39.532 201.982 39.532C200.812 39.532 199.893 39.129 199.226 38.323C198.567 37.517 198.238 36.4467 198.238 35.112C198.238 34.7133 198.264 34.3277 198.316 33.955H199.512C199.468 34.267 199.447 34.6527 199.447 35.112C199.447 36.0827 199.663 36.88 200.097 37.504C200.53 38.128 201.158 38.44 201.982 38.44C202.718 38.44 203.282 38.2103 203.672 37.751C204.062 37.283 204.257 36.6807 204.257 35.944C204.257 35.4933 204.174 35.125 204.01 34.839C203.845 34.5443 203.589 34.397 203.243 34.397C202.957 34.397 202.736 34.501 202.58 34.709C202.424 34.9083 202.346 35.1727 202.346 35.502C202.346 35.8313 202.389 36.1563 202.476 36.477H201.319C201.189 36.1477 201.124 35.801 201.124 35.437C201.124 34.8477 201.306 34.3537 201.67 33.955C202.042 33.5563 202.558 33.357 203.217 33.357C203.901 33.357 204.452 33.6127 204.868 34.124C205.292 34.6267 205.505 35.2333 205.505 35.944ZM206.493 32.59H197.289V31.55H206.493V32.59ZM209.937 32.59H208.572V40H207.337V33.565C207.337 33.227 207.281 32.98 207.168 32.824C207.056 32.668 206.848 32.59 206.544 32.59H205.972V31.55H206.648C207.012 31.55 207.29 31.7277 207.48 32.083C207.402 31.6323 207.363 31.2077 207.363 30.809V30.471H208.572V31.55H209.937V32.59ZM218.006 32.59H216.472V40H215.224V38.765C215.224 38.0457 215.042 37.4823 214.678 37.075C214.323 36.659 213.816 36.451 213.157 36.451C212.706 36.451 212.347 36.5593 212.078 36.776C211.818 36.9927 211.688 37.3003 211.688 37.699C211.688 38.1063 211.814 38.414 212.065 38.622C212.316 38.8213 212.637 38.921 213.027 38.921C213.192 38.921 213.413 38.9037 213.69 38.869V39.922C213.43 39.974 213.148 40 212.845 40C212.134 40 211.554 39.8007 211.103 39.402C210.652 39.0033 210.427 38.4357 210.427 37.699C210.427 37.127 210.583 36.646 210.895 36.256C211.216 35.866 211.649 35.6017 212.195 35.463C212.074 34.189 211.428 33.552 210.258 33.552V32.59H209.413V31.55H218.006V32.59ZM215.224 36.438V32.59H211.493C212.065 32.798 212.507 33.1533 212.819 33.656C213.14 34.15 213.33 34.722 213.391 35.372C214.249 35.4673 214.86 35.8227 215.224 36.438ZM225.589 35.944C225.589 36.9493 225.281 37.7987 224.666 38.492C224.059 39.1853 223.192 39.532 222.066 39.532C220.896 39.532 219.977 39.129 219.31 38.323C218.651 37.517 218.322 36.4467 218.322 35.112C218.322 34.7133 218.348 34.3277 218.4 33.955H219.596C219.552 34.267 219.531 34.6527 219.531 35.112C219.531 36.0827 219.747 36.88 220.181 37.504C220.614 38.128 221.242 38.44 222.066 38.44C222.802 38.44 223.366 38.2103 223.756 37.751C224.146 37.283 224.341 36.6807 224.341 35.944C224.341 35.4933 224.258 35.125 224.094 34.839C223.929 34.5443 223.673 34.397 223.327 34.397C223.041 34.397 222.82 34.501 222.664 34.709C222.508 34.9083 222.43 35.1727 222.43 35.502C222.43 35.8313 222.473 36.1563 222.56 36.477H221.403C221.273 36.1477 221.208 35.801 221.208 35.437C221.208 34.8477 221.39 34.3537 221.754 33.955C222.126 33.5563 222.642 33.357 223.301 33.357C223.985 33.357 224.536 33.6127 224.952 34.124C225.376 34.6267 225.589 35.2333 225.589 35.944ZM226.577 32.59H217.373V31.55H226.577V32.59ZM239.504 40H238.295C238.113 39.2027 238.022 38.4313 238.022 37.686C238.022 36.854 238.13 36.061 238.347 35.307C237.575 35.099 236.873 34.7783 236.241 34.345C235.608 33.9117 235.153 33.396 234.876 32.798C234.139 33.3613 233.771 34.0027 233.771 34.722C233.771 35.4067 234.174 35.749 234.98 35.749C235.569 35.749 236.154 35.619 236.735 35.359C236.891 35.7663 236.969 36.2127 236.969 36.698C236.969 37.6513 236.683 38.44 236.111 39.064C235.547 39.6793 234.754 39.987 233.732 39.987C232.588 39.987 231.682 39.584 231.015 38.778C230.347 37.9633 230.014 36.8973 230.014 35.58C230.014 35.3113 230.018 35.1077 230.027 34.969H231.262C231.253 35.0903 231.249 35.268 231.249 35.502C231.249 36.5333 231.465 37.3567 231.899 37.972C232.332 38.5873 232.943 38.895 233.732 38.895C234.408 38.895 234.923 38.7 235.279 38.31C235.634 37.92 235.812 37.387 235.812 36.711V36.633C235.43 36.7543 235.04 36.815 234.642 36.815C233.992 36.815 233.472 36.633 233.082 36.269C232.692 35.905 232.497 35.411 232.497 34.787C232.497 33.9377 232.826 33.2053 233.485 32.59H229.091V31.55H240.622V32.59H236.085C236.709 33.552 237.918 34.2193 239.712 34.592C239.391 35.554 239.231 36.581 239.231 37.673C239.231 38.3663 239.322 39.142 239.504 40ZM244.062 32.59H242.697V40H241.462V33.565C241.462 33.227 241.406 32.98 241.293 32.824C241.181 32.668 240.973 32.59 240.669 32.59H240.097V31.55H240.773C241.137 31.55 241.415 31.7277 241.605 32.083C241.527 31.6323 241.488 31.2077 241.488 30.809V30.471H242.697V31.55H244.062V32.59ZM250.194 40H248.946V39.961C248.894 39.4757 248.816 39.0163 248.712 38.583C248.617 38.141 248.482 37.7207 248.309 37.322C248.136 36.9233 247.91 36.607 247.633 36.373C247.364 36.1303 247.057 36.009 246.71 36.009C246.32 36.009 246.021 36.1303 245.813 36.373C245.614 36.6157 245.514 36.9407 245.514 37.348C245.514 37.5213 245.531 37.7293 245.566 37.972H244.357C244.305 37.7553 244.279 37.5127 244.279 37.244C244.279 36.5767 244.483 36.0177 244.89 35.567C245.297 35.1163 245.856 34.891 246.567 34.891C247.659 34.891 248.452 35.4717 248.946 36.633V32.59H243.538V31.55H251.507V32.59H250.194V40ZM254.955 32.59H253.59V40H252.355V33.565C252.355 33.227 252.299 32.98 252.186 32.824C252.073 32.668 251.865 32.59 251.562 32.59H250.99V31.55H251.666C252.03 31.55 252.307 31.7277 252.498 32.083C252.42 31.6323 252.381 31.2077 252.381 30.809V30.471H253.59V31.55H254.955V32.59ZM258.369 40.091C258.231 40.1083 258.101 40.117 257.979 40.117C257.121 40.117 256.489 39.7833 256.081 39.116C255.683 38.44 255.475 37.5733 255.457 36.516C255.457 34.592 255.817 33.2833 256.536 32.59H254.43V31.55H258.759V32.59H258.499C257.286 32.59 256.679 33.8987 256.679 36.516C256.679 38.18 257.156 39.012 258.109 39.012H258.369V40.091ZM266.455 35.944C266.455 36.9493 266.147 37.7987 265.532 38.492C264.925 39.1853 264.059 39.532 262.932 39.532C261.762 39.532 260.843 39.129 260.176 38.323C259.517 37.517 259.188 36.4467 259.188 35.112C259.188 34.7133 259.214 34.3277 259.266 33.955H260.462C260.419 34.267 260.397 34.6527 260.397 35.112C260.397 36.0827 260.614 36.88 261.047 37.504C261.48 38.128 262.109 38.44 262.932 38.44C263.669 38.44 264.232 38.2103 264.622 37.751C265.012 37.283 265.207 36.6807 265.207 35.944C265.207 35.4933 265.125 35.125 264.96 34.839C264.795 34.5443 264.54 34.397 264.193 34.397C263.907 34.397 263.686 34.501 263.53 34.709C263.374 34.9083 263.296 35.1727 263.296 35.502C263.296 35.8313 263.339 36.1563 263.426 36.477H262.269C262.139 36.1477 262.074 35.801 262.074 35.437C262.074 34.8477 262.256 34.3537 262.62 33.955C262.993 33.5563 263.508 33.357 264.167 33.357C264.852 33.357 265.402 33.6127 265.818 34.124C266.243 34.6267 266.455 35.2333 266.455 35.944ZM267.443 32.59H258.239V31.55H267.443V32.59ZM86.943 55.749C86.943 56.1823 86.8693 56.607 86.722 57.023H86.878C87.5193 57.023 87.983 57.2267 88.269 57.634V52.59H78.74V51.55H91.038C91.402 51.55 91.6793 51.7277 91.87 52.083C91.792 51.6323 91.753 51.2077 91.753 50.809V50.471H92.962V51.55H94.327V52.59H92.962V60H91.727V53.565C91.727 53.227 91.6707 52.98 91.558 52.824C91.4453 52.668 91.2373 52.59 90.934 52.59H89.517V60H88.269V59.857C88.269 58.661 87.7793 58.063 86.8 58.063H86.111C85.4697 58.7737 84.603 59.129 83.511 59.129C82.3757 59.129 81.4787 58.778 80.82 58.076C80.1613 57.3653 79.832 56.4077 79.832 55.203C79.832 54.7523 79.8667 54.3103 79.936 53.877H81.145C81.0843 54.2757 81.054 54.722 81.054 55.216C81.054 56.1173 81.2707 56.815 81.704 57.309C82.146 57.7943 82.744 58.037 83.498 58.037C84.2 58.037 84.7417 57.8247 85.123 57.4C85.5043 56.9753 85.695 56.4207 85.695 55.736C85.695 55.32 85.6127 54.982 85.448 54.722C85.2833 54.462 85.0363 54.332 84.707 54.332C84.421 54.332 84.2 54.436 84.044 54.644C83.8967 54.8433 83.823 55.1033 83.823 55.424C83.823 55.7187 83.8663 56.0177 83.953 56.321H82.848C82.7267 56.0003 82.666 55.658 82.666 55.294C82.666 54.7133 82.8437 54.2367 83.199 53.864C83.563 53.4827 84.057 53.292 84.681 53.292C85.3657 53.292 85.9117 53.526 86.319 53.994C86.735 54.462 86.943 55.047 86.943 55.749ZM102.402 52.59H100.868V60H99.6203V58.765C99.6203 58.0457 99.4383 57.4823 99.0743 57.075C98.719 56.659 98.212 56.451 97.5533 56.451C97.1027 56.451 96.743 56.5593 96.4743 56.776C96.2143 56.9927 96.0843 57.3003 96.0843 57.699C96.0843 58.1063 96.21 58.414 96.4613 58.622C96.7127 58.8213 97.0333 58.921 97.4233 58.921C97.588 58.921 97.809 58.9037 98.0863 58.869V59.922C97.8263 59.974 97.5447 60 97.2413 60C96.5307 60 95.95 59.8007 95.4993 59.402C95.0487 59.0033 94.8233 58.4357 94.8233 57.699C94.8233 57.127 94.9793 56.646 95.2913 56.256C95.612 55.866 96.0453 55.6017 96.5913 55.463C96.47 54.189 95.8243 53.552 94.6543 53.552V52.59H93.8093V51.55H102.402V52.59ZM99.6203 56.438V52.59H95.8893C96.4613 52.798 96.9033 53.1533 97.2153 53.656C97.536 54.15 97.7267 54.722 97.7873 55.372C98.6453 55.4673 99.2563 55.8227 99.6203 56.438ZM105.734 52.59H104.369V60H103.134V53.565C103.134 53.227 103.078 52.98 102.965 52.824C102.853 52.668 102.645 52.59 102.341 52.59H101.769V51.55H102.445C102.809 51.55 103.087 51.7277 103.277 52.083C103.199 51.6323 103.16 51.2077 103.16 50.809V50.471H104.369V51.55H105.734V52.59ZM109.149 60.091C109.01 60.1083 108.88 60.117 108.759 60.117C107.901 60.117 107.268 59.7833 106.861 59.116C106.462 58.44 106.254 57.5733 106.237 56.516C106.237 54.592 106.596 53.2833 107.316 52.59H105.21V51.55H109.539V52.59H109.279C108.065 52.59 107.459 53.8987 107.459 56.516C107.459 58.18 107.935 59.012 108.889 59.012H109.149V60.091ZM111.345 58.076H110.123V52.59H109.018V51.55H116.454V52.59H111.345V56.373C111.761 55.8963 112.229 55.4457 112.749 55.021C113.278 54.5877 113.698 54.2973 114.01 54.15H115.232V60H114.01V55.463C113.594 55.7663 113.131 56.165 112.619 56.659C112.117 57.153 111.692 57.6253 111.345 58.076ZM123.334 52.59H121.982V60H120.76L116.73 57.01V55.697C117.996 54.579 119.339 53.8337 120.76 53.461V52.59H115.937V51.55H123.334V52.59ZM117.952 59.103C118.108 59.2503 118.186 59.4323 118.186 59.649C118.186 59.8657 118.108 60.0477 117.952 60.195C117.805 60.3423 117.623 60.416 117.406 60.416C117.19 60.416 117.008 60.3423 116.86 60.195C116.713 60.0477 116.639 59.8657 116.639 59.649C116.639 59.4323 116.713 59.2503 116.86 59.103C117.008 58.947 117.19 58.869 117.406 58.869C117.623 58.869 117.805 58.947 117.952 59.103ZM120.76 58.609V54.631C119.712 55.0123 118.732 55.5843 117.822 56.347L120.76 58.609ZM129.791 60.091C129.653 60.1083 129.527 60.117 129.414 60.117C128.574 60.117 127.945 59.792 127.529 59.142C127.113 58.492 126.897 57.6167 126.879 56.516C126.879 55.866 126.923 55.268 127.009 54.722C127.105 54.1673 127.261 53.643 127.477 53.149C127.694 52.6463 128.01 52.2563 128.426 51.979C128.842 51.693 129.341 51.55 129.921 51.55H130.181V52.59H129.947C128.717 52.59 128.101 53.8987 128.101 56.516C128.101 58.18 128.578 59.012 129.531 59.012H129.791V60.091ZM139.788 56.308C139.788 57.088 139.576 57.6947 139.151 58.128C138.726 58.5527 138.176 58.765 137.5 58.765C137.387 58.765 137.301 58.7607 137.24 58.752V57.608H137.396C138.185 57.608 138.579 57.1747 138.579 56.308C138.579 55.7533 138.367 55.3243 137.942 55.021C137.517 54.709 136.958 54.553 136.265 54.553V60H135.03L130.597 57.894V56.594L132.82 54.995L130.623 53.513V52.59H129.661V51.55H140.568V52.59H131.39L133.912 54.397V55.593L131.832 57.14L135.03 58.726V53.461H136.265C137.279 53.461 138.12 53.721 138.787 54.241C139.454 54.7523 139.788 55.4413 139.788 56.308ZM146.871 60H145.623V57.387C145.623 57.0403 145.553 56.7543 145.415 56.529C145.276 56.295 145.059 56.178 144.765 56.178C144.565 56.178 144.379 56.2517 144.206 56.399C144.032 56.5463 143.872 56.7283 143.725 56.945C143.586 57.153 143.434 57.3653 143.27 57.582C143.105 57.7987 142.888 57.9807 142.62 58.128C142.351 58.2753 142.048 58.349 141.71 58.349C141.415 58.349 141.107 58.2883 140.787 58.167V57.114C141.073 57.2007 141.324 57.244 141.541 57.244C141.723 57.244 141.892 57.1963 142.048 57.101C142.204 56.997 142.329 56.8843 142.425 56.763C142.52 56.6417 142.641 56.477 142.789 56.269C142.936 56.0523 143.053 55.892 143.14 55.788C143.053 55.0947 142.81 54.5487 142.412 54.15C142.013 53.7513 141.493 53.552 140.852 53.552V52.59H140.046V51.55H148.236V52.59H146.871V60ZM144.531 55.086C145.025 55.086 145.389 55.255 145.623 55.593V52.59H142.087C142.641 52.7893 143.096 53.1187 143.452 53.578C143.816 54.0287 144.054 54.5443 144.167 55.125C144.279 55.099 144.401 55.086 144.531 55.086ZM155.111 52.59H153.759V60H152.537L148.507 57.01V55.697C149.772 54.579 151.115 53.8337 152.537 53.461V52.59H147.714V51.55H155.111V52.59ZM152.537 58.609V54.631C151.488 55.0123 150.509 55.5843 149.599 56.347L152.537 58.609ZM152.852 62.262C153.424 62.262 153.758 61.8373 153.853 60.988C153.524 60.858 153.221 60.793 152.943 60.793C152.675 60.793 152.462 60.8537 152.306 60.975C152.142 61.105 152.059 61.2913 152.059 61.534C152.059 61.7593 152.133 61.937 152.28 62.067C152.419 62.197 152.61 62.262 152.852 62.262ZM156.297 62.964C155.803 62.3747 155.27 61.8763 154.698 61.469C154.586 61.9803 154.378 62.3877 154.074 62.691C153.762 63.003 153.355 63.159 152.852 63.159C152.315 63.159 151.873 63.0073 151.526 62.704C151.18 62.4093 151.006 62.0193 151.006 61.534C151.006 61.0227 151.184 60.6153 151.539 60.312C151.895 60.0173 152.363 59.87 152.943 59.87C153.593 59.87 154.213 60.0477 154.802 60.403C155.383 60.767 155.881 61.196 156.297 61.69V62.964ZM164.162 56.425C164.162 57.205 163.95 57.8117 163.525 58.245C163.101 58.6697 162.55 58.882 161.874 58.882C161.753 58.882 161.666 58.8777 161.614 58.869V57.725H161.77C162.55 57.725 162.94 57.2917 162.94 56.425C162.94 55.8703 162.728 55.4197 162.303 55.073C161.887 54.7263 161.333 54.54 160.639 54.514V60H159.417L155.387 57.01V55.697C156.843 54.4143 158.187 53.6647 159.417 53.448V52.59H154.594V51.55H164.929V52.59H160.639V53.422C161.627 53.4393 162.459 53.7253 163.135 54.28C163.82 54.826 164.162 55.541 164.162 56.425ZM159.417 58.622V54.566C158.507 54.8087 157.524 55.4067 156.466 56.36L159.417 58.622ZM168.209 58.583C168.209 58.297 168.239 58.0457 168.3 57.829H169.496C169.453 58.0283 169.431 58.2493 169.431 58.492C169.431 59.1593 169.769 59.493 170.445 59.493C170.714 59.493 171.091 59.4323 171.576 59.311C172.061 59.181 172.421 59.116 172.655 59.116C172.941 59.116 173.162 59.194 173.318 59.35V54.592C173.318 53.942 173.171 53.4307 172.876 53.058C172.59 52.6853 172.148 52.499 171.55 52.499C170.718 52.499 170.198 52.863 169.99 53.591C170.675 53.6083 171.221 53.773 171.628 54.085C172.035 54.397 172.243 54.8477 172.252 55.437C172.243 56.0783 172.009 56.568 171.55 56.906C171.099 57.244 170.484 57.413 169.704 57.413C169.392 57.413 169.054 57.3783 168.69 57.309V56.308C168.993 56.334 169.323 56.347 169.678 56.347C170.562 56.347 171.004 56.048 171.004 55.45C171.004 54.8433 170.562 54.54 169.678 54.54H168.69V54.267C168.69 53.4783 168.924 52.8067 169.392 52.252C169.86 51.6973 170.51 51.42 171.342 51.42C172.278 51.42 172.937 51.7277 173.318 52.343V50.471H174.566V51.55H175.918V52.59H174.566V61.014H173.318V60.754C173.318 60.3813 173.153 60.195 172.824 60.195C172.651 60.195 172.291 60.26 171.745 60.39C171.208 60.5287 170.74 60.598 170.341 60.598C169.734 60.598 169.227 60.4247 168.82 60.078C168.413 59.7313 168.209 59.233 168.209 58.583ZM178.938 52.59H175.402V51.55H178.938V52.59ZM176.052 54.163C176.667 54.163 177.148 54.345 177.495 54.709C177.85 55.0643 178.028 55.5497 178.028 56.165C178.028 56.7457 177.842 57.231 177.469 57.621C177.096 58.011 176.589 58.206 175.948 58.206C175.532 58.206 175.159 58.0977 174.83 57.881C174.492 57.6557 174.267 57.3437 174.154 56.945L174.557 55.827C174.557 56.2343 174.683 56.5593 174.934 56.802C175.177 57.0447 175.484 57.166 175.857 57.166C176.178 57.166 176.425 57.0707 176.598 56.88C176.78 56.6893 176.871 56.438 176.871 56.126C176.871 55.8227 176.789 55.593 176.624 55.437C176.459 55.2723 176.23 55.19 175.935 55.19C175.753 55.19 175.623 55.1987 175.545 55.216V54.202C175.692 54.176 175.861 54.163 176.052 54.163ZM182.363 60.091C182.224 60.1083 182.094 60.117 181.973 60.117C181.115 60.117 180.482 59.7833 180.075 59.116C179.676 58.44 179.468 57.5733 179.451 56.516C179.451 54.592 179.81 53.2833 180.53 52.59H178.424V51.55H182.753V52.59H182.493C181.279 52.59 180.673 53.8987 180.673 56.516C180.673 58.18 181.149 59.012 182.103 59.012H182.363V60.091ZM183.272 56.711L184.533 55.97C184.247 55.4067 183.775 55.008 183.116 54.774V54.176C183.116 53.4567 183.355 52.8197 183.831 52.265C184.308 51.7017 184.971 51.42 185.82 51.42C186.756 51.42 187.424 51.745 187.822 52.395V50.471H189.057V51.55H190.422V52.59H189.057V60H187.822V55.307L183.272 58.037V56.711ZM184.325 54.189C184.828 54.4317 185.218 54.8347 185.495 55.398L187.77 54.046C187.692 53.578 187.502 53.2053 187.198 52.928C186.904 52.642 186.505 52.499 186.002 52.499C185.482 52.499 185.071 52.6593 184.767 52.98C184.473 53.292 184.325 53.695 184.325 54.189ZM203.347 60H202.138C201.956 59.2027 201.865 58.4313 201.865 57.686C201.865 56.854 201.974 56.061 202.19 55.307C201.419 55.099 200.717 54.7783 200.084 54.345C199.452 53.9117 198.997 53.396 198.719 52.798C197.983 53.3613 197.614 54.0027 197.614 54.722C197.614 55.4067 198.017 55.749 198.823 55.749C199.413 55.749 199.998 55.619 200.578 55.359C200.734 55.7663 200.812 56.2127 200.812 56.698C200.812 57.6513 200.526 58.44 199.954 59.064C199.391 59.6793 198.598 59.987 197.575 59.987C196.431 59.987 195.526 59.584 194.858 58.778C194.191 57.9633 193.857 56.8973 193.857 55.58C193.857 55.3113 193.862 55.1077 193.87 54.969H195.105C195.097 55.0903 195.092 55.268 195.092 55.502C195.092 56.5333 195.309 57.3567 195.742 57.972C196.176 58.5873 196.787 58.895 197.575 58.895C198.251 58.895 198.767 58.7 199.122 58.31C199.478 57.92 199.655 57.387 199.655 56.711V56.633C199.274 56.7543 198.884 56.815 198.485 56.815C197.835 56.815 197.315 56.633 196.925 56.269C196.535 55.905 196.34 55.411 196.34 54.787C196.34 53.9377 196.67 53.2053 197.328 52.59H192.934V51.55H204.465V52.59H199.928C200.552 53.552 201.761 54.2193 203.555 54.592C203.235 55.554 203.074 56.581 203.074 57.673C203.074 58.3663 203.165 59.142 203.347 60ZM207.88 60.091C207.742 60.1083 207.612 60.117 207.49 60.117C206.632 60.117 206 59.7833 205.592 59.116C205.194 58.44 204.986 57.5733 204.968 56.516C204.968 54.592 205.328 53.2833 206.047 52.59H203.941V51.55H208.27V52.59H208.01C206.797 52.59 206.19 53.8987 206.19 56.516C206.19 58.18 206.667 59.012 207.62 59.012H207.88V60.091ZM212.001 54.397V55.593L209.921 57.14L213.119 58.726V52.59H209.479L212.001 54.397ZM215.719 52.59H214.354V60H213.119L208.686 57.894V56.594L210.909 54.995L208.712 53.513V52.59H207.75V51.55H215.719V52.59ZM210.558 60C210.714 60.1473 210.792 60.3293 210.792 60.546C210.792 60.7627 210.714 60.9447 210.558 61.092C210.41 61.2393 210.228 61.313 210.012 61.313C209.786 61.313 209.6 61.2393 209.453 61.092C209.314 60.9533 209.245 60.7713 209.245 60.546C209.245 60.3293 209.318 60.1473 209.466 60C209.613 59.844 209.795 59.766 210.012 59.766C210.228 59.766 210.41 59.844 210.558 60ZM221.845 60H220.597V59.961C220.545 59.4757 220.467 59.0163 220.363 58.583C220.268 58.141 220.134 57.7207 219.96 57.322C219.787 56.9233 219.562 56.607 219.284 56.373C219.016 56.1303 218.708 56.009 218.361 56.009C217.971 56.009 217.672 56.1303 217.464 56.373C217.265 56.6157 217.165 56.9407 217.165 57.348C217.165 57.5213 217.183 57.7293 217.217 57.972H216.008C215.956 57.7553 215.93 57.5127 215.93 57.244C215.93 56.5767 216.134 56.0177 216.541 55.567C216.949 55.1163 217.508 54.891 218.218 54.891C219.31 54.891 220.103 55.4717 220.597 56.633V52.59H215.189V51.55H223.158V52.59H221.845V60ZM235.244 56.425C235.244 57.205 235.031 57.8117 234.607 58.245C234.182 58.6697 233.632 58.882 232.956 58.882C232.834 58.882 232.748 58.8777 232.696 58.869V57.725H232.852C233.632 57.725 234.022 57.2917 234.022 56.425C234.022 55.8703 233.809 55.4197 233.385 55.073C232.969 54.7263 232.414 54.54 231.721 54.514V60H230.499L226.469 57.01V55.697C227.925 54.4143 229.268 53.6647 230.499 53.448V52.59H225.676V51.55H236.011V52.59H231.721V53.422C232.709 53.4393 233.541 53.7253 234.217 54.28C234.901 54.826 235.244 55.541 235.244 56.425ZM230.499 58.622V54.566C229.589 54.8087 228.605 55.4067 227.548 56.36L230.499 58.622ZM242.886 52.59H241.534V60H240.312L236.282 57.01V55.697C237.547 54.579 238.891 53.8337 240.312 53.461V52.59H235.489V51.55H242.886V52.59ZM237.504 59.103C237.66 59.2503 237.738 59.4323 237.738 59.649C237.738 59.8657 237.66 60.0477 237.504 60.195C237.357 60.3423 237.175 60.416 236.958 60.416C236.741 60.416 236.559 60.3423 236.412 60.195C236.265 60.0477 236.191 59.8657 236.191 59.649C236.191 59.4323 236.265 59.2503 236.412 59.103C236.559 58.947 236.741 58.869 236.958 58.869C237.175 58.869 237.357 58.947 237.504 59.103ZM240.312 58.609V54.631C239.263 55.0123 238.284 55.5843 237.374 56.347L240.312 58.609ZM245.906 52.59H242.37V51.55H245.906V52.59ZM243.02 54.163C243.635 54.163 244.116 54.345 244.463 54.709C244.818 55.0643 244.996 55.5497 244.996 56.165C244.996 56.7457 244.81 57.231 244.437 57.621C244.064 58.011 243.557 58.206 242.916 58.206C242.5 58.206 242.127 58.0977 241.798 57.881C241.46 57.6557 241.235 57.3437 241.122 56.945L241.525 55.827C241.525 56.2343 241.651 56.5593 241.902 56.802C242.145 57.0447 242.452 57.166 242.825 57.166C243.146 57.166 243.393 57.0707 243.566 56.88C243.748 56.6893 243.839 56.438 243.839 56.126C243.839 55.8227 243.757 55.593 243.592 55.437C243.427 55.2723 243.198 55.19 242.903 55.19C242.721 55.19 242.591 55.1987 242.513 55.216V54.202C242.66 54.176 242.829 54.163 243.02 54.163ZM252.047 60H250.799V59.961C250.747 59.4757 250.669 59.0163 250.565 58.583C250.47 58.141 250.336 57.7207 250.162 57.322C249.989 56.9233 249.764 56.607 249.486 56.373C249.218 56.1303 248.91 56.009 248.563 56.009C248.173 56.009 247.874 56.1303 247.666 56.373C247.467 56.6157 247.367 56.9407 247.367 57.348C247.367 57.5213 247.385 57.7293 247.419 57.972H246.21C246.158 57.7553 246.132 57.5127 246.132 57.244C246.132 56.5767 246.336 56.0177 246.743 55.567C247.151 55.1163 247.71 54.891 248.42 54.891C249.512 54.891 250.305 55.4717 250.799 56.633V52.59H245.391V51.55H253.36V52.59H252.047V60ZM256.042 60H254.833V51.55H256.042V60Z"
            fill="white" />
        <g clip-path="url(#clip1_1000_7650)">
            <rect x="14" y="20" width="51" height="51" rx="15" fill="#19A37A" />
            <g opacity="0.1">
                <path
                    d="M45.3131 32.238C43.9854 32.0887 42.6504 32.0094 41.314 32.0005C37.3573 31.9592 34.6241 34.2819 34.5764 38.602L34.5341 42.3285L30.0583 42.2821L30 47.3299L34.4228 51.6448L34.3275 60.3366L51.1604 77H61.701C63.6368 77 65.4934 76.2507 66.8622 74.9168C68.231 73.583 69 71.7739 69 69.8876V55.5802L45.3131 32.238Z"
                    fill="#222221" />
            </g>
            <path
                d="M44.9533 36.8663L42.2605 36.8347C40.1539 36.8347 39.7337 37.8257 39.7181 39.3176L39.687 42.6124L44.7094 42.6651L44.0038 47.8156L39.6299 47.7681L39.4898 61L34.2442 60.942L34.3843 47.7101L30 47.6574L30.0571 42.5017L34.4414 42.5492L34.4829 38.743C34.5296 34.3306 37.2069 31.9584 41.0827 32.0006C42.3918 32.0096 43.6995 32.0905 45 32.243L44.9533 36.8663Z"
                fill="white" />
        </g>
        <rect x="14" y="20" width="51" height="51" rx="15" stroke="white" stroke-opacity="0.61"
            stroke-width="2" />
        <rect x="283" y="31" width="39" height="28" rx="14" fill="#19A37A" stroke="white"
            stroke-opacity="0.61" stroke-width="2" />
        <path d="M308.25 41.25L312 45M312 45L308.25 48.75M312 45H294" stroke="white"
            stroke-width="1.5" stroke-linecap="round" stroke-linejoin="round" />
    </g>
    <rect x="1" y="1" width="336" height="88" rx="15" stroke="white" stroke-opacity="0.61"
        stroke-width="2" />
    <defs>
        <radialGradient id="paint0_radial_1000_7650" cx="0" cy="0" r="1"
            gradientUnits="userSpaceOnUse"
            gradientTransform="translate(1.00001 89) rotate(-12.4284) scale(344.063 239.707)">
            <stop offset="0.165521" stop-color="#349A6D" />
            <stop offset="0.99" stop-color="#3A9B84" />
        </radialGradient>
        <clipPath id="clip0_1000_7650">
            <rect x="1" y="1" width="336" height="88" rx="15" fill="white" />
        </clipPath>
        <clipPath id="clip1_1000_7650">
            <rect x="14" y="20" width="51" height="51" rx="15" fill="white" />
        </clipPath>
    </defs>
</svg>
