<svg width="15" height="13" viewBox="0 0 15 13" fill="none" xmlns="http://www.w3.org/2000/svg">
<path d="M12.3777 0.995879L2.21948 1.84987C1.64157 1.891 1.15346 2.27368 0.973817 2.82479C0.794055 3.37774 0.966259 3.9761 1.41178 4.34902C1.4304 4.36378 5.50622 6.90754 5.50622 6.90754C5.50622 6.90754 5.7068 11.6875 5.71091 11.71C5.81181 12.2825 6.24472 12.7292 6.81321 12.8495C7.16505 12.9235 7.51979 12.8617 7.81439 12.6916C7.9964 12.5865 8.15522 12.4402 8.27717 12.2588L14.0625 3.91199C14.4794 3.31349 14.5118 2.54952 14.1468 1.9183C13.782 1.28638 13.1028 0.933247 12.3777 0.995879ZM2.04912 3.54137C1.88821 3.38804 1.93326 3.19886 1.95104 3.14231C1.97035 3.08428 2.05203 2.89175 2.29416 2.87538C2.2969 2.87498 12.4652 2.01993 12.4652 2.01993C12.6003 2.00837 12.7295 2.02755 12.8469 2.07368L6.01903 6.01574L2.04912 3.54137ZM13.2183 3.32541L7.42791 11.6799C7.29248 11.8821 7.0856 11.8568 7.02519 11.8436C6.96739 11.8319 6.78052 11.7754 6.72837 11.5587L6.53467 6.90474L13.3634 2.96217C13.3454 3.08826 13.2967 3.21251 13.2183 3.32541Z" fill="#1AA483"/>
</svg>
