<svg width="27" height="27" viewBox="0 0 27 27" fill="none" xmlns="http://www.w3.org/2000/svg">
<path d="M13.5 25.875C13.4259 25.8755 13.3525 25.8613 13.284 25.8333C13.2155 25.8053 13.1531 25.764 13.1006 25.7119L9.89433 22.5H5.06246C4.91327 22.5 4.7702 22.4408 4.66471 22.3353C4.55922 22.2298 4.49996 22.0867 4.49996 21.9375V17.1056L1.28808 13.8994C1.18332 13.794 1.12451 13.6514 1.12451 13.5028C1.12451 13.3542 1.18332 13.2117 1.28808 13.1063L4.49996 9.89439V5.06252C4.49996 4.91333 4.55922 4.77026 4.66471 4.66477C4.7702 4.55928 4.91327 4.50002 5.06246 4.50002H9.89433L13.1062 1.28814C13.2116 1.18338 13.3542 1.12457 13.5028 1.12457C13.6514 1.12457 13.7939 1.18338 13.8993 1.28814L17.1056 4.50002H21.9375C22.0866 4.50002 22.2297 4.55928 22.3352 4.66477C22.4407 4.77026 22.5 4.91333 22.5 5.06252V9.89439L25.7118 13.1063C25.8166 13.2117 25.8754 13.3542 25.8754 13.5028C25.8754 13.6514 25.8166 13.794 25.7118 13.8994L22.5 17.1056V21.9375C22.5 22.0867 22.4407 22.2298 22.3352 22.3353C22.2297 22.4408 22.0866 22.5 21.9375 22.5H17.1056L13.8937 25.7119C13.7889 25.8158 13.6475 25.8744 13.5 25.875ZM5.62496 21.375H10.125C10.199 21.3746 10.2724 21.3888 10.3409 21.4168C10.4094 21.4448 10.4718 21.486 10.5243 21.5381L13.5 24.5194L16.4756 21.5438C16.5277 21.4906 16.5898 21.4483 16.6584 21.4194C16.7269 21.3904 16.8005 21.3753 16.875 21.375H21.375V16.875C21.3745 16.801 21.3887 16.7276 21.4167 16.6591C21.4447 16.5905 21.486 16.5282 21.5381 16.4756L24.5193 13.5L21.5437 10.5244C21.4906 10.4723 21.4483 10.4102 21.4193 10.3416C21.3903 10.2731 21.3753 10.1994 21.375 10.125V5.62502H16.875C16.8009 5.62545 16.7275 5.61126 16.659 5.58326C16.5905 5.55527 16.5281 5.51403 16.4756 5.46189L13.5 2.48064L10.5243 5.46189C10.4718 5.51403 10.4094 5.55527 10.3409 5.58326C10.2724 5.61126 10.199 5.62545 10.125 5.62502H5.62496V10.125C5.62539 10.199 5.6112 10.2724 5.5832 10.341C5.55521 10.4095 5.51397 10.4718 5.46183 10.5244L2.48058 13.5L5.45621 16.4756C5.50936 16.5277 5.55164 16.5899 5.58061 16.6584C5.60957 16.727 5.62465 16.8006 5.62496 16.875V21.375Z" fill="#1AA483"/>
<path d="M13.5 21.3751C13.4259 21.3755 13.3525 21.3613 13.284 21.3333C13.2155 21.3053 13.1531 21.2641 13.1006 21.212L11.0193 19.1251H8.43746C8.28827 19.1251 8.1452 19.0658 8.03971 18.9603C7.93422 18.8548 7.87496 18.7118 7.87496 18.5626V15.9807L5.78808 13.8938C5.68332 13.7884 5.62451 13.6459 5.62451 13.4973C5.62451 13.3487 5.68332 13.2061 5.78808 13.1007L7.87496 11.0195V8.43758C7.87496 8.2884 7.93422 8.14532 8.03971 8.03983C8.1452 7.93434 8.28827 7.87508 8.43746 7.87508H11.0193L13.1062 5.7882C13.2116 5.68344 13.3542 5.62463 13.5028 5.62463C13.6514 5.62463 13.7939 5.68344 13.8993 5.7882L15.9806 7.87508H18.5625C18.7116 7.87508 18.8547 7.93434 18.9602 8.03983C19.0657 8.14532 19.125 8.2884 19.125 8.43758V11.0195L21.2118 13.1063C21.3166 13.2117 21.3754 13.3543 21.3754 13.5029C21.3754 13.6515 21.3166 13.7941 21.2118 13.8995L19.125 15.9807V18.5626C19.125 18.7118 19.0657 18.8548 18.9602 18.9603C18.8547 19.0658 18.7116 19.1251 18.5625 19.1251H15.9806L13.8937 21.212C13.7889 21.3159 13.6475 21.3745 13.5 21.3751ZM8.99996 18.0001H11.25C11.324 17.9997 11.3974 18.0138 11.4659 18.0418C11.5344 18.0698 11.5968 18.1111 11.6493 18.1632L13.5 20.0195L15.3506 18.1688C15.4027 18.1157 15.4648 18.0734 15.5334 18.0444C15.6019 18.0155 15.6755 18.0004 15.75 18.0001H18V15.7501C17.9995 15.6761 18.0137 15.6027 18.0417 15.5341C18.0697 15.4656 18.111 15.4033 18.1631 15.3507L20.0193 13.5001L18.1687 11.6495C18.1156 11.5974 18.0733 11.5352 18.0443 11.4667C18.0153 11.3981 18.0003 11.3245 18 11.2501V9.00008H15.75C15.6759 9.00051 15.6025 8.98632 15.534 8.95833C15.4655 8.93033 15.4031 8.88909 15.3506 8.83695L13.5 6.9807L11.6493 8.83133C11.5972 8.88448 11.5351 8.92676 11.4666 8.95573C11.398 8.9847 11.3244 8.99977 11.25 9.00008H8.99996V11.2501C9.00039 11.3241 8.9862 11.3975 8.9582 11.466C8.93021 11.5346 8.88897 11.5969 8.83683 11.6495L6.98058 13.5001L8.83121 15.3507C8.88436 15.4028 8.92664 15.4649 8.95561 15.5335C8.98457 15.602 8.99965 15.6757 8.99996 15.7501V18.0001Z" fill="#1AA483"/>
<path d="M13.5 15.75C13.055 15.75 12.62 15.618 12.25 15.3708C11.88 15.1236 11.5916 14.7722 11.4213 14.361C11.251 13.9499 11.2064 13.4975 11.2932 13.061C11.3801 12.6246 11.5943 12.2237 11.909 11.909C12.2237 11.5943 12.6246 11.3801 13.061 11.2932C13.4975 11.2064 13.9499 11.251 14.361 11.4213C14.7722 11.5916 15.1236 11.88 15.3708 12.25C15.618 12.62 15.75 13.055 15.75 13.5C15.75 14.0967 15.5129 14.669 15.091 15.091C14.669 15.5129 14.0967 15.75 13.5 15.75ZM13.5 12.375C13.2775 12.375 13.06 12.441 12.875 12.5646C12.69 12.6882 12.5458 12.8639 12.4606 13.0695C12.3755 13.275 12.3532 13.5012 12.3966 13.7195C12.44 13.9377 12.5472 14.1382 12.7045 14.2955C12.8618 14.4528 13.0623 14.56 13.2805 14.6034C13.4988 14.6468 13.725 14.6245 13.9305 14.5394C14.1361 14.4542 14.3118 14.31 14.4354 14.125C14.559 13.94 14.625 13.7225 14.625 13.5C14.625 13.2016 14.5065 12.9155 14.2955 12.7045C14.0845 12.4935 13.7984 12.375 13.5 12.375Z" fill="#1AA483"/>
</svg>
