<svg width="21" height="20" viewBox="0 0 21 20" fill="none" xmlns="http://www.w3.org/2000/svg">
<path fill-rule="evenodd" clip-rule="evenodd" d="M11.4334 1.79535C11.0003 1.4971 10.4333 1.4971 10.0002 1.79535L2.86016 6.71204C2.52707 6.9414 2.32426 7.31102 2.30927 7.70791C2.25744 9.07986 2.2025 11.4824 2.35338 13.1877C2.4672 14.4741 2.77015 16.1746 3.01623 17.4256C3.13051 18.0065 3.63617 18.4283 4.23717 18.4283H7.56113C7.70274 18.4283 7.81754 18.3111 7.81754 18.1664V13.9753C7.81754 12.9626 8.62113 12.1417 9.61241 12.1417H12.1259C13.1172 12.1417 13.9208 12.9626 13.9208 13.9753V18.1664C13.9208 18.3111 14.0356 18.4283 14.1772 18.4283H17.1964C17.7974 18.4283 18.3031 18.0065 18.4174 17.4256C18.6634 16.1746 18.9664 14.4741 19.0802 13.1877C19.2311 11.4824 19.1762 9.07986 19.1243 7.70791C19.1093 7.31102 18.9065 6.9414 18.5734 6.71203L11.4334 1.79535ZM9.14031 0.492111C10.0932 -0.164037 11.3404 -0.164037 12.2933 0.492111L19.4333 5.4088C20.1625 5.91092 20.6272 6.73645 20.6616 7.6473C20.7134 9.0177 20.7732 11.5119 20.6124 13.3291C20.4906 14.7066 20.1729 16.4785 19.9257 17.7352C19.6629 19.071 18.5092 20 17.1964 20H14.1772C13.1859 20 12.3823 19.1791 12.3823 18.1664V13.9753C12.3823 13.8306 12.2675 13.7133 12.1259 13.7133H9.61241C9.4708 13.7133 9.356 13.8306 9.356 13.9753V18.1664C9.356 19.1791 8.55241 20 7.56113 20H4.23717C2.92441 20 1.77069 19.071 1.50792 17.7352C1.26072 16.4785 0.943039 14.7066 0.821163 13.3291C0.660373 11.5119 0.720178 9.0177 0.771952 7.6473C0.806364 6.73645 1.27107 5.91092 2.00025 5.4088L9.14031 0.492111Z" fill="#5D646F"/>
</svg>
