<svg width="14" height="14" viewBox="0 0 14 14" fill="none" xmlns="http://www.w3.org/2000/svg">
<path d="M9.83953 2.94198L11.4883 4.59073M10.5508 8.88761V11.8564C10.5508 12.2293 10.4026 12.587 10.1389 12.8507C9.87518 13.1144 9.51749 13.2626 9.14453 13.2626H2.58203C2.20907 13.2626 1.85139 13.1144 1.58766 12.8507C1.32394 12.587 1.17578 12.2293 1.17578 11.8564V5.29386C1.17578 4.92089 1.32394 4.56321 1.58766 4.29949C1.85139 4.03576 2.20907 3.88761 2.58203 3.88761H5.55078M9.83953 2.94198L10.8939 1.88698C11.1137 1.66718 11.4118 1.5437 11.7227 1.5437C12.0335 1.5437 12.3316 1.66718 12.5514 1.88698C12.7712 2.10678 12.8947 2.40489 12.8947 2.71573C12.8947 3.02657 12.7712 3.32468 12.5514 3.54448L5.91453 10.1814C5.58411 10.5116 5.17664 10.7543 4.72891 10.8876L3.05078 11.3876L3.55078 9.70948C3.68408 9.26175 3.9268 8.85428 4.25703 8.52386L9.83953 2.94198V2.94198Z" stroke="#1AA483" stroke-width="1.25" stroke-linecap="round" stroke-linejoin="round"/>
</svg>
