<svg width="24" height="24" viewBox="0 0 24 24" fill="none" xmlns="http://www.w3.org/2000/svg">
<path d="M17.6342 2H9.08232C8.23362 2.00103 7.41998 2.33864 6.81986 2.93876C6.21974 3.53888 5.88214 4.35252 5.8811 5.20122V7.17667C5.8811 7.42547 5.97994 7.66407 6.15586 7.84C6.33179 8.01593 6.57039 8.11476 6.81919 8.11476C7.06799 8.11476 7.30659 8.01593 7.48252 7.84C7.65844 7.66407 7.75728 7.42547 7.75728 7.17667V5.20122C7.75769 4.84992 7.89743 4.51313 8.14583 4.26473C8.39424 4.01632 8.73103 3.87659 9.08232 3.87617H17.6342C17.9852 3.8769 18.3217 4.01678 18.5697 4.26516C18.8178 4.51355 18.9573 4.85016 18.9576 5.20122V18.7988C18.9573 19.15 18.8177 19.4868 18.5693 19.7353C18.321 19.9837 17.9842 20.1234 17.633 20.1238H9.08232C8.73103 20.1234 8.39424 19.9837 8.14583 19.7353C7.89743 19.4869 7.75769 19.1501 7.75728 18.7988V16.5134C7.75728 16.2646 7.65844 16.026 7.48252 15.85C7.30659 15.6741 7.06799 15.5753 6.81919 15.5753C6.57039 15.5753 6.33179 15.6741 6.15586 15.85C5.97994 16.026 5.8811 16.2646 5.8811 16.5134V18.7988C5.88214 19.6475 6.21974 20.4611 6.81986 21.0612C7.41998 21.6614 8.23362 21.999 9.08232 22H17.6342C18.4826 21.9986 19.2958 21.6608 19.8956 21.0607C20.4954 20.4606 20.8328 19.6472 20.8338 18.7988V5.20122C20.8328 4.35279 20.4954 3.53939 19.8956 2.93931C19.2958 2.33923 18.4826 2.00145 17.6342 2Z" fill="#FFFFFF"/>
<path d="M16.2466 11.3172L12.9085 7.98116C12.7349 7.80743 12.5 7.70876 12.2543 7.70634C12.0087 7.70393 11.7719 7.79797 11.5948 7.96826C11.2157 8.33294 11.2247 8.95052 11.5968 9.32263L13.335 11.062H4.10459C3.85579 11.062 3.61719 11.1608 3.44126 11.3368C3.26534 11.5127 3.1665 11.7513 3.1665 12.0001C3.1665 12.2489 3.26534 12.4875 3.44126 12.6634C3.61719 12.8393 3.85579 12.9382 4.10459 12.9382H13.3354L11.5804 14.6932C11.4044 14.8691 11.3055 15.1077 11.3055 15.3565C11.3054 15.6054 11.4042 15.844 11.5802 16.02C11.7561 16.1959 11.9947 16.2948 12.2435 16.2949C12.4923 16.2949 12.731 16.1961 12.907 16.0202L16.2466 12.6818C16.3363 12.5922 16.4074 12.4859 16.456 12.3688C16.5046 12.2517 16.5296 12.1262 16.5296 11.9995C16.5296 11.8727 16.5046 11.7472 16.456 11.6302C16.4074 11.5131 16.3363 11.4068 16.2466 11.3172Z" fill="#FFFFFF"/>
</svg>
