<svg width="24" height="20" viewBox="0 0 24 20" fill="none" xmlns="http://www.w3.org/2000/svg">
<path d="M14.2948 3.8704C15.3204 4.51344 16.0396 5.60162 16.1705 6.86474C16.5888 7.06017 17.053 7.17256 17.5452 7.17256C19.3421 7.17256 20.7984 5.71622 20.7984 3.91967C20.7984 2.12284 19.3421 0.666504 17.5452 0.666504C15.7656 0.667058 14.322 2.09738 14.2948 3.8704ZM12.1636 10.5312C13.9604 10.5312 15.4168 9.07457 15.4168 7.27803C15.4168 5.48148 13.9602 4.02514 12.1636 4.02514C10.3671 4.02514 8.90989 5.48175 8.90989 7.2783C8.90989 9.07485 10.3671 10.5312 12.1636 10.5312ZM13.5435 10.7529H10.7831C8.48636 10.7529 6.61784 12.6217 6.61784 14.9185V18.2943L6.62642 18.3471L6.85895 18.42C9.05079 19.1048 10.955 19.3332 12.5224 19.3332C15.5837 19.3332 17.3581 18.4604 17.4674 18.4047L17.6847 18.2948H17.708V14.9185C17.7088 12.6217 15.8403 10.7529 13.5435 10.7529ZM18.9257 7.39457H16.1866C16.157 8.49049 15.6892 9.47734 14.9492 10.1871C16.9908 10.7942 18.4845 12.6873 18.4845 14.9235V15.9637C21.189 15.8646 22.7475 15.0981 22.8502 15.0466L23.0675 14.9365H23.0907V11.5596C23.0907 9.26309 21.2222 7.39457 18.9257 7.39457ZM6.45535 7.17311C7.09175 7.17311 7.68387 6.98737 8.18546 6.67096C8.34491 5.63096 8.90242 4.72216 9.69882 4.1032C9.70215 4.0423 9.70796 3.98195 9.70796 3.9205C9.70796 2.12367 8.25134 0.667334 6.45535 0.667334C4.65825 0.667334 3.20218 2.12367 3.20218 3.9205C3.20218 5.7165 4.65825 7.17311 6.45535 7.17311ZM9.37688 10.1871C8.64055 9.48094 8.17439 8.49935 8.14034 7.41007C8.03875 7.40259 7.93826 7.39457 7.83473 7.39457H5.07458C2.77782 7.39457 0.909302 9.26309 0.909302 11.5596V14.9359L0.917883 14.988L1.15041 15.0613C2.90876 15.6102 4.47804 15.8633 5.84109 15.943V14.9235C5.84164 12.6873 7.3348 10.7947 9.37688 10.1871Z" fill="#0089EF"/>
</svg>
