<svg width="12" height="20" viewBox="0 0 12 20" fill="none" xmlns="http://www.w3.org/2000/svg">
<path d="M11.0691 8.10546L10.7473 10.8927C10.7339 11.0199 10.6743 11.1378 10.5798 11.2239C10.4853 11.31 10.3624 11.3585 10.2346 11.36H7.32548L7.31093 19.6236C7.31192 19.7216 7.27432 19.8159 7.20628 19.8864C7.13823 19.9568 7.0452 19.9976 6.9473 20H4.00002C3.95102 20 3.90252 19.9902 3.85742 19.971C3.81233 19.9518 3.77158 19.9237 3.73761 19.8884C3.70365 19.8531 3.67717 19.8113 3.65978 19.7654C3.64238 19.7196 3.63443 19.6708 3.63639 19.6218V11.36H1.45457C1.38604 11.3593 1.31833 11.3451 1.25529 11.3182C1.19225 11.2913 1.13513 11.2523 1.08718 11.2033C1.03923 11.1544 1.00139 11.0964 0.975833 11.0328C0.950272 10.9693 0.937487 10.9013 0.938207 10.8327L0.927297 8.04545C0.926336 7.97669 0.93893 7.90841 0.96436 7.84451C0.989791 7.78061 1.02756 7.72234 1.07551 7.67304C1.12346 7.62374 1.18065 7.58437 1.24382 7.55717C1.30699 7.52998 1.37489 7.51549 1.44366 7.51455H3.63639V4.82364C3.63639 1.7 5.49093 0 8.21093 0H10.44C10.5089 0.000711265 10.577 0.0150221 10.6404 0.0421115C10.7038 0.0692009 10.7612 0.108536 10.8094 0.157861C10.8575 0.207185 10.8954 0.265529 10.921 0.329545C10.9465 0.393562 10.9592 0.461991 10.9582 0.530909V2.87636C10.9592 2.94528 10.9465 3.01371 10.921 3.07773C10.8954 3.14174 10.8575 3.20009 10.8094 3.24941C10.7612 3.29874 10.7038 3.33807 10.6404 3.36516C10.577 3.39225 10.5089 3.40656 10.44 3.40727H9.07275C7.59457 3.40727 7.3073 4.13455 7.3073 5.18545V7.51455H10.5564C10.6303 7.51547 10.7031 7.53203 10.7702 7.56312C10.8372 7.59422 10.8969 7.63915 10.9453 7.69496C10.9938 7.75078 11.0298 7.81621 11.0512 7.88696C11.0725 7.95771 11.0786 8.03217 11.0691 8.10546Z" fill="#0089EF"/>
</svg>
