<svg width="20" height="24" viewBox="0 0 20 24" fill="none" xmlns="http://www.w3.org/2000/svg">
<path d="M15.4809 1.33325V3.46624M10.1484 1.33325V3.46624M4.81598 1.33325V3.46624" stroke="#1AA483" stroke-width="1.5" stroke-linecap="round" stroke-linejoin="round"/>
<path d="M1.08337 16.2641V8.79861C1.08337 5.78211 1.08337 4.27387 2.02048 3.33676C2.95759 2.39966 4.46583 2.39966 7.48233 2.39966H12.8148C15.8313 2.39966 17.3395 2.39966 18.2766 3.33676C19.2137 4.27387 19.2137 5.78211 19.2137 8.79861V11.9981C19.2137 17.0255 19.2137 19.5394 17.6519 21.1011C16.0901 22.663 13.5763 22.663 8.54882 22.663H7.48233C4.46583 22.663 2.95759 22.663 2.02048 21.7259C1.08337 20.7888 1.08337 19.2805 1.08337 16.2641Z" stroke="#1AA483" stroke-width="1.5"/>
<path d="M5.88254 15.1979H10.1485M5.88254 9.86548H14.4145" stroke="#1AA483" stroke-width="1.5" stroke-linecap="round"/>
<path d="M19.2136 14.6646C19.2136 16.1371 18.0199 17.3308 16.5474 17.3308C16.0149 17.3308 15.3871 17.2375 14.8693 17.3762C14.4092 17.4995 14.0499 17.8588 13.9266 18.3189C13.7878 18.8367 13.8812 19.4645 13.8812 19.997C13.8812 21.4695 12.6874 22.6632 11.2149 22.6632" stroke="#1AA483" stroke-width="1.5" stroke-linecap="round" stroke-linejoin="round"/>
</svg>
