<svg width="16" height="16" viewBox="0 0 16 16" fill="none" xmlns="http://www.w3.org/2000/svg">
<path d="M15.4364 4.52489L11.5154 0.605824C11.2379 0.318794 10.8684 0.138466 10.4714 0.0963924C10.0744 0.0543194 9.67528 0.153181 9.34383 0.375678C9.14841 0.514648 8.98567 0.694574 8.86694 0.902907C8.74821 1.11124 8.67636 1.34297 8.65639 1.58192C8.63643 1.82088 8.66883 2.06131 8.75134 2.28646C8.83385 2.51161 8.96448 2.71605 9.13412 2.88552L9.52452 3.27525C9.62398 3.37532 9.67981 3.51069 9.67981 3.65179C9.67981 3.79289 9.62398 3.92825 9.52452 4.02833L8.13968 5.41316C8.01815 5.53416 7.86736 5.62163 7.70199 5.66704C7.53662 5.71246 7.36231 5.71428 7.19602 5.67232L6.65528 5.53384C6.03169 5.37106 5.38385 5.32214 4.7429 5.38942C4.32167 5.43323 3.92175 5.59655 3.59028 5.86014C3.25881 6.12373 3.00961 6.47659 2.87206 6.87712C2.72139 7.29115 2.69205 7.73957 2.78749 8.16969C2.88293 8.59982 3.09918 8.99375 3.41082 9.30519L4.56221 10.4975L0.281764 14.7792C0.218781 14.8401 0.168543 14.9128 0.133982 14.9933C0.0994217 15.0737 0.0812301 15.1603 0.0804692 15.2478C0.0797084 15.3354 0.0963934 15.4222 0.129551 15.5033C0.162708 15.5843 0.211674 15.6579 0.273591 15.7199C0.335508 15.7818 0.409136 15.8307 0.490179 15.8639C0.571222 15.897 0.658057 15.9137 0.745617 15.913C0.833178 15.9122 0.91971 15.894 1.00016 15.8595C1.08062 15.8249 1.15339 15.7747 1.21422 15.7117L5.47883 11.4471L6.30314 12.3004C6.86194 12.8932 7.6327 13.2408 8.44699 13.2671C8.71023 13.2674 8.9716 13.2228 9.21985 13.1352C9.5987 13.0045 9.93152 12.7667 10.178 12.4507C10.4245 12.1347 10.5741 11.754 10.6086 11.3547C10.6754 10.7196 10.6276 10.0777 10.4675 9.4595L10.3277 8.78291C10.2885 8.61789 10.2922 8.44559 10.3383 8.28238C10.3845 8.11918 10.4717 7.97049 10.5915 7.85046L11.9691 6.47486C12.0762 6.37657 12.2148 6.31954 12.3601 6.31396C12.4239 6.31383 12.4871 6.32642 12.546 6.35099C12.6049 6.37556 12.6582 6.41162 12.703 6.45706L13.0367 6.79074C13.3127 7.08543 13.6847 7.27212 14.086 7.31732C14.4872 7.36252 14.8914 7.26327 15.2261 7.03737C15.4215 6.89845 15.5843 6.71857 15.7031 6.51026C15.8219 6.30195 15.8938 6.07024 15.9138 5.83128C15.9339 5.59232 15.9015 5.35187 15.8191 5.1267C15.7366 4.90152 15.606 4.69705 15.4364 4.52753V4.52489Z" fill="#FF2459"/>
</svg>
