<svg width="20" height="20" viewBox="0 0 20 20" fill="none" xmlns="http://www.w3.org/2000/svg">
<g clip-path="url(#clip0_1187_9139)">
<path d="M15.6714 6.05419L12.5346 5.59838L11.1317 2.75599C10.5901 1.65837 9.02333 1.65796 8.48146 2.75595L7.07861 5.59838L3.9418 6.05419C2.73055 6.23016 2.24609 7.72006 3.12283 8.57477L5.39266 10.7873L4.85684 13.9114C4.64992 15.1177 5.91705 16.0389 7.00098 15.4692L9.80659 13.9941L12.6123 15.4692C13.6975 16.0396 14.9628 15.1149 14.7563 13.9114L14.2205 10.7873L16.4903 8.57477C17.3668 7.72036 16.8831 6.23027 15.6714 6.05419Z" fill="#1FA471"/>
<path d="M5.30646 2.24983L4.54902 1.20736C4.3434 0.924436 3.94733 0.861685 3.66441 1.06731C3.38145 1.27289 3.31873 1.66896 3.52432 1.95192L4.28176 2.99439C4.48749 3.27746 4.8836 3.33999 5.16637 3.13444C5.44933 2.9289 5.51204 2.53279 5.30646 2.24983Z" fill="#1FA471"/>
<path d="M2.79284 11.5924C2.68474 11.2597 2.32753 11.0775 1.9948 11.1858L0.744407 11.5921C0.411759 11.7001 0.229738 12.0574 0.3378 12.3901C0.446085 12.7234 0.804041 12.9047 1.13584 12.7967L2.38627 12.3904C2.71892 12.2824 2.90094 11.925 2.79284 11.5924Z" fill="#1FA471"/>
<path d="M15.9491 1.06732C15.6662 0.861695 15.2701 0.92441 15.0645 1.20737L14.3071 2.24984C14.1014 2.5328 14.1642 2.92891 14.4471 3.13445C14.7302 3.34011 15.1262 3.27725 15.3318 2.9944L16.0892 1.95193C16.2948 1.66897 16.2321 1.2729 15.9491 1.06732Z" fill="#1FA471"/>
<path d="M18.8687 11.5919L17.6183 11.1855C17.2856 11.0773 16.9283 11.2595 16.8202 11.5921C16.7121 11.9248 16.8942 12.2821 17.2268 12.3902L18.4773 12.7965C18.8093 12.9045 19.1671 12.723 19.2753 12.3899C19.3834 12.0572 19.2014 11.7 18.8687 11.5919Z" fill="#1FA471"/>
<path d="M9.80665 16.5017C9.45689 16.5017 9.17334 16.7853 9.17334 17.135V18.4204C9.17334 18.7702 9.45689 19.0537 9.80665 19.0537C10.1564 19.0537 10.44 18.7702 10.44 18.4204V17.135C10.44 16.7853 10.1564 16.5017 9.80665 16.5017Z" fill="#1FA471"/>
</g>
<defs>
<clipPath id="clip0_1187_9139">
<rect width="19" height="19" fill="white" transform="translate(0.306641 0.5)"/>
</clipPath>
</defs>
</svg>
