<svg width="23" height="22" viewBox="0 0 23 22" fill="none" xmlns="http://www.w3.org/2000/svg">
<path fill-rule="evenodd" clip-rule="evenodd" d="M10.985 3.24351C6.96014 3.24351 3.69871 6.50235 3.69871 10.5206C3.69871 14.5389 6.96014 17.7977 10.985 17.7977C12.993 17.7977 14.8101 16.9874 16.1286 15.6749C17.4531 14.3565 18.2714 12.5346 18.2714 10.5206C18.2714 6.50235 15.0099 3.24351 10.985 3.24351ZM2.28845 10.5206C2.28845 5.72195 6.18281 1.83325 10.985 1.83325C15.7873 1.83325 19.6816 5.72195 19.6816 10.5206C19.6816 12.6705 18.8991 14.6388 17.6044 16.1553L20.415 18.9626C20.6905 19.2378 20.6908 19.6842 20.4155 19.9598C20.1403 20.2353 19.6939 20.2356 19.4183 19.9603L16.6052 17.1504C15.0897 18.4334 13.1273 19.208 10.985 19.208C6.18281 19.208 2.28845 15.3193 2.28845 10.5206Z" fill="white" stroke="white" stroke-width="0.5" stroke-linecap="round" stroke-linejoin="round"/>
</svg>
