<svg width="14" height="13" viewBox="0 0 14 13" fill="none" xmlns="http://www.w3.org/2000/svg">
<path d="M1.88997 13C1.60109 13 1.34831 12.8917 1.13164 12.675C0.914974 12.4583 0.806641 12.2056 0.806641 11.9167V1.08333C0.806641 0.794444 0.914974 0.541667 1.13164 0.325C1.34831 0.108333 1.60109 0 1.88997 0H12.7233C13.0122 0 13.265 0.108333 13.4816 0.325C13.6983 0.541667 13.8066 0.794444 13.8066 1.08333V11.9167C13.8066 12.2056 13.6983 12.4583 13.4816 12.675C13.265 12.8917 13.0122 13 12.7233 13H1.88997ZM1.88997 11.9167H12.7233V1.08333H1.88997V11.9167ZM2.90108 10.1653H11.7303L9.07608 6.62639L6.69275 9.71389L5.01358 7.42083L2.90108 10.1653ZM4.78099 4.875C5.03235 4.875 5.2453 4.78702 5.41983 4.61106C5.59437 4.43512 5.68164 4.22146 5.68164 3.97009C5.68164 3.71873 5.59366 3.50579 5.4177 3.33125C5.24176 3.15671 5.0281 3.06944 4.77673 3.06944C4.52537 3.06944 4.31243 3.15742 4.13789 3.33338C3.96335 3.50933 3.87608 3.72298 3.87608 3.97435C3.87608 4.22571 3.96406 4.43866 4.14002 4.61319C4.31597 4.78773 4.52962 4.875 4.78099 4.875Z" fill="#1AA483"/>
</svg>
