<svg width="22" height="22" viewBox="0 0 22 22" fill="none" xmlns="http://www.w3.org/2000/svg">
<path fill-rule="evenodd" clip-rule="evenodd" d="M21.9375 11C21.938 11.9712 21.8089 12.938 21.5535 13.875H16.3303C16.4219 12.9438 16.4693 11.9803 16.4693 11C16.4693 10.0197 16.4219 9.05625 16.3303 8.125H21.5535C21.8088 9.06198 21.938 10.0289 21.9375 11ZM11 21.9375C11.8813 21.9375 12.8486 20.8355 13.5869 18.99C14.0013 17.9543 14.3248 16.7494 14.5478 15.4374H7.45213C7.67525 16.7494 7.99919 17.9543 8.413 18.99C9.15131 20.8355 10.1188 21.9375 11 21.9375ZM7.23988 13.875C7.04453 11.9633 7.04453 10.0367 7.23988 8.125H14.7603C14.859 9.08014 14.9079 10.0398 14.9069 11C14.9079 11.9602 14.859 12.9199 14.7603 13.875H7.23988ZM0.0625012 11C0.0620791 10.0288 0.191283 9.06197 0.446689 8.125H5.67006C5.57838 9.05625 5.53081 10.0199 5.53081 11C5.53081 11.9801 5.57838 12.9438 5.67006 13.875H0.446689C0.19125 12.938 0.0620455 11.9712 0.0625012 11ZM11 0.0625C10.1188 0.0625 9.15119 1.16425 8.41288 3.01038C7.99906 4.04644 7.67538 5.25044 7.452 6.56262H14.5479C14.3249 5.25012 14.0014 4.04644 13.587 3.01038C12.8487 1.16425 11.8813 0.0625 11 0.0625ZM7.96313 0.49225C7.56202 1.10114 7.22648 1.75078 6.96213 2.43031C6.48088 3.63381 6.11213 5.03813 5.87006 6.56262H1.00381C1.65395 5.10648 2.61318 3.80926 3.81494 2.76101C5.01669 1.71276 6.43217 0.938592 7.96313 0.49225ZM1.00381 15.4375H5.87006C6.11231 16.9618 6.481 18.3663 6.96213 19.5698C7.22662 20.2495 7.56215 20.8994 7.96313 21.5087C6.4321 21.0622 5.01658 20.288 3.81482 19.2396C2.61306 18.1912 1.65386 16.8938 1.00381 15.4375ZM14.0375 21.5086C14.4384 20.8994 14.7736 20.2495 15.0375 19.5697C15.5188 18.3661 15.8879 16.9616 16.13 15.4374H20.9964C20.3464 16.8937 19.3873 18.191 18.1856 19.2394C16.9839 20.2878 15.5685 21.0621 14.0375 21.5086ZM20.9964 6.5625H16.13C15.8879 5.038 15.519 3.63369 15.0375 2.43019C14.7738 1.75056 14.4386 1.10089 14.0375 0.492125C15.5684 0.938469 16.9838 1.71264 18.1855 2.76089C19.3872 3.80915 20.3463 5.10637 20.9964 6.5625Z" fill="#1AA483"/>
</svg>
