<svg width="106" height="100" viewBox="0 0 106 100" fill="none" xmlns="http://www.w3.org/2000/svg">
<path d="M53 17L36.5 50L53 83C71.2254 83 86 68.2254 86 50C86 31.7746 71.2254 17 53 17Z" fill="#1AA483"/>
<path d="M20 50C20 68.2254 34.7746 83 53 83V17C34.7746 17 20 31.7746 20 50Z" fill="#1AA483"/>
<path d="M53 24.7344L40.3672 50L53 75.2656C66.9538 75.2656 78.2656 63.9538 78.2656 50C78.2656 36.0462 66.9538 24.7344 53 24.7344Z" fill="white"/>
<path d="M27.7344 50C27.7344 63.9538 39.0462 75.2656 53 75.2656V24.7344C39.0462 24.7344 27.7344 36.0462 27.7344 50Z" fill="white"/>
<path d="M51.0986 58.7009L51.0986 50.9666L49.2756 49.1436L47.2315 54.8337L47.2315 58.7009H51.0986Z" fill="#109273"/>
<path d="M51.0986 37.4961L47.2315 37.4961L47.2315 54.8339L51.0986 50.9667L51.0986 37.4961Z" fill="#1AA483"/>
<path d="M64.1183 55.6576L54.708 55.6575L49.0179 57.7016L50.8409 59.5246L64.1183 59.5245L64.1183 55.6576Z" fill="#109273"/>
<path d="M47.2254 55.6577L47.2254 59.5248L51.0925 59.5248L54.9597 55.6577L47.2254 55.6577Z" fill="#1AA483"/>
<path d="M66.9494 18.7018C67.7215 18.7018 68.3482 18.0738 68.3482 17.2991C68.3482 16.5245 67.7215 15.8965 66.9494 15.8965C66.1767 15.8965 65.55 16.5245 65.55 17.2991C65.55 18.0738 66.1767 18.7018 66.9494 18.7018Z" fill="#1AA483"/>
<path d="M47.1567 5.61001C47.9293 5.61001 48.5556 4.98204 48.5556 4.20732C48.5556 3.43266 47.9293 2.80469 47.1567 2.80469C46.3841 2.80469 45.7578 3.43266 45.7578 4.20732C45.7578 4.98204 46.3841 5.61001 47.1567 5.61001Z" fill="#1AA483"/>
<path d="M32.7915 2.80532C33.564 2.80532 34.1903 2.17735 34.1903 1.40263C34.1903 0.627973 33.564 0 32.7915 0C32.0189 0 31.3926 0.627973 31.3926 1.40263C31.3926 2.17735 32.0189 2.80532 32.7915 2.80532Z" fill="#1AA483"/>
<path d="M5.39887 24.5197C6.17145 24.5197 6.79774 23.8917 6.79774 23.117C6.79774 22.3423 6.17145 21.7144 5.39887 21.7144C4.6263 21.7144 4 22.3423 4 23.117C4 23.8917 4.6263 24.5197 5.39887 24.5197Z" fill="#1AA483"/>
<path d="M11.3567 72.1499C10.8417 72.1499 10.4241 71.7312 10.4241 71.2147V56.2531C10.4241 55.7366 10.8417 55.3179 11.3567 55.3179C11.8716 55.3179 12.2892 55.7366 12.2892 56.2531V71.2147C12.2892 71.7312 11.8716 72.1499 11.3567 72.1499Z" fill="#1AA483"/>
<path d="M5.76144 75.8903C5.24647 75.8903 4.82886 75.4716 4.82886 74.9551V67.4743C4.82886 66.9578 5.24647 66.5391 5.76144 66.5391C6.27641 66.5391 6.69402 66.9578 6.69402 67.4743V74.9551C6.69402 75.4716 6.27641 75.8903 5.76144 75.8903Z" fill="#1AA483"/>
<path d="M94.087 38.6518C93.5719 38.6518 93.1543 38.2333 93.1543 37.7167V22.7549C93.1543 22.2384 93.5719 21.8198 94.087 21.8198C94.6021 21.8198 95.0192 22.2384 95.0192 22.7549V37.7167C95.0192 38.2333 94.6021 38.6518 94.087 38.6518Z" fill="#1AA483"/>
<path d="M99.6822 42.3931C99.167 42.3931 98.75 41.9745 98.75 41.458V33.9771C98.75 33.4606 99.167 33.042 99.6822 33.042C100.198 33.042 100.615 33.4606 100.615 33.9771V41.458C100.615 41.9745 100.198 42.3931 99.6822 42.3931Z" fill="#1AA483"/>
<path d="M11.4608 15.1699C8.88961 15.1699 6.79785 13.0725 6.79785 10.4944C6.79785 7.91629 8.88961 5.81885 11.4608 5.81885C14.0319 5.81885 16.1237 7.91629 16.1237 10.4944C16.1237 13.0725 14.0319 15.1699 11.4608 15.1699ZM11.4608 7.6891C9.91806 7.6891 8.66303 8.94753 8.66303 10.4944C8.66303 12.0413 9.91806 13.2997 11.4608 13.2997C13.0034 13.2997 14.2585 12.0413 14.2585 10.4944C14.2585 8.94753 13.0034 7.6891 11.4608 7.6891Z" fill="#1AA483"/>
<path d="M81.0493 15.8962C77.45 15.8962 74.5215 12.9598 74.5215 9.35046C74.5215 5.74114 77.45 2.80469 81.0493 2.80469C84.6492 2.80469 87.5777 5.74114 87.5777 9.35046C87.5777 12.9598 84.6492 15.8962 81.0493 15.8962ZM81.0493 4.67488C78.4781 4.67488 76.3864 6.77232 76.3864 9.35046C76.3864 11.9285 78.4781 14.026 81.0493 14.026C83.6206 14.026 85.7123 11.9285 85.7123 9.35046C85.7123 6.77232 83.6206 4.67488 81.0493 4.67488Z" fill="#1AA483"/>
</svg>
