<svg width="25" height="24" viewBox="0 0 25 24" fill="none" xmlns="http://www.w3.org/2000/svg">
<path fill-rule="evenodd" clip-rule="evenodd" d="M12.0117 0C5.25173 0 0.0117188 4.95169 0.0117188 11.64C0.0117188 15.1384 1.44548 18.1615 3.78038 20.2495C3.97641 20.425 4.09472 20.6707 4.10273 20.9338L4.16808 23.0683C4.18894 23.7492 4.89225 24.1922 5.51531 23.9172L7.89713 22.8657C8.09902 22.7767 8.32528 22.7601 8.53805 22.8187C9.63258 23.1196 10.7975 23.28 12.0117 23.28C18.7716 23.28 24.0117 18.3283 24.0117 11.64C24.0117 4.95164 18.7717 0 12.0117 0Z" fill="url(#paint0_radial_1034_13217)"/>
<path fill-rule="evenodd" clip-rule="evenodd" d="M4.80578 15.0441L8.33078 9.45164C8.8915 8.56196 10.0922 8.34043 10.9335 8.97141L13.7371 11.0741C13.9944 11.2671 14.3483 11.266 14.6044 11.0716L18.3909 8.19802C18.8963 7.81449 19.5559 8.41932 19.2177 8.95603L15.6927 14.5486C15.132 15.4382 13.9313 15.6598 13.09 15.0287L10.2863 12.926C10.0291 12.7331 9.67516 12.7341 9.41903 12.9285L5.63261 15.8021C5.1272 16.1856 4.46749 15.5808 4.80578 15.0441Z" fill="white"/>
<defs>
<radialGradient id="paint0_radial_1034_13217" cx="0" cy="0" r="1" gradientUnits="userSpaceOnUse" gradientTransform="translate(4.63359 23.7086) scale(26.1375 26.1375)">
<stop stop-color="#0099FF"/>
<stop offset="0.6098" stop-color="#A033FF"/>
<stop offset="0.9348" stop-color="#FF5280"/>
<stop offset="1" stop-color="#FF7061"/>
</radialGradient>
</defs>
</svg>
