<svg width="12" height="15" viewBox="0 0 12 15" fill="none" xmlns="http://www.w3.org/2000/svg">
<path fill-rule="evenodd" clip-rule="evenodd" d="M5.84104 0.212891C3.73684 0.212891 2.03106 1.91868 2.03106 4.02287V6.64761C2.03106 8.75181 3.73684 10.4576 5.84104 10.4576C7.94523 10.4576 9.65102 8.75181 9.65102 6.64761V4.02287C9.65102 1.91868 7.94523 0.212891 5.84104 0.212891ZM3.08916 4.02287C3.08916 2.50305 4.32122 1.27099 5.84104 1.27099C7.36086 1.27099 8.59292 2.50305 8.59292 4.02287V6.64761C8.59292 8.16744 7.36086 9.39949 5.84104 9.39949C4.32122 9.39949 3.08916 8.16744 3.08916 6.64761V4.02287Z" fill="white"/>
<path d="M1.1206 6.64761C1.1206 6.35543 0.883736 6.11856 0.59155 6.11856C0.299364 6.11856 0.0625 6.35543 0.0625 6.64761C0.0625 8.46272 0.896017 9.91366 2.02424 10.9009C2.9889 11.7449 4.18841 12.2679 5.31199 12.3956V13.8657C5.31199 14.1578 5.54885 14.3947 5.84104 14.3947C6.13322 14.3947 6.37009 14.1578 6.37009 13.8657V12.3956C7.49366 12.2679 8.69318 11.7449 9.65783 10.9009C10.7861 9.91366 11.6196 8.46272 11.6196 6.64761C11.6196 6.35543 11.3827 6.11856 11.0905 6.11856C10.7983 6.11856 10.5615 6.35543 10.5615 6.64761C10.5615 8.11344 9.89514 9.28724 8.96107 10.1046C8.01683 10.9308 6.82567 11.3681 5.84104 11.3681C4.85641 11.3681 3.66524 10.9308 2.72101 10.1046C1.78694 9.28724 1.1206 8.11344 1.1206 6.64761Z" fill="white"/>
</svg>
