<svg width="22" height="23" viewBox="0 0 22 23" fill="none" xmlns="http://www.w3.org/2000/svg">
<g clip-path="url(#clip0_1171_9929)">
<path d="M5.66663 15.9823V8.39849C5.66663 5.0679 5.66663 3.40261 6.74057 2.36793C7.81451 1.33325 9.54299 1.33325 13 1.33325C16.4569 1.33325 18.1855 1.33325 19.2593 2.36793C20.3333 3.40261 20.3333 5.0679 20.3333 8.39849V15.9823C20.3333 18.0961 20.3333 19.1529 19.6249 19.5312C18.2529 20.2637 15.6796 17.8197 14.4575 17.0838C13.7487 16.657 13.3943 16.4436 13 16.4436C12.6056 16.4436 12.2512 16.657 11.5425 17.0838C10.3204 17.8197 7.74697 20.2637 6.37507 19.5312C5.66663 19.1529 5.66663 18.0961 5.66663 15.9823Z" fill="#1AA483" fill-opacity="0.26"/>
<path d="M1.66663 18.9823V11.3985C1.66663 8.0679 1.66663 6.40261 2.74057 5.36793C3.81451 4.33325 5.54299 4.33325 8.99996 4.33325C12.4569 4.33325 14.1855 4.33325 15.2593 5.36793C16.3333 6.40261 16.3333 8.0679 16.3333 11.3985V18.9823C16.3333 21.0961 16.3333 22.1529 15.6249 22.5312C14.2529 23.2637 11.6796 20.8197 10.4575 20.0838C9.74869 19.657 9.39431 19.4436 8.99996 19.4436C8.60561 19.4436 8.25123 19.657 7.54246 20.0838C6.32036 20.8197 3.74697 23.2637 2.37507 22.5312C1.66663 22.1529 1.66663 21.0961 1.66663 18.9823Z" fill="#1AA483"/>
</g>
<defs>
<clipPath id="clip0_1171_9929">
<rect width="22" height="22" fill="white" transform="translate(0 0.5)"/>
</clipPath>
</defs>
</svg>
