<svg width="78" height="64" viewBox="0 0 78 64" fill="none" xmlns="http://www.w3.org/2000/svg">
<g clip-path="url(#clip0_49_11355)">
<path d="M50.4296 14.9805C50.7275 14.9778 51.0124 14.8576 51.2221 14.646C51.4319 14.4344 51.5496 14.1484 51.5496 13.8505C51.5496 13.5534 51.4316 13.2686 51.2215 13.0586C51.0115 12.8486 50.7266 12.7305 50.4296 12.7305C50.1325 12.7305 49.8476 12.8486 49.6376 13.0586C49.4276 13.2686 49.3096 13.5534 49.3096 13.8505C49.3096 14.1484 49.4272 14.4344 49.637 14.646C49.8468 14.8576 50.1316 14.9778 50.4296 14.9805Z" fill="#1AA483"/>
<path d="M34.5702 4.51953C34.8673 4.51953 35.1522 4.40157 35.3622 4.19153C35.5722 3.98149 35.6902 3.69658 35.6902 3.39954C35.6902 3.10157 35.5726 2.81563 35.3628 2.604C35.153 2.39237 34.8682 2.27217 34.5702 2.26953C34.4223 2.26953 34.2759 2.2988 34.1393 2.35571C34.0028 2.41262 33.8789 2.49601 33.7747 2.60107C33.6706 2.70614 33.5883 2.83085 33.5326 2.9679C33.4769 3.10494 33.4489 3.25162 33.4502 3.39954C33.4502 3.69658 33.5682 3.98149 33.7783 4.19153C33.9883 4.40157 34.2732 4.51953 34.5702 4.51953Z" fill="#1AA483"/>
<path d="M23.0604 2.23999C23.3575 2.23999 23.6424 2.12203 23.8524 1.91199C24.0624 1.70195 24.1804 1.41704 24.1804 1.12C24.1804 0.822953 24.0624 0.538044 23.8524 0.328003C23.6424 0.117962 23.3575 0 23.0604 0C22.9134 0 22.7677 0.0290419 22.6318 0.0853271C22.496 0.141612 22.3725 0.224001 22.2685 0.328003C22.1645 0.432005 22.082 0.555522 22.0257 0.691406C21.9694 0.827291 21.9404 0.972915 21.9404 1.12C21.9404 1.26708 21.9694 1.4127 22.0257 1.54858C22.082 1.68447 22.1645 1.80799 22.2685 1.91199C22.3725 2.01599 22.496 2.0985 22.6318 2.15479C22.7677 2.21107 22.9134 2.23999 23.0604 2.23999Z" fill="#1AA483"/>
<path d="M1.12 19.6406C1.41795 19.638 1.70281 19.5178 1.91257 19.3062C2.12233 19.0945 2.24 18.8086 2.23999 18.5106C2.23999 18.2136 2.122 17.9287 1.91196 17.7186C1.70192 17.5086 1.41704 17.3906 1.12 17.3906C0.822953 17.3906 0.538074 17.5086 0.328033 17.7186C0.117993 17.9287 8.67601e-10 18.2136 8.67601e-10 18.5106C-1.16671e-05 18.8086 0.117665 19.0945 0.327423 19.3062C0.537181 19.5178 0.822037 19.638 1.12 19.6406Z" fill="#1AA483"/>
<path d="M5.88965 57.7791C5.69246 57.7791 5.50319 57.7014 5.36282 57.5629C5.22246 57.4244 5.14228 57.2362 5.13965 57.0391V45.0391C5.14224 44.841 5.22209 44.6517 5.36218 44.5116C5.50228 44.3715 5.69154 44.2917 5.88965 44.2891C6.08776 44.2917 6.27702 44.3715 6.41711 44.5116C6.55721 44.6517 6.63706 44.841 6.63965 45.0391V57.0391C6.63702 57.2362 6.55684 57.4244 6.41647 57.5629C6.27611 57.7014 6.08684 57.7791 5.88965 57.7791Z" fill="#1AA483"/>
<path d="M1.42969 60.7793C1.23078 60.7793 1.04001 60.7002 0.899353 60.5596C0.758701 60.4189 0.679688 60.2282 0.679688 60.0293V54.0293C0.682277 53.8312 0.762127 53.6419 0.902222 53.5018C1.04232 53.3617 1.23158 53.2819 1.42969 53.2793C1.62779 53.2819 1.81706 53.3617 1.95715 53.5018C2.09725 53.6419 2.1771 53.8312 2.17969 54.0293V60.0293C2.17969 60.2282 2.10067 60.4189 1.96002 60.5596C1.81937 60.7002 1.6286 60.7793 1.42969 60.7793Z" fill="#1AA483"/>
<path d="M72.1602 30.9491C72.0621 30.9504 71.9648 30.9322 71.8739 30.8956C71.783 30.859 71.7002 30.8047 71.6304 30.7358C71.5606 30.667 71.5052 30.5849 71.4674 30.4945C71.4296 30.4041 71.4101 30.307 71.4102 30.209V18.209C71.4102 18.0101 71.4892 17.8194 71.6298 17.6787C71.7705 17.5381 71.9612 17.459 72.1602 17.459C72.3573 17.4616 72.5455 17.5419 72.684 17.6823C72.8225 17.8226 72.9002 18.0118 72.9002 18.209V30.209C72.9002 30.4052 72.8222 30.5935 72.6834 30.7323C72.5446 30.8711 72.3564 30.9491 72.1602 30.9491Z" fill="#1AA483"/>
<path d="M76.6397 33.9492C76.5409 33.9506 76.4427 33.932 76.3511 33.8948C76.2595 33.8576 76.1763 33.8025 76.1064 33.7325C76.0365 33.6626 75.9813 33.5794 75.9441 33.4878C75.9069 33.3962 75.8884 33.2981 75.8897 33.1992V27.1992C75.8897 27.0003 75.9687 26.8095 76.1094 26.6688C76.25 26.5282 76.4408 26.4492 76.6397 26.4492C76.8369 26.4518 77.0251 26.532 77.1636 26.6724C77.3021 26.8127 77.3797 27.002 77.3797 27.1992V33.1992C77.381 33.2972 77.3629 33.3945 77.3263 33.4855C77.2897 33.5764 77.2354 33.6591 77.1665 33.7289C77.0977 33.7987 77.0157 33.854 76.9252 33.8918C76.8348 33.9297 76.7377 33.9492 76.6397 33.9492Z" fill="#1AA483"/>
<path d="M5.98024 4.66016C4.98914 4.6628 4.03939 5.05761 3.33858 5.75842C2.63776 6.45924 2.24287 7.40905 2.24023 8.40015C2.24023 9.39298 2.63395 10.3452 3.33505 11.0482C4.03615 11.7512 4.98741 12.1475 5.98024 12.1501C6.97133 12.1449 7.92003 11.7475 8.61897 11.0448C9.31791 10.3421 9.71025 9.39125 9.71024 8.40015C9.70761 7.41077 9.31411 6.46249 8.61545 5.76196C7.91679 5.06143 6.9696 4.66543 5.98024 4.66016ZM5.98024 10.6602C5.3835 10.6602 4.81121 10.4231 4.38925 10.0011C3.96729 9.57914 3.73024 9.00689 3.73024 8.41016C3.73024 7.81342 3.96729 7.24105 4.38925 6.81909C4.81121 6.39714 5.3835 6.16016 5.98024 6.16016C6.57524 6.1628 7.14498 6.40096 7.56477 6.82263C7.98457 7.2443 8.22024 7.81515 8.22023 8.41016C8.2176 9.00343 7.98076 9.5717 7.56125 9.99121C7.14174 10.4107 6.57351 10.6475 5.98024 10.6501V10.6602Z" fill="#1AA483"/>
<path d="M61.7105 2.24023C60.3225 2.24288 58.9922 2.79616 58.0117 3.77856C57.0312 4.76097 56.4805 6.09222 56.4805 7.48022C56.4805 8.86915 57.0308 10.2016 58.0111 11.1855C58.9913 12.1695 60.3215 12.7249 61.7105 12.7302C62.3986 12.7289 63.0797 12.5921 63.715 12.3275C64.3502 12.063 64.9271 11.676 65.4128 11.1885C65.8984 10.701 66.2833 10.1226 66.5454 9.48633C66.8075 8.85008 66.9418 8.16835 66.9405 7.48022C66.9405 6.09222 66.3898 4.76097 65.4092 3.77856C64.4287 2.79616 63.0985 2.24288 61.7105 2.24023ZM61.7105 11.2402C61.2193 11.2389 60.7332 11.1409 60.28 10.9518C59.8267 10.7626 59.4152 10.486 59.0688 10.1378C58.7225 9.7896 58.4481 9.3765 58.2613 8.92224C58.0746 8.46798 57.9792 7.98138 57.9805 7.49023C57.9805 6.50005 58.3731 5.55034 59.0723 4.84924C59.7716 4.14814 60.7203 3.75289 61.7105 3.75024C62.7033 3.75817 63.6525 4.15948 64.3498 4.86621C65.0472 5.57294 65.4358 6.52742 65.4305 7.52026C65.42 8.5027 65.0244 9.44183 64.3288 10.1356C63.6331 10.8294 62.6929 11.2224 61.7105 11.2302V11.2402Z" fill="#1AA483"/>
<path d="M67.7596 54.3306L64.7596 51.2205L67.7596 48.1205C67.8579 48.0158 67.9359 47.8937 67.9896 47.7605C68.0497 47.6287 68.0804 47.4854 68.0796 47.3405C68.0782 47.1936 68.0512 47.0481 67.9996 46.9106C67.9421 46.7793 67.8645 46.6579 67.7696 46.5506C67.6698 46.453 67.555 46.372 67.4296 46.3106C67.299 46.2591 67.16 46.2319 67.0196 46.2305C66.8813 46.2304 66.7446 46.2612 66.6196 46.3206C66.4928 46.3794 66.3776 46.4607 66.2796 46.5606L63.2796 49.6706L60.2796 46.5606C60.1844 46.4576 60.0685 46.3759 59.9396 46.3206C59.815 46.2602 59.6781 46.2293 59.5396 46.2305C59.4024 46.231 59.2665 46.2583 59.1396 46.3106C59.0097 46.3693 58.8912 46.4506 58.7896 46.5506C58.6977 46.6582 58.6235 46.7797 58.5696 46.9106C58.5134 47.0468 58.4861 47.1932 58.4896 47.3405C58.4909 47.4841 58.518 47.6264 58.5696 47.7605C58.6271 47.8917 58.7047 48.0132 58.7996 48.1205L61.7996 51.2205L58.7996 54.3306C58.7004 54.4346 58.6223 54.5568 58.5696 54.6906C58.5172 54.8244 58.49 54.9668 58.4896 55.1105C58.4857 55.2546 58.513 55.398 58.5696 55.5306C58.6188 55.6637 58.6936 55.786 58.7896 55.8905C58.886 55.9967 59.0059 56.0789 59.1396 56.1305C59.2635 56.1922 59.4016 56.2198 59.5396 56.2105C59.6769 56.21 59.8127 56.1828 59.9396 56.1305C60.0704 56.074 60.1867 55.9886 60.2796 55.8805L63.2796 52.7806L66.2796 55.8805C66.3739 55.9871 66.4898 56.0723 66.6196 56.1305C66.7468 56.1819 66.8825 56.209 67.0196 56.2105C67.1608 56.2188 67.3019 56.1913 67.4296 56.1305C67.5585 56.0753 67.6744 55.9935 67.7696 55.8905C67.8689 55.7866 67.947 55.6643 67.9996 55.5306C68.0512 55.3965 68.0783 55.2542 68.0796 55.1105C68.0804 54.9656 68.0497 54.8224 67.9896 54.6906C67.9398 54.5554 67.8613 54.4326 67.7596 54.3306ZM67.7596 54.3306L64.7596 51.2205L67.7596 48.1205C67.8579 48.0158 67.9359 47.8937 67.9896 47.7605C68.0497 47.6287 68.0804 47.4854 68.0796 47.3405C68.0782 47.1936 68.0512 47.0481 67.9996 46.9106C67.9421 46.7793 67.8645 46.6579 67.7696 46.5506C67.6698 46.453 67.555 46.372 67.4296 46.3106C67.299 46.2591 67.16 46.2319 67.0196 46.2305C66.8813 46.2304 66.7446 46.2612 66.6196 46.3206C66.4928 46.3794 66.3776 46.4607 66.2796 46.5606L63.2796 49.6706L60.2796 46.5606C60.1844 46.4576 60.0685 46.3759 59.9396 46.3206C59.815 46.2602 59.6781 46.2293 59.5396 46.2305C59.4024 46.231 59.2665 46.2583 59.1396 46.3106C59.0097 46.3693 58.8912 46.4506 58.7896 46.5506C58.6977 46.6582 58.6235 46.7797 58.5696 46.9106C58.5134 47.0468 58.4861 47.1932 58.4896 47.3405C58.4909 47.4841 58.518 47.6264 58.5696 47.7605C58.6271 47.8917 58.7047 48.0132 58.7996 48.1205L61.7996 51.2205L58.7996 54.3306C58.7004 54.4346 58.6223 54.5568 58.5696 54.6906C58.5172 54.8244 58.49 54.9668 58.4896 55.1105C58.4857 55.2546 58.513 55.398 58.5696 55.5306C58.6188 55.6637 58.6936 55.786 58.7896 55.8905C58.886 55.9967 59.0059 56.0789 59.1396 56.1305C59.2635 56.1922 59.4016 56.2198 59.5396 56.2105C59.6769 56.21 59.8127 56.1828 59.9396 56.1305C60.0704 56.074 60.1867 55.9886 60.2796 55.8805L63.2796 52.7806L66.2796 55.8805C66.3739 55.9871 66.4898 56.0723 66.6196 56.1305C66.7468 56.1819 66.8825 56.209 67.0196 56.2105C67.1608 56.2188 67.3019 56.1913 67.4296 56.1305C67.5585 56.0753 67.6744 55.9935 67.7696 55.8905C67.8689 55.7866 67.947 55.6643 67.9996 55.5306C68.0512 55.3965 68.0783 55.2542 68.0796 55.1105C68.0804 54.9656 68.0497 54.8224 67.9896 54.6906C67.9398 54.5554 67.8613 54.4326 67.7596 54.3306ZM67.7596 54.3306L64.7596 51.2205L67.7596 48.1205C67.8579 48.0158 67.9359 47.8937 67.9896 47.7605C68.0497 47.6287 68.0804 47.4854 68.0796 47.3405C68.0782 47.1936 68.0512 47.0481 67.9996 46.9106C67.9421 46.7793 67.8645 46.6579 67.7696 46.5506C67.6698 46.453 67.555 46.372 67.4296 46.3106C67.299 46.2591 67.16 46.2319 67.0196 46.2305C66.8813 46.2304 66.7446 46.2612 66.6196 46.3206C66.4928 46.3794 66.3776 46.4607 66.2796 46.5606L63.2796 49.6706L60.2796 46.5606C60.1844 46.4576 60.0685 46.3759 59.9396 46.3206C59.815 46.2602 59.6781 46.2293 59.5396 46.2305C59.4024 46.231 59.2665 46.2583 59.1396 46.3106C59.0097 46.3693 58.8912 46.4506 58.7896 46.5506C58.6977 46.6582 58.6235 46.7797 58.5696 46.9106C58.5134 47.0468 58.4861 47.1932 58.4896 47.3405C58.4909 47.4841 58.518 47.6264 58.5696 47.7605C58.6271 47.8917 58.7047 48.0132 58.7996 48.1205L61.7996 51.2205L58.7996 54.3306C58.7004 54.4346 58.6223 54.5568 58.5696 54.6906C58.5172 54.8244 58.49 54.9668 58.4896 55.1105C58.4857 55.2546 58.513 55.398 58.5696 55.5306C58.6188 55.6637 58.6936 55.786 58.7896 55.8905C58.886 55.9967 59.0059 56.0789 59.1396 56.1305C59.2635 56.1922 59.4016 56.2198 59.5396 56.2105C59.6769 56.21 59.8127 56.1828 59.9396 56.1305C60.0704 56.074 60.1867 55.9886 60.2796 55.8805L63.2796 52.7806L66.2796 55.8805C66.3739 55.9871 66.4898 56.0723 66.6196 56.1305C66.7468 56.1819 66.8825 56.209 67.0196 56.2105C67.1608 56.2188 67.3019 56.1913 67.4296 56.1305C67.5585 56.0753 67.6744 55.9935 67.7696 55.8905C67.8689 55.7866 67.947 55.6643 67.9996 55.5306C68.0512 55.3965 68.0783 55.2542 68.0796 55.1105C68.0804 54.9656 68.0497 54.8224 67.9896 54.6906C67.9398 54.5554 67.8613 54.4326 67.7596 54.3306ZM67.7596 54.3306L64.7596 51.2205L67.7596 48.1205C67.8579 48.0158 67.9359 47.8937 67.9896 47.7605C68.0497 47.6287 68.0804 47.4854 68.0796 47.3405C68.0782 47.1936 68.0512 47.0481 67.9996 46.9106C67.9421 46.7793 67.8645 46.6579 67.7696 46.5506C67.6698 46.453 67.555 46.372 67.4296 46.3106C67.299 46.2591 67.16 46.2319 67.0196 46.2305C66.8813 46.2304 66.7446 46.2612 66.6196 46.3206C66.4928 46.3794 66.3776 46.4607 66.2796 46.5606L63.2796 49.6706L60.2796 46.5606C60.1844 46.4576 60.0685 46.3759 59.9396 46.3206C59.815 46.2602 59.6781 46.2293 59.5396 46.2305C59.4024 46.231 59.2665 46.2583 59.1396 46.3106C59.0097 46.3693 58.8912 46.4506 58.7896 46.5506C58.6977 46.6582 58.6235 46.7797 58.5696 46.9106C58.5134 47.0468 58.4861 47.1932 58.4896 47.3405C58.4909 47.4841 58.518 47.6264 58.5696 47.7605C58.6271 47.8917 58.7047 48.0132 58.7996 48.1205L61.7996 51.2205L58.7996 54.3306C58.7004 54.4346 58.6223 54.5568 58.5696 54.6906C58.5172 54.8244 58.49 54.9668 58.4896 55.1105C58.4857 55.2546 58.513 55.398 58.5696 55.5306C58.6188 55.6637 58.6936 55.786 58.7896 55.8905C58.886 55.9967 59.0059 56.0789 59.1396 56.1305C59.2635 56.1922 59.4016 56.2198 59.5396 56.2105C59.6769 56.21 59.8127 56.1828 59.9396 56.1305C60.0704 56.074 60.1867 55.9886 60.2796 55.8805L63.2796 52.7806L66.2796 55.8805C66.3739 55.9871 66.4898 56.0723 66.6196 56.1305C66.7468 56.1819 66.8825 56.209 67.0196 56.2105C67.1608 56.2188 67.3019 56.1913 67.4296 56.1305C67.5585 56.0753 67.6744 55.9935 67.7696 55.8905C67.8689 55.7866 67.947 55.6643 67.9996 55.5306C68.0512 55.3965 68.0783 55.2542 68.0796 55.1105C68.0804 54.9656 68.0497 54.8224 67.9896 54.6906C67.9398 54.5554 67.8613 54.4326 67.7596 54.3306ZM67.7596 54.3306L64.7596 51.2205L67.7596 48.1205C67.8579 48.0158 67.9359 47.8937 67.9896 47.7605C68.0497 47.6287 68.0804 47.4854 68.0796 47.3405C68.0782 47.1936 68.0512 47.0481 67.9996 46.9106C67.9421 46.7793 67.8645 46.6579 67.7696 46.5506C67.6698 46.453 67.555 46.372 67.4296 46.3106C67.299 46.2591 67.16 46.2319 67.0196 46.2305C66.8813 46.2304 66.7446 46.2612 66.6196 46.3206C66.4928 46.3794 66.3776 46.4607 66.2796 46.5606L63.2796 49.6706L60.2796 46.5606C60.1844 46.4576 60.0685 46.3759 59.9396 46.3206C59.815 46.2602 59.6781 46.2293 59.5396 46.2305C59.4024 46.231 59.2665 46.2583 59.1396 46.3106C59.0097 46.3693 58.8912 46.4506 58.7896 46.5506C58.6977 46.6582 58.6235 46.7797 58.5696 46.9106C58.5134 47.0468 58.4861 47.1932 58.4896 47.3405C58.4909 47.4841 58.518 47.6264 58.5696 47.7605C58.6271 47.8917 58.7047 48.0132 58.7996 48.1205L61.7996 51.2205L58.7996 54.3306C58.7004 54.4346 58.6223 54.5568 58.5696 54.6906C58.5172 54.8244 58.49 54.9668 58.4896 55.1105C58.4857 55.2546 58.513 55.398 58.5696 55.5306C58.6188 55.6637 58.6936 55.786 58.7896 55.8905C58.886 55.9967 59.0059 56.0789 59.1396 56.1305C59.2635 56.1922 59.4016 56.2198 59.5396 56.2105C59.6769 56.21 59.8127 56.1828 59.9396 56.1305C60.0704 56.074 60.1867 55.9886 60.2796 55.8805L63.2796 52.7806L66.2796 55.8805C66.3739 55.9871 66.4898 56.0723 66.6196 56.1305C66.7468 56.1819 66.8825 56.209 67.0196 56.2105C67.1608 56.2188 67.3019 56.1913 67.4296 56.1305C67.5585 56.0753 67.6744 55.9935 67.7696 55.8905C67.8689 55.7866 67.947 55.6643 67.9996 55.5306C68.0512 55.3965 68.0783 55.2542 68.0796 55.1105C68.0804 54.9656 68.0497 54.8224 67.9896 54.6906C67.9398 54.5554 67.8613 54.4326 67.7596 54.3306ZM67.7596 54.3306L64.7596 51.2205L67.7596 48.1205C67.8579 48.0158 67.9359 47.8937 67.9896 47.7605C68.0497 47.6287 68.0804 47.4854 68.0796 47.3405C68.0782 47.1936 68.0512 47.0481 67.9996 46.9106C67.9421 46.7793 67.8645 46.6579 67.7696 46.5506C67.6698 46.453 67.555 46.372 67.4296 46.3106C67.299 46.2591 67.16 46.2319 67.0196 46.2305C66.8813 46.2304 66.7446 46.2612 66.6196 46.3206C66.4928 46.3794 66.3776 46.4607 66.2796 46.5606L63.2796 49.6706L60.2796 46.5606C60.1844 46.4576 60.0685 46.3759 59.9396 46.3206C59.815 46.2602 59.6781 46.2293 59.5396 46.2305C59.4024 46.231 59.2665 46.2583 59.1396 46.3106C59.0097 46.3693 58.8912 46.4506 58.7896 46.5506C58.6977 46.6582 58.6235 46.7797 58.5696 46.9106C58.5134 47.0468 58.4861 47.1932 58.4896 47.3405C58.4909 47.4841 58.518 47.6264 58.5696 47.7605C58.6271 47.8917 58.7047 48.0132 58.7996 48.1205L61.7996 51.2205L58.7996 54.3306C58.7004 54.4346 58.6223 54.5568 58.5696 54.6906C58.5172 54.8244 58.49 54.9668 58.4896 55.1105C58.4857 55.2546 58.513 55.398 58.5696 55.5306C58.6188 55.6637 58.6936 55.786 58.7896 55.8905C58.886 55.9967 59.0059 56.0789 59.1396 56.1305C59.2635 56.1922 59.4016 56.2198 59.5396 56.2105C59.6769 56.21 59.8127 56.1828 59.9396 56.1305C60.0704 56.074 60.1867 55.9886 60.2796 55.8805L63.2796 52.7806L66.2796 55.8805C66.3739 55.9871 66.4898 56.0723 66.6196 56.1305C66.7468 56.1819 66.8825 56.209 67.0196 56.2105C67.1608 56.2188 67.3019 56.1913 67.4296 56.1305C67.5585 56.0753 67.6744 55.9935 67.7696 55.8905C67.8689 55.7866 67.947 55.6643 67.9996 55.5306C68.0512 55.3965 68.0783 55.2542 68.0796 55.1105C68.0804 54.9656 68.0497 54.8224 67.9896 54.6906C67.9398 54.5554 67.8613 54.4326 67.7596 54.3306ZM67.7596 54.3306L64.7596 51.2205L67.7596 48.1205C67.8579 48.0158 67.9359 47.8937 67.9896 47.7605C68.0497 47.6287 68.0804 47.4854 68.0796 47.3405C68.0782 47.1936 68.0512 47.0481 67.9996 46.9106C67.9421 46.7793 67.8645 46.6579 67.7696 46.5506C67.6698 46.453 67.555 46.372 67.4296 46.3106C67.299 46.2591 67.16 46.2319 67.0196 46.2305C66.8813 46.2304 66.7446 46.2612 66.6196 46.3206C66.4928 46.3794 66.3776 46.4607 66.2796 46.5606L63.2796 49.6706L60.2796 46.5606C60.1844 46.4576 60.0685 46.3759 59.9396 46.3206C59.815 46.2602 59.6781 46.2293 59.5396 46.2305C59.4024 46.231 59.2665 46.2583 59.1396 46.3106C59.0097 46.3693 58.8912 46.4506 58.7896 46.5506C58.6977 46.6582 58.6235 46.7797 58.5696 46.9106C58.5134 47.0468 58.4861 47.1932 58.4896 47.3405C58.4909 47.4841 58.518 47.6264 58.5696 47.7605C58.6271 47.8917 58.7047 48.0132 58.7996 48.1205L61.7996 51.2205L58.7996 54.3306C58.7004 54.4346 58.6223 54.5568 58.5696 54.6906C58.5172 54.8244 58.49 54.9668 58.4896 55.1105C58.4857 55.2546 58.513 55.398 58.5696 55.5306C58.6188 55.6637 58.6936 55.786 58.7896 55.8905C58.886 55.9967 59.0059 56.0789 59.1396 56.1305C59.2635 56.1922 59.4016 56.2198 59.5396 56.2105C59.6769 56.21 59.8127 56.1828 59.9396 56.1305C60.0704 56.074 60.1867 55.9886 60.2796 55.8805L63.2796 52.7806L66.2796 55.8805C66.3739 55.9871 66.4898 56.0723 66.6196 56.1305C66.7468 56.1819 66.8825 56.209 67.0196 56.2105C67.1608 56.2188 67.3019 56.1913 67.4296 56.1305C67.5585 56.0753 67.6744 55.9935 67.7696 55.8905C67.8689 55.7866 67.947 55.6643 67.9996 55.5306C68.0512 55.3965 68.0783 55.2542 68.0796 55.1105C68.0804 54.9656 68.0497 54.8224 67.9896 54.6906C67.9398 54.5554 67.8613 54.4326 67.7596 54.3306ZM67.7596 54.3306L64.7596 51.2205L67.7596 48.1205C67.8579 48.0158 67.9359 47.8937 67.9896 47.7605C68.0497 47.6287 68.0804 47.4854 68.0796 47.3405C68.0782 47.1936 68.0512 47.0481 67.9996 46.9106C67.9421 46.7793 67.8645 46.6579 67.7696 46.5506C67.6698 46.453 67.555 46.372 67.4296 46.3106C67.299 46.2591 67.16 46.2319 67.0196 46.2305C66.8813 46.2304 66.7446 46.2612 66.6196 46.3206C66.4928 46.3794 66.3776 46.4607 66.2796 46.5606L63.2796 49.6706L60.2796 46.5606C60.1844 46.4576 60.0685 46.3759 59.9396 46.3206C59.815 46.2602 59.6781 46.2293 59.5396 46.2305C59.4024 46.231 59.2665 46.2583 59.1396 46.3106C59.0097 46.3693 58.8912 46.4506 58.7896 46.5506C58.6977 46.6582 58.6235 46.7797 58.5696 46.9106C58.5134 47.0468 58.4861 47.1932 58.4896 47.3405C58.4909 47.4841 58.518 47.6264 58.5696 47.7605C58.6271 47.8917 58.7047 48.0132 58.7996 48.1205L61.7996 51.2205L58.7996 54.3306C58.7004 54.4346 58.6223 54.5568 58.5696 54.6906C58.5172 54.8244 58.49 54.9668 58.4896 55.1105C58.4857 55.2546 58.513 55.398 58.5696 55.5306C58.6188 55.6637 58.6936 55.786 58.7896 55.8905C58.886 55.9967 59.0059 56.0789 59.1396 56.1305C59.2635 56.1922 59.4016 56.2198 59.5396 56.2105C59.6769 56.21 59.8127 56.1828 59.9396 56.1305C60.0704 56.074 60.1867 55.9886 60.2796 55.8805L63.2796 52.7806L66.2796 55.8805C66.3739 55.9871 66.4898 56.0723 66.6196 56.1305C66.7468 56.1819 66.8825 56.209 67.0196 56.2105C67.1608 56.2188 67.3019 56.1913 67.4296 56.1305C67.5585 56.0753 67.6744 55.9935 67.7696 55.8905C67.8689 55.7866 67.947 55.6643 67.9996 55.5306C68.0512 55.3965 68.0783 55.2542 68.0796 55.1105C68.0804 54.9656 68.0497 54.8224 67.9896 54.6906C67.9398 54.5554 67.8613 54.4326 67.7596 54.3306ZM67.7596 54.3306L64.7596 51.2205L67.7596 48.1205C67.8579 48.0158 67.9359 47.8937 67.9896 47.7605C68.0497 47.6287 68.0804 47.4854 68.0796 47.3405C68.0782 47.1936 68.0512 47.0481 67.9996 46.9106C67.9421 46.7793 67.8645 46.6579 67.7696 46.5506C67.6698 46.453 67.555 46.372 67.4296 46.3106C67.299 46.2591 67.16 46.2319 67.0196 46.2305C66.8813 46.2304 66.7446 46.2612 66.6196 46.3206C66.4928 46.3794 66.3776 46.4607 66.2796 46.5606L63.2796 49.6706L60.2796 46.5606C60.1844 46.4576 60.0685 46.3759 59.9396 46.3206C59.815 46.2602 59.6781 46.2293 59.5396 46.2305C59.4024 46.231 59.2665 46.2583 59.1396 46.3106C59.0097 46.3693 58.8912 46.4506 58.7896 46.5506C58.6977 46.6582 58.6235 46.7797 58.5696 46.9106C58.5134 47.0468 58.4861 47.1932 58.4896 47.3405C58.4909 47.4841 58.518 47.6264 58.5696 47.7605C58.6271 47.8917 58.7047 48.0132 58.7996 48.1205L61.7996 51.2205L58.7996 54.3306C58.7004 54.4346 58.6223 54.5568 58.5696 54.6906C58.5172 54.8244 58.49 54.9668 58.4896 55.1105C58.4857 55.2546 58.513 55.398 58.5696 55.5306C58.6188 55.6637 58.6936 55.786 58.7896 55.8905C58.886 55.9967 59.0059 56.0789 59.1396 56.1305C59.2635 56.1922 59.4016 56.2198 59.5396 56.2105C59.6769 56.21 59.8127 56.1828 59.9396 56.1305C60.0704 56.074 60.1867 55.9886 60.2796 55.8805L63.2796 52.7806L66.2796 55.8805C66.3739 55.9871 66.4898 56.0723 66.6196 56.1305C66.7468 56.1819 66.8825 56.209 67.0196 56.2105C67.1608 56.2188 67.3019 56.1913 67.4296 56.1305C67.5585 56.0753 67.6744 55.9935 67.7696 55.8905C67.8689 55.7866 67.947 55.6643 67.9996 55.5306C68.0512 55.3965 68.0783 55.2542 68.0796 55.1105C68.0804 54.9656 68.0497 54.8224 67.9896 54.6906C67.9398 54.5554 67.8613 54.4326 67.7596 54.3306Z" fill="#1AA483"/>
<path d="M74.6901 49.3497C74.4137 47.5621 73.7518 45.856 72.7501 44.3497C71.7652 42.865 70.4555 41.6237 68.9201 40.7197L70.0201 35.4998C70.1252 35.0188 70.1252 34.5208 70.0201 34.0398C69.9101 33.5655 69.7024 33.1192 69.4101 32.7297C69.1195 32.3486 68.747 32.0377 68.3201 31.8198C67.9021 31.6057 67.4397 31.4926 66.9701 31.4897H65.4301V24.8998C65.4294 24.4694 65.3515 24.0426 65.2001 23.6398C65.0421 23.2438 64.8115 22.881 64.5201 22.5698C64.2354 22.2686 63.8961 22.0242 63.5201 21.8497C63.1416 21.6859 62.7326 21.6041 62.3201 21.6097H37.6601C37.4005 21.6044 37.1517 21.505 36.9601 21.3298L31.0901 15.8497C30.5256 15.3142 29.7783 15.0138 29.0001 15.0098H15.2401C14.8241 15.0116 14.4128 15.0966 14.0301 15.2598C13.6542 15.4342 13.3148 15.6785 13.0301 15.9797C12.7366 16.2893 12.5057 16.6527 12.3501 17.0498C12.1987 17.4527 12.1209 17.8794 12.1201 18.3098V54.5198C12.1209 54.9501 12.1987 55.3769 12.3501 55.7798C12.5081 56.1757 12.7387 56.5386 13.0301 56.8497C13.3125 57.151 13.6526 57.3926 14.0301 57.5598C14.4117 57.7262 14.8238 57.8113 15.2401 57.8098H53.7301C54.6707 59.3337 55.9464 60.623 57.4601 61.5798C58.9414 62.5192 60.6239 63.0948 62.3701 63.2598C64.0914 63.411 65.8242 63.1576 67.4301 62.5198C69.071 61.8616 70.5388 60.8352 71.7201 59.5198C72.9194 58.1648 73.8008 56.5591 74.3001 54.8198C74.8327 53.0477 74.9659 51.1795 74.6901 49.3497ZM14.1501 18.2698C14.1495 17.9796 14.2605 17.7003 14.4601 17.4897C14.5545 17.388 14.669 17.307 14.7964 17.252C14.9238 17.1969 15.0613 17.1689 15.2001 17.1698H28.9601C29.221 17.1682 29.4722 17.2687 29.6601 17.4498L35.5301 22.9298C36.0956 23.4626 36.8432 23.7594 37.6201 23.7598H62.2801C62.4172 23.7602 62.5528 23.7888 62.6784 23.8439C62.804 23.8989 62.9169 23.9793 63.0101 24.0798C63.2098 24.2904 63.3208 24.5696 63.3201 24.8597V31.4498H61.2301V29.2498C61.2308 28.8183 61.1493 28.3907 60.9901 27.9897C60.8321 27.5938 60.6015 27.231 60.3101 26.9198C60.0269 26.6195 59.687 26.3781 59.3101 26.2097C58.9322 26.0427 58.5233 25.9575 58.1101 25.9597H19.4301C19.017 25.9575 18.608 26.0427 18.2301 26.2097C17.8532 26.3781 17.5134 26.6195 17.2301 26.9198C16.9387 27.231 16.7081 27.5938 16.5501 27.9897C16.3909 28.3907 16.3095 28.8183 16.3101 29.2498V36.8998L14.2201 46.7498L14.1501 18.2698ZM59.1501 29.2698V31.4697H19.9201C19.3618 31.4698 18.8147 31.6257 18.3401 31.9198V29.2698C18.342 28.9831 18.4528 28.7078 18.6501 28.4998C18.7445 28.398 18.859 28.3169 18.9864 28.2618C19.1138 28.2067 19.2513 28.1789 19.3901 28.1798H58.1001C58.2389 28.1789 58.3764 28.2067 58.5038 28.2618C58.6312 28.3169 58.7457 28.398 58.8401 28.4998C59.0325 28.7021 59.1399 28.9706 59.1401 29.2498L59.1501 29.2698ZM14.4301 55.3198L18.8501 34.5098C18.8919 34.2642 19.0239 34.0431 19.2201 33.8898C19.4012 33.7349 19.6318 33.6498 19.8701 33.6498H66.9201C67.0767 33.6507 67.2308 33.6884 67.3701 33.7598C67.5122 33.8298 67.6356 33.9327 67.7301 34.0598C67.8297 34.1904 67.9012 34.3402 67.9401 34.4998C67.9702 34.6617 67.9702 34.8278 67.9401 34.9897L66.9401 39.7798C64.8769 39.0434 62.6396 38.9458 60.5201 39.4998C58.3768 40.0657 56.4448 41.2437 54.9601 42.8898C53.424 44.5735 52.3854 46.6506 51.9601 48.8898C51.5425 51.1451 51.7465 53.4715 52.5501 55.6198H15.1301C14.8687 55.6054 14.6208 55.4992 14.4301 55.3198ZM72.0601 54.7998C71.3991 56.6015 70.2282 58.172 68.6901 59.3198C67.1829 60.4314 65.3721 61.0558 63.5001 61.1097C61.6258 61.1476 59.7855 60.6064 58.2301 59.5598C56.6401 58.493 55.4014 56.9793 54.6701 55.2097C53.9184 53.4096 53.6896 51.434 54.0101 49.5098C54.3256 47.6036 55.1791 45.8272 56.4701 44.3898C57.7406 42.9918 59.4029 42.0092 61.2401 41.5698C63.0584 41.1478 64.963 41.3015 66.6901 42.0098C67.8583 42.4966 68.9189 43.2092 69.8112 44.1067C70.7035 45.0041 71.41 46.0688 71.8901 47.2397C72.9132 49.6426 72.9883 52.3439 72.1001 54.7998H72.0601Z" fill="#1AA483"/>
</g>
<defs>
<clipPath id="clip0_49_11355">
<rect width="77.39" height="63.31" fill="white"/>
</clipPath>
</defs>
</svg>
