<svg width="118" height="74" viewBox="0 0 118 74" fill="none" xmlns="http://www.w3.org/2000/svg">
<g clip-path="url(#clip0_49_11332)">
<path fill-rule="evenodd" clip-rule="evenodd" d="M91.0997 0.170064H16.8897C16.0277 0.170064 15.2011 0.512475 14.5916 1.12197C13.9821 1.73146 13.6397 2.55811 13.6397 3.42006V51.6001C13.6383 52.0273 13.7215 52.4505 13.8844 52.8454C14.0472 53.2403 14.2866 53.5991 14.5886 53.9011C14.8907 54.2032 15.2495 54.4425 15.6444 54.6054C16.0393 54.7682 16.4625 54.8514 16.8897 54.8501H75.2597C74.8395 54.0125 74.5045 53.1347 74.2597 52.2301H17.6497C17.2818 52.2275 16.9298 52.0802 16.6697 51.8201C16.4096 51.56 16.2623 51.2079 16.2597 50.8401V12.8401H91.7697V33.4601C92.6501 33.6471 93.5131 33.908 94.3497 34.2401V3.43007C94.355 3.00133 94.2747 2.57589 94.1134 2.17861C93.952 1.78133 93.713 1.42026 93.4103 1.1166C93.1076 0.812938 92.7472 0.572828 92.3505 0.410298C91.9537 0.247769 91.5284 0.166036 91.0997 0.170064ZM21.3397 8.26015C20.986 8.26016 20.6467 8.12038 20.3957 7.87124C20.1446 7.6221 20.0023 7.28373 19.9997 6.93007C19.9997 6.57468 20.1408 6.23386 20.3921 5.98256C20.6434 5.73127 20.9843 5.59011 21.3397 5.59011C21.6933 5.59275 22.0316 5.73509 22.2807 5.9861C22.5299 6.23712 22.6697 6.57641 22.6697 6.93007C22.667 7.282 22.5261 7.61884 22.2772 7.8677C22.0284 8.11655 21.6916 8.25754 21.3397 8.26015ZM28.2297 8.26015C27.876 8.26016 27.5367 8.12038 27.2857 7.87124C27.0346 7.6221 26.8923 7.28373 26.8897 6.93007C26.8897 6.57468 27.0308 6.23386 27.2821 5.98256C27.5334 5.73127 27.8743 5.59011 28.2297 5.59011C28.5833 5.59275 28.9216 5.73509 29.1707 5.9861C29.4199 6.23712 29.5597 6.57641 29.5597 6.93007C29.557 7.282 29.4161 7.61884 29.1672 7.8677C28.9184 8.11655 28.5816 8.25754 28.2297 8.26015ZM35.1097 8.26015C34.7577 8.25754 34.421 8.11655 34.1721 7.8677C33.9232 7.61884 33.7823 7.282 33.7797 6.93007C33.7797 6.57641 33.9195 6.23712 34.1686 5.9861C34.4177 5.73509 34.756 5.59275 35.1097 5.59011C35.4651 5.59011 35.8059 5.73127 36.0572 5.98256C36.3085 6.23386 36.4497 6.57468 36.4497 6.93007C36.447 7.28373 36.3047 7.6221 36.0537 7.87124C35.8027 8.12038 35.4633 8.26016 35.1097 8.26015Z" fill="#1AA483"/>
<path d="M70.4905 35.8008H56.7305V36.7908H70.4905V35.8008Z" fill="#1AA483"/>
<path d="M75.7605 30.9102H56.7305V31.9002H75.7605V30.9102Z" fill="#1AA483"/>
<path d="M45.6898 27.9395V21.9395H35.1398C34.9368 21.9382 34.7354 21.9771 34.5474 22.0539C34.3594 22.1307 34.1885 22.2439 34.0444 22.387C33.9004 22.5301 33.786 22.7004 33.708 22.8878C33.63 23.0753 33.5898 23.2764 33.5898 23.4795V41.6795C33.5976 42.0503 33.7397 42.4056 33.9898 42.6795H51.3398C51.5903 42.408 51.7232 42.0486 51.7098 41.6795V28.0196L45.6898 27.9395ZM44.8598 31.4195L45.4598 30.8695L46.1298 31.5595L46.8198 30.8695L47.3898 31.4195L46.6998 32.1295L47.3898 32.8195L46.8198 33.3996L46.1298 32.6895L45.4598 33.3996L44.8598 32.8195L45.5499 32.1295L44.8598 31.4195ZM37.8598 31.4195L38.4398 30.8695L39.1298 31.5595L39.7999 30.8695L40.3998 31.4195L39.6998 32.1295L40.3998 32.8195L39.7999 33.3996L39.1298 32.6895L38.4398 33.3996L37.8598 32.8195L38.5499 32.1295L37.8598 31.4195ZM47.8598 37.1095H47.1198V38.7495C47.1172 39.0537 46.9952 39.3447 46.7801 39.5598C46.565 39.775 46.274 39.897 45.9698 39.8996H45.2098C44.9056 39.897 44.6147 39.775 44.3996 39.5598C44.1844 39.3447 44.0625 39.0537 44.0598 38.7495V37.0895H37.3398V36.2796H47.7999L47.8598 37.1095Z" fill="#1AA483"/>
<path d="M45.9402 38.2592V39.8992H45.2002V38.2391C45.2027 38.1418 45.2425 38.0492 45.3114 37.9803C45.3802 37.9115 45.4729 37.8717 45.5702 37.8691C45.6205 37.8691 45.6703 37.8792 45.7166 37.899C45.7628 37.9189 45.8045 37.948 45.8392 37.9845C45.8738 38.021 45.9006 38.0641 45.918 38.1113C45.9354 38.1586 45.9429 38.2089 45.9402 38.2592Z" fill="#1B352C"/>
<path d="M33.9902 42.6406H51.3402C51.2004 42.8028 51.0268 42.9324 50.8316 43.0205C50.6364 43.1086 50.4244 43.1531 50.2102 43.1506H35.2102C34.9819 43.1609 34.754 43.1204 34.5431 43.0322C34.3322 42.9441 34.1434 42.8103 33.9902 42.6406Z" fill="#1B352C"/>
<path d="M51.6604 27.9404H45.6904V21.9004L48.6704 24.8904L48.9904 25.2204L51.6604 27.9404Z" fill="#1B352C"/>
<path d="M51.7004 27.9404H45.6904V21.9004L48.6704 24.8904L48.9904 25.2204L51.7004 27.9404Z" fill="#1AA483"/>
<path opacity="0.3" d="M45.9402 38.2592V39.8992H45.2002V38.2391C45.2027 38.1418 45.2425 38.0492 45.3114 37.9803C45.3802 37.9115 45.4729 37.8717 45.5702 37.8691C45.6205 37.8691 45.6703 37.8792 45.7166 37.899C45.7628 37.9189 45.8045 37.948 45.8392 37.9845C45.8738 38.021 45.9006 38.0641 45.918 38.1113C45.9354 38.1586 45.9429 38.2089 45.9402 38.2592Z" fill="#1AA483"/>
<path d="M45.9402 38.2592V39.8992H45.2002V38.2391C45.2027 38.1418 45.2425 38.0492 45.3114 37.9803C45.3802 37.9115 45.4729 37.8717 45.5702 37.8691C45.6205 37.8691 45.6703 37.8792 45.7166 37.899C45.7628 37.9189 45.8045 37.948 45.8392 37.9845C45.8738 38.021 45.9006 38.0641 45.918 38.1113C45.9354 38.1586 45.9429 38.2089 45.9402 38.2592Z" fill="#38776E"/>
<path d="M111.63 20.1309H102.63L98.1299 27.8909L102.63 35.6609H111.63L116.12 27.8909L111.63 20.1309ZM107.16 31.2108C106.279 31.2108 105.435 30.861 104.812 30.2384C104.19 29.6158 103.84 28.7714 103.84 27.8909C103.843 27.0121 104.193 26.1701 104.816 25.5497C105.438 24.9292 106.281 24.5808 107.16 24.5808C108.039 24.5808 108.882 24.9292 109.504 25.5497C110.126 26.1701 110.477 27.0121 110.48 27.8909C110.48 28.7714 110.13 29.6158 109.507 30.2384C108.885 30.861 108.04 31.2108 107.16 31.2108Z" fill="#1AA483"/>
<path d="M73.6203 60.7695H58.5703V61.7595H73.6203V60.7695Z" fill="#1AA483"/>
<path d="M93.1503 66.8809H58.5703V67.8709H93.1503V66.8809Z" fill="#1AA483"/>
<path d="M43.3396 58.6504C41.4088 58.6504 39.5571 59.4173 38.1918 60.7826C36.8266 62.1479 36.0596 63.9995 36.0596 65.9303C36.0575 67.3942 36.4974 68.8246 37.3218 70.0343C38.1461 71.244 39.3164 72.1767 40.6796 72.7103H46.0096C47.3727 72.1767 48.5431 71.244 49.3674 70.0343C50.1917 68.8246 50.6316 67.3942 50.6296 65.9303C50.6296 64.9734 50.4409 64.026 50.0745 63.1421C49.708 62.2582 49.1709 61.4552 48.4938 60.7791C47.8167 60.1029 47.013 59.5669 46.1286 59.2017C45.2442 58.8364 44.2964 58.6491 43.3396 58.6504ZM46.6596 68.4503L45.9496 69.1404L43.3496 66.5304L40.7196 69.1404L40.0296 68.4503L42.6496 65.8604L40.0296 63.2804L40.7196 62.5903L43.3496 65.1703L45.9496 62.5903L46.6596 63.2804L44.0396 65.8604L46.6596 68.4503Z" fill="#1AA483"/>
<path d="M40.6504 72.7109H45.9804C45.1308 73.0487 44.2247 73.2218 43.3104 73.2209C42.3993 73.2227 41.4963 73.0496 40.6504 72.7109Z" fill="#1B352C"/>
<path d="M28.6104 65.6992C27.6149 65.7019 26.6611 66.0992 25.9581 66.8041C25.2551 67.5089 24.8603 68.4637 24.8604 69.4592C24.8604 70.1172 25.0332 70.7637 25.3613 71.334C25.6895 71.9043 26.1615 72.3785 26.7303 72.7092H30.5004C31.0692 72.3785 31.5412 71.9043 31.8694 71.334C32.1975 70.7637 32.3703 70.1172 32.3703 69.4592C32.3703 68.462 31.9742 67.5057 31.2691 66.8005C30.5639 66.0954 29.6076 65.6992 28.6104 65.6992ZM30.3203 70.4692L29.6503 71.1892L28.6503 70.1892L27.5903 71.1892L26.9003 70.4692L27.9003 69.4692L26.9003 68.4692L27.5903 67.7793L28.6503 68.7793L29.6503 67.7793L30.3203 68.4692L29.3203 69.4692L30.3203 70.4692Z" fill="#1AA483"/>
<path opacity="0.3" d="M30.5005 72.7109C29.9285 73.0494 29.2751 73.2257 28.6105 73.2209C27.9492 73.2244 27.2994 73.0481 26.7305 72.7109H30.5005Z" fill="#1AA483"/>
<path d="M26.7305 72.7106C27.2994 73.0477 27.9492 73.224 28.6105 73.2206C29.2751 73.2253 29.9285 73.049 30.5005 72.7106H26.7305ZM40.6505 72.7106C41.4963 73.0492 42.3993 73.2223 43.3105 73.2206C44.2248 73.2214 45.1309 73.0483 45.9805 72.7106H40.6505ZM33.9905 42.6406C34.1359 42.8013 34.3133 42.9296 34.5114 43.0175C34.7095 43.1053 34.9238 43.1507 35.1405 43.1506H50.1405C50.3546 43.1531 50.5667 43.1086 50.7619 43.0205C50.9571 42.9324 51.1306 42.8028 51.2705 42.6406H33.9905Z" fill="#1AA483"/>
<path d="M110.71 72.7303C111.145 72.5095 111.543 72.2228 111.89 71.8804C112.354 71.4186 112.713 70.8628 112.944 70.2505C113.174 69.6382 113.271 68.9835 113.227 68.3307C113.184 67.6778 113.001 67.0419 112.691 66.4657C112.381 65.8895 111.951 65.3864 111.43 64.9904L100.99 56.9904C102.818 54.4362 103.794 51.371 103.78 48.2303C103.788 45.2215 102.894 42.2794 101.213 39.7838C99.5317 37.2883 97.1413 35.3539 94.3501 34.2303C93.5136 33.8982 92.6505 33.6373 91.7701 33.4503C90.7824 33.2517 89.7776 33.1513 88.7701 33.1504C85.755 33.1502 82.8091 34.0543 80.3133 35.7461C77.8175 37.4379 75.8865 39.8395 74.7701 42.6404H51.3401C51.2003 42.8026 51.0267 42.9322 50.8315 43.0203C50.6363 43.1084 50.4242 43.1528 50.2101 43.1504H35.2101C34.9934 43.1505 34.7791 43.1051 34.5811 43.0172C34.383 42.9294 34.2055 42.8011 34.0601 42.6404H31.5401V43.6404H74.5401C74.0681 45.1143 73.8285 46.6527 73.8301 48.2003C73.8315 49.5524 74.0165 50.898 74.3801 52.2003C74.6249 53.1049 74.9599 53.9826 75.3801 54.8203C76.6177 57.3415 78.5383 59.4645 80.9232 60.9478C83.3081 62.431 86.0616 63.215 88.8701 63.2103C91.7404 63.2277 94.5529 62.4037 96.9601 60.8403L105.07 71.3704C105.495 71.9211 106.038 72.3689 106.66 72.6803H46.1001C45.2505 73.018 44.3444 73.1911 43.4301 73.1903C42.519 73.1921 41.616 73.0189 40.7701 72.6803H30.6201C30.0481 73.0188 29.3947 73.1951 28.7301 73.1903C28.0688 73.1938 27.419 73.0175 26.8501 72.6803H0.120117V73.6803H118.12V72.6803L110.71 72.7303ZM88.7101 60.0803C86.7669 60.0822 84.8529 59.6062 83.137 58.6942C81.421 57.7822 79.9557 56.4621 78.8701 54.8503C78.3149 54.0384 77.8678 53.1577 77.5401 52.2303C77.0789 50.9471 76.8422 49.594 76.8401 48.2303C76.8388 46.669 77.1455 45.1228 77.7427 43.6802C78.3399 42.2376 79.2158 40.927 80.3203 39.8235C81.4248 38.7199 82.7361 37.8451 84.1792 37.2491C85.6223 36.6532 87.1688 36.3477 88.7301 36.3503C89.7424 36.3552 90.7502 36.4862 91.7301 36.7404C92.6242 36.978 93.4894 37.3133 94.3101 37.7404C96.1985 38.7554 97.7767 40.263 98.8772 42.1029C99.9776 43.9428 100.559 46.0464 100.56 48.1903C100.565 51.335 99.3227 54.3533 97.1047 56.5825C94.8867 58.8118 91.8748 60.0697 88.7301 60.0803H88.7101Z" fill="#1AA483"/>
<path d="M95.3399 49.4998C95.0761 49.4168 94.8456 49.2518 94.682 49.0288C94.5185 48.8058 94.4303 48.5364 94.4303 48.2598C94.4303 47.9833 94.5185 47.7139 94.682 47.4909C94.8456 47.2679 95.0761 47.1029 95.3399 47.0198C95.7164 46.8023 95.9912 46.4441 96.1037 46.024C96.2162 45.6039 96.1573 45.1565 95.9399 44.7799L95.3599 43.7799C95.257 43.5882 95.1147 43.4204 94.9424 43.2877C94.77 43.1549 94.5715 43.0603 94.3599 43.0098C94.1557 42.9533 93.9421 42.9392 93.7323 42.9684C93.5224 42.9977 93.3208 43.0695 93.1399 43.1798C92.9582 43.3429 92.7339 43.4512 92.4932 43.4919C92.2524 43.5326 92.0051 43.5042 91.7799 43.4099C91.4881 43.2976 91.2461 43.0847 91.0975 42.8096C90.949 42.5345 90.9037 42.2154 90.9699 41.9099C90.9699 41.6958 90.9277 41.4838 90.8458 41.2861C90.7639 41.0883 90.6438 40.9086 90.4925 40.7573C90.3411 40.6059 90.1614 40.4858 89.9636 40.4039C89.7659 40.322 89.5539 40.2799 89.3399 40.2799H88.1899C87.9695 40.2741 87.7503 40.3138 87.5461 40.3967C87.3418 40.4796 87.1569 40.6038 87.0029 40.7615C86.8489 40.9193 86.7292 41.1072 86.6513 41.3134C86.5733 41.5196 86.5388 41.7396 86.5499 41.9598C86.5909 42.2215 86.5517 42.4896 86.4373 42.7286C86.3229 42.9675 86.1387 43.1661 85.9091 43.2983C85.6795 43.4304 85.4152 43.4899 85.1511 43.4687C84.887 43.4475 84.6355 43.3468 84.4299 43.1798C84.2436 43.0619 84.0356 42.9825 83.8181 42.9464C83.6007 42.9102 83.3782 42.918 83.1638 42.9693C82.9494 43.0206 82.7474 43.1143 82.5699 43.2449C82.3923 43.3756 82.2427 43.5404 82.1299 43.7298L81.5499 44.7298C81.3356 45.1055 81.2785 45.5507 81.3908 45.9683C81.5032 46.386 81.776 46.7423 82.1499 46.9598C82.4175 47.0402 82.6521 47.2048 82.8189 47.429C82.9857 47.6533 83.0757 47.9253 83.0757 48.2048C83.0757 48.4843 82.9857 48.7563 82.8189 48.9805C82.6521 49.2048 82.4175 49.3693 82.1499 49.4498C81.9628 49.5555 81.7986 49.6975 81.6669 49.8674C81.5352 50.0372 81.4386 50.2316 81.3828 50.4392C81.3269 50.6467 81.313 50.8632 81.3416 51.0762C81.3703 51.2892 81.4411 51.4944 81.5499 51.6798L81.8599 52.2198L82.1299 52.6998C82.2356 52.8869 82.3776 53.0511 82.5474 53.1828C82.7173 53.3145 82.9117 53.411 83.1192 53.4669C83.3267 53.5227 83.5433 53.5367 83.7563 53.508C83.9693 53.4793 84.1745 53.4085 84.3599 53.2997C84.5675 53.1144 84.8284 52.9994 85.1054 52.9713C85.3823 52.9431 85.661 53.0032 85.9017 53.143C86.1424 53.2828 86.3328 53.4951 86.4456 53.7496C86.5584 54.004 86.5879 54.2875 86.5299 54.5598C86.5196 54.6528 86.5196 54.7467 86.5299 54.8398C86.5935 55.2187 86.789 55.563 87.0817 55.8118C87.3744 56.0607 87.7457 56.198 88.1299 56.1998H89.3399C89.7261 56.1935 90.0985 56.0551 90.3951 55.8077C90.6916 55.5602 90.8945 55.2186 90.9699 54.8398C90.9796 54.7634 90.9796 54.6862 90.9699 54.6098C90.9089 54.3368 90.9363 54.0515 91.048 53.795C91.1597 53.5385 91.35 53.3242 91.5914 53.1829C91.8328 53.0416 92.1129 52.9807 92.3912 53.0089C92.6695 53.0371 92.9317 53.1529 93.1399 53.3398C93.3131 53.449 93.5073 53.5205 93.7099 53.5497C94.0358 53.5957 94.368 53.5432 94.6638 53.3989C94.9596 53.2545 95.2055 53.025 95.3699 52.7398L95.9499 51.7398C96.0571 51.5527 96.1264 51.3463 96.1538 51.1324C96.1812 50.9185 96.1661 50.7013 96.1094 50.4932C96.0528 50.2852 95.9556 50.0903 95.8236 49.9199C95.6915 49.7494 95.5272 49.6067 95.3399 49.4998ZM95.0399 51.2098L94.4699 52.2098C94.4111 52.3085 94.3286 52.391 94.2299 52.4498C94.1344 52.5061 94.0257 52.5358 93.9149 52.5358C93.8041 52.5358 93.6953 52.5061 93.5999 52.4498C93.239 52.1801 92.807 52.0224 92.3573 51.9962C91.9076 51.9699 91.46 52.0762 91.0702 52.3019C90.6804 52.5277 90.3655 52.863 90.1646 53.2662C89.9636 53.6693 89.8855 54.1226 89.9399 54.5698C89.9403 54.6567 89.9197 54.7425 89.8799 54.8198C89.8268 54.9311 89.7431 55.025 89.6386 55.0905C89.5341 55.156 89.4132 55.1904 89.2899 55.1898H88.1399C88.018 55.1897 87.8987 55.1548 87.7959 55.0893C87.6932 55.0238 87.6113 54.9303 87.5599 54.8198C87.5216 54.7414 87.4979 54.6567 87.4899 54.5698C87.5599 54.0908 87.4743 53.602 87.2457 53.1754C87.017 52.7487 86.6575 52.4067 86.2199 52.1998C85.9107 52.0402 85.5678 51.9569 85.2199 51.9569C84.8719 51.9569 84.5291 52.0402 84.2199 52.1998C84.0767 52.2662 83.9423 52.3501 83.8199 52.4498C83.6723 52.5289 83.4996 52.547 83.3389 52.5003C83.1781 52.4536 83.042 52.3457 82.9599 52.1998L82.3799 51.1998C82.2955 51.0522 82.2723 50.8773 82.3153 50.7128C82.3583 50.5483 82.4641 50.4072 82.6099 50.3198C83.0256 50.1468 83.3808 49.8545 83.6307 49.4799C83.8805 49.1053 84.0139 48.6651 84.0139 48.2148C84.0139 47.7645 83.8805 47.3243 83.6307 46.9496C83.3808 46.575 83.0256 46.2828 82.6099 46.1098C82.5367 46.0674 82.4726 46.011 82.4214 45.9437C82.3701 45.8764 82.3327 45.7995 82.3113 45.7177C82.29 45.6359 82.285 45.5506 82.2968 45.4669C82.3085 45.3831 82.3368 45.3026 82.3799 45.2298L82.9599 44.2298C82.9997 44.1554 83.0539 44.0896 83.1193 44.0362C83.1846 43.9828 83.2599 43.9429 83.3408 43.9188C83.4216 43.8946 83.5065 43.8867 83.5904 43.8955C83.6744 43.9042 83.7557 43.9295 83.8299 43.9698C84.1889 44.2435 84.6208 44.405 85.0713 44.4339C85.5218 44.4629 85.9708 44.358 86.3619 44.1325C86.753 43.907 87.0687 43.5711 87.2694 43.1667C87.4701 42.7623 87.5468 42.3076 87.4899 41.8598C87.4912 41.7758 87.509 41.6928 87.5424 41.6157C87.5758 41.5385 87.624 41.4686 87.6844 41.4101C87.7447 41.3516 87.816 41.3057 87.8942 41.2747C87.9723 41.2438 88.0558 41.2285 88.1399 41.2298H89.2899C89.4574 41.2345 89.617 41.3018 89.7374 41.4184C89.8577 41.535 89.9299 41.6925 89.9399 41.8598C89.8628 42.4406 90.0103 43.029 90.3523 43.5047C90.6942 43.9804 91.2048 44.3077 91.7799 44.4197C92.0976 44.4856 92.426 44.4793 92.741 44.4014C93.056 44.3236 93.3495 44.1761 93.5999 43.9698C93.7214 43.9034 93.8612 43.8783 93.9982 43.8981C94.1352 43.918 94.2621 43.9817 94.3599 44.0798C94.4075 44.1231 94.448 44.1738 94.4799 44.2298L95.0499 45.2298C95.1343 45.3774 95.1574 45.5522 95.1144 45.7167C95.0714 45.8812 94.9657 46.0224 94.8199 46.1098C94.6563 46.1726 94.5016 46.2567 94.3599 46.3598C94.0685 46.5734 93.8315 46.8527 93.6681 47.175C93.5048 47.4973 93.4196 47.8535 93.4196 48.2148C93.4196 48.5761 93.5048 48.9323 93.6681 49.2546C93.8315 49.5769 94.0685 49.8562 94.3599 50.0698C94.5016 50.1729 94.6563 50.2569 94.8199 50.3198C94.8936 50.363 94.9579 50.4205 95.0091 50.489C95.0602 50.5574 95.0971 50.6355 95.1176 50.7184C95.1381 50.8014 95.1418 50.8876 95.1284 50.972C95.1151 51.0564 95.085 51.1372 95.0399 51.2098Z" fill="#1AA483"/>
<path d="M91.0299 48.2101C91.0313 48.513 90.9727 48.8132 90.8577 49.0934C90.7427 49.3736 90.5735 49.6283 90.3598 49.8429C90.1461 50.0576 89.8921 50.2279 89.6124 50.3441C89.3327 50.4603 89.0328 50.5202 88.7299 50.5202C88.4262 50.5215 88.1252 50.4626 87.8444 50.3469C87.5635 50.2313 87.3083 50.0612 87.0936 49.8465C86.8788 49.6317 86.7087 49.3766 86.5931 49.0957C86.4775 48.8149 86.4186 48.5138 86.4199 48.2101C86.4199 47.9072 86.4798 47.6074 86.596 47.3277C86.7122 47.048 86.8825 46.7939 87.0971 46.5802C87.3118 46.3665 87.5665 46.1973 87.8467 46.0823C88.1269 45.9673 88.4271 45.9089 88.7299 45.9102C89.3399 45.9102 89.925 46.1524 90.3563 46.5838C90.7876 47.0151 91.0299 47.6001 91.0299 48.2101Z" fill="#1AA483"/>
</g>
<defs>
<clipPath id="clip0_49_11332">
<rect width="117.97" height="74" fill="white"/>
</clipPath>
</defs>
</svg>
