<svg width="17" height="20" viewBox="0 0 17 20" fill="none" xmlns="http://www.w3.org/2000/svg">
<path d="M16.2735 2.85714C16.1696 1.53061 15.1307 0.408163 13.78 0.306122C12.3255 0.204082 10.1436 0 8.58521 0C7.02676 0 4.84494 0.204082 3.3904 0.408163C2.03975 0.510204 1.00079 1.53061 0.896893 2.85714C0.792997 4.4898 0.585205 7.65306 0.585205 10C0.585205 12.2449 0.792997 15.4082 0.896893 17.1429C1.00079 18.4694 2.03975 19.5918 3.3904 19.6939C4.84494 19.7959 7.02676 20 8.58521 20C10.1436 20 12.3255 19.7959 13.78 19.6939C15.1307 19.5918 16.1696 18.4694 16.2735 17.1429C16.3774 15.5102 16.5852 12.3469 16.5852 10C16.5852 7.65306 16.3774 4.59184 16.2735 2.85714ZM5.46832 7.14286H8.58521C9.00079 7.14286 9.41637 7.44898 9.41637 7.95918C9.41637 8.46939 9.10469 8.77551 8.58521 8.77551H5.46832C5.05274 8.77551 4.63715 8.46939 4.63715 7.95918C4.63715 7.44898 5.05274 7.14286 5.46832 7.14286ZM11.7021 12.8571H5.46832C5.05274 12.8571 4.63715 12.551 4.63715 12.0408C4.63715 11.5306 4.94884 11.2245 5.46832 11.2245H11.7021C12.1177 11.2245 12.5333 11.5306 12.5333 12.0408C12.5333 12.551 12.1177 12.8571 11.7021 12.8571Z" fill="#1AA483"/>
</svg>
