<svg width="14" height="16" viewBox="0 0 14 16" fill="none" xmlns="http://www.w3.org/2000/svg">
<path d="M10.3066 1V2.39999M6.80662 1V2.39999M3.30664 1V2.39999" stroke="#1AA483" stroke-width="1.25" stroke-linecap="round" stroke-linejoin="round"/>
<path d="M0.856689 10.7999V5.89992C0.856689 3.92004 0.85669 2.9301 1.47176 2.31502C2.08683 1.69995 3.07677 1.69995 5.05666 1.69995H8.55664C10.5365 1.69995 11.5264 1.69995 12.1415 2.31502C12.7566 2.9301 12.7566 3.92004 12.7566 5.89992V7.99991C12.7566 11.2997 12.7566 12.9496 11.7315 13.9747C10.7064 14.9999 9.05643 14.9999 5.75666 14.9999H5.05666C3.07677 14.9999 2.08683 14.9999 1.47176 14.3848C0.85669 13.7697 0.856689 12.7798 0.856689 10.7999Z" stroke="#1AA483" stroke-width="1.25"/>
<path d="M4.00671 10.1001H6.8067M4.00671 6.6001H9.60668" stroke="#1AA483" stroke-width="1.25" stroke-linecap="round"/>
<path d="M12.7566 9.75C12.7566 10.7165 11.9731 11.5 11.0066 11.5C10.6571 11.5 10.245 11.4387 9.90513 11.5298C9.60315 11.6107 9.36732 11.8466 9.2864 12.1485C9.19533 12.4884 9.25658 12.9005 9.25658 13.25C9.25658 14.2165 8.47308 15 7.50659 15" stroke="#1AA483" stroke-width="1.25" stroke-linecap="round" stroke-linejoin="round"/>
</svg>
