<svg width="18" height="18" viewBox="0 0 18 18" fill="none" xmlns="http://www.w3.org/2000/svg">
<path d="M11.6185 13.6585C13.3265 13.4563 15.0046 13.0532 16.618 12.4577C15.2516 10.9441 14.4966 8.97662 14.4996 6.9375V6.29583V6.25C14.4996 4.79131 13.9202 3.39236 12.8887 2.36091C11.8573 1.32946 10.4583 0.75 8.99961 0.75C7.54092 0.75 6.14198 1.32946 5.11053 2.36091C4.07908 3.39236 3.49961 4.79131 3.49961 6.25V6.9375C3.50238 8.97674 2.74702 10.9442 1.38028 12.4577C2.96886 13.0443 4.64361 13.4523 6.3807 13.6585M11.6185 13.6585C9.87868 13.8649 8.12054 13.8649 6.3807 13.6585M11.6185 13.6585C11.7506 14.0709 11.7835 14.5086 11.7144 14.9361C11.6453 15.3635 11.4763 15.7687 11.221 16.1184C10.9658 16.4682 10.6316 16.7528 10.2455 16.949C9.85952 17.1452 9.43263 17.2474 8.99961 17.2474C8.5666 17.2474 8.13971 17.1452 7.75369 16.949C7.36767 16.7528 7.03343 16.4682 6.77818 16.1184C6.52294 15.7687 6.3539 15.3635 6.28483 14.9361C6.21575 14.5086 6.2486 14.0709 6.3807 13.6585M0.863281 4.875C1.12175 3.33956 1.81093 1.90907 2.85061 0.75M15.1486 0.75C16.1883 1.90907 16.8775 3.33956 17.1359 4.875" stroke="#1AA483" stroke-width="1.5" stroke-linecap="round" stroke-linejoin="round"/>
</svg>
