<svg width="18" height="14" viewBox="0 0 18 14" fill="none" xmlns="http://www.w3.org/2000/svg">
<path d="M13.9281 13C14.8746 13 15.6426 12.2328 15.6426 11.2855V7.85725L16.4999 7L15.6426 6.14275V2.7145C15.6426 1.76725 14.8754 1 13.9281 1M4.07175 1C3.1245 1 2.35725 1.76725 2.35725 2.7145V6.14275L1.5 7L2.35725 7.85725V11.2855C2.35725 12.2328 3.1245 13 4.07175 13M5.625 7L7.45074 8.82574C7.59924 8.97424 7.6735 9.04849 7.75912 9.07632C7.83443 9.10079 7.91557 9.10079 7.99088 9.07632C8.0765 9.04849 8.15076 8.97424 8.29926 8.82574L12.375 4.75" stroke="#5D646F" stroke-width="1.25" stroke-linecap="round" stroke-linejoin="round"/>
</svg>
