<svg width="24" height="24" viewBox="0 0 24 24" fill="none" xmlns="http://www.w3.org/2000/svg">
<path d="M14.8301 19.38C14.7167 19.2228 14.5658 19.0965 14.3911 19.0127C14.2164 18.9288 14.0236 18.8901 13.8301 18.9C13.6325 18.9 13.4362 18.9338 13.25 19C12.1819 19.3756 11.0448 19.5132 9.91797 19.4032C8.79114 19.2932 7.70187 18.9384 6.72656 18.3634C5.75125 17.7884 4.91328 17.0072 4.27148 16.0745C3.62969 15.1418 3.19976 14.0801 3.01123 12.9637C2.8227 11.8474 2.88025 10.7033 3.18018 9.61157C3.4801 8.51984 4.01515 7.5068 4.74756 6.64343C5.47997 5.78007 6.39218 5.08718 7.42041 4.61328C8.44864 4.13938 9.56802 3.89602 10.7002 3.90002C11.569 3.90063 12.4312 4.04937 13.25 4.33997C13.4342 4.39912 13.6268 4.42944 13.8203 4.42993C14.0138 4.43981 14.2067 4.40111 14.3813 4.31726C14.556 4.23341 14.707 4.10711 14.8203 3.94995C14.8953 3.8477 14.945 3.7293 14.9658 3.60425C14.9867 3.47919 14.9777 3.35101 14.9399 3.22998C14.9164 3.13664 14.8706 3.05047 14.8062 2.979C14.7417 2.90754 14.6608 2.85292 14.5703 2.81995C13.472 2.3204 12.2859 2.04183 11.0801 2H10.6602C8.09795 2.01056 5.64388 3.03438 3.83398 4.84802C2.02409 6.66166 1.00526 9.11771 1 11.6799C0.999999 14.2428 2.01779 16.701 3.8291 18.5142C5.64042 20.3273 8.09725 21.3473 10.6602 21.35H11.0801C12.2875 21.3043 13.4753 21.0294 14.5801 20.5399C14.6684 20.5007 14.7472 20.443 14.811 20.3705C14.8749 20.298 14.9225 20.2125 14.9502 20.12C14.9873 19.9956 14.9959 19.8644 14.9751 19.7362C14.9543 19.608 14.9046 19.4863 14.8301 19.38ZM22.3203 10.78L19.4302 7.89001C19.2473 7.7137 19.004 7.61356 18.75 7.60999C18.496 7.61356 18.2532 7.7137 18.0703 7.89001C17.9017 8.07436 17.8081 8.31509 17.8081 8.56494C17.8081 8.81479 17.9017 9.05564 18.0703 9.23999L18.2803 9.42993L19.5303 10.71H12.6699C12.5203 10.6635 12.3621 10.6528 12.2075 10.6788C12.053 10.7049 11.9065 10.7669 11.7803 10.8599C11.6541 10.9528 11.5516 11.074 11.481 11.2139C11.4103 11.3537 11.3735 11.5082 11.3735 11.6649C11.3735 11.8216 11.4103 11.9762 11.481 12.1161C11.5516 12.2559 11.6541 12.3772 11.7803 12.4701C11.9065 12.563 12.053 12.6251 12.2075 12.6511C12.3621 12.6771 12.5203 12.6665 12.6699 12.62H19.5303L18.0801 14.1C17.9899 14.1865 17.9188 14.2906 17.8706 14.4059C17.8224 14.5212 17.7985 14.6451 17.8003 14.77C17.8131 15.0265 17.9242 15.2681 18.1104 15.4449C18.2965 15.6218 18.5435 15.7203 18.8003 15.72C19.0543 15.7164 19.2971 15.6163 19.48 15.4399L22.3701 12.5499C22.6004 12.3129 22.7295 11.9954 22.7295 11.6649C22.7295 11.3344 22.6004 11.0171 22.3701 10.78H22.3203Z" fill="white"/>
</svg>
