<svg width="22" height="22" viewBox="0 0 22 22" fill="none" xmlns="http://www.w3.org/2000/svg">
<path d="M1.5 11C1.5 6.52166 1.5 4.28249 2.89124 2.89124C4.28249 1.5 6.52166 1.5 11 1.5C15.4783 1.5 17.7175 1.5 19.1088 2.89124C20.5 4.28249 20.5 6.52166 20.5 11C20.5 15.4783 20.5 17.7175 19.1088 19.1088C17.7175 20.5 15.4783 20.5 11 20.5C6.52166 20.5 4.28249 20.5 2.89124 19.1088C1.5 17.7175 1.5 15.4783 1.5 11Z" stroke="white" stroke-width="1.25" stroke-linejoin="round"/>
<path d="M7.5 9C6.67157 9 6 8.32843 6 7.5C6 6.67157 6.67157 6 7.5 6C8.32843 6 9 6.67157 9 7.5C9 8.32843 8.32843 9 7.5 9Z" stroke="white" stroke-width="1.25"/>
<path d="M14.5 16C15.3284 16 16 15.3284 16 14.5C16 13.6716 15.3284 13 14.5 13C13.6716 13 13 13.6716 13 14.5C13 15.3284 13.6716 16 14.5 16Z" stroke="white" stroke-width="1.25"/>
<path d="M9 7.5H16" stroke="white" stroke-width="1.25" stroke-linecap="round"/>
<path d="M13 14.5H6" stroke="white" stroke-width="1.25" stroke-linecap="round"/>
</svg>
