<svg xmlns="http://www.w3.org/2000/svg" viewBox="0 0 120 120" width="120" height="120" preserveAspectRatio="xMidYMid meet" style="width: 100%; height: 100%; transform: translate3d(0px, 0px, 0px); content-visibility: visible;"><defs><clipPath id="__lottie_element_2"><rect width="120" height="120" x="0" y="0"></rect></clipPath><clipPath id="__lottie_element_20"><path fill="#ffffff" clip-rule="nonzero" d=" M-404,95.75 C-404,95.75 -394.8819885253906,90 -386.3819885253906,87 C-377.4859924316406,83.86000061035156 -371.4490051269531,95.75 -371.4490051269531,95.75 C-371.4490051269531,95.75 -371.3900146484375,58.25 -371.3900146484375,58.25 C-371.3900146484375,58.25 -403.9410095214844,58.25 -403.9410095214844,58.25 C-403.9410095214844,58.25 -404,95.75 -404,95.75" fill-opacity="1"></path></clipPath><clipPath id="__lottie_element_23"><path fill="#ffffff" clip-rule="nonzero" d=" M-371.4490051269531,88 C-371.4490051269531,88 -379.25799560546875,88 -388.50799560546875,88 C-397.48199462890625,88 -404,88 -404,88 C-404,88 -404,88 -404,88 C-404,88 -371.4490051269531,88 -371.4490051269531,88 C-371.4490051269531,88 -371.4490051269531,88 -371.4490051269531,88" fill-opacity="1"></path></clipPath></defs><g clip-path="url(#__lottie_element_2)"><g transform="matrix(-0.9999974370002747,-0.0008943527354858816,0.0008943527354858816,-0.9999974370002747,-328.0853271484375,147.2317657470703)" opacity="1" style="display: block;"><g opacity="1" transform="matrix(1,0,0,1,0,0)"></g></g><g transform="matrix(-0.9999974370002747,-0.0008943527354858816,0.0008943527354858816,-0.9999974370002747,-328.0928649902344,143.40301513671875)" opacity="1" style="display: block;"><g opacity="1" transform="matrix(1,0,0,1,0,0)"><path fill="rgb(26,162,129)" fill-opacity="1" d=" M-369.6059875488281,116.2699966430664 C-369.6059875488281,116.2699966430664 -406.4110107421875,116.2699966430664 -406.4110107421875,116.2699966430664 C-407.3919982910156,116.2699966430664 -408.18701171875,115.47599792480469 -408.18701171875,114.49500274658203 C-408.18701171875,114.49500274658203 -408.18701171875,114.49500274658203 -408.18701171875,114.49500274658203 C-408.18701171875,113.51399993896484 -407.3919982910156,112.71900177001953 -406.4110107421875,112.71900177001953 C-406.4110107421875,112.71900177001953 -369.6059875488281,112.71900177001953 -369.6059875488281,112.71900177001953 C-368.625,112.71900177001953 -367.8299865722656,113.51399993896484 -367.8299865722656,114.49500274658203 C-367.8299865722656,114.49500274658203 -367.8299865722656,114.49500274658203 -367.8299865722656,114.49500274658203 C-367.8299865722656,115.47599792480469 -368.625,116.2699966430664 -369.6059875488281,116.2699966430664z"></path></g></g><g transform="matrix(-0.9999974370002747,-0.0008943527354858816,0.0008943527354858816,-0.9999974370002747,-328.0760803222656,149.1522979736328)" opacity="1" style="display: block;"><g opacity="1" transform="matrix(1,0,0,1,0,0)"><path fill="rgb(26,162,129)" fill-opacity="1" d=" M-369.6059875488281,60.249000549316406 C-369.6059875488281,60.249000549316406 -406.4110107421875,60.249000549316406 -406.4110107421875,60.249000549316406 C-407.3919982910156,60.249000549316406 -408.18701171875,59.45399856567383 -408.18701171875,58.472999572753906 C-408.18701171875,58.472999572753906 -408.18701171875,58.472999572753906 -408.18701171875,58.472999572753906 C-408.18701171875,57.492000579833984 -407.3919982910156,56.698001861572266 -406.4110107421875,56.698001861572266 C-406.4110107421875,56.698001861572266 -369.6059875488281,56.698001861572266 -369.6059875488281,56.698001861572266 C-368.625,56.698001861572266 -367.8299865722656,57.492000579833984 -367.8299865722656,58.472999572753906 C-367.8299865722656,58.472999572753906 -367.8299865722656,58.472999572753906 -367.8299865722656,58.472999572753906 C-367.8299865722656,59.45399856567383 -368.625,60.249000549316406 -369.6059875488281,60.249000549316406z"></path></g></g><g transform="matrix(-0.9999974370002747,-0.0008943527354858816,0.0008943527354858816,-0.9999974370002747,-328.08441162109375,146.19175720214844)" opacity="1" style="display: block;"><g opacity="1" transform="matrix(1,0,0,1,0,0)"><path fill="rgb(217,217,217)" fill-opacity="1" d=" M-371.67401123046875,68.76100158691406 C-371.67401123046875,68.76100158691406 -371.67401123046875,59.435001373291016 -371.67401123046875,59.435001373291016 C-371.67401123046875,59.435001373291016 -404.3420104980469,59.435001373291016 -404.3420104980469,59.435001373291016 C-404.3420104980469,59.435001373291016 -404.3420104980469,68.34300231933594 -404.3420104980469,68.34300231933594 C-404.3420104980469,71.87699890136719 -402.95599365234375,75.2699966430664 -400.4809875488281,77.79199981689453 C-400.4809875488281,77.79199981689453 -394.8030090332031,83.5780029296875 -394.8030090332031,83.5780029296875 C-393.177001953125,85.23500061035156 -393.177001953125,87.88999938964844 -394.8030090332031,89.5469970703125 C-394.8030090332031,89.5469970703125 -400.4809875488281,95.33300018310547 -400.4809875488281,95.33300018310547 C-402.95599365234375,97.8550033569336 -404.3420104980469,101.24800109863281 -404.3420104980469,104.78199768066406 C-404.3420104980469,104.78199768066406 -404.3420104980469,113.64199829101562 -404.3420104980469,113.64199829101562 C-404.3420104980469,113.64199829101562 -371.67401123046875,113.64199829101562 -371.67401123046875,113.64199829101562 C-371.67401123046875,113.64199829101562 -371.67401123046875,104.36399841308594 -371.67401123046875,104.36399841308594 C-371.67401123046875,101.08000183105469 -372.87200927734375,97.90899658203125 -375.0429992675781,95.44499969482422 C-375.0429992675781,95.44499969482422 -380.38800048828125,89.37899780273438 -380.38800048828125,89.37899780273438 C-381.8070068359375,87.76899719238281 -381.8070068359375,85.3550033569336 -380.38800048828125,83.74500274658203 C-380.38800048828125,83.74500274658203 -375.0429992675781,77.68000030517578 -375.0429992675781,77.68000030517578 C-372.87200927734375,75.21600341796875 -371.67401123046875,72.04499816894531 -371.67401123046875,68.76100158691406z"></path><path stroke-linecap="butt" stroke-linejoin="miter" fill-opacity="0" stroke-miterlimit="10" stroke="rgb(0,0,0)" stroke-opacity="1" stroke-width="0" d=" M-371.67401123046875,68.76100158691406 C-371.67401123046875,68.76100158691406 -371.67401123046875,59.435001373291016 -371.67401123046875,59.435001373291016 C-371.67401123046875,59.435001373291016 -404.3420104980469,59.435001373291016 -404.3420104980469,59.435001373291016 C-404.3420104980469,59.435001373291016 -404.3420104980469,68.34300231933594 -404.3420104980469,68.34300231933594 C-404.3420104980469,71.87699890136719 -402.95599365234375,75.2699966430664 -400.4809875488281,77.79199981689453 C-400.4809875488281,77.79199981689453 -394.8030090332031,83.5780029296875 -394.8030090332031,83.5780029296875 C-393.177001953125,85.23500061035156 -393.177001953125,87.88999938964844 -394.8030090332031,89.5469970703125 C-394.8030090332031,89.5469970703125 -400.4809875488281,95.33300018310547 -400.4809875488281,95.33300018310547 C-402.95599365234375,97.8550033569336 -404.3420104980469,101.24800109863281 -404.3420104980469,104.78199768066406 C-404.3420104980469,104.78199768066406 -404.3420104980469,113.64199829101562 -404.3420104980469,113.64199829101562 C-404.3420104980469,113.64199829101562 -371.67401123046875,113.64199829101562 -371.67401123046875,113.64199829101562 C-371.67401123046875,113.64199829101562 -371.67401123046875,104.36399841308594 -371.67401123046875,104.36399841308594 C-371.67401123046875,101.08000183105469 -372.87200927734375,97.90899658203125 -375.0429992675781,95.44499969482422 C-375.0429992675781,95.44499969482422 -380.38800048828125,89.37899780273438 -380.38800048828125,89.37899780273438 C-381.8070068359375,87.76899719238281 -381.8070068359375,85.3550033569336 -380.38800048828125,83.74500274658203 C-380.38800048828125,83.74500274658203 -375.0429992675781,77.68000030517578 -375.0429992675781,77.68000030517578 C-372.87200927734375,75.21600341796875 -371.67401123046875,72.04499816894531 -371.67401123046875,68.76100158691406z"></path></g></g><g transform="matrix(-0.9999974370002747,-0.0008943527354858816,0.0008943527354858816,-0.9999974370002747,59.49995422363281,59.99955368041992)" opacity="1" style="display: block;"><g opacity="1" transform="matrix(1,0,0,1,0,0)"><path stroke-linecap="round" stroke-linejoin="round" fill-opacity="0" stroke-dasharray=" 0" stroke-dashoffset="0" stroke="rgb(26,162,129)" stroke-opacity="1" stroke-width="3" d=" M0.04100000113248825,18.64299964904785 C0.04100000113248825,18.875999450683594 0.04100000113248825,19 0.04100000113248825,19"></path></g></g><g clip-path="url(#__lottie_element_20)" transform="matrix(-0.9999974370002747,-0.0008943527354858816,-0.0008943527354858816,0.9999974370002747,-327.9300842285156,-26.356210708618164)" opacity="1" style="display: block;"><g opacity="1" transform="matrix(1,0,0,1,0,0)"><path fill="rgb(26,162,129)" fill-opacity="1" d=" M-392.10198974609375,78.79000091552734 C-392.10198974609375,78.79000091552734 -397.72698974609375,73.05699920654297 -397.72698974609375,73.05699920654297 C-399.4339904785156,71.31800079345703 -400.3739929199219,69.01699829101562 -400.3739929199219,66.58000183105469 C-400.3739929199219,66.58000183105469 -400.3739929199219,65.0199966430664 -400.3739929199219,65.0199966430664 C-400.3739929199219,64.58999633789062 -400.0249938964844,64.24099731445312 -399.5950012207031,64.24099731445312 C-399.5950012207031,64.24099731445312 -376.4219970703125,64.24099731445312 -376.4219970703125,64.24099731445312 C-375.99200439453125,64.24099731445312 -375.64300537109375,64.58999633789062 -375.64300537109375,65.0199966430664 C-375.64300537109375,65.0199966430664 -375.64300537109375,67.03900146484375 -375.64300537109375,67.03900146484375 C-375.64300537109375,69.29000091552734 -376.4630126953125,71.45999908447266 -377.9519958496094,73.1510009765625 C-377.9519958496094,73.1510009765625 -383.0950012207031,78.98799896240234 -383.0950012207031,78.98799896240234 C-383.0950012207031,78.98799896240234 -384.6310119628906,80.51100158691406 -384.6310119628906,80.51100158691406 C-387.7019958496094,83.99700164794922 -392.10198974609375,78.79000091552734 -392.10198974609375,78.79000091552734z"></path></g><g opacity="1" transform="matrix(1,0,0,1,0,0)"><path fill="rgb(26,162,129)" fill-opacity="1" d="M0 0"></path></g><g opacity="1" transform="matrix(1,0,0,1,0,0)"><path fill="rgb(26,162,129)" fill-opacity="1" d="M0 0"></path></g></g><g clip-path="url(#__lottie_element_23)" transform="matrix(-0.9999974370002747,-0.0008943527354858816,0.0008943527354858816,-0.9999974370002747,-328.0840759277344,145.82496643066406)" opacity="1" style="display: block;"><g opacity="1" transform="matrix(1,0,0,1,0,0)"><path fill="rgb(26,162,129)" fill-opacity="1" d=" M-390.3320007324219,80.45999908447266 C-390.3320007324219,80.45999908447266 -392.90301513671875,77.9729995727539 -392.90301513671875,77.9729995727539 C-392.90301513671875,77.9729995727539 -397.72698974609375,73.05699920654297 -397.72698974609375,73.05699920654297 C-399.4339904785156,71.31800079345703 -400.3739929199219,69.01699829101562 -400.3739929199219,66.58000183105469 C-400.3739929199219,66.58000183105469 -400.3739929199219,65.0199966430664 -400.3739929199219,65.0199966430664 C-400.3739929199219,64.58999633789062 -400.0249938964844,64.24099731445312 -399.5950012207031,64.24099731445312 C-399.5950012207031,64.24099731445312 -376.4219970703125,64.24099731445312 -376.4219970703125,64.24099731445312 C-375.99200439453125,64.24099731445312 -375.64300537109375,64.58999633789062 -375.64300537109375,65.0199966430664 C-375.64300537109375,65.0199966430664 -375.64300537109375,67.03900146484375 -375.64300537109375,67.03900146484375 C-375.64300537109375,69.29000091552734 -376.4630126953125,71.45999908447266 -377.9519958496094,73.1510009765625 C-377.9519958496094,73.1510009765625 -382.1619873046875,77.92900085449219 -382.1619873046875,77.92900085449219 C-382.1619873046875,77.92900085449219 -386.82501220703125,84.03099822998047 -390.3320007324219,80.45999908447266z"></path></g><g opacity="1" transform="matrix(1,0,0,1,0,0)"><path fill="rgb(26,162,129)" fill-opacity="1" d="M0 0"></path></g><g opacity="1" transform="matrix(1,0,0,1,0,0)"><path fill="rgb(26,162,129)" fill-opacity="1" d="M0 0"></path></g></g></g></svg>