<svg width="17" height="20" viewBox="0 0 17 20" fill="none" xmlns="http://www.w3.org/2000/svg">
<path d="M16.5852 10.2564C16.5852 13.7436 16.0757 19.0769 16.0757 19.2821C16.0757 19.4872 15.8718 19.7949 15.668 19.8974C15.5661 20 15.4642 20 15.2604 20C15.1585 20 15.0565 20 14.8527 19.8974L8.63616 16.6154C8.53425 16.6154 8.43234 16.6154 8.43234 16.6154L2.21578 19.8974C2.01196 20 1.70622 20 1.5024 19.8974C1.29858 19.7949 1.09476 19.5897 1.09476 19.2821C1.09476 19.0769 0.585205 13.7436 0.585205 10.2564C0.687116 8 0.890938 5.02564 1.09476 2.87179C1.19667 1.53846 2.21578 0.51282 3.54062 0.307692C4.96737 0.205128 7.00559 0 8.63616 0C10.2667 0 12.305 0.205128 13.7317 0.307692C15.0565 0.410256 16.0757 1.53846 16.1776 2.87179C16.3814 5.02564 16.5852 8 16.5852 10.2564Z" fill="#1AA483"/>
</svg>
