<svg width="19" height="20" viewBox="0 0 19 20" fill="none" xmlns="http://www.w3.org/2000/svg">
<path fill-rule="evenodd" clip-rule="evenodd" d="M8.98503 2.24351C4.96014 2.24351 1.69871 5.50235 1.69871 9.52061C1.69871 13.5389 4.96014 16.7977 8.98503 16.7977C10.993 16.7977 12.8101 15.9874 14.1286 14.6749C15.4531 13.3565 16.2714 11.5346 16.2714 9.52061C16.2714 5.50235 13.0099 2.24351 8.98503 2.24351ZM0.288452 9.52061C0.288452 4.72195 4.18281 0.833252 8.98503 0.833252C13.7873 0.833252 17.6816 4.72195 17.6816 9.52061C17.6816 11.6705 16.8991 13.6388 15.6044 15.1553L18.415 17.9626C18.6905 18.2378 18.6908 18.6842 18.4155 18.9598C18.1403 19.2353 17.6939 19.2356 17.4183 18.9603L14.6052 16.1504C13.0897 17.4334 11.1273 18.208 8.98503 18.208C4.18281 18.208 0.288452 14.3193 0.288452 9.52061Z" fill="white" stroke="white" stroke-width="0.5" stroke-linecap="round" stroke-linejoin="round"/>
</svg>
