<svg width="346" height="155" viewBox="0 0 346 155" fill="none" xmlns="http://www.w3.org/2000/svg">
<g filter="url(#filter0_d_1338_7466)">
<rect x="5" y="1" width="336" height="145" rx="15" fill="url(#paint0_radial_1338_7466)" shape-rendering="crispEdges"/>
<path d="M209.5 114.5C115.9 98.9 64.8333 125.333 51 140.5L46.5 146H341V73C336.167 93.3333 303.1 130.1 209.5 114.5Z" fill="white" fill-opacity="0.13"/>
<g clip-path="url(#clip0_1338_7466)">
<rect opacity="0.4" x="20" y="16" width="60" height="60" rx="15" fill="white"/>
<g clip-path="url(#clip1_1338_7466)">
<rect x="23.6886" y="19.6885" width="52.6228" height="52.6228" fill="#0EAD73"/>
<path d="M40.6882 40.479L37.9723 35.0471L40.9557 27.5388L45.9729 31.8166L47.2994 28.8893L49.3014 32.6419L49.2642 30.6771L50.6888 30.1185L54.1805 36.8871L56.9841 37.8508L58.9116 37.5003L59.2621 35.5729L57.4222 30.9294L63.4675 30.2284L77.135 35.5728L79.5006 52.7448L76.1713 66.7628L70.126 72.8081L58.0355 72.4576L37.8846 56.6874L37.9722 53.4457H40.6882L29.3862 38.8144L33.0659 42.8446L40.6882 40.479Z" fill="#198A62"/>
<path d="M40.6759 31.9041C42.9543 44.7301 30.3587 42.8357 28.7971 37.2547C29.7951 41.8521 32.1763 44.7372 37.2454 44.2949C39.9522 44.0524 41.7424 42.4945 42.5191 39.482L45.7449 41.146V44.7301L47.2809 44.0645V28.8576L45.7705 29.472V37.357L42.9032 36.4866C43.1016 31.8657 41.8343 27.9295 40.8551 27.4495L36.8358 32.3393L37.7318 35.5138L40.6759 31.9041Z" fill="white"/>
<path d="M50.7881 45.2166L49.2264 45.9648V30.5985L50.7881 29.9417V45.2166Z" fill="white"/>
<path d="M49.2747 56.4124L47.713 57.0793V48.6924L49.2747 48.1096V56.4124Z" fill="white"/>
<path d="M52.7564 56.4124L51.1947 57.0793V48.6924L52.7564 48.1096V56.4124Z" fill="white"/>
<path d="M56.318 28.0127L57.2395 31.2897C59.437 31.245 61.0739 31.4842 61.9501 32.1089V37.1779C61.1885 35.1106 58.5964 34.861 57.9308 37.1779C56.1023 33.7884 50.7882 35.2869 52.4358 41.5199L53.9732 41.1573C53.3764 38.8907 56.254 35.9554 58.5708 39.6612C59.1533 36.3011 61.9501 38.4516 61.9501 40.4293L61.9502 43.1941L63.4606 42.6565V30.2145C62.8462 28.704 58.5452 27.8592 56.318 28.0127Z" fill="white"/>
<path d="M40.6247 49.9141C41.6039 48.9589 42.3469 48.1716 43.0823 47.9556C44.0243 47.679 44.0864 49.1658 43.8503 50.1573C43.5943 51.2325 41.5207 53.2038 40.2791 53.2935L37.8597 53.2934L37.8598 56.8263C40.5991 56.4807 46.2282 60.8327 47.4857 61.6521C51.8284 64.5943 59.3389 65.5433 60.9773 60.5512C59.6285 62.5606 55.7855 62.8295 52.0938 61.4472C48.9185 60.2583 45.9881 57.7618 43.3127 55.0982C44.4242 53.897 45.4078 52.5273 45.8728 51.3349C46.5121 49.6959 46.376 48.255 46.1032 46.8036C45.8316 45.3581 44.5732 44.0465 43.4841 43.9501C41.9806 43.8634 40.6864 45.9347 40.0103 47.7253L40.6247 49.9141Z" fill="white"/>
<path d="M51.3002 47.0342C55.2427 45.0373 56.4076 46.5478 58.1996 46.8805C59.7163 47.0081 60.6841 46.6961 61.1886 46.013C61.4423 45.6696 61.346 45.1579 61.003 44.9036C57.9943 42.6726 53.186 42.5131 51.3002 47.0342Z" fill="white"/>
<path d="M54.1164 49.0567L55.7036 48.4167L55.7036 50.8745C55.7036 51.9307 55.9172 51.9307 56.4204 51.7193L59.5437 50.2088C59.0485 53.1424 58.7708 57.2832 63.0545 58.043L59.7454 58.451C58.1389 58.451 57.5147 54.912 57.7055 52.762C56.5042 53.6459 55.8341 54.9582 55.0083 55.1872C54.6281 55.2926 54.3366 55.2098 54.2104 54.836C53.7812 53.5646 54.0531 51.1048 54.1164 49.0567Z" fill="white"/>
<path d="M70.6392 41.0591H69.0386V36.8196L67.477 37.4255V52.5943C66.9911 51.9691 66.0222 51.8655 65.4683 52.3932C65.3548 51.5289 64.8329 50.9138 64.1079 50.6042C63.6796 50.4213 63.5328 49.8826 63.8022 49.5026C64.2318 48.8967 64.8231 48.3056 65.525 47.1942L63.6654 47.3159C61.3586 49.5526 60.7441 51.0212 61.1393 51.5834C61.3708 51.8184 62.2965 52.0677 62.8732 52.1953C63.4296 52.3184 63.8887 52.9241 63.2358 53.9179C62.8013 54.6154 62.3835 55.2005 61.5953 56.035C61.4503 56.1885 61.4543 56.4299 61.6046 56.5783L62.4313 57.3949C64.4872 54.5021 65.8056 52.9093 67.477 54.7914V57.5689L69.0387 56.8027V42.7216H69.8151L70.6392 41.0591Z" fill="white"/>
</g>
</g>
<path d="M103 27.592V37.032C102.851 36.8613 102.701 36.696 102.552 36.536C102.413 36.3653 102.275 36.1947 102.136 36.024C102.147 35.704 102.157 35.4373 102.168 35.224C102.179 35 102.184 34.8187 102.184 34.68C102.195 34.5307 102.2 34.408 102.2 34.312C102.2 34.216 102.2 34.1253 102.2 34.04C102.2 33.3253 102.131 32.7013 101.992 32.168C101.853 31.6347 101.667 31.24 101.432 30.984C101.208 30.728 100.941 30.632 100.632 30.696C100.323 30.7493 100.003 31.0107 99.672 31.48C99.3733 31.9813 99.112 32.3813 98.888 32.68C98.6747 32.968 98.488 33.1867 98.328 33.336C98.168 33.4853 98.0293 33.5813 97.912 33.624C97.8053 33.656 97.704 33.672 97.608 33.672C97.3307 33.672 97.08 33.608 96.856 33.48C96.6427 33.3413 96.4507 33.176 96.28 32.984C96.1093 32.7813 95.96 32.568 95.832 32.344C95.704 32.1093 95.5867 31.8907 95.48 31.688L96.072 31.144C96.104 31.2507 96.1413 31.3733 96.184 31.512C96.2373 31.6507 96.3013 31.784 96.376 31.912C96.4507 32.0293 96.536 32.1307 96.632 32.216C96.7387 32.3013 96.856 32.344 96.984 32.344C97.0373 32.344 97.1013 32.3227 97.176 32.28C97.2507 32.2373 97.3467 32.152 97.464 32.024C97.592 31.8853 97.752 31.6987 97.944 31.464C98.1467 31.2187 98.3973 30.8987 98.696 30.504C98.6427 30.0773 98.568 29.7467 98.472 29.512C98.3867 29.2667 98.2587 29.08 98.088 28.952C97.928 28.8133 97.72 28.712 97.464 28.648C97.2187 28.5733 96.9093 28.4933 96.536 28.408C96.3227 28.3547 96.104 28.2747 95.88 28.168C95.6667 28.0507 95.4427 27.9013 95.208 27.72C95.1227 27.656 94.9893 27.5387 94.808 27.368C94.6267 27.1973 94.3973 26.9733 94.12 26.696H103.784L104.648 27.592H103ZM102.136 27.592H97.912C98.392 28.0187 98.7227 28.4133 98.904 28.776C99.096 29.1387 99.1973 29.5493 99.208 30.008C99.5067 29.6773 99.7787 29.464 100.024 29.368C100.28 29.2613 100.52 29.2507 100.744 29.336C100.968 29.4213 101.192 29.5813 101.416 29.816C101.64 30.0507 101.88 30.3333 102.136 30.664V27.592ZM118.869 27.592V36.936L117.909 36.008L118.021 31.224C118.021 30.9573 117.898 30.6267 117.653 30.232C117.546 30.0507 117.434 29.896 117.317 29.768C117.2 29.64 117.082 29.5333 116.965 29.448L113.829 32.616L112.549 32.152C113.168 31.5653 113.477 31.1013 113.477 30.76C113.477 30.1413 113.29 29.832 112.917 29.832C112.789 29.832 112.576 29.8907 112.277 30.008C112.01 30.1253 111.792 30.184 111.621 30.184C111.536 30.4613 111.424 30.712 111.285 30.936V30.92C110.933 31.5067 110.48 31.8 109.925 31.8C109.498 31.8 109.04 31.6293 108.549 31.288C108.325 31.1493 107.941 30.8027 107.397 30.248V30.424C107.418 30.7547 107.306 31.016 107.061 31.208C106.816 31.4 106.517 31.496 106.165 31.496C105.909 31.496 105.685 31.3947 105.493 31.192C105.312 30.9893 105.221 30.76 105.221 30.504C105.221 30.1733 105.312 29.9067 105.493 29.704C105.6 29.6187 105.776 29.5333 106.021 29.448C106.298 29.3307 106.469 29.2347 106.533 29.16C106.426 28.3173 106.304 27.8373 106.165 27.72C106.133 27.7093 106.064 27.6987 105.957 27.688C105.861 27.6667 105.733 27.6507 105.573 27.64C105.424 27.6293 105.253 27.6187 105.061 27.608C104.88 27.5973 104.693 27.592 104.501 27.592L103.589 26.696H110.149C110.245 26.696 110.346 26.728 110.453 26.792C110.56 26.8453 110.666 26.92 110.773 27.016C110.88 27.1013 110.976 27.2027 111.061 27.32C111.157 27.4267 111.237 27.528 111.301 27.624C111.418 27.8053 111.509 27.9813 111.573 28.152C111.68 28.056 111.786 27.9653 111.893 27.88C112 27.7947 112.117 27.704 112.245 27.608C112.629 27.3627 113.013 27.176 113.397 27.048C113.792 26.92 114.16 26.856 114.501 26.856C115.802 26.856 117.024 27.8213 118.165 29.752L118.197 29.736C118.165 28.9573 118.122 28.1733 118.069 27.384C118.026 26.5947 117.989 25.8053 117.957 25.016C118.021 25.08 118.09 25.1387 118.165 25.192C118.24 25.2453 118.304 25.2987 118.357 25.352C118.389 25.5867 118.416 25.784 118.437 25.944C118.469 26.0933 118.496 26.2053 118.517 26.28C118.624 26.5787 118.853 26.728 119.205 26.728C119.248 26.728 119.285 26.728 119.317 26.728C119.36 26.7173 119.408 26.7067 119.461 26.696L120.389 27.592H118.869ZM110.853 29.112C110.853 28.0987 110.618 27.592 110.149 27.592H106.917L107.525 28.904C107.664 29.1493 107.797 29.368 107.925 29.56C108.053 29.752 108.181 29.9013 108.309 30.008C108.704 30.3067 109.184 30.456 109.749 30.456C110.197 30.456 110.501 30.328 110.661 30.072C110.789 29.9013 110.853 29.5813 110.853 29.112ZM116.213 28.504C115.797 28.0453 115.328 27.816 114.805 27.816C113.813 27.816 113.114 28.2213 112.709 29.032C113.168 29.032 113.509 29.192 113.733 29.512C113.968 29.832 114.053 30.232 113.989 30.712L116.213 28.504ZM121.888 41.64L119.328 39.464C118.752 39.848 118.16 40.0347 117.552 40.024C117.104 40.024 116.715 39.8587 116.384 39.528C116.043 39.1973 115.872 38.8133 115.872 38.376C115.872 38.1307 115.92 37.9067 116.016 37.704C116.101 37.512 116.24 37.3413 116.432 37.192C116.773 36.9147 117.189 36.776 117.68 36.776C117.872 36.776 118.053 36.7973 118.224 36.84L118.272 35.752C118.389 35.8693 118.501 36.0027 118.608 36.152C118.704 36.2907 118.789 36.4187 118.864 36.536C118.885 36.6533 118.853 37.016 118.768 37.624C118.587 37.56 118.416 37.528 118.256 37.528C118.043 37.528 117.883 37.528 117.776 37.528C117.659 37.5387 117.515 37.576 117.344 37.64C116.971 37.8533 116.8 38.1307 116.832 38.472C116.843 38.5893 116.901 38.7013 117.008 38.808C117.115 38.9147 117.296 38.9733 117.552 38.984C117.744 39.016 117.989 38.9947 118.288 38.92C118.576 38.856 118.891 38.6853 119.232 38.408L121.904 40.712L121.888 41.64ZM127.05 27.592V36.936L126.058 35.928V30.84C126.058 30.0933 125.84 29.4373 125.402 28.872C124.922 28.2533 124.325 27.944 123.61 27.944C123.13 27.944 122.72 28.1307 122.378 28.504C122.048 28.8453 121.882 29.272 121.882 29.784C121.882 29.9547 121.898 30.1253 121.93 30.296C121.973 30.456 122.021 30.6 122.074 30.728C122.234 31.1227 122.474 31.32 122.794 31.32C122.848 31.32 122.88 31.3147 122.89 31.304C122.912 31.2933 122.906 31.2613 122.874 31.208V31.224C122.853 31.1493 122.832 31.0747 122.81 31C122.8 30.9253 122.794 30.84 122.794 30.744C122.826 30.2747 123.114 30.0293 123.658 30.008C123.946 30.008 124.192 30.12 124.394 30.344C124.608 30.568 124.714 30.8187 124.714 31.096C124.714 31.288 124.666 31.464 124.57 31.624C124.485 31.784 124.368 31.9227 124.218 32.04C124.08 32.1467 123.914 32.232 123.722 32.296C123.53 32.3493 123.338 32.376 123.146 32.376C122.442 32.376 121.85 32.12 121.37 31.608C120.89 31.0853 120.65 30.4773 120.65 29.784C120.65 29.3467 120.72 28.9467 120.858 28.584C121.008 28.2107 121.205 27.8747 121.45 27.576C121.994 26.968 122.693 26.664 123.546 26.664C124.176 26.664 124.741 26.92 125.242 27.432C125.669 27.88 125.973 28.44 126.154 29.112H126.186V24.952L126.666 25.368C126.666 25.8373 126.752 26.1787 126.922 26.392C127.104 26.6053 127.376 26.7067 127.738 26.696L128.634 27.592H127.05ZM126.263 25.912H124.119L129.351 22.12H130.135L126.263 25.912ZM142.219 27.592V37.032C142.069 36.8613 141.92 36.696 141.771 36.536C141.632 36.3653 141.493 36.1947 141.355 36.024C141.365 35.704 141.376 35.4373 141.387 35.224C141.397 35 141.403 34.8187 141.403 34.68C141.413 34.5307 141.419 34.408 141.419 34.312C141.419 34.216 141.419 34.1253 141.419 34.04C141.419 33.3253 141.349 32.7013 141.211 32.168C141.072 31.6347 140.885 31.24 140.651 30.984C140.427 30.728 140.16 30.632 139.851 30.696C139.541 30.7493 139.221 31.0107 138.891 31.48C138.592 31.9813 138.331 32.3813 138.107 32.68C137.893 32.968 137.707 33.1867 137.547 33.336C137.387 33.4853 137.248 33.5813 137.131 33.624C137.024 33.656 136.923 33.672 136.827 33.672C136.549 33.672 136.299 33.608 136.075 33.48C135.861 33.3413 135.669 33.176 135.499 32.984C135.328 32.7813 135.179 32.568 135.051 32.344C134.923 32.1093 134.805 31.8907 134.699 31.688L135.291 31.144C135.323 31.2507 135.36 31.3733 135.403 31.512C135.456 31.6507 135.52 31.784 135.595 31.912C135.669 32.0293 135.755 32.1307 135.851 32.216C135.957 32.3013 136.075 32.344 136.203 32.344C136.256 32.344 136.32 32.3227 136.395 32.28C136.469 32.2373 136.565 32.152 136.683 32.024C136.811 31.8853 136.971 31.6987 137.163 31.464C137.365 31.2187 137.616 30.8987 137.915 30.504C137.861 30.0773 137.787 29.7467 137.691 29.512C137.605 29.2667 137.477 29.08 137.307 28.952C137.147 28.8133 136.939 28.712 136.683 28.648C136.437 28.5733 136.128 28.4933 135.755 28.408C135.541 28.3547 135.323 28.2747 135.099 28.168C134.885 28.0507 134.661 27.9013 134.427 27.72C134.341 27.656 134.208 27.5387 134.027 27.368C133.845 27.1973 133.616 26.9733 133.339 26.696H143.003L143.867 27.592H142.219ZM141.355 27.592H137.131C137.611 28.0187 137.941 28.4133 138.123 28.776C138.315 29.1387 138.416 29.5493 138.427 30.008C138.725 29.6773 138.997 29.464 139.243 29.368C139.499 29.2613 139.739 29.2507 139.963 29.336C140.187 29.4213 140.411 29.5813 140.635 29.816C140.859 30.0507 141.099 30.3333 141.355 30.664V27.592ZM145.624 27.592V36.952L144.76 36.056V29.416C144.76 29.1387 144.707 28.888 144.6 28.664C144.493 28.44 144.344 28.2533 144.152 28.104C143.971 27.944 143.763 27.8213 143.528 27.736C143.283 27.64 143.032 27.592 142.776 27.592L141.88 26.696H142.904C143.448 26.696 143.869 26.8187 144.168 27.064C144.467 27.2987 144.707 27.6933 144.888 28.248C144.888 28.0667 144.883 27.8427 144.872 27.576C144.861 27.3093 144.84 26.9947 144.808 26.632C144.787 26.28 144.771 25.976 144.76 25.72C144.749 25.4533 144.744 25.2293 144.744 25.048L145.064 25.32C145.171 25.96 145.357 26.4187 145.624 26.696H146.424L147.304 27.592H145.624ZM154.68 27.592H149.16C149.096 28.4773 149.854 29.16 151.432 29.64C152.979 30.1307 153.731 30.7387 153.688 31.464C153.688 32.3493 153.272 33.3253 152.44 34.392C151.576 35.5227 150.702 36.088 149.816 36.088C149.496 36.088 149.16 35.896 148.808 35.512C148.478 35.1067 148.312 34.728 148.312 34.376V27.592H146.936L146.056 26.696H153.768L154.68 27.592ZM152.248 31.4C150.83 30.952 149.811 30.1947 149.192 29.128V34.36C149.192 34.712 149.326 34.888 149.592 34.888C150.094 34.888 150.67 34.4987 151.32 33.72C151.982 32.9413 152.312 32.3013 152.312 31.8C152.312 31.5547 152.291 31.4213 152.248 31.4ZM152.341 25.912H150.197L155.429 22.12H156.213L152.341 25.912ZM165.577 27.592C164.905 27.752 164.324 28.0027 163.833 28.344C163.342 28.6853 162.926 29.112 162.585 29.624C162.276 30.104 162.041 30.6373 161.881 31.224C161.721 31.8107 161.641 32.4667 161.641 33.192C161.641 33.8213 161.806 34.3973 162.137 34.92C162.532 35.6133 163.012 35.96 163.577 35.96H163.641C163.726 35.96 163.785 35.9333 163.817 35.88C163.625 35.752 163.481 35.6027 163.385 35.432C163.3 35.2613 163.257 35.0853 163.257 34.904C163.257 34.7653 163.289 34.6373 163.353 34.52C163.417 34.4027 163.497 34.3013 163.593 34.216C163.7 34.12 163.817 34.0453 163.945 33.992C164.084 33.9387 164.222 33.912 164.361 33.912C164.66 33.912 164.916 34.0347 165.129 34.28C165.342 34.5147 165.449 34.8187 165.449 35.192C165.449 35.4053 165.406 35.6027 165.321 35.784C165.236 35.9653 165.118 36.1253 164.969 36.264C164.82 36.392 164.644 36.4933 164.441 36.568C164.249 36.6427 164.041 36.68 163.817 36.68C162.782 36.68 161.988 36.1573 161.433 35.112C160.964 34.2587 160.729 33.272 160.729 32.152C160.761 31.2453 160.937 30.4187 161.257 29.672C161.577 28.9147 162.025 28.232 162.601 27.624C162.889 27.4 163.209 27.1973 163.561 27.016C163.924 26.8347 164.302 26.728 164.697 26.696L165.577 27.592ZM172.05 27.592V37L171.554 36.408V36.424C171.383 35.9973 171.239 35.688 171.122 35.496C171.015 35.2933 170.839 35.0427 170.594 34.744C170.349 34.4347 170.119 34.1787 169.906 33.976C169.138 33.272 168.119 32.856 166.85 32.728H166.866L165.682 31.064C167.474 29.816 169.309 28.8773 171.186 28.248V27.592H165.058L164.178 26.696H172.994L173.89 27.592H172.05ZM171.186 29.704C170.61 29.9173 170.023 30.1733 169.426 30.472C168.839 30.7707 168.221 31.1387 167.57 31.576C169.181 32.248 170.386 33.272 171.186 34.648V29.704ZM167.394 35.272C167.394 35.0053 167.485 34.7867 167.666 34.616C167.847 34.4347 168.066 34.344 168.322 34.344C168.578 34.344 168.797 34.4347 168.978 34.616C169.159 34.7867 169.25 35.0053 169.25 35.272C169.25 35.5173 169.159 35.736 168.978 35.928C168.797 36.1093 168.578 36.2 168.322 36.2C168.066 36.2 167.847 36.1093 167.666 35.928C167.485 35.736 167.394 35.5173 167.394 35.272ZM184.731 27.592H179.611C179.462 27.6027 179.307 27.672 179.147 27.8C178.998 27.9173 178.913 28.04 178.891 28.168C178.891 28.3173 178.95 28.4453 179.067 28.552C179.195 28.6587 179.345 28.7547 179.515 28.84C179.686 28.9147 179.857 28.9733 180.027 29.016C180.209 29.0587 180.347 29.08 180.443 29.08C180.934 29.1227 181.371 29.1067 181.755 29.032C182.139 28.9467 182.459 28.8347 182.715 28.696L184.075 30.12C183.585 30.6 183.211 31.192 182.955 31.896C182.699 32.6 182.571 33.4107 182.571 34.328C182.571 35.0213 182.801 35.8747 183.259 36.888L182.379 36.648C182.166 36.04 181.995 35.4373 181.867 34.84C181.739 34.2427 181.67 33.608 181.659 32.936C181.659 32.0613 181.851 31.1493 182.235 30.2C181.286 30.2 180.518 30.0827 179.931 29.848C179.313 29.6027 178.726 29.1227 178.171 28.408L178.091 28.376C177.942 28.376 177.787 28.4507 177.627 28.6C177.467 28.7493 177.302 28.9627 177.131 29.24C176.779 29.8053 176.603 30.2427 176.603 30.552C176.603 30.9893 176.838 31.208 177.307 31.208C177.414 31.208 177.553 31.1813 177.723 31.128C177.894 31.0747 178.086 30.9947 178.299 30.888L179.291 30.376C179.675 30.5467 180.017 30.8933 180.315 31.416C180.465 31.6933 180.582 31.96 180.667 32.216C180.753 32.472 180.795 32.7067 180.795 32.92C180.795 33.5813 180.545 34.1733 180.043 34.696C179.553 35.1867 178.966 35.432 178.283 35.432C176.737 35.432 175.622 34.5947 174.939 32.92C174.694 32.312 174.507 31.64 174.379 30.904C174.262 30.1573 174.203 29.32 174.203 28.392L174.667 28.68C174.635 28.936 174.635 29.2507 174.667 29.624C174.774 30.68 175.051 31.56 175.499 32.264C175.819 32.7973 176.182 33.208 176.587 33.496C177.003 33.784 177.462 33.928 177.963 33.928C178.422 33.928 178.87 33.8267 179.307 33.624C179.883 33.368 180.171 33.0373 180.171 32.632C180.171 32.472 180.123 32.3067 180.027 32.136C179.942 31.9547 179.814 31.864 179.643 31.864C179.579 31.864 179.339 31.9387 178.923 32.088C178.55 32.2373 178.23 32.312 177.963 32.312C177.366 32.312 176.87 32.072 176.475 31.592C176.07 31.1227 175.867 30.5787 175.867 29.96C175.867 29.5973 176.006 29.176 176.283 28.696C176.582 28.2053 176.897 27.8373 177.227 27.592H173.291L172.395 26.696H183.851L184.731 27.592ZM186.452 27.592V36.952L185.588 36.056V29.416C185.588 29.1387 185.535 28.888 185.428 28.664C185.321 28.44 185.172 28.2533 184.98 28.104C184.799 27.944 184.591 27.8213 184.356 27.736C184.111 27.64 183.86 27.592 183.604 27.592L182.708 26.696H183.732C184.276 26.696 184.697 26.8187 184.996 27.064C185.295 27.2987 185.535 27.6933 185.716 28.248C185.716 28.0667 185.711 27.8427 185.7 27.576C185.689 27.3093 185.668 26.9947 185.636 26.632C185.615 26.28 185.599 25.976 185.588 25.72C185.577 25.4533 185.572 25.2293 185.572 25.048L185.892 25.32C185.999 25.96 186.185 26.4187 186.452 26.696H187.252L188.132 27.592H186.452ZM200.629 27.592H195.061V33.832C195.061 34.248 195.242 34.456 195.605 34.456C196.117 34.456 196.661 34.1147 197.237 33.432C197.781 32.792 198.079 32.1947 198.133 31.64L197.829 31.672C197.541 31.6507 197.274 31.544 197.029 31.352C196.783 31.16 196.661 30.9147 196.661 30.616C196.661 30.2747 196.767 29.9867 196.981 29.752C197.194 29.5173 197.471 29.4 197.812 29.4C198.058 29.4 198.282 29.4533 198.485 29.56C198.687 29.6667 198.858 29.8107 198.997 29.992C199.146 30.1627 199.258 30.3653 199.333 30.6C199.418 30.824 199.461 31.0587 199.461 31.304C199.461 32.2533 199.093 33.192 198.357 34.12C197.599 35.0907 196.767 35.576 195.861 35.576C194.741 35.6293 194.17 34.5733 194.149 32.408C194.149 32.3013 194.149 32.1627 194.149 31.992C194.149 31.8107 194.154 31.64 194.165 31.48L194.213 30.696C194.17 30.5573 194.111 30.4293 194.037 30.312C193.962 30.1947 193.877 30.0773 193.781 29.96C193.674 29.8427 193.557 29.7467 193.429 29.672C193.311 29.5867 193.205 29.544 193.109 29.544C192.938 29.544 192.789 29.6133 192.661 29.752L192.629 29.928C192.65 30.0453 192.671 30.1573 192.693 30.264C192.725 30.3707 192.751 30.4827 192.773 30.6C192.687 30.6427 192.591 30.696 192.485 30.76C192.378 30.824 192.282 30.8773 192.197 30.92L192.133 30.904C192.047 30.488 191.855 30.152 191.557 29.896C191.269 29.6293 190.911 29.496 190.485 29.496C189.482 29.496 188.981 29.9653 188.981 30.904C188.981 31.288 189.274 31.624 189.861 31.912C189.711 31.6453 189.637 31.416 189.637 31.224C189.637 30.712 189.951 30.456 190.581 30.456C191.157 30.456 191.445 30.728 191.445 31.272C191.445 31.4427 191.407 31.6027 191.333 31.752C191.258 31.8907 191.157 32.0133 191.029 32.12C190.901 32.2267 190.757 32.312 190.597 32.376C190.437 32.44 190.271 32.472 190.101 32.472C189.631 32.472 189.178 32.296 188.741 31.944C188.335 31.5707 188.133 31.1547 188.133 30.696C188.133 30.3653 188.186 30.0613 188.293 29.784C188.399 29.496 188.549 29.2507 188.741 29.048C188.943 28.8347 189.183 28.6747 189.461 28.568C189.738 28.4507 190.042 28.392 190.373 28.392C190.522 28.392 190.661 28.424 190.789 28.488C190.927 28.552 191.061 28.632 191.189 28.728C191.295 28.8347 191.402 28.952 191.509 29.08C191.626 29.1973 191.743 29.3307 191.861 29.48V29.32C191.861 29.0853 191.951 28.8933 192.133 28.744C192.325 28.584 192.554 28.504 192.821 28.504C193.109 28.504 193.397 28.6693 193.685 29C193.951 29.3093 194.117 29.6027 194.181 29.88H194.213V27.592H187.764L186.868 26.696H197.749L197.861 26.168C197.861 26.1573 197.855 26.136 197.845 26.104C197.834 26.072 197.829 26.0507 197.829 26.04C197.818 25.7947 197.621 25.5973 197.237 25.448C196.853 25.288 196.277 25.208 195.509 25.208L193.621 25.256C192.65 25.288 191.871 25.1387 191.285 24.808H191.301C190.714 24.4133 190.421 23.9173 190.421 23.32C190.421 23.0747 190.469 22.84 190.565 22.616C190.671 22.3707 190.837 22.248 191.061 22.248L191.109 22.552C191.045 22.616 190.991 22.7013 190.949 22.808C190.906 22.904 190.885 23.0053 190.885 23.112C190.885 23.4107 191.05 23.6667 191.381 23.88C191.658 24.0293 191.973 24.104 192.325 24.104C192.527 24.104 192.767 24.0987 193.045 24.088C193.333 24.0773 193.669 24.0613 194.053 24.04C194.426 24.0187 194.751 24.0027 195.029 23.992C195.317 23.9813 195.562 23.976 195.765 23.976C196.426 23.976 197.039 24.1467 197.605 24.488C198.255 24.872 198.581 25.384 198.581 26.024C198.581 26.28 198.543 26.504 198.469 26.696H199.717L200.629 27.592ZM211.702 27.592C211.03 27.752 210.449 28.0027 209.958 28.344C209.467 28.6853 209.051 29.112 208.71 29.624C208.401 30.104 208.166 30.6373 208.006 31.224C207.846 31.8107 207.766 32.4667 207.766 33.192C207.766 33.8213 207.931 34.3973 208.262 34.92C208.657 35.6133 209.137 35.96 209.702 35.96H209.766C209.851 35.96 209.91 35.9333 209.942 35.88C209.75 35.752 209.606 35.6027 209.51 35.432C209.425 35.2613 209.382 35.0853 209.382 34.904C209.382 34.7653 209.414 34.6373 209.478 34.52C209.542 34.4027 209.622 34.3013 209.718 34.216C209.825 34.12 209.942 34.0453 210.07 33.992C210.209 33.9387 210.347 33.912 210.486 33.912C210.785 33.912 211.041 34.0347 211.254 34.28C211.467 34.5147 211.574 34.8187 211.574 35.192C211.574 35.4053 211.531 35.6027 211.446 35.784C211.361 35.9653 211.243 36.1253 211.094 36.264C210.945 36.392 210.769 36.4933 210.566 36.568C210.374 36.6427 210.166 36.68 209.942 36.68C208.907 36.68 208.113 36.1573 207.558 35.112C207.089 34.2587 206.854 33.272 206.854 32.152C206.886 31.2453 207.062 30.4187 207.382 29.672C207.702 28.9147 208.15 28.232 208.726 27.624C209.014 27.4 209.334 27.1973 209.686 27.016C210.049 26.8347 210.427 26.728 210.822 26.696L211.702 27.592ZM213.311 27.592V31.768C213.631 31.416 213.972 31.0907 214.335 30.792C214.708 30.4827 215.087 30.2053 215.471 29.96C215.855 29.704 216.228 29.4853 216.591 29.304C216.954 29.112 217.284 28.9573 217.583 28.84L219.055 29.96C218.65 30.7493 218.34 31.5067 218.127 32.232C217.914 32.9573 217.807 33.656 217.807 34.328C217.807 35 217.924 35.9173 218.159 37.08L217.535 36.776C217.354 35.9333 217.215 35.1867 217.119 34.536C217.034 33.8853 216.991 33.352 216.991 32.936C216.991 32.1573 217.092 31.368 217.295 30.568C216.495 30.888 215.764 31.3627 215.103 31.992C214.452 32.6107 213.935 33.3307 213.551 34.152L212.335 32.888V27.592H211.391L210.479 26.696H219.311L220.207 27.592H213.311ZM228.915 27.592H227.523V36.904C227.405 36.7973 227.299 36.6747 227.203 36.536C227.107 36.3867 227.032 36.2427 226.979 36.104C226.893 35.8907 226.813 35.6987 226.739 35.528C226.675 35.3573 226.627 35.2453 226.595 35.192C226.381 34.8187 226.125 34.488 225.827 34.2C225.528 33.912 225.181 33.6507 224.787 33.416H224.803C224.088 32.9893 223.299 32.7333 222.435 32.648L220.915 30.792C221.032 30.8133 221.149 30.8347 221.267 30.856C221.395 30.8667 221.523 30.872 221.651 30.872C221.949 30.872 222.264 30.8347 222.595 30.76C222.936 30.6747 223.277 30.5573 223.619 30.408C224.035 30.2267 224.355 30.0293 224.579 29.816C224.813 29.592 224.931 29.3573 224.931 29.112C224.931 28.728 224.776 28.4027 224.467 28.136C223.485 29.1173 222.504 29.608 221.523 29.608C221.16 29.608 220.845 29.4907 220.579 29.256C220.312 29.0213 220.179 28.728 220.179 28.376C220.179 28.12 220.269 27.8907 220.451 27.688C220.643 27.4853 220.872 27.384 221.139 27.384C221.683 27.384 221.971 27.6613 222.003 28.216C222.184 28.184 222.365 28.12 222.547 28.024C222.739 27.9173 222.931 27.7893 223.123 27.64C223.144 27.6293 223.24 27.5387 223.411 27.368C223.592 27.1867 223.784 27 223.987 26.808C224.328 27.096 224.605 27.336 224.819 27.528C225.032 27.72 225.165 27.8427 225.219 27.896C225.645 28.3547 225.859 28.8293 225.859 29.32C225.859 29.8427 225.651 30.344 225.235 30.824C224.819 31.2827 224.339 31.5867 223.795 31.736C225.096 32.3867 226.04 33.2293 226.627 34.264H226.659V25.032L227.155 25.352C227.155 25.5333 227.165 25.7147 227.187 25.896C227.208 26.0773 227.229 26.2 227.251 26.264C227.368 26.52 227.619 26.664 228.003 26.696L228.915 27.592ZM234.351 27.592C233.679 27.752 233.098 28.0027 232.607 28.344C232.116 28.6853 231.7 29.112 231.359 29.624C231.05 30.104 230.815 30.6373 230.655 31.224C230.495 31.8107 230.415 32.4667 230.415 33.192C230.426 33.832 230.596 34.408 230.927 34.92C231.503 35.72 232.063 36.04 232.607 35.88C232.404 35.752 232.255 35.6027 232.159 35.432C232.074 35.2613 232.031 35.0853 232.031 34.904C232.031 34.6267 232.143 34.392 232.367 34.2C232.602 34.008 232.858 33.912 233.135 33.912C233.434 33.912 233.69 34.0347 233.903 34.28C234.116 34.5147 234.223 34.8187 234.223 35.192C234.223 35.4053 234.18 35.6027 234.095 35.784C234.01 35.9653 233.892 36.1253 233.743 36.264C233.594 36.392 233.418 36.4933 233.215 36.568C233.023 36.6427 232.82 36.68 232.607 36.68C231.562 36.68 230.762 36.1573 230.207 35.112C229.738 34.2587 229.503 33.272 229.503 32.152C229.503 30.5947 230.138 29.0747 231.407 27.592H228.431L227.535 26.696H233.471L234.351 27.592ZM244.53 27.592H233.858L232.914 26.696H243.586L244.53 27.592ZM243.41 32.312C243.41 32.7493 243.314 33.16 243.122 33.544C242.941 33.928 242.69 34.2747 242.37 34.584C241.666 35.192 240.871 35.496 239.986 35.496C237.586 35.496 235.714 33.0587 234.37 28.184L234.882 28.376C235.255 29.2613 235.597 30.024 235.906 30.664C236.226 31.2933 236.487 31.752 236.69 32.04C237.618 33.3947 238.733 34.072 240.034 34.072C240.663 34.072 241.282 33.8267 241.89 33.336C242.402 32.8347 242.658 32.2747 242.658 31.656C242.658 31.1547 242.519 30.712 242.242 30.328C241.911 29.8693 241.522 29.64 241.074 29.64C240.925 29.64 240.706 29.6773 240.418 29.752C240.663 30.0613 240.786 30.4133 240.786 30.808C240.786 31.672 240.311 32.104 239.362 32.104C238.893 32.104 238.519 31.9333 238.242 31.592C237.965 31.2507 237.826 30.8347 237.826 30.344C237.826 29.7787 238.055 29.3147 238.514 28.952C238.919 28.6213 239.41 28.456 239.986 28.456C240.477 28.456 240.93 28.5627 241.346 28.776C241.762 28.9787 242.135 29.2667 242.466 29.64C242.775 30.0133 243.01 30.4293 243.17 30.888C243.33 31.336 243.41 31.8107 243.41 32.312ZM254.141 31.672V32.936H250.621V31.672H254.141Z" fill="white"/>
<path d="M102.618 54.744C102.384 54.536 102.124 54.3323 101.838 54.133C101.552 53.925 101.227 53.7213 100.863 53.522C100.534 53.3313 100.191 53.1927 99.836 53.106C99.4893 53.0193 99.1297 52.976 98.757 52.976C98.211 52.976 97.652 53.1667 97.08 53.548C96.4473 53.964 96.1137 54.4277 96.079 54.939L96.365 55.628H97.158L97.899 56.356H96.625V63.961L95.884 63.233V56.356H94.779L94.064 55.628H96.001L95.494 55.147C95.3033 54.9563 95.208 54.7613 95.208 54.562C95.208 53.9727 95.5373 53.418 96.196 52.898C96.8373 52.4127 97.457 52.17 98.055 52.17C99.5977 52.17 101.071 52.898 102.475 54.354L102.618 54.744ZM97.6524 56.356L96.9114 55.628H105.036L105.79 56.356H97.6524ZM105.192 59.645C105.192 60.087 105.132 60.4943 105.01 60.867C104.889 61.231 104.703 61.5647 104.451 61.868C103.914 62.518 103.216 62.843 102.358 62.843C101.162 62.843 100.153 62.1453 99.3294 60.75C99.1301 60.4207 98.9091 59.9483 98.6664 59.333C98.4237 58.709 98.1594 57.9637 97.8734 57.097L98.3154 57.24C98.4887 57.812 98.7011 58.3537 98.9524 58.865C99.2124 59.3677 99.4724 59.801 99.7324 60.165C100.114 60.633 100.538 60.997 101.006 61.257C101.474 61.5083 101.973 61.634 102.501 61.634C103.039 61.634 103.502 61.4433 103.892 61.062C104.291 60.6807 104.49 60.217 104.49 59.671C104.49 58.9517 104.378 58.592 104.152 58.592C103.494 59.3893 102.709 59.788 101.799 59.788C101.349 59.788 100.963 59.6493 100.642 59.372C100.287 59.0947 100.109 58.7263 100.109 58.267C100.109 57.4957 100.508 57.11 101.305 57.11C101.557 57.11 101.773 57.1967 101.955 57.37C102.146 57.5347 102.241 57.7427 102.241 57.994C102.241 58.2107 102.133 58.4663 101.916 58.761C102.246 58.7697 102.597 58.5833 102.969 58.202C103.117 58.0373 103.242 57.8683 103.346 57.695C103.459 57.5217 103.572 57.344 103.684 57.162C103.858 57.1793 104.035 57.2703 104.217 57.435C104.399 57.591 104.581 57.8207 104.763 58.124C105.049 58.7047 105.192 59.2117 105.192 59.645ZM113.307 54.744C113.073 54.536 112.813 54.3323 112.527 54.133C112.241 53.925 111.916 53.7213 111.552 53.522C111.223 53.3313 110.881 53.1927 110.525 53.106C110.179 53.0193 109.819 52.976 109.446 52.976C108.9 52.976 108.341 53.1667 107.769 53.548C107.137 53.964 106.803 54.4277 106.768 54.939L107.054 55.628H107.847L108.588 56.356H107.314V63.961L106.573 63.233V56.356H105.468L104.753 55.628H106.69L106.183 55.147C105.993 54.9563 105.897 54.7613 105.897 54.562C105.897 53.9727 106.227 53.418 106.885 52.898C107.527 52.4127 108.146 52.17 108.744 52.17C110.287 52.17 111.76 52.898 113.164 54.354L113.307 54.744ZM117.481 56.356H113.321C113.2 56.3647 113.074 56.421 112.944 56.525C112.823 56.6203 112.753 56.72 112.736 56.824C112.736 56.9453 112.784 57.0493 112.879 57.136C112.983 57.2227 113.104 57.3007 113.243 57.37C113.382 57.4307 113.52 57.4783 113.659 57.513C113.806 57.5477 113.919 57.565 113.997 57.565C114.396 57.5997 114.751 57.5867 115.063 57.526C115.375 57.4567 115.635 57.3657 115.843 57.253L116.948 58.41C116.549 58.8 116.246 59.281 116.038 59.853C115.83 60.425 115.726 61.0837 115.726 61.829C115.726 62.3923 115.912 63.0857 116.285 63.909L115.57 63.714C115.397 63.22 115.258 62.7303 115.154 62.245C115.05 61.7597 114.994 61.244 114.985 60.698C114.985 59.9873 115.141 59.2463 115.453 58.475C114.682 58.475 114.058 58.3797 113.581 58.189C113.078 57.9897 112.602 57.5997 112.151 57.019L112.086 56.993C111.965 56.993 111.839 57.0537 111.709 57.175C111.579 57.2963 111.445 57.4697 111.306 57.695C111.02 58.1543 110.877 58.5097 110.877 58.761C110.877 59.1163 111.068 59.294 111.449 59.294C111.536 59.294 111.648 59.2723 111.787 59.229C111.926 59.1857 112.082 59.1207 112.255 59.034L113.061 58.618C113.373 58.7567 113.65 59.0383 113.893 59.463C114.014 59.6883 114.11 59.905 114.179 60.113C114.248 60.321 114.283 60.5117 114.283 60.685C114.283 61.2223 114.079 61.7033 113.672 62.128C113.273 62.5267 112.797 62.726 112.242 62.726C110.985 62.726 110.08 62.0457 109.525 60.685C109.326 60.191 109.174 59.645 109.07 59.047C108.975 58.4403 108.927 57.76 108.927 57.006L109.304 57.24C109.278 57.448 109.278 57.7037 109.304 58.007C109.391 58.865 109.616 59.58 109.98 60.152C110.24 60.5853 110.535 60.919 110.864 61.153C111.202 61.387 111.575 61.504 111.982 61.504C112.355 61.504 112.719 61.4217 113.074 61.257C113.542 61.049 113.776 60.7803 113.776 60.451C113.776 60.321 113.737 60.1867 113.659 60.048C113.59 59.9007 113.486 59.827 113.347 59.827C113.295 59.827 113.1 59.8877 112.762 60.009C112.459 60.1303 112.199 60.191 111.982 60.191C111.497 60.191 111.094 59.996 110.773 59.606C110.444 59.2247 110.279 58.7827 110.279 58.28C110.279 57.9853 110.392 57.643 110.617 57.253C110.86 56.8543 111.115 56.5553 111.384 56.356H108.186L107.458 55.628H116.766L117.481 56.356ZM119.009 56.356V61.439C119.174 61.7683 119.408 61.933 119.711 61.933C120.144 61.933 120.591 61.6687 121.05 61.14C121.466 60.646 121.7 60.1477 121.752 59.645L121.505 59.671C121.271 59.671 121.054 59.5887 120.855 59.424C120.664 59.2593 120.569 59.0513 120.569 58.8C120.569 58.5313 120.651 58.3017 120.816 58.111C120.989 57.9203 121.215 57.825 121.492 57.825C121.908 57.825 122.25 58.0287 122.519 58.436C122.614 58.592 122.688 58.7783 122.74 58.995C122.801 59.203 122.831 59.4153 122.831 59.632C122.831 60.3513 122.532 61.062 121.934 61.764C121.327 62.5093 120.669 62.882 119.958 62.882C119.499 62.882 119.13 62.739 118.853 62.453C118.576 62.167 118.394 61.764 118.307 61.244V56.356H117.137L116.474 55.628H121.999C121.999 55.5587 121.999 55.485 121.999 55.407C122.008 55.3203 122.012 55.2423 122.012 55.173C122.021 54.7397 121.717 54.523 121.102 54.523C120.963 54.523 120.738 54.549 120.426 54.601C120.279 54.6183 120.153 54.6313 120.049 54.64C119.945 54.6487 119.854 54.653 119.776 54.653C119.221 54.653 118.71 54.5187 118.242 54.25C117.731 53.964 117.475 53.5567 117.475 53.028C117.475 52.4733 117.653 52.183 118.008 52.157C118.008 52.1917 118.012 52.2307 118.021 52.274C118.03 52.3173 118.034 52.3607 118.034 52.404C117.913 52.508 117.852 52.638 117.852 52.794C117.852 53.0973 117.978 53.3183 118.229 53.457C118.463 53.587 118.732 53.652 119.035 53.652C119.139 53.652 119.265 53.6477 119.412 53.639C119.568 53.6217 119.746 53.6043 119.945 53.587C120.335 53.535 120.634 53.509 120.842 53.509C121.492 53.509 121.982 53.6997 122.311 54.081C122.571 54.419 122.701 54.9347 122.701 55.628H123.104L123.832 56.356H119.009ZM133.652 56.356V56.889C134.502 56.889 135.186 57.2357 135.706 57.929C136.2 58.553 136.447 59.2377 136.447 59.983C136.447 60.165 136.417 60.3383 136.356 60.503C136.296 60.6677 136.213 60.815 136.109 60.945C136.005 61.0663 135.88 61.166 135.732 61.244C135.585 61.3133 135.425 61.348 135.251 61.348C135.13 61.348 135.013 61.3263 134.9 61.283C134.788 61.231 134.684 61.166 134.588 61.088C134.502 61.01 134.428 60.919 134.367 60.815C134.315 60.7023 134.289 60.581 134.289 60.451C134.289 60.217 134.372 60.022 134.536 59.866C134.701 59.71 134.905 59.632 135.147 59.632C135.295 59.632 135.425 59.6667 135.537 59.736C135.659 59.8053 135.767 59.9007 135.862 60.022L135.927 59.853C135.927 59.3503 135.728 58.8997 135.329 58.501C134.939 58.0763 134.376 57.8683 133.639 57.877V63.948C133.587 63.9393 133.535 63.922 133.483 63.896C133.431 63.8613 133.397 63.8223 133.379 63.779C133.206 63.3543 132.998 62.96 132.755 62.596C132.521 62.2233 132.261 61.894 131.975 61.608C131.317 60.9493 130.58 60.5723 129.765 60.477L128.738 59.203C129.978 58.2237 131.386 57.4783 132.963 56.967V56.356H128.231L127.49 55.628H136.694L137.448 56.356H133.652ZM132.924 57.968C132.482 58.1327 132.04 58.3407 131.598 58.592C131.156 58.8347 130.688 59.1293 130.194 59.476C131.408 59.9873 132.309 60.7977 132.898 61.907H132.924V57.968ZM142.826 56.356V64L142.423 63.519V63.532C142.284 63.1853 142.167 62.934 142.072 62.778C141.985 62.6133 141.842 62.4097 141.643 62.167C141.443 61.9157 141.257 61.7077 141.084 61.543C140.46 60.971 139.632 60.633 138.601 60.529H138.614L137.652 59.177C139.108 58.163 140.598 57.4003 142.124 56.889V56.356H137.145L136.43 55.628H143.593L144.321 56.356H142.826ZM142.124 58.072C141.656 58.2453 141.179 58.4533 140.694 58.696C140.217 58.9387 139.714 59.2377 139.186 59.593C140.494 60.139 141.474 60.971 142.124 62.089V58.072ZM139.043 62.596C139.043 62.3793 139.116 62.2017 139.264 62.063C139.411 61.9157 139.589 61.842 139.797 61.842C140.005 61.842 140.182 61.9157 140.33 62.063C140.477 62.2017 140.551 62.3793 140.551 62.596C140.551 62.7953 140.477 62.973 140.33 63.129C140.182 63.2763 140.005 63.35 139.797 63.35C139.589 63.35 139.411 63.2763 139.264 63.129C139.116 62.973 139.043 62.7953 139.043 62.596ZM147.207 56.356H144.022L143.281 55.628H146.466L147.207 56.356ZM146.271 59.476C146.271 59.6753 146.236 59.866 146.167 60.048C146.106 60.2213 146.015 60.3773 145.894 60.516C145.781 60.6547 145.647 60.763 145.491 60.841C145.335 60.919 145.161 60.958 144.971 60.958C144.702 60.958 144.377 60.828 143.996 60.568C143.623 60.308 143.198 59.9267 142.722 59.424V58.709C143.389 59.723 144.03 60.23 144.646 60.23C144.906 60.23 145.118 60.1303 145.283 59.931C145.456 59.7317 145.543 59.5063 145.543 59.255C145.543 58.891 145.374 58.6007 145.036 58.384C145.062 58.5573 145.075 58.696 145.075 58.8C145.075 58.9907 144.979 59.1467 144.789 59.268C144.607 59.3893 144.412 59.45 144.204 59.45C144.065 59.45 143.926 59.3547 143.788 59.164C143.684 59.008 143.632 58.8563 143.632 58.709C143.632 58.4403 143.762 58.215 144.022 58.033C144.256 57.851 144.507 57.76 144.776 57.76C145.2 57.76 145.556 57.9377 145.842 58.293C146.128 58.6483 146.271 59.0427 146.271 59.476ZM152.657 56.356V64.182L152.085 63.818L152.137 63.051C152.146 62.2277 151.955 61.3697 151.565 60.477C150.985 59.463 150.309 58.956 149.537 58.956C149.442 58.9647 149.373 58.9863 149.329 59.021C149.65 59.4457 149.81 59.7533 149.81 59.944C149.81 60.256 149.719 60.5203 149.537 60.737C149.355 60.945 149.113 61.049 148.809 61.049C147.873 61.049 147.405 60.594 147.405 59.684C147.405 59.19 147.579 58.7827 147.925 58.462C148.298 58.1327 148.723 57.968 149.199 57.968C150.222 57.968 151.123 58.774 151.903 60.386H151.929V56.356H146.807L146.092 55.628H153.177L153.931 56.356H152.657ZM154.442 63.298C154.442 63.0727 154.52 62.882 154.676 62.726C154.832 62.57 155.019 62.492 155.235 62.492C155.452 62.492 155.634 62.57 155.781 62.726C155.937 62.882 156.015 63.0727 156.015 63.298C156.015 63.5493 155.937 63.7487 155.781 63.896C155.634 64.0433 155.452 64.117 155.235 64.117C155.019 64.117 154.832 64.0433 154.676 63.896C154.52 63.7487 154.442 63.5493 154.442 63.298ZM154.442 59.385C154.442 59.1597 154.52 58.969 154.676 58.813C154.832 58.657 155.019 58.579 155.235 58.579C155.452 58.579 155.634 58.657 155.781 58.813C155.937 58.969 156.015 59.1597 156.015 59.385C156.015 59.6363 155.937 59.8357 155.781 59.983C155.634 60.1303 155.452 60.204 155.235 60.204C155.019 60.204 154.832 60.1303 154.676 59.983C154.52 59.8357 154.442 59.6363 154.442 59.385ZM171.093 57.424L169.041 64H167.913L166.329 58.78L164.745 64H163.617L161.553 57.424H162.669L164.181 62.944L165.813 57.424H166.929L168.525 62.956L170.013 57.424H171.093ZM180.937 57.424L178.885 64H177.757L176.173 58.78L174.589 64H173.461L171.397 57.424H172.513L174.025 62.944L175.657 57.424H176.773L178.369 62.956L179.857 57.424H180.937ZM190.781 57.424L188.729 64H187.601L186.017 58.78L184.433 64H183.305L181.241 57.424H182.357L183.869 62.944L185.501 57.424H186.617L188.213 62.956L189.701 57.424H190.781ZM192.212 64.072C192.004 64.072 191.828 64 191.684 63.856C191.54 63.712 191.468 63.536 191.468 63.328C191.468 63.12 191.54 62.944 191.684 62.8C191.828 62.656 192.004 62.584 192.212 62.584C192.412 62.584 192.58 62.656 192.716 62.8C192.86 62.944 192.932 63.12 192.932 63.328C192.932 63.536 192.86 63.712 192.716 63.856C192.58 64 192.412 64.072 192.212 64.072ZM194.948 56.356C194.74 56.356 194.564 56.284 194.42 56.14C194.276 55.996 194.204 55.82 194.204 55.612C194.204 55.404 194.276 55.228 194.42 55.084C194.564 54.94 194.74 54.868 194.948 54.868C195.148 54.868 195.316 54.94 195.452 55.084C195.596 55.228 195.668 55.404 195.668 55.612C195.668 55.82 195.596 55.996 195.452 56.14C195.316 56.284 195.148 56.356 194.948 56.356ZM195.476 57.424V64H194.384V57.424H195.476ZM200.601 57.304C201.097 57.304 201.545 57.412 201.945 57.628C202.345 57.836 202.657 58.152 202.881 58.576C203.113 59 203.229 59.516 203.229 60.124V64H202.149V60.28C202.149 59.624 201.985 59.124 201.657 58.78C201.329 58.428 200.881 58.252 200.313 58.252C199.737 58.252 199.277 58.432 198.933 58.792C198.597 59.152 198.429 59.676 198.429 60.364V64H197.337V55.12H198.429V58.36C198.645 58.024 198.941 57.764 199.317 57.58C199.701 57.396 200.129 57.304 200.601 57.304ZM204.605 60.688C204.605 60.016 204.741 59.428 205.013 58.924C205.285 58.412 205.657 58.016 206.129 57.736C206.609 57.456 207.141 57.316 207.725 57.316C208.301 57.316 208.801 57.44 209.225 57.688C209.649 57.936 209.965 58.248 210.173 58.624V57.424H211.277V64H210.173V62.776C209.957 63.16 209.633 63.48 209.201 63.736C208.777 63.984 208.281 64.108 207.713 64.108C207.129 64.108 206.601 63.964 206.129 63.676C205.657 63.388 205.285 62.984 205.013 62.464C204.741 61.944 204.605 61.352 204.605 60.688ZM210.173 60.7C210.173 60.204 210.073 59.772 209.873 59.404C209.673 59.036 209.401 58.756 209.057 58.564C208.721 58.364 208.349 58.264 207.941 58.264C207.533 58.264 207.161 58.36 206.825 58.552C206.489 58.744 206.221 59.024 206.021 59.392C205.821 59.76 205.721 60.192 205.721 60.688C205.721 61.192 205.821 61.632 206.021 62.008C206.221 62.376 206.489 62.66 206.825 62.86C207.161 63.052 207.533 63.148 207.941 63.148C208.349 63.148 208.721 63.052 209.057 62.86C209.401 62.66 209.673 62.376 209.873 62.008C210.073 61.632 210.173 61.196 210.173 60.7ZM212.714 60.688C212.714 60.016 212.85 59.428 213.122 58.924C213.394 58.412 213.766 58.016 214.238 57.736C214.718 57.456 215.254 57.316 215.846 57.316C216.358 57.316 216.834 57.436 217.274 57.676C217.714 57.908 218.05 58.216 218.282 58.6V55.12H219.386V64H218.282V62.764C218.066 63.156 217.746 63.48 217.322 63.736C216.898 63.984 216.402 64.108 215.834 64.108C215.25 64.108 214.718 63.964 214.238 63.676C213.766 63.388 213.394 62.984 213.122 62.464C212.85 61.944 212.714 61.352 212.714 60.688ZM218.282 60.7C218.282 60.204 218.182 59.772 217.982 59.404C217.782 59.036 217.51 58.756 217.166 58.564C216.83 58.364 216.458 58.264 216.05 58.264C215.642 58.264 215.27 58.36 214.934 58.552C214.598 58.744 214.33 59.024 214.13 59.392C213.93 59.76 213.83 60.192 213.83 60.688C213.83 61.192 213.93 61.632 214.13 62.008C214.33 62.376 214.598 62.66 214.934 62.86C215.27 63.052 215.642 63.148 216.05 63.148C216.458 63.148 216.83 63.052 217.166 62.86C217.51 62.66 217.782 62.376 217.982 62.008C218.182 61.632 218.282 61.196 218.282 60.7ZM221.796 56.356C221.588 56.356 221.412 56.284 221.268 56.14C221.124 55.996 221.052 55.82 221.052 55.612C221.052 55.404 221.124 55.228 221.268 55.084C221.412 54.94 221.588 54.868 221.796 54.868C221.996 54.868 222.164 54.94 222.3 55.084C222.444 55.228 222.516 55.404 222.516 55.612C222.516 55.82 222.444 55.996 222.3 56.14C222.164 56.284 221.996 56.356 221.796 56.356ZM222.324 57.424V64H221.232V57.424H222.324ZM226.513 64.108C226.009 64.108 225.557 64.024 225.157 63.856C224.757 63.68 224.441 63.44 224.209 63.136C223.977 62.824 223.849 62.468 223.825 62.068H224.953C224.985 62.396 225.137 62.664 225.409 62.872C225.689 63.08 226.053 63.184 226.501 63.184C226.917 63.184 227.245 63.092 227.485 62.908C227.725 62.724 227.845 62.492 227.845 62.212C227.845 61.924 227.717 61.712 227.461 61.576C227.205 61.432 226.809 61.292 226.273 61.156C225.785 61.028 225.385 60.9 225.073 60.772C224.769 60.636 224.505 60.44 224.281 60.184C224.065 59.92 223.957 59.576 223.957 59.152C223.957 58.816 224.057 58.508 224.257 58.228C224.457 57.948 224.741 57.728 225.109 57.568C225.477 57.4 225.897 57.316 226.369 57.316C227.097 57.316 227.685 57.5 228.133 57.868C228.581 58.236 228.821 58.74 228.853 59.38H227.761C227.737 59.036 227.597 58.76 227.341 58.552C227.093 58.344 226.757 58.24 226.333 58.24C225.941 58.24 225.629 58.324 225.397 58.492C225.165 58.66 225.049 58.88 225.049 59.152C225.049 59.368 225.117 59.548 225.253 59.692C225.397 59.828 225.573 59.94 225.781 60.028C225.997 60.108 226.293 60.2 226.669 60.304C227.141 60.432 227.525 60.56 227.821 60.688C228.117 60.808 228.369 60.992 228.577 61.24C228.793 61.488 228.905 61.812 228.913 62.212C228.913 62.572 228.813 62.896 228.613 63.184C228.413 63.472 228.129 63.7 227.761 63.868C227.401 64.028 226.985 64.108 226.513 64.108ZM230.802 64.072C230.594 64.072 230.418 64 230.274 63.856C230.13 63.712 230.058 63.536 230.058 63.328C230.058 63.12 230.13 62.944 230.274 62.8C230.418 62.656 230.594 62.584 230.802 62.584C231.002 62.584 231.17 62.656 231.306 62.8C231.45 62.944 231.522 63.12 231.522 63.328C231.522 63.536 231.45 63.712 231.306 63.856C231.17 64 231.002 64.072 230.802 64.072ZM232.566 60.7C232.566 60.02 232.702 59.428 232.974 58.924C233.246 58.412 233.622 58.016 234.102 57.736C234.59 57.456 235.146 57.316 235.77 57.316C236.578 57.316 237.242 57.512 237.762 57.904C238.29 58.296 238.638 58.84 238.806 59.536H237.63C237.518 59.136 237.298 58.82 236.97 58.588C236.65 58.356 236.25 58.24 235.77 58.24C235.146 58.24 234.642 58.456 234.258 58.888C233.874 59.312 233.682 59.916 233.682 60.7C233.682 61.492 233.874 62.104 234.258 62.536C234.642 62.968 235.146 63.184 235.77 63.184C236.25 63.184 236.65 63.072 236.97 62.848C237.29 62.624 237.51 62.304 237.63 61.888H238.806C238.63 62.56 238.278 63.1 237.75 63.508C237.222 63.908 236.562 64.108 235.77 64.108C235.146 64.108 234.59 63.968 234.102 63.688C233.622 63.408 233.246 63.012 232.974 62.5C232.702 61.988 232.566 61.388 232.566 60.7ZM243.131 64.108C242.515 64.108 241.955 63.968 241.451 63.688C240.955 63.408 240.563 63.012 240.275 62.5C239.995 61.98 239.855 61.38 239.855 60.7C239.855 60.028 239.999 59.436 240.287 58.924C240.583 58.404 240.983 58.008 241.487 57.736C241.991 57.456 242.555 57.316 243.179 57.316C243.803 57.316 244.367 57.456 244.871 57.736C245.375 58.008 245.771 58.4 246.059 58.912C246.355 59.424 246.503 60.02 246.503 60.7C246.503 61.38 246.351 61.98 246.047 62.5C245.751 63.012 245.347 63.408 244.835 63.688C244.323 63.968 243.755 64.108 243.131 64.108ZM243.131 63.148C243.523 63.148 243.891 63.056 244.235 62.872C244.579 62.688 244.855 62.412 245.063 62.044C245.279 61.676 245.387 61.228 245.387 60.7C245.387 60.172 245.283 59.724 245.075 59.356C244.867 58.988 244.595 58.716 244.259 58.54C243.923 58.356 243.559 58.264 243.167 58.264C242.767 58.264 242.399 58.356 242.063 58.54C241.735 58.716 241.471 58.988 241.271 59.356C241.071 59.724 240.971 60.172 240.971 60.7C240.971 61.236 241.067 61.688 241.259 62.056C241.459 62.424 241.723 62.7 242.051 62.884C242.379 63.06 242.739 63.148 243.131 63.148ZM255.847 57.304C256.359 57.304 256.815 57.412 257.215 57.628C257.615 57.836 257.931 58.152 258.163 58.576C258.395 59 258.511 59.516 258.511 60.124V64H257.431V60.28C257.431 59.624 257.267 59.124 256.939 58.78C256.619 58.428 256.183 58.252 255.631 58.252C255.063 58.252 254.611 58.436 254.275 58.804C253.939 59.164 253.771 59.688 253.771 60.376V64H252.691V60.28C252.691 59.624 252.527 59.124 252.199 58.78C251.879 58.428 251.443 58.252 250.891 58.252C250.323 58.252 249.871 58.436 249.535 58.804C249.199 59.164 249.031 59.688 249.031 60.376V64H247.939V57.424H249.031V58.372C249.247 58.028 249.535 57.764 249.895 57.58C250.263 57.396 250.667 57.304 251.107 57.304C251.659 57.304 252.147 57.428 252.571 57.676C252.995 57.924 253.311 58.288 253.519 58.768C253.703 58.304 254.007 57.944 254.431 57.688C254.855 57.432 255.327 57.304 255.847 57.304Z" fill="#F2F2F2"/>
<rect x="95" y="86" width="231" height="45" rx="11" fill="#19A37A"/>
<path d="M174.358 112.013C174.245 111.952 174.154 111.796 174.085 111.545C174.007 111.328 173.933 111.146 173.864 110.999C173.795 110.843 173.725 110.717 173.656 110.622C173.396 110.293 173.036 110.128 172.577 110.128C172.334 110.128 171.962 110.167 171.459 110.245C171.208 110.28 170.987 110.306 170.796 110.323C170.614 110.332 170.458 110.336 170.328 110.336C168.551 110.336 167.663 109.422 167.663 107.593C167.663 107.194 167.719 106.839 167.832 106.527C167.945 106.206 168.101 105.925 168.3 105.682L168.573 105.968C168.452 106.167 168.352 106.401 168.274 106.67C168.205 106.939 168.17 107.233 168.17 107.554C168.17 107.875 168.222 108.152 168.326 108.386C168.43 108.611 168.577 108.785 168.768 108.906C168.915 108.993 169.106 109.062 169.34 109.114C169.574 109.166 169.847 109.192 170.159 109.192C170.228 109.192 170.328 109.192 170.458 109.192C170.597 109.192 170.731 109.188 170.861 109.179L171.55 109.153C172.313 109.153 173.036 109.443 173.721 110.024V104.512C173.721 104.365 173.548 104.291 173.201 104.291C172.976 104.291 172.759 104.356 172.551 104.486C172.352 104.616 172.144 104.807 171.927 105.058C171.745 105.283 171.593 105.509 171.472 105.734C171.351 105.959 171.264 106.198 171.212 106.449C171.403 106.423 171.572 106.41 171.719 106.41C172.074 106.41 172.252 106.687 172.252 107.242C172.252 107.511 172.157 107.723 171.966 107.879C171.775 108.026 171.541 108.1 171.264 108.1C170.9 108.1 170.597 107.987 170.354 107.762C170.12 107.537 170.003 107.238 170.003 106.865C170.003 106.085 170.332 105.34 170.991 104.629C171.32 104.3 171.667 104.04 172.031 103.849C172.395 103.658 172.763 103.563 173.136 103.563C173.37 103.563 173.652 103.702 173.981 103.979C174.293 104.239 174.449 104.486 174.449 104.72V112.039L174.358 112.013ZM183.171 104.356H182.04V111.922C181.945 111.835 181.858 111.736 181.78 111.623C181.702 111.502 181.641 111.385 181.598 111.272C181.529 111.099 181.464 110.943 181.403 110.804C181.351 110.665 181.312 110.574 181.286 110.531C181.113 110.228 180.905 109.959 180.662 109.725C180.419 109.491 180.138 109.279 179.817 109.088H179.83C179.249 108.741 178.608 108.533 177.906 108.464L176.671 106.956C176.766 106.973 176.862 106.991 176.957 107.008C177.061 107.017 177.165 107.021 177.269 107.021C177.512 107.021 177.767 106.991 178.036 106.93C178.313 106.861 178.591 106.765 178.868 106.644C179.206 106.497 179.466 106.336 179.648 106.163C179.839 105.981 179.934 105.79 179.934 105.591C179.934 105.279 179.808 105.015 179.557 104.798C178.76 105.595 177.962 105.994 177.165 105.994C176.87 105.994 176.615 105.899 176.398 105.708C176.181 105.517 176.073 105.279 176.073 104.993C176.073 104.785 176.147 104.599 176.294 104.434C176.45 104.269 176.636 104.187 176.853 104.187C177.295 104.187 177.529 104.412 177.555 104.863C177.702 104.837 177.85 104.785 177.997 104.707C178.153 104.62 178.309 104.516 178.465 104.395C178.482 104.386 178.56 104.313 178.699 104.174C178.846 104.027 179.002 103.875 179.167 103.719C179.444 103.953 179.67 104.148 179.843 104.304C180.016 104.46 180.125 104.56 180.168 104.603C180.515 104.976 180.688 105.361 180.688 105.76C180.688 106.185 180.519 106.592 180.181 106.982C179.843 107.355 179.453 107.602 179.011 107.723C180.068 108.252 180.835 108.936 181.312 109.777H181.338V102.276L181.741 102.536C181.741 102.683 181.75 102.831 181.767 102.978C181.784 103.125 181.802 103.225 181.819 103.277C181.914 103.485 182.118 103.602 182.43 103.628L183.171 104.356ZM184.715 104.356V111.961L184.013 111.233V105.838C184.013 105.613 183.97 105.409 183.883 105.227C183.796 105.045 183.675 104.893 183.519 104.772C183.372 104.642 183.203 104.542 183.012 104.473C182.813 104.395 182.609 104.356 182.401 104.356L181.673 103.628H182.505C182.947 103.628 183.289 103.728 183.532 103.927C183.775 104.118 183.97 104.438 184.117 104.889C184.117 104.742 184.113 104.56 184.104 104.343C184.095 104.126 184.078 103.871 184.052 103.576C184.035 103.29 184.022 103.043 184.013 102.835C184.004 102.618 184 102.436 184 102.289L184.26 102.51C184.347 103.03 184.498 103.403 184.715 103.628H185.365L186.08 104.356H184.715ZM190.54 104.356C189.994 104.486 189.521 104.69 189.123 104.967C188.724 105.244 188.386 105.591 188.109 106.007C187.857 106.397 187.667 106.83 187.537 107.307C187.407 107.784 187.342 108.317 187.342 108.906C187.35 109.426 187.489 109.894 187.758 110.31C188.226 110.96 188.681 111.22 189.123 111.09C188.958 110.986 188.837 110.865 188.759 110.726C188.689 110.587 188.655 110.444 188.655 110.297C188.655 110.072 188.746 109.881 188.928 109.725C189.118 109.569 189.326 109.491 189.552 109.491C189.794 109.491 190.002 109.591 190.176 109.79C190.349 109.981 190.436 110.228 190.436 110.531C190.436 110.704 190.401 110.865 190.332 111.012C190.262 111.159 190.167 111.289 190.046 111.402C189.924 111.506 189.781 111.588 189.617 111.649C189.461 111.71 189.296 111.74 189.123 111.74C188.273 111.74 187.623 111.315 187.173 110.466C186.791 109.773 186.601 108.971 186.601 108.061C186.601 106.796 187.116 105.561 188.148 104.356H185.73L185.002 103.628H189.825L190.54 104.356ZM196.08 104.356V112.182L195.508 111.818L195.56 111.051C195.568 110.228 195.378 109.37 194.988 108.477C194.407 107.463 193.731 106.956 192.96 106.956C192.864 106.965 192.795 106.986 192.752 107.021C193.072 107.446 193.233 107.753 193.233 107.944C193.233 108.256 193.142 108.52 192.96 108.737C192.778 108.945 192.535 109.049 192.232 109.049C191.296 109.049 190.828 108.594 190.828 107.684C190.828 107.19 191.001 106.783 191.348 106.462C191.72 106.133 192.145 105.968 192.622 105.968C193.644 105.968 194.546 106.774 195.326 108.386H195.352V104.356H190.23L189.515 103.628H196.6L197.354 104.356H196.08ZM209.815 102.744C209.581 102.536 209.321 102.332 209.035 102.133C208.749 101.925 208.424 101.721 208.06 101.522C207.731 101.331 207.388 101.193 207.033 101.106C206.686 101.019 206.327 100.976 205.954 100.976C205.408 100.976 204.849 101.167 204.277 101.548C203.644 101.964 203.311 102.428 203.276 102.939L203.562 103.628H204.355L205.096 104.356H203.822V111.961L203.081 111.233V104.356H201.976L201.261 103.628H203.198L202.691 103.147C202.5 102.956 202.405 102.761 202.405 102.562C202.405 101.973 202.734 101.418 203.393 100.898C204.034 100.413 204.654 100.17 205.252 100.17C206.795 100.17 208.268 100.898 209.672 102.354L209.815 102.744ZM210.387 104.356V104.824C211.228 104.789 211.908 105.119 212.428 105.812C212.68 106.124 212.866 106.453 212.987 106.8C213.117 107.147 213.182 107.502 213.182 107.866C213.182 108.048 213.152 108.221 213.091 108.386C213.031 108.551 212.944 108.698 212.831 108.828C212.727 108.949 212.602 109.049 212.454 109.127C212.307 109.196 212.147 109.231 211.973 109.231C211.852 109.231 211.735 109.209 211.622 109.166C211.51 109.114 211.41 109.049 211.323 108.971C211.237 108.884 211.163 108.789 211.102 108.685C211.05 108.572 211.024 108.455 211.024 108.334C211.024 108.1 211.102 107.905 211.258 107.749C211.423 107.593 211.627 107.515 211.869 107.515C212.147 107.515 212.389 107.645 212.597 107.905L212.662 107.736C212.662 107.259 212.463 106.809 212.064 106.384C211.657 105.951 211.094 105.79 210.374 105.903V112.663L210.088 112.403C210.01 112.056 209.893 111.753 209.737 111.493C209.538 111.164 209.304 110.999 209.035 110.999C208.689 110.999 208.537 111.198 208.58 111.597L208.619 112C208.507 111.983 208.403 111.961 208.307 111.935C208.212 111.9 208.108 111.827 207.995 111.714C207.987 111.506 207.956 111.333 207.904 111.194C207.861 111.047 207.805 110.921 207.735 110.817C207.545 110.557 207.311 110.427 207.033 110.427C206.921 110.427 206.804 110.449 206.682 110.492C206.57 110.527 206.466 110.583 206.37 110.661C206.275 110.73 206.197 110.821 206.136 110.934C206.076 111.038 206.045 111.159 206.045 111.298C206.045 111.679 206.167 111.939 206.409 112.078C206.409 111.853 206.47 111.662 206.591 111.506C206.721 111.341 206.869 111.259 207.033 111.259C207.475 111.259 207.696 111.506 207.696 112C207.696 112.52 207.393 112.78 206.786 112.78C206.587 112.78 206.401 112.745 206.227 112.676C206.054 112.607 205.898 112.507 205.759 112.377C205.621 112.247 205.512 112.091 205.434 111.909C205.356 111.727 205.317 111.528 205.317 111.311C205.317 111.086 205.356 110.873 205.434 110.674C205.512 110.475 205.621 110.306 205.759 110.167C205.898 110.02 206.054 109.907 206.227 109.829C206.409 109.742 206.604 109.699 206.812 109.699C207.419 109.699 207.883 110.119 208.203 110.96C208.195 110.423 208.398 110.154 208.814 110.154C209.17 110.154 209.464 110.436 209.698 110.999V110.271C209.56 110.028 209.404 109.807 209.23 109.608C209.066 109.409 208.888 109.222 208.697 109.049C208.368 108.754 208.017 108.52 207.644 108.347C207.272 108.174 206.886 108.065 206.487 108.022L205.473 106.878C206.713 105.994 208.117 105.348 209.685 104.941V104.356H204.94L204.199 103.628H213.026L213.78 104.356H210.387ZM209.659 106.007C209.226 106.102 208.78 106.25 208.32 106.449C207.87 106.648 207.406 106.887 206.929 107.164C208.143 107.589 209.048 108.247 209.646 109.14L209.659 106.007ZM218.943 104.356V104.889C219.793 104.889 220.477 105.236 220.997 105.929C221.491 106.553 221.738 107.238 221.738 107.983C221.738 108.165 221.708 108.338 221.647 108.503C221.587 108.668 221.504 108.815 221.4 108.945C221.296 109.066 221.171 109.166 221.023 109.244C220.876 109.313 220.716 109.348 220.542 109.348C220.421 109.348 220.304 109.326 220.191 109.283C220.079 109.231 219.975 109.166 219.879 109.088C219.793 109.01 219.719 108.919 219.658 108.815C219.606 108.702 219.58 108.581 219.58 108.451C219.58 108.217 219.663 108.022 219.827 107.866C219.992 107.71 220.196 107.632 220.438 107.632C220.586 107.632 220.716 107.667 220.828 107.736C220.95 107.805 221.058 107.901 221.153 108.022L221.218 107.853C221.218 107.35 221.019 106.9 220.62 106.501C220.23 106.076 219.667 105.868 218.93 105.877V111.948C218.878 111.939 218.826 111.922 218.774 111.896C218.722 111.861 218.688 111.822 218.67 111.779C218.497 111.354 218.289 110.96 218.046 110.596C217.812 110.223 217.552 109.894 217.266 109.608C216.608 108.949 215.871 108.572 215.056 108.477L214.029 107.203C215.269 106.224 216.677 105.478 218.254 104.967V104.356H213.522L212.781 103.628H221.985L222.739 104.356H218.943ZM218.215 105.968C217.773 106.133 217.331 106.341 216.889 106.592C216.447 106.835 215.979 107.129 215.485 107.476C216.699 107.987 217.6 108.798 218.189 109.907H218.215V105.968ZM232.8 104.356V104.889C233.649 104.889 234.334 105.236 234.854 105.929C235.348 106.553 235.595 107.238 235.595 107.983C235.595 108.165 235.565 108.338 235.504 108.503C235.443 108.668 235.361 108.815 235.257 108.945C235.153 109.066 235.027 109.166 234.88 109.244C234.733 109.313 234.572 109.348 234.399 109.348C234.278 109.348 234.161 109.326 234.048 109.283C233.935 109.231 233.831 109.166 233.736 109.088C233.649 109.01 233.576 108.919 233.515 108.815C233.463 108.702 233.437 108.581 233.437 108.451C233.437 108.217 233.519 108.022 233.684 107.866C233.849 107.71 234.052 107.632 234.295 107.632C234.442 107.632 234.572 107.667 234.685 107.736C234.806 107.805 234.915 107.901 235.01 108.022L235.075 107.853C235.075 107.35 234.876 106.9 234.477 106.501C234.087 106.076 233.524 105.868 232.787 105.877V111.948C232.735 111.939 232.683 111.922 232.631 111.896C232.579 111.861 232.544 111.822 232.527 111.779C232.354 111.354 232.146 110.96 231.903 110.596C231.669 110.223 231.409 109.894 231.123 109.608C230.464 108.949 229.728 108.572 228.913 108.477L227.886 107.203C229.125 106.224 230.534 105.478 232.111 104.967V104.356H227.379L226.638 103.628H235.842L236.596 104.356H232.8ZM232.072 105.968C231.63 106.133 231.188 106.341 230.746 106.592C230.304 106.835 229.836 107.129 229.342 107.476C230.555 107.987 231.457 108.798 232.046 109.907H232.072V105.968ZM242.103 104.356V112L241.7 111.519V111.532C241.562 111.185 241.445 110.934 241.349 110.778C241.263 110.613 241.12 110.41 240.92 110.167C240.721 109.916 240.535 109.708 240.361 109.543C239.737 108.971 238.91 108.633 237.878 108.529H237.891L236.929 107.177C238.385 106.163 239.876 105.4 241.401 104.889V104.356H236.422L235.707 103.628H242.87L243.598 104.356H242.103ZM241.401 106.072C240.933 106.245 240.457 106.453 239.971 106.696C239.495 106.939 238.992 107.238 238.463 107.593C239.772 108.139 240.751 108.971 241.401 110.089V106.072ZM238.32 110.596C238.32 110.379 238.394 110.202 238.541 110.063C238.689 109.916 238.866 109.842 239.074 109.842C239.282 109.842 239.46 109.916 239.607 110.063C239.755 110.202 239.828 110.379 239.828 110.596C239.828 110.795 239.755 110.973 239.607 111.129C239.46 111.276 239.282 111.35 239.074 111.35C238.866 111.35 238.689 111.276 238.541 111.129C238.394 110.973 238.32 110.795 238.32 110.596ZM246.484 104.356H243.299L242.558 103.628H245.743L246.484 104.356ZM245.548 107.476C245.548 107.675 245.514 107.866 245.444 108.048C245.384 108.221 245.293 108.377 245.171 108.516C245.059 108.655 244.924 108.763 244.768 108.841C244.612 108.919 244.439 108.958 244.248 108.958C243.98 108.958 243.655 108.828 243.273 108.568C242.901 108.308 242.476 107.927 241.999 107.424V106.709C242.667 107.723 243.308 108.23 243.923 108.23C244.183 108.23 244.396 108.13 244.56 107.931C244.734 107.732 244.82 107.506 244.82 107.255C244.82 106.891 244.651 106.601 244.313 106.384C244.339 106.557 244.352 106.696 244.352 106.8C244.352 106.991 244.257 107.147 244.066 107.268C243.884 107.389 243.689 107.45 243.481 107.45C243.343 107.45 243.204 107.355 243.065 107.164C242.961 107.008 242.909 106.856 242.909 106.709C242.909 106.44 243.039 106.215 243.299 106.033C243.533 105.851 243.785 105.76 244.053 105.76C244.478 105.76 244.833 105.938 245.119 106.293C245.405 106.648 245.548 107.043 245.548 107.476ZM252.065 104.356V112.182L251.493 111.818L251.545 111.051C251.554 110.228 251.363 109.37 250.973 108.477C250.392 107.463 249.716 106.956 248.945 106.956C248.85 106.965 248.78 106.986 248.737 107.021C249.058 107.446 249.218 107.753 249.218 107.944C249.218 108.256 249.127 108.52 248.945 108.737C248.763 108.945 248.52 109.049 248.217 109.049C247.281 109.049 246.813 108.594 246.813 107.684C246.813 107.19 246.986 106.783 247.333 106.462C247.706 106.133 248.13 105.968 248.607 105.968C249.63 105.968 250.531 106.774 251.311 108.386H251.337V104.356H246.215L245.5 103.628H252.585L253.339 104.356H252.065Z" fill="white"/>
<rect x="95" y="86" width="231" height="45" rx="11" stroke="white" stroke-opacity="0.61" stroke-width="2"/>
<rect x="5" y="1" width="336" height="145" rx="15" stroke="white" stroke-opacity="0.61" stroke-width="2" shape-rendering="crispEdges"/>
</g>
<defs>
<filter id="filter0_d_1338_7466" x="0" y="0" width="346" height="155" filterUnits="userSpaceOnUse" color-interpolation-filters="sRGB">
<feFlood flood-opacity="0" result="BackgroundImageFix"/>
<feColorMatrix in="SourceAlpha" type="matrix" values="0 0 0 0 0 0 0 0 0 0 0 0 0 0 0 0 0 0 127 0" result="hardAlpha"/>
<feOffset dy="4"/>
<feGaussianBlur stdDeviation="2"/>
<feComposite in2="hardAlpha" operator="out"/>
<feColorMatrix type="matrix" values="0 0 0 0 0 0 0 0 0 0 0 0 0 0 0 0 0 0 0.25 0"/>
<feBlend mode="normal" in2="BackgroundImageFix" result="effect1_dropShadow_1338_7466"/>
<feBlend mode="normal" in="SourceGraphic" in2="effect1_dropShadow_1338_7466" result="shape"/>
</filter>
<radialGradient id="paint0_radial_1338_7466" cx="0" cy="0" r="1" gradientUnits="userSpaceOnUse" gradientTransform="translate(5.00001 146) rotate(-19.9576) scale(357.467 380.161)">
<stop offset="0.165521" stop-color="#349A6D"/>
<stop offset="0.99" stop-color="#3A9B84"/>
</radialGradient>
<clipPath id="clip0_1338_7466">
<rect width="60" height="60" fill="white" transform="translate(20 16)"/>
</clipPath>
<clipPath id="clip1_1338_7466">
<rect x="24" y="20" width="52" height="52" rx="10" fill="white"/>
</clipPath>
</defs>
</svg>
