<svg width="28" height="28" viewBox="0 0 28 28" fill="none" xmlns="http://www.w3.org/2000/svg">
<path d="M6.16218 12.7929C5.77166 12.4024 5.1385 12.4024 4.74797 12.7929C4.35745 13.1834 4.35745 13.8166 4.74797 14.2071L6.16218 12.7929ZM9.45508 17.5L8.74797 18.2071C9.1385 18.5976 9.77166 18.5976 10.1622 18.2071L9.45508 17.5ZM20.1622 8.20711C20.5527 7.81658 20.5527 7.18342 20.1622 6.79289C19.7717 6.40237 19.1385 6.40237 18.748 6.79289L20.1622 8.20711ZM4.74797 14.2071L8.74797 18.2071L10.1622 16.7929L6.16218 12.7929L4.74797 14.2071ZM15.1622 13.2071L20.1622 8.20711L18.748 6.79289L13.748 11.7929L15.1622 13.2071ZM13.9166 14.4527L15.1622 13.2071L13.748 11.7929L12.5024 13.0384L13.9166 14.4527ZM10.1622 18.2071L11.6622 16.7071L10.248 15.2929L8.74797 16.7929L10.1622 18.2071Z" fill="#474747"/>
<path d="M10.4551 13.5L14.4551 17.5L24.4551 7.5" stroke="#474747" stroke-width="2" stroke-linecap="round" stroke-linejoin="round"/>
</svg>
