<svg width="25" height="24" viewBox="0 0 25 24" fill="none" xmlns="http://www.w3.org/2000/svg">
<g clip-path="url(#clip0_1034_13238)">
<path d="M24.0117 4.5585C23.1192 4.95 22.1682 5.2095 21.1767 5.3355C22.1967 4.7265 22.9752 3.7695 23.3412 2.616C22.3902 3.183 21.3402 3.5835 20.2212 3.807C19.3182 2.8455 18.0312 2.25 16.6272 2.25C13.9032 2.25 11.7102 4.461 11.7102 7.1715C11.7102 7.5615 11.7432 7.9365 11.8242 8.2935C7.73372 8.094 4.11422 6.1335 1.68272 3.147C1.25822 3.8835 1.00922 4.7265 1.00922 5.634C1.00922 7.338 1.88672 8.8485 3.19472 9.723C2.40422 9.708 1.62872 9.4785 0.971719 9.117C0.971719 9.132 0.971719 9.1515 0.971719 9.171C0.971719 11.562 2.67722 13.548 4.91372 14.0055C4.51322 14.115 4.07672 14.1675 3.62372 14.1675C3.30872 14.1675 2.99072 14.1495 2.69222 14.0835C3.32972 16.032 5.13872 17.4645 7.28972 17.511C5.61572 18.8205 3.49022 19.6095 1.18922 19.6095C0.785719 19.6095 0.398719 19.5915 0.0117188 19.542C2.19122 20.9475 4.77422 21.75 7.55972 21.75C16.6137 21.75 21.5637 14.25 21.5637 7.749C21.5637 7.5315 21.5562 7.3215 21.5457 7.113C22.5222 6.42 23.3427 5.5545 24.0117 4.5585Z" fill="#03A9F4"/>
</g>
<defs>
<clipPath id="clip0_1034_13238">
<rect width="24" height="24" fill="white" transform="translate(0.0117188)"/>
</clipPath>
</defs>
</svg>
