<svg width="25" height="24" viewBox="0 0 25 24" fill="none" xmlns="http://www.w3.org/2000/svg">
<g clip-path="url(#clip0_1034_13242)">
<path d="M24.1837 6.23876C23.9071 5.21063 23.0965 4.4002 22.0685 4.12335C20.1904 3.60938 12.678 3.60938 12.678 3.60938C12.678 3.60938 5.16575 3.60938 3.28765 4.10376C2.27947 4.38043 1.44909 5.21081 1.17242 6.23876C0.678223 8.11668 0.678223 12.0113 0.678223 12.0113C0.678223 12.0113 0.678223 15.9255 1.17242 17.7839C1.44928 18.8118 2.2597 19.6224 3.28783 19.8993C5.18553 20.4133 12.6782 20.4133 12.6782 20.4133C12.6782 20.4133 20.1904 20.4133 22.0685 19.9189C23.0966 19.6422 23.9071 18.8316 24.1839 17.8037C24.6781 15.9255 24.6781 12.0311 24.6781 12.0311C24.6781 12.0311 24.6979 8.11668 24.1837 6.23876Z" fill="#FF0000"/>
<path d="M10.2861 15.6096L16.5331 12.0116L10.2861 8.41357V15.6096Z" fill="white"/>
</g>
<defs>
<clipPath id="clip0_1034_13242">
<rect width="24" height="24" fill="white" transform="translate(0.678223)"/>
</clipPath>
</defs>
</svg>
