<svg width="360" height="413" viewBox="0 0 360 413" fill="none" xmlns="http://www.w3.org/2000/svg">
    <g clip-path="url(#clip0_898_6849)">
        <circle cx="180" cy="112" r="301" fill="url(#paint0_linear_898_6849)" />
        <circle cx="188" cy="85" r="301" fill="url(#paint1_linear_898_6849)" />
        <circle cx="120" cy="100" r="18" fill="#F3DEA7" />
        <ellipse cx="289" cy="179.5" rx="11" ry="10.5" fill="#F3DEA7" />
        <ellipse cx="219" cy="157.5" rx="13" ry="13.5" fill="#F3DEA7" />
        <circle cx="271" cy="20" r="18" fill="#F3DEA7" />
        <ellipse cx="59.7985" cy="278.745" rx="10" ry="9.5" fill="#F3DEA7" />
        <ellipse cx="7.5" cy="141" rx="7.5" ry="7" fill="#F3DEA7" />
        <ellipse cx="7.5" cy="20" rx="7.5" ry="7" fill="#F3DEA7" />
        <circle cx="155" cy="193" r="15" fill="#F3DEA7" />
        <circle cx="138" cy="339" r="15" fill="#F3DEA7" />
        <circle cx="295" cy="259" r="9" fill="#F3DEA7" />
        <circle cx="237" cy="241" r="11" fill="#F3DEA7" />
        <circle cx="280" cy="127" r="15" fill="#F3DEA7" />
        <circle cx="175" cy="283" r="8" fill="#F3DEA7" />
        <circle cx="62" cy="227" r="6" fill="#F3DEA7" />
        <circle cx="62" cy="127" r="6" fill="#F3DEA7" />
        <rect x="33" y="163" width="99" height="88" rx="17.6471" fill="white" fill-opacity="0.6" />
        <g clip-path="url(#clip1_898_6849)">
            <path
                d="M82.5 179.224L68.6121 207L82.5 234.776C97.8402 234.776 110.276 222.34 110.276 207C110.276 191.66 97.8402 179.224 82.5 179.224Z"
                fill="#14CFFF" />
            <path
                d="M54.7242 207C54.7242 222.34 67.1598 234.776 82.5 234.776V179.224C67.1598 179.224 54.7242 191.66 54.7242 207Z"
                fill="#14CFFF" />
            <path
                d="M82.5001 185.734L71.8671 207L82.5001 228.266C94.2449 228.266 103.766 218.745 103.766 207C103.766 195.255 94.2449 185.734 82.5001 185.734Z"
                fill="#E4F5FF" />
            <path
                d="M61.2342 207C61.2342 218.745 70.7552 228.266 82.5 228.266V185.734C70.7552 185.734 61.2342 195.255 61.2342 207Z"
                fill="#E4F5FF" />
            <path
                d="M80.8997 214.323L80.8997 207.814L79.3653 206.279L77.6448 211.069L77.6448 214.323L80.8997 214.323Z"
                fill="#340D66" />
            <path
                d="M80.8995 196.476L77.6446 196.476L77.6446 211.069L80.8995 207.814L80.8995 196.476Z"
                fill="#373E9F" />
            <path
                d="M91.8584 211.762L83.9378 211.762L79.1485 213.482L80.6829 215.017L91.8584 215.017L91.8584 211.762Z"
                fill="#373E9F" />
            <path
                d="M77.6396 211.762L77.6396 215.017L80.8946 215.017L84.1495 211.762L77.6396 211.762Z"
                fill="#3857BC" />
        </g>
        <rect x="131" y="60" width="99" height="88" rx="17.6471" fill="white" fill-opacity="0.6" />
        <g clip-path="url(#clip2_898_6849)">
            <path
                d="M180.499 93.9794C180.499 93.9794 179.112 81.9805 164.374 76.2242V93.9794H180.499Z"
                fill="#F0F5FA" />
            <path d="M180.5 93.9794C180.5 93.9794 181.887 81.9805 196.625 76.2242V93.9794H180.5Z"
                fill="#E4ECF2" />
            <path
                d="M180.677 93.9794C174.242 82.4814 158.824 78.9483 158.824 78.9483L155.762 82.0599L176.952 96.1565L180.677 93.9794Z"
                fill="#E4ECF2" />
            <path
                d="M180.32 93.9794C186.755 82.4814 202.173 78.9483 202.173 78.9483L205.235 82.0599L184.045 96.1566L180.32 93.9794Z"
                fill="#F0F5FA" />
            <path
                d="M207.538 118.683L185.928 130.839C185.183 131.258 184.262 130.719 184.262 129.864L183.145 112.103L184.262 94.6328C184.262 94.229 184.48 93.8565 184.832 93.6586L206.442 81.5032C207.187 81.084 208.107 81.6224 208.107 82.4774V117.709C208.107 118.113 207.89 118.485 207.538 118.683Z"
                fill="#15C69B" />
            <path
                d="M206.439 81.5034L203.634 83.0813V117.709C203.634 118.113 203.416 118.485 203.065 118.683L184.26 129.261V129.865C184.26 130.719 185.181 131.258 185.926 130.839L207.536 118.683C207.887 118.485 208.105 118.113 208.105 117.709V82.4775C208.105 81.6227 207.185 81.0843 206.439 81.5034Z"
                fill="#1AA483" />
            <path
                d="M175.07 130.839L153.46 118.683C153.108 118.485 152.89 118.113 152.89 117.709V82.4776C152.89 81.6227 153.811 81.0843 154.556 81.5033L176.166 93.6588C176.518 93.8567 176.735 94.2291 176.735 94.633V129.865C176.735 130.72 175.815 131.258 175.07 130.839V130.839Z"
                fill="#15C69B" />
            <path
                d="M176.166 93.6589L154.556 81.5035C153.811 81.0843 152.89 81.6227 152.89 82.4776V83.0814L171.695 93.6589C172.047 93.8568 172.264 94.2293 172.264 94.6331V129.261L175.07 130.839C175.815 131.258 176.735 130.72 176.735 129.865L177.853 112.159L176.735 94.633C176.735 94.2293 176.518 93.8568 176.166 93.6589Z"
                fill="#1AA483" />
            <path d="M204.009 96.157L188.36 105.099V99.6946L204.009 90.7527V96.157Z" fill="white" />
            <path
                d="M183.145 131.776H177.854C177.237 131.776 176.736 131.275 176.736 130.658V95.097C176.736 94.4797 177.237 93.9793 177.854 93.9793H183.145C183.762 93.9793 184.263 94.4797 184.263 95.097V130.658C184.263 131.275 183.762 131.776 183.145 131.776Z"
                fill="#15C69B" />
            <path
                d="M183.144 93.9793H179.344C179.961 93.9793 180.462 94.4797 180.462 95.097V130.658C180.462 131.275 179.961 131.776 179.344 131.776H183.144C183.761 131.776 184.262 131.275 184.262 130.658V95.097C184.262 94.4797 183.761 93.9793 183.144 93.9793Z"
                fill="#1AA483" />
            <path d="M176.736 97.8783H184.262V101.604H176.736V97.8783Z" fill="#FFDA45" />
            <path d="M176.736 124.151H184.262V127.877H176.736V124.151Z" fill="#FFDA45" />
            <path
                d="M180.501 118.746C180.038 118.746 179.663 118.37 179.663 117.907V107.848C179.663 107.385 180.038 107.009 180.501 107.009C180.964 107.009 181.339 107.385 181.339 107.848V117.907C181.339 118.37 180.964 118.746 180.501 118.746Z"
                fill="white" />
        </g>
        <rect x="131" y="261" width="99" height="88" rx="17.6471" fill="white" fill-opacity="0.6" />
        <g clip-path="url(#clip3_898_6849)">
            <path
                d="M196.083 287.583H164.917C162.392 287.579 160.341 289.623 160.337 292.148C160.337 292.354 160.35 292.559 160.377 292.763C160.442 293.265 160.902 293.619 161.404 293.554C161.526 293.538 161.644 293.498 161.751 293.435C162.155 293.2 162.616 293.078 163.083 293.083H169.61C170.788 293.087 171.834 293.836 172.217 294.95L172.373 295.452C173.004 297.319 174.753 298.578 176.723 298.583H197.917C198.397 298.584 198.87 298.71 199.286 298.95C199.427 299.032 199.587 299.075 199.75 299.075C200.256 299.075 200.667 298.664 200.667 298.158V292.167C200.667 289.635 198.615 287.583 196.083 287.583Z"
                fill="#FFA000" />
            <path fill-rule="evenodd" clip-rule="evenodd"
                d="M197.917 296.75C198.724 296.749 199.517 296.963 200.214 297.37C201.633 298.184 202.506 299.697 202.5 301.333V305.167C202.212 304.806 201.904 304.46 201.574 304.13C199.276 301.832 196.161 300.54 192.912 300.536C190.488 300.536 188.119 301.255 186.103 302.602C184.088 303.948 182.517 305.862 181.59 308.102C180.662 310.341 180.419 312.805 180.892 315.183C181.365 317.56 182.532 319.744 184.246 321.458C184.588 321.799 184.949 322.119 185.326 322.417H163.083C160.552 322.417 158.5 320.365 158.5 317.833V295.833C158.5 294.178 159.394 292.651 160.839 291.842C161.521 291.447 162.296 291.242 163.083 291.25H169.61C171.581 291.255 173.33 292.514 173.961 294.381L174.116 294.884C174.499 295.998 175.545 296.747 176.723 296.75H197.917Z"
                fill="#FFC107" />
            <path
                d="M202.537 312.792C202.537 314.695 201.973 316.556 200.915 318.139C199.857 319.722 198.354 320.956 196.595 321.684C194.837 322.413 192.901 322.603 191.034 322.232C189.167 321.86 187.452 320.944 186.106 319.598C184.76 318.252 183.843 316.536 183.472 314.669C183.101 312.802 183.291 310.867 184.02 309.108C184.748 307.35 185.982 305.846 187.565 304.789C189.148 303.731 191.008 303.167 192.912 303.167C195.464 303.17 197.91 304.185 199.715 305.989C201.519 307.793 202.534 310.24 202.537 312.792Z"
                fill="#FFC107" />
            <path
                d="M197.037 307.979V309.354H188.787V307.979C188.787 307.889 188.805 307.799 188.839 307.716C188.874 307.633 188.925 307.557 188.988 307.493C189.052 307.429 189.128 307.379 189.211 307.344C189.295 307.309 189.384 307.292 189.475 307.292H196.35C196.44 307.292 196.529 307.309 196.613 307.344C196.696 307.379 196.772 307.429 196.836 307.493C196.9 307.557 196.95 307.633 196.985 307.716C197.019 307.799 197.037 307.889 197.037 307.979ZM188.787 317.604C188.787 317.734 188.824 317.861 188.893 317.97C188.962 318.08 189.06 318.168 189.177 318.224C189.294 318.28 189.424 318.302 189.553 318.287C189.681 318.273 189.803 318.222 189.904 318.141L192.912 315.735L195.92 318.141C196.021 318.221 196.143 318.272 196.272 318.286C196.401 318.301 196.531 318.279 196.648 318.224C196.765 318.169 196.864 318.081 196.933 317.971C197.002 317.861 197.038 317.734 197.037 317.604V310.729H188.787V317.604Z"
                fill="white" />
        </g>
        <rect x="229" y="163" width="99" height="88" rx="17.6471" fill="white" fill-opacity="0.6" />
        <path
            d="M251.592 197.452L264.143 207.399L263.744 229.568L276.295 217.815L285.444 226.964L305.408 184.432L251.592 197.452Z"
            fill="#48ACFF" />
        <path d="M305.408 184.432L271.157 212.677L263.744 229.568L264.143 207.399L305.408 184.432Z"
            fill="#337FEF" />
        <path d="M276.295 217.815L263.744 229.568L271.157 212.677L276.295 217.815Z"
            fill="#185BD1" />
    </g>
    <defs>
        <linearGradient id="paint0_linear_898_6849" x1="180" y1="-828.5" x2="180" y2="413"
            gradientUnits="userSpaceOnUse">
            <stop stop-color="#F9EAC3" />
            <stop offset="1" stop-color="#F7F5E8" />
        </linearGradient>
        <linearGradient id="paint1_linear_898_6849" x1="188" y1="-855.5" x2="188" y2="386"
            gradientUnits="userSpaceOnUse">
            <stop stop-color="#F6ECC4" />
            <stop offset="1" stop-color="#F9E8C2" />
        </linearGradient>
        <clipPath id="clip0_898_6849">
            <rect width="360" height="413" fill="white" />
        </clipPath>
        <clipPath id="clip1_898_6849">
            <rect width="55.5516" height="55.5516" fill="white"
                transform="translate(54.7242 179.224)" />
        </clipPath>
        <clipPath id="clip2_898_6849">
            <rect width="55.5516" height="55.5516" fill="white"
                transform="translate(152.724 76.2242)" />
        </clipPath>
        <clipPath id="clip3_898_6849">
            <rect width="44" height="44" fill="white" transform="translate(158.5 283)" />
        </clipPath>
    </defs>
</svg>
