<svg width="360" height="413" viewBox="0 0 360 413" fill="none" xmlns="http://www.w3.org/2000/svg">
    <g clip-path="url(#clip0_898_7381)">
        <circle cx="180" cy="112" r="301" fill="#E9FDE9" />
        <circle cx="188" cy="85" r="301" fill="url(#paint0_linear_898_7381)" />
        <circle cx="150" cy="249" r="18" fill="#C2E9C2" />
        <circle cx="190" cy="179" r="18" fill="#C2E9C2" />
        <ellipse cx="319" cy="328.5" rx="11" ry="10.5" fill="#C2E9C2" />
        <ellipse cx="359" cy="258.5" rx="11" ry="10.5" fill="#C2E9C2" />
        <ellipse cx="249" cy="306.5" rx="13" ry="13.5" fill="#C2E9C2" />
        <ellipse cx="289" cy="236.5" rx="13" ry="13.5" fill="#C2E9C2" />
        <circle cx="301" cy="169" r="18" fill="#C2E9C2" />
        <circle cx="341" cy="99" r="18" fill="#C2E9C2" />
        <ellipse cx="174" cy="357.5" rx="10" ry="9.5" fill="#C2E9C2" />
        <ellipse cx="214" cy="287.5" rx="10" ry="9.5" fill="#C2E9C2" />
        <ellipse cx="37.5" cy="290" rx="7.5" ry="7" fill="#C2E9C2" />
        <ellipse cx="77.5" cy="220" rx="7.5" ry="7" fill="#C2E9C2" />
        <ellipse cx="37.5" cy="169" rx="7.5" ry="7" fill="#C2E9C2" />
        <ellipse cx="77.5" cy="99" rx="7.5" ry="7" fill="#C2E9C2" />
        <path
            d="M182.865 191.331H140.445V179.249C140.445 175.245 143.69 172 147.694 172H175.616C179.619 172 182.865 175.245 182.865 179.249V191.331Z"
            fill="url(#paint1_linear_898_7381)" />
        <path
            d="M182.865 191.331H140.445V179.249C140.445 175.245 143.69 172 147.694 172H175.616C179.619 172 182.865 175.245 182.865 179.249V191.331Z"
            fill="url(#paint2_linear_898_7381)" />
        <path
            d="M171.965 191.331H129.545V179.249C129.545 175.245 132.79 172 136.794 172H164.716C168.719 172 171.965 175.245 171.965 179.249V191.331Z"
            fill="url(#paint3_linear_898_7381)" />
        <path
            d="M160.42 185.76V179.249C160.42 175.245 157.175 172 153.171 172H125.249C121.245 172 118 175.245 118 179.249V257.521C118 263.225 122.624 267.848 128.327 267.848H231.673C237.376 267.848 242 263.225 242 257.521V199.242C242 193.538 237.376 188.914 231.673 188.914H163.575C161.833 188.914 160.42 187.502 160.42 185.76Z"
            fill="url(#paint4_linear_898_7381)" />
        <path
            d="M212.171 203.122H209.684C208.258 203.122 207.101 201.965 207.101 200.539V198.052C207.101 196.625 208.258 195.469 209.684 195.469H212.171C213.598 195.469 214.754 196.625 214.754 198.052V200.539C214.754 201.965 213.598 203.122 212.171 203.122Z"
            fill="url(#paint5_linear_898_7381)" />
        <path
            d="M221.929 203.122H219.441C218.015 203.122 216.859 201.965 216.859 200.539V198.052C216.859 196.625 218.015 195.469 219.441 195.469H221.929C223.355 195.469 224.511 196.625 224.511 198.052V200.539C224.511 201.965 223.355 203.122 221.929 203.122Z"
            fill="url(#paint6_linear_898_7381)" />
        <path
            d="M231.686 203.122H229.199C227.772 203.122 226.616 201.965 226.616 200.539V198.052C226.616 196.625 227.772 195.469 229.199 195.469H231.686C233.112 195.469 234.269 196.625 234.269 198.052V200.539C234.269 201.965 233.112 203.122 231.686 203.122Z"
            fill="url(#paint7_linear_898_7381)" />
        <path
            d="M118 246.101V257.521C118 263.225 122.624 267.848 128.327 267.848H231.673C237.376 267.848 242 263.225 242 257.521V246.101H118Z"
            fill="url(#paint8_linear_898_7381)" />
        <path
            d="M225.804 260.078L199.561 216.926C198.446 215.38 196.631 215.103 194.579 215.103H173.16C169.769 215.103 167.75 217.122 167.75 220.513V244.416H158.365C152.262 244.416 179.027 247.828 175.076 253.794L161.762 266.121L224.145 266.83C229.143 266.83 224.85 264.795 225.804 260.078Z"
            fill="url(#paint9_linear_898_7381)" />
        <path
            d="M193.129 212.378H155.84C153.031 212.378 150.755 214.655 150.755 217.463C150.755 220.271 153.031 222.548 155.84 222.548H193.129C195.937 222.548 198.214 220.271 198.214 217.463C198.214 214.655 195.937 212.378 193.129 212.378Z"
            fill="#455A64" />
        <path
            d="M193.129 286.956H155.84C154.904 286.956 154.145 286.197 154.145 285.261V271.074C154.145 266.675 156.044 262.49 159.355 259.593L165.365 254.332C166.069 253.715 166.14 252.644 165.523 251.94C165.474 251.884 165.421 251.832 165.365 251.783L159.355 246.521C156.044 243.625 154.145 239.439 154.145 235.04V220.853C154.145 219.917 154.904 219.158 155.84 219.158H193.129C194.065 219.158 194.824 219.917 194.824 220.853V235.04C194.824 239.439 192.925 243.625 189.614 246.521L183.603 251.783C182.899 252.4 182.829 253.47 183.446 254.174C183.495 254.23 183.548 254.283 183.603 254.332L189.614 259.593C192.925 262.49 194.824 266.675 194.824 271.074V285.261C194.824 286.198 194.065 286.956 193.129 286.956Z"
            fill="#455A64" />
        <path
            d="M157.535 283.566H191.434V271.075C191.43 267.651 189.947 264.395 187.366 262.146L181.356 256.884C179.242 255.035 179.027 251.823 180.876 249.709C181.025 249.539 181.185 249.379 181.356 249.23L187.366 243.969C189.947 241.719 191.43 238.464 191.434 235.04V222.548H157.535V235.04C157.539 238.464 159.022 241.719 161.603 243.969L167.613 249.23C169.726 251.08 169.939 254.292 168.089 256.405C167.941 256.574 167.782 256.733 167.613 256.881L161.603 262.146C159.022 264.395 157.539 267.651 157.535 271.075V283.566Z"
            fill="#ECEFF1" />
        <path
            d="M184.525 240.545C184.263 239.911 183.645 239.498 182.959 239.498H166.01C165.073 239.496 164.313 240.253 164.312 241.19C164.311 241.641 164.49 242.074 164.81 242.393L173.284 250.867C173.946 251.529 175.019 251.529 175.681 250.867L184.156 242.393C184.641 241.908 184.787 241.179 184.525 240.545Z"
            fill="url(#paint10_linear_898_7381)" />
        <path
            d="M193.129 283.566H155.84C153.031 283.566 150.755 285.843 150.755 288.651C150.755 291.46 153.031 293.736 155.84 293.736H193.129C195.937 293.736 198.214 291.46 198.214 288.651C198.214 285.843 195.937 283.566 193.129 283.566Z"
            fill="#455A64" />
        <path
            d="M175.623 265.363C174.954 264.756 173.927 264.782 173.288 265.42L157.535 281.17V283.566H191.434V279.736L175.623 265.363Z"
            fill="url(#paint11_linear_898_7381)" />
    </g>
    <defs>
        <linearGradient id="paint0_linear_898_7381" x1="188" y1="-216" x2="188" y2="386"
            gradientUnits="userSpaceOnUse">
            <stop stop-color="#E3F0E3" />
            <stop offset="1" stop-color="#D4F0D4" />
        </linearGradient>
        <linearGradient id="paint1_linear_898_7381" x1="161.655" y1="176.027" x2="161.655"
            y2="191.34" gradientUnits="userSpaceOnUse">
            <stop stop-color="#FF9100" />
            <stop offset="1" stop-color="#E63950" />
        </linearGradient>
        <linearGradient id="paint2_linear_898_7381" x1="167.244" y1="166.412" x2="156.674"
            y2="182.918" gradientUnits="userSpaceOnUse">
            <stop stop-color="#B9DD39" />
            <stop offset="1" stop-color="#0B799D" />
        </linearGradient>
        <linearGradient id="paint3_linear_898_7381" x1="156.344" y1="166.412" x2="145.774"
            y2="182.918" gradientUnits="userSpaceOnUse">
            <stop stop-color="#B9DD39" />
            <stop offset="1" stop-color="#0B799D" />
        </linearGradient>
        <linearGradient id="paint4_linear_898_7381" x1="158.835" y1="201.186" x2="219.512"
            y2="302.875" gradientUnits="userSpaceOnUse">
            <stop stop-color="#B9DD39" />
            <stop offset="1" stop-color="#0B799D" />
        </linearGradient>
        <linearGradient id="paint5_linear_898_7381" x1="209.621" y1="197.799" x2="214.947"
            y2="204.698" gradientUnits="userSpaceOnUse">
            <stop stop-color="#B9DD39" />
            <stop offset="1" stop-color="#0B799D" />
        </linearGradient>
        <linearGradient id="paint6_linear_898_7381" x1="219.379" y1="197.799" x2="224.704"
            y2="204.698" gradientUnits="userSpaceOnUse">
            <stop stop-color="#B9DD39" />
            <stop offset="1" stop-color="#0B799D" />
        </linearGradient>
        <linearGradient id="paint7_linear_898_7381" x1="229.136" y1="197.799" x2="234.462"
            y2="204.698" gradientUnits="userSpaceOnUse">
            <stop stop-color="#B9DD39" />
            <stop offset="1" stop-color="#0B799D" />
        </linearGradient>
        <linearGradient id="paint8_linear_898_7381" x1="180" y1="255.23" x2="180" y2="275.373"
            gradientUnits="userSpaceOnUse">
            <stop stop-color="#107C48" stop-opacity="0" />
            <stop offset="1" stop-color="#107C48" />
        </linearGradient>
        <linearGradient id="paint9_linear_898_7381" x1="205.962" y1="269.906" x2="158.838"
            y2="239.457" gradientUnits="userSpaceOnUse">
            <stop stop-color="#27965A" stop-opacity="0" />
            <stop offset="1" stop-color="#117B1C" />
        </linearGradient>
        <linearGradient id="paint10_linear_898_7381" x1="171.011" y1="243.111" x2="177.402"
            y2="257.304" gradientUnits="userSpaceOnUse">
            <stop stop-color="#B9DD39" />
            <stop offset="1" stop-color="#0B799D" />
        </linearGradient>
        <linearGradient id="paint11_linear_898_7381" x1="168.698" y1="270.601" x2="178.345"
            y2="293.326" gradientUnits="userSpaceOnUse">
            <stop stop-color="#B9DD39" />
            <stop offset="1" stop-color="#0B799D" />
        </linearGradient>
        <clipPath id="clip0_898_7381">
            <rect width="360" height="413" fill="white" />
        </clipPath>
    </defs>
</svg>
