<svg width="360" height="283" viewBox="0 0 360 283" fill="none" xmlns="http://www.w3.org/2000/svg">
    <g clip-path="url(#clip0_898_6886)">
        <circle cx="180" cy="-18" r="301" fill="url(#paint0_linear_898_6886)" />
        <circle cx="188" cy="-45" r="301" fill="url(#paint1_linear_898_6886)" />
        <circle cx="138" cy="139" r="15" fill="#D6D9F7" />
        <circle cx="278" cy="205" r="9" fill="#D6D9F7" />
        <circle cx="220" cy="187" r="11" fill="#D6D9F7" />
        <circle cx="263" cy="73" r="15" fill="#D6D9F7" />
        <circle cx="158" cy="229" r="8" fill="#D6D9F7" />
        <circle cx="45" cy="173" r="6" fill="#D6D9F7" />
        <circle cx="45" cy="73" r="6" fill="#D6D9F7" />
        <path
            d="M196.078 122.402H199.906C200.922 122.402 201.895 122.805 202.613 123.523C203.331 124.241 203.734 125.215 203.734 126.23V176.57C203.734 177.585 203.331 178.559 202.613 179.277C201.895 179.995 200.922 180.398 199.906 180.398H196.078V122.402Z"
            fill="#596C76" />
        <path
            d="M196.078 180.394C180.018 170.762 161.643 165.674 142.916 165.673H139.996C137.966 165.673 136.018 164.867 134.582 163.431C133.146 161.995 132.34 160.048 132.34 158.017V144.779C132.34 142.748 133.146 140.801 134.582 139.365C136.018 137.929 137.966 137.122 139.996 137.122H142.916C161.643 137.122 180.018 132.034 196.078 122.402V180.394Z"
            fill="#979FEF" />
        <path
            d="M203.734 144.538H206.893C208.111 144.538 209.279 145.022 210.141 145.884C211.002 146.745 211.486 147.914 211.486 149.132V153.668C211.486 154.886 211.002 156.054 210.141 156.916C209.279 157.777 208.111 158.261 206.893 158.261H203.734V144.538Z"
            fill="#FFA800" />
        <path
            d="M143.69 165.686L138.308 197.017C138.232 197.456 138.254 197.907 138.37 198.338C138.487 198.768 138.697 199.168 138.984 199.509C139.272 199.851 139.631 200.125 140.035 200.313C140.44 200.501 140.881 200.598 141.327 200.598H148.32C149.042 200.598 149.741 200.343 150.294 199.877C150.846 199.412 151.216 198.766 151.338 198.054L156.741 166.604C152.415 166.023 148.056 165.717 143.69 165.686Z"
            fill="#596C76" />
        <path
            d="M142.915 143.248H139.996C139.59 143.248 139.201 143.409 138.913 143.696C138.626 143.983 138.465 144.373 138.465 144.779V158.017C138.465 158.423 138.626 158.813 138.913 159.1C139.201 159.387 139.59 159.548 139.996 159.548H142.915C150.915 159.55 158.889 160.428 166.697 162.168V140.628C158.889 142.368 150.915 143.246 142.915 143.248Z"
            fill="#737EE6" />
        <path
            d="M155.456 174.086L153.134 187.601H157.017C157.74 187.601 158.439 187.346 158.991 186.88C159.543 186.414 159.913 185.769 160.036 185.057L161.305 177.667C161.38 177.227 161.359 176.777 161.242 176.346C161.125 175.916 160.916 175.516 160.628 175.175C160.341 174.834 159.982 174.56 159.578 174.372C159.174 174.184 158.733 174.086 158.287 174.086H155.456Z"
            fill="#FFA800" />
        <path
            d="M227.66 152.74H220.1C219.744 152.74 219.403 152.599 219.152 152.348C218.901 152.097 218.76 151.756 218.76 151.401C218.76 151.045 218.901 150.704 219.152 150.453C219.403 150.202 219.744 150.061 220.1 150.061H227.66C228.016 150.061 228.356 150.202 228.608 150.453C228.859 150.704 229 151.045 229 151.401C229 151.756 228.859 152.097 228.608 152.348C228.356 152.599 228.016 152.74 227.66 152.74Z"
            fill="#737EE6" />
        <path
            d="M216.444 143.908C216.179 143.908 215.92 143.83 215.699 143.683C215.479 143.535 215.307 143.326 215.206 143.081C215.104 142.837 215.078 142.567 215.129 142.307C215.181 142.047 215.309 141.809 215.496 141.621L220.842 136.276C220.967 136.151 221.114 136.053 221.277 135.985C221.439 135.918 221.613 135.883 221.789 135.883C221.965 135.883 222.139 135.918 222.302 135.985C222.464 136.053 222.612 136.151 222.736 136.276C222.861 136.4 222.959 136.548 223.027 136.71C223.094 136.873 223.129 137.047 223.129 137.223C223.129 137.399 223.094 137.573 223.027 137.735C222.959 137.898 222.861 138.045 222.736 138.17L217.391 143.516C217.267 143.641 217.119 143.74 216.956 143.807C216.794 143.874 216.62 143.909 216.444 143.908Z"
            fill="#F2F2FC" />
        <path
            d="M216.444 143.908C216.179 143.908 215.92 143.83 215.699 143.683C215.479 143.535 215.307 143.326 215.206 143.081C215.104 142.837 215.078 142.567 215.129 142.307C215.181 142.047 215.309 141.809 215.496 141.621L220.842 136.276C220.967 136.151 221.114 136.053 221.277 135.985C221.439 135.918 221.613 135.883 221.789 135.883C221.965 135.883 222.139 135.918 222.302 135.985C222.464 136.053 222.612 136.151 222.736 136.276C222.861 136.4 222.959 136.548 223.027 136.71C223.094 136.873 223.129 137.047 223.129 137.223C223.129 137.399 223.094 137.573 223.027 137.735C222.959 137.898 222.861 138.045 222.736 138.17L217.391 143.516C217.267 143.641 217.119 143.74 216.956 143.807C216.794 143.874 216.62 143.909 216.444 143.908Z"
            fill="#737EE6" />
        <path
            d="M221.788 166.918C221.612 166.918 221.438 166.883 221.275 166.816C221.113 166.749 220.965 166.65 220.841 166.526L215.494 161.178C215.243 160.927 215.102 160.586 215.102 160.231C215.102 159.876 215.243 159.535 215.494 159.284C215.746 159.032 216.086 158.891 216.442 158.891C216.797 158.891 217.138 159.032 217.389 159.284L222.735 164.631C222.922 164.818 223.05 165.057 223.101 165.317C223.153 165.576 223.126 165.846 223.025 166.09C222.924 166.335 222.752 166.544 222.532 166.692C222.312 166.839 222.053 166.917 221.788 166.918Z"
            fill="#F2F2FC" />
        <path
            d="M221.788 166.918C221.612 166.918 221.438 166.883 221.275 166.816C221.113 166.749 220.965 166.65 220.841 166.526L215.494 161.178C215.243 160.927 215.102 160.586 215.102 160.231C215.102 159.876 215.243 159.535 215.494 159.284C215.746 159.032 216.086 158.891 216.442 158.891C216.797 158.891 217.138 159.032 217.389 159.284L222.735 164.631C222.922 164.818 223.05 165.057 223.101 165.317C223.153 165.576 223.126 165.846 223.025 166.09C222.924 166.335 222.752 166.544 222.532 166.692C222.312 166.839 222.053 166.917 221.788 166.918Z"
            fill="#737EE6" />
    </g>
    <defs>
        <linearGradient id="paint0_linear_898_6886" x1="180" y1="-115" x2="180" y2="283"
            gradientUnits="userSpaceOnUse">
            <stop stop-color="#E9EBFB" />
            <stop offset="1" stop-color="#EEF0FB" />
        </linearGradient>
        <linearGradient id="paint1_linear_898_6886" x1="188" y1="-142" x2="188" y2="256"
            gradientUnits="userSpaceOnUse">
            <stop stop-color="#ECEDFC" />
            <stop offset="1" stop-color="#E3E6F8" />
        </linearGradient>
        <clipPath id="clip0_898_6886">
            <rect width="360" height="283" fill="white" />
        </clipPath>
    </defs>
</svg>
