<svg width="360" height="413" viewBox="0 0 360 413" fill="none" xmlns="http://www.w3.org/2000/svg">
    <g clip-path="url(#clip0_898_6775)">
        <circle cx="180" cy="112" r="301" fill="url(#paint0_linear_898_6775)" />
        <circle cx="188" cy="85" r="301" fill="url(#paint1_linear_898_6775)" />
        <circle cx="150" cy="210" r="18" fill="#A0E4D5" />
        <circle cx="190" cy="140" r="18" fill="#A0E4D5" />
        <ellipse cx="319" cy="289.5" rx="11" ry="10.5" fill="#A0E4D5" />
        <ellipse cx="359" cy="219.5" rx="11" ry="10.5" fill="#A0E4D5" />
        <ellipse cx="249" cy="267.5" rx="13" ry="13.5" fill="#A0E4D5" />
        <ellipse cx="289" cy="197.5" rx="13" ry="13.5" fill="#A0E4D5" />
        <circle cx="301" cy="130" r="18" fill="#A0E4D5" />
        <circle cx="341" cy="60" r="18" fill="#A0E4D5" />
        <ellipse cx="174" cy="318.5" rx="10" ry="9.5" fill="#A0E4D5" />
        <ellipse cx="214" cy="248.5" rx="10" ry="9.5" fill="#A0E4D5" />
        <ellipse cx="37.5" cy="251" rx="7.5" ry="7" fill="#A0E4D5" />
        <ellipse cx="77.5" cy="181" rx="7.5" ry="7" fill="#A0E4D5" />
        <ellipse cx="37.5" cy="130" rx="7.5" ry="7" fill="#A0E4D5" />
        <ellipse cx="77.5" cy="60" rx="7.5" ry="7" fill="#A0E4D5" />
        <g clip-path="url(#clip1_898_6775)">
            <path
                d="M135.692 105.122L144.583 195.047L135.692 302.878C133.867 300.776 131.323 299.726 128.778 299.726C126.238 299.726 123.693 300.777 121.864 302.878L114.095 193.799L121.864 105.122C123.693 107.224 126.238 108.274 128.778 108.274C131.323 108.274 133.867 107.224 135.692 105.122Z"
                fill="#11896C" />
            <path
                d="M119.452 105.122L121.865 121.547V286.453L117.818 302.877H109.866C105.471 302.877 101.906 299.316 101.906 294.921V113.078C101.906 108.684 105.471 105.122 109.866 105.122H119.452Z"
                fill="#129979" />
            <path
                d="M252.273 107.918L254.479 295.49L228.245 299.901L221.311 302.878H135.692V105.122H221.311L252.273 107.918Z"
                fill="#1AA483" />
            <path
                d="M258.094 105.122V302.877H221.312C221.784 301.111 222.722 299.458 224.078 298.102L243.63 278.55C245.12 277.06 245.957 275.038 245.957 272.931V135.069C245.957 132.962 245.12 130.94 243.63 129.45L224.078 109.898C222.722 108.542 221.784 106.889 221.312 105.123L258.094 105.122Z"
                fill="#129979" />
            <path
                d="M263.119 131.475V109.318C263.119 104.172 258.947 100 253.801 100H231.643C229.568 100 228.528 102.509 229.996 103.977L259.142 133.123C260.609 134.591 263.119 133.551 263.119 131.475Z"
                fill="#3ED7B2" />
            <path
                d="M263.119 276.525V298.682C263.119 303.828 258.947 308 253.801 308H231.643C229.568 308 228.528 305.491 229.996 304.023L259.142 274.877C260.609 273.409 263.119 274.449 263.119 276.525Z"
                fill="#3ED7B2" />
            <path
                d="M96.8812 119.887V110.191C96.8812 104.563 101.444 100 107.072 100H119.774C120.93 100 121.866 100.937 121.866 102.093V121.547L99.0132 121.979C97.8424 122.001 96.8812 121.058 96.8812 119.887Z"
                fill="#3ED7B2" />
            <path
                d="M96.8812 288.113V297.809C96.8812 303.437 101.444 308 107.072 308H119.774C120.93 308 121.866 307.063 121.866 305.907V286.453L99.0132 286.021C97.8424 285.999 96.8812 286.942 96.8812 288.113Z"
                fill="#3ED7B2" />
            <path
                d="M218.83 126.047H174.957C174.1 126.047 173.369 126.694 173.293 127.548C172.966 131.234 171.444 134.576 169.117 137.185C166.367 140.267 162.495 142.326 158.143 142.719C157.28 142.797 156.619 143.518 156.619 144.384V263.616C156.619 264.476 157.27 265.203 158.127 265.28C162.086 265.633 165.648 267.365 168.331 269.992C171.099 272.702 172.929 276.365 173.293 280.45C173.369 281.305 174.098 281.953 174.956 281.953H218.829C219.69 281.953 220.416 281.3 220.493 280.442C220.839 276.565 222.508 273.069 225.045 270.406C227.771 267.546 231.499 265.649 235.666 265.279C236.519 265.203 237.166 264.473 237.166 263.616V144.384C237.166 143.52 236.509 142.797 235.648 142.72C231.107 142.312 227.09 140.091 224.323 136.786C222.193 134.241 220.805 131.053 220.492 127.556C220.417 126.699 219.69 126.047 218.83 126.047Z"
                fill="#3ED7B2" />
            <path
                d="M215.762 253.252H178.024C176.29 253.252 174.885 251.847 174.885 250.113C174.885 248.38 176.291 246.974 178.024 246.974H215.762C217.496 246.974 218.9 248.38 218.9 250.113C218.901 251.847 217.496 253.252 215.762 253.252Z"
                fill="#2BAB8C" />
            <path
                d="M207.484 265.659H186.302C184.568 265.659 183.163 264.254 183.163 262.521C183.163 260.787 184.569 259.382 186.302 259.382H207.484C209.217 259.382 210.622 260.787 210.622 262.521C210.622 264.254 209.217 265.659 207.484 265.659Z"
                fill="#2BAB8C" />
            <path
                d="M216.463 222.427L202.958 223.357H176.144C174.988 223.357 174.051 222.421 174.051 221.265V166.334C174.051 165.178 174.988 164.242 176.144 164.242H202.249L216.109 165.185C217.264 165.185 218.201 166.122 218.201 167.278L218.556 220.335C218.556 221.491 217.619 222.427 216.463 222.427Z"
                fill="#2BAB8C" />
            <path
                d="M219.733 166.334V221.264C219.733 222.419 218.796 223.356 217.641 223.356H200.658C204.257 223.356 207.178 220.439 207.178 216.836V170.766C207.178 167.162 204.257 164.242 200.658 164.242H217.641C218.796 164.242 219.733 165.179 219.733 166.334Z"
                fill="#118C6F" />
        </g>
    </g>
    <defs>
        <linearGradient id="paint0_linear_898_6775" x1="180" y1="-828.5" x2="180" y2="413"
            gradientUnits="userSpaceOnUse">
            <stop stop-color="#D6F6EF" />
            <stop offset="1" stop-color="#E4FFF9" />
        </linearGradient>
        <linearGradient id="paint1_linear_898_6775" x1="188" y1="-855.5" x2="188" y2="386"
            gradientUnits="userSpaceOnUse">
            <stop stop-color="#F7FFFD" />
            <stop offset="1" stop-color="#C4F1E6" />
        </linearGradient>
        <clipPath id="clip0_898_6775">
            <rect width="360" height="413" fill="white" />
        </clipPath>
        <clipPath id="clip1_898_6775">
            <rect width="208" height="208" fill="white" transform="translate(76 100)" />
        </clipPath>
    </defs>
</svg>
