<svg width="22" height="24" viewBox="0 0 22 24" fill="none" xmlns="http://www.w3.org/2000/svg">
<path d="M1.849 23.55C2.39504 23.7834 2.99875 23.8467 3.58135 23.7319C4.16396 23.617 4.69841 23.3292 5.115 22.906L11 17.053L16.885 22.906C17.1594 23.1844 17.4863 23.4056 17.8468 23.5568C18.2072 23.7081 18.5941 23.7863 18.985 23.787C19.3868 23.7858 19.7844 23.7053 20.155 23.55C20.7055 23.3272 21.1761 22.9436 21.5052 22.4493C21.8343 21.9549 22.0068 21.3728 22 20.779V5C21.9984 3.67441 21.4711 2.40356 20.5338 1.46622C19.5964 0.528882 18.3256 0.00158786 17 0L5 0C3.6744 0.00158786 2.40356 0.528882 1.46622 1.46622C0.528881 2.40356 0.00158653 3.67441 -1.3299e-06 5V20.779C-0.0064545 21.3733 0.166575 21.9557 0.496462 22.4501C0.826349 22.9445 1.29774 23.3278 1.849 23.55Z" fill="#1AA483"/>
</svg>
