<svg width="24" height="24" viewBox="0 0 24 24" fill="none" xmlns="http://www.w3.org/2000/svg">
<path d="M22.2 1.2684C21.6299 0.749508 20.9611 0.375625 20.242 0.173903C19.523 -0.0278193 18.7718 -0.0523182 18.043 0.102185L16.279 0.573472C15.3584 0.757507 14.5262 1.28786 13.9271 2.07223C13.3279 2.8566 12.9999 3.84533 13 4.86632V21.7399C12.3369 21.8457 11.6631 21.8457 11 21.7399V4.86632C11.0033 3.85474 10.6828 2.87362 10.0939 2.09228C9.50493 1.31095 8.68444 0.778406 7.774 0.586563L5.9 0.089094C5.17916 -0.0548079 4.43813 -0.024091 3.72938 0.17907C3.02062 0.382231 2.36147 0.75287 1.79857 1.26475C1.23567 1.77663 0.782786 2.41724 0.471982 3.14123C0.161178 3.86522 4.88125e-05 4.65489 0 5.45434L0 17.2289C5.74559e-05 18.5061 0.410977 19.7429 1.16113 20.7235C1.91129 21.7042 2.95311 22.3666 4.105 22.5952L10.391 23.8422C11.455 24.0531 12.545 24.0531 13.609 23.8422L19.9 22.5952C21.051 22.3654 22.0916 21.7026 22.8408 20.722C23.5899 19.7415 24.0002 18.5054 24 17.2289V5.45434C24.0005 4.65517 23.8394 3.86571 23.5283 3.14219C23.2171 2.41868 22.7636 1.77889 22.2 1.2684Z" fill="#1AA483"/>
</svg>
