<svg width="24" height="25" viewBox="0 0 24 25" fill="none" xmlns="http://www.w3.org/2000/svg">
<path d="M22.2 1.7684C21.6378 1.25558 20.9791 0.884074 20.2705 0.680258C19.5619 0.476443 18.8209 0.445318 18.1 0.589094L14.278 1.34621C13.3956 1.52299 12.5933 2.01826 12 2.75243C11.4052 2.01699 10.6006 1.52161 9.716 1.34621L5.9 0.589094C5.17916 0.445192 4.43813 0.475909 3.72938 0.67907C3.02062 0.882231 2.36146 1.25287 1.79857 1.76475C1.23567 2.27663 0.782786 2.91724 0.471982 3.64123C0.161178 4.36522 4.88124e-05 5.15489 0 5.95434L0 17.7289C5.74558e-05 19.0061 0.410977 20.2429 1.16113 21.2235C1.91129 22.2042 2.95311 22.8666 4.105 23.0952L10.391 24.3422C11.455 24.5531 12.545 24.5531 13.609 24.3422L19.9 23.0952C21.051 22.8654 22.0916 22.2026 22.8408 21.222C23.5899 20.2415 24.0002 19.0054 24 17.7289V5.95434C24.0005 5.15517 23.8394 4.36571 23.5283 3.64219C23.2171 2.91868 22.7636 2.27889 22.2 1.7684ZM11 22.2399C10.916 22.2268 10.832 22.2115 10.748 22.1952L4.463 20.9493C3.77176 20.8121 3.14659 20.4146 2.69649 19.8261C2.24638 19.2376 1.99989 18.4953 2 17.7289V5.95434C2 5.08634 2.31607 4.25388 2.87868 3.64011C3.44129 3.02633 4.20435 2.68152 5 2.68152C5.18109 2.68199 5.36179 2.69988 5.54 2.73497L9.36 3.49863C9.81961 3.59038 10.2353 3.85479 10.5348 4.24598C10.8344 4.63716 10.999 5.13042 11 5.64015V22.2399ZM22 17.7289C22.0001 18.4953 21.7536 19.2376 21.3035 19.8261C20.8534 20.4146 20.2282 20.8121 19.537 20.9493L13.252 22.1952C13.168 22.2115 13.084 22.2268 13 22.2399V5.64015C12.9999 5.12917 13.1643 4.63436 13.4643 4.24201C13.7644 3.84966 14.1812 3.58465 14.642 3.49318L18.463 2.72952C18.8957 2.64363 19.3405 2.66259 19.7657 2.78506C20.191 2.90753 20.5863 3.13051 20.9238 3.4382C21.2613 3.7459 21.5326 4.13078 21.7186 4.5656C21.9046 5.00041 22.0007 5.47452 22 5.95434V17.7289Z" fill="#5D646E"/>
</svg>
