<svg width="24" height="25" viewBox="0 0 24 25" fill="none" xmlns="http://www.w3.org/2000/svg">
<path d="M23.8613 16.4581C23.6734 18.5378 23.3712 20.2277 23.0037 21.7356C22.7586 23.2435 21.2884 24.5 19.6957 24.5H17.7354C16.6327 24.5 15.7751 23.6204 15.7751 22.4895V17.3377C15.7751 16.0812 14.7949 15.0759 13.5697 15.0759H10.7518C9.52661 15.0759 8.54646 16.0812 8.54646 17.3377V22.4895C8.54646 23.6204 7.68883 24.5 6.58616 24.5H4.2583C2.66556 24.5 1.31785 23.3691 0.950298 21.7356C0.582742 20.1021 0.26406 18.5393 0.0926666 16.4581C-0.124854 13.8169 0.0926666 11.3063 0.215185 9.67278C0.215185 8.66754 0.827779 7.6623 1.68541 7.03403L10.2617 1.12827C10.7518 0.751309 11.3644 0.5 11.977 0.5C12.5896 0.5 13.3247 0.751309 13.8148 1.12827L22.3911 7.03403C23.2487 7.6623 23.8613 8.66754 23.8613 9.67278C23.9838 11.3063 24.0998 13.8191 23.8613 16.4581Z" fill="#1AA483"/>
</svg>
