<svg width="24" height="24" viewBox="0 0 24 24" fill="none" xmlns="http://www.w3.org/2000/svg">
<path fill-rule="evenodd" clip-rule="evenodd" d="M12.8337 2.45414C12.3298 2.10714 11.6702 2.10714 11.1663 2.45414L2.85898 8.17459C2.47144 8.44145 2.23548 8.8715 2.21804 9.33327C2.15773 10.9295 2.09381 13.7248 2.26936 15.7088C2.40179 17.2056 2.75427 19.1841 3.04057 20.6395C3.17353 21.3154 3.76186 21.8062 4.4611 21.8062H8.32845C8.49321 21.8062 8.62678 21.6698 8.62678 21.5015V16.6252C8.62678 15.447 9.56174 14.4919 10.7151 14.4919H13.6394C14.7928 14.4919 15.7277 15.447 15.7277 16.6252V21.5015C15.7277 21.6698 15.8613 21.8062 16.0261 21.8062H19.5389C20.2381 21.8062 20.8265 21.3154 20.9594 20.6395C21.2457 19.1841 21.5982 17.2056 21.7306 15.7088C21.9062 13.7248 21.8423 10.9295 21.782 9.33327C21.7645 8.8715 21.5286 8.44145 21.141 8.17459L12.8337 2.45414ZM10.1658 0.937856C11.2744 0.174443 12.7256 0.174442 13.8342 0.937855L22.1415 6.6583C22.9899 7.24251 23.5306 8.203 23.5706 9.26275C23.6308 10.8572 23.7004 13.7591 23.5133 15.8734C23.3715 17.4761 23.0019 19.5377 22.7143 20.9998C22.4086 22.554 21.0663 23.6348 19.5389 23.6348H16.0261C14.8727 23.6348 13.9378 22.6797 13.9378 21.5015V16.6252C13.9378 16.4569 13.8042 16.3205 13.6394 16.3205H10.7151C10.5503 16.3205 10.4167 16.4569 10.4167 16.6252V21.5015C10.4167 22.6797 9.48178 23.6348 8.32845 23.6348H4.4611C2.93374 23.6348 1.59141 22.554 1.28569 20.9998C0.998074 19.5376 0.628462 17.4761 0.486662 15.8734C0.299587 13.7591 0.369168 10.8572 0.429406 9.26275C0.469443 8.203 1.01012 7.24251 1.85851 6.6583L10.1658 0.937856Z" fill="#5D646E" stroke="#5D646E" stroke-width="0.25" stroke-linecap="round" stroke-linejoin="round"/>
</svg>
