<svg width="24" height="24" viewBox="0 0 24 24" fill="none" xmlns="http://www.w3.org/2000/svg">
<g clip-path="url(#clip0_1545_7296)">
<path d="M1.80859 19.5349C1.317 19.5349 0.909344 19.1554 0.909344 18.6977V6.41861C0.909344 1.49581 2.51599 0 7.80353 0H16.1965C21.484 0 23.0907 1.49581 23.0907 6.41861V17.5814C23.0907 17.76 23.0907 17.9274 23.0787 18.106C23.0427 18.5637 22.5991 18.9209 22.1195 18.8874C21.6279 18.854 21.2442 18.4521 21.2802 17.9944C21.2922 17.8605 21.2922 17.7154 21.2922 17.5814V6.41861C21.2922 2.43349 20.4888 1.67442 16.1965 1.67442H7.80353C3.51115 1.67442 2.70783 2.43349 2.70783 6.41861V18.6977C2.70783 19.1554 2.30017 19.5349 1.80859 19.5349Z" fill="#5D646E"/>
<path d="M17.9949 24H6.00505C3.19941 24 0.909344 21.8679 0.909344 19.2558V18.5302C0.909344 16.3088 2.85171 14.5116 5.22571 14.5116H22.1914C22.683 14.5116 23.0907 14.8912 23.0907 15.3488V19.2558C23.0907 21.8679 20.8006 24 17.9949 24ZM5.22571 16.186C3.83488 16.186 2.70783 17.2353 2.70783 18.5302V19.2558C2.70783 20.9526 4.18259 22.3256 6.00505 22.3256H17.9949C19.8174 22.3256 21.2922 20.9526 21.2922 19.2558V16.186H5.22571Z" fill="#5D646E"/>
<path d="M16.4651 7.25581H7.53488C7.0772 7.25581 6.69767 6.87627 6.69767 6.4186C6.69767 5.96093 7.0772 5.58139 7.53488 5.58139H16.4651C16.9228 5.58139 17.3023 5.96093 17.3023 6.4186C17.3023 6.87627 16.9228 7.25581 16.4651 7.25581Z" fill="#5D646E"/>
<path d="M13.1163 11.1628H7.53488C7.0772 11.1628 6.69767 10.7833 6.69767 10.3256C6.69767 9.86791 7.0772 9.48837 7.53488 9.48837H13.1163C13.574 9.48837 13.9535 9.86791 13.9535 10.3256C13.9535 10.7833 13.574 11.1628 13.1163 11.1628Z" fill="#5D646E"/>
</g>
<defs>
<clipPath id="clip0_1545_7296">
<rect width="24" height="24" fill="white"/>
</clipPath>
</defs>
</svg>
