<svg width="22" height="24" viewBox="0 0 22 24" fill="none" xmlns="http://www.w3.org/2000/svg">
<path d="M14.9 0H7.1C2.2 0 0.699997 1.5 0.699997 6.4V18.5V18.7V19.3C0.699997 21.9 2.8 24 5.5 24H16.7C19.3 24 21.4 21.9 21.4 19.3V17.6V15.4V6.4C21.3 1.5 19.8 0 14.9 0ZM19.7 19.3C19.7 21 18.3 22.4 16.6 22.4H5.4C3.7 22.4 2.3 21 2.3 19.3V18.7V18.5C2.3 17.2 3.3 16.2 4.6 16.2H19.6V17.6C19.6 17.7 19.6 17.9 19.6 18C19.6 18 19.6 18.1 19.6 18.2L19.7 19.3ZM6.5 9.5H12.1C12.6 9.5 12.9 9.9 12.9 10.3C12.9 10.8 12.5 11.1 12.1 11.1H6.5C6 11.1 5.7 10.7 5.7 10.3C5.7 9.9 6.1 9.5 6.5 9.5ZM5.7 6.4C5.7 5.9 6.1 5.6 6.5 5.6H15.4C15.9 5.6 16.2 6 16.2 6.4C16.2 6.9 15.8 7.2 15.4 7.2H6.5C6.1 7.3 5.7 6.9 5.7 6.4Z" fill="#1AA483"/>
</svg>
