<svg width="16" height="15" viewBox="0 0 16 15" fill="none" xmlns="http://www.w3.org/2000/svg">
    <path fill-rule="evenodd" clip-rule="evenodd"
        d="M15.5 7.5C15.5 11.6421 12.1421 15 8 15C3.85786 15 0.5 11.6421 0.5 7.5C0.5 3.35786 3.85786 0 8 0C12.1421 0 15.5 3.35786 15.5 7.5ZM8.625 4.5C8.625 4.15482 8.34518 3.875 8 3.875C7.65482 3.875 7.375 4.15482 7.375 4.5V7.5C7.375 7.84518 7.65482 8.125 8 8.125C8.34518 8.125 8.625 7.84518 8.625 7.5V4.5ZM8 9.875C7.65482 9.875 7.375 10.1548 7.375 10.5C7.375 10.8452 7.65482 11.125 8 11.125H8.0075C8.35268 11.125 8.6325 10.8452 8.6325 10.5C8.6325 10.1548 8.35268 9.875 8.0075 9.875H8Z"
        fill="#1AA483" />
</svg>
