<svg width="14" height="17" viewBox="0 0 14 17" fill="none" xmlns="http://www.w3.org/2000/svg">
    <path
        d="M11.7139 11.9753C12.9651 10.7098 13.6667 9.00192 13.6667 7.22232C13.6667 5.44272 12.9651 3.73489 11.7139 2.46932C11.0976 1.84547 10.3635 1.35017 9.55434 1.01212C8.74515 0.674069 7.8769 0.5 6.99993 0.5C6.12296 0.5 5.25472 0.674069 4.44552 1.01212C3.63633 1.35017 2.90228 1.84547 2.28593 2.46932C1.03189 3.7378 0.330016 5.45051 0.333263 7.23423C0.33651 9.01794 1.04461 10.7281 2.30326 11.992L4.6926 14.218C5.3045 14.823 6.12965 15.1633 6.99014 15.1655C7.85063 15.1678 8.67754 14.8318 9.2926 14.23L11.7139 11.9753ZM7.8946 10.266C7.61657 10.4037 7.31051 10.4753 7.00026 10.4753C6.69002 10.4753 6.38396 10.4037 6.10593 10.266L4.7726 9.59933C4.43955 9.43411 4.15942 9.17892 3.96395 8.86268C3.76847 8.54643 3.66547 8.18177 3.66659 7.80999V5.83332C3.66528 5.4615 3.76813 5.09674 3.96349 4.78038C4.15884 4.46401 4.4389 4.20868 4.77193 4.04332L6.10526 3.37665C6.38316 3.23853 6.68927 3.16665 6.9996 3.16665C7.30993 3.16665 7.61604 3.23853 7.89393 3.37665L9.22727 4.04332C9.56042 4.20859 9.84061 4.46388 10.0361 4.78025C10.2316 5.09663 10.3345 5.46143 10.3333 5.83332V7.81066C10.3345 8.18236 10.2316 8.54698 10.0362 8.86322C9.84085 9.17945 9.56086 9.43468 9.22793 9.59999L7.8946 10.266ZM8.96593 5.62932C8.98781 5.69514 8.99928 5.76397 8.99993 5.83332V7.81066C9.00045 7.93464 8.96618 8.05629 8.90101 8.16176C8.83584 8.26724 8.74238 8.35232 8.63127 8.40732L7.29793 9.07399C7.20522 9.12004 7.10311 9.144 6.9996 9.144C6.89608 9.144 6.79397 9.12004 6.70126 9.07399L5.36793 8.40732C5.25684 8.35217 5.16345 8.26695 5.09839 8.16136C5.03334 8.05576 4.99922 7.93402 4.99993 7.80999V5.83332C5.00099 5.76531 5.01246 5.69786 5.03393 5.63332L6.48726 6.35999C6.64645 6.43956 6.82197 6.48098 6.99993 6.48098C7.17789 6.48098 7.35341 6.43956 7.5126 6.35999L8.96593 5.62932ZM12.3333 15.8333C12.3333 16.0101 12.263 16.1797 12.138 16.3047C12.013 16.4298 11.8434 16.5 11.6666 16.5H2.33326C2.15645 16.5 1.98688 16.4298 1.86185 16.3047C1.73683 16.1797 1.66659 16.0101 1.66659 15.8333C1.66659 15.6565 1.73683 15.487 1.86185 15.3619C1.98688 15.2369 2.15645 15.1667 2.33326 15.1667H11.6666C11.8434 15.1667 12.013 15.2369 12.138 15.3619C12.263 15.487 12.3333 15.6565 12.3333 15.8333Z"
        fill="#1AA483" />
</svg>
