<svg width="14" height="15" viewBox="0 0 14 15" fill="none" xmlns="http://www.w3.org/2000/svg">
    <path
        d="M13.091 1.40901C13.9697 2.28769 13.9697 3.71231 13.091 4.59099C12.2123 5.46967 10.7877 5.46967 9.90901 4.59099C9.03033 3.71231 9.03033 2.28769 9.90901 1.40901C10.7877 0.53033 12.2123 0.53033 13.091 1.40901Z"
        fill="#1AA483" />
    <path fill-rule="evenodd" clip-rule="evenodd"
        d="M8.5927 1.5H6.25H3.85C2.58988 1.5 1.95982 1.5 1.47852 1.74524C1.05516 1.96095 0.71095 2.30516 0.495235 2.72852C0.25 3.20982 0.25 3.83988 0.25 5.1V9C0.25 9.69748 0.25 10.0462 0.326667 10.3323C0.534718 11.1088 1.1412 11.7153 1.91766 11.9233C2.20378 12 2.55252 12 3.25 12V13.7516C3.25 14.1513 3.25 14.3511 3.33192 14.4537C3.40317 14.543 3.5112 14.5949 3.6254 14.5948C3.75672 14.5946 3.91275 14.4698 4.22482 14.2201L6.01391 12.7889L6.01393 12.7889C6.3794 12.4965 6.56213 12.3503 6.76561 12.2463C6.94615 12.1541 7.13832 12.0867 7.33691 12.0459C7.56075 12 7.79477 12 8.26281 12H9.4C10.6601 12 11.2902 12 11.7715 11.7548C12.1948 11.5391 12.539 11.1948 12.7548 10.7715C13 10.2902 13 9.66012 13 8.4V8.25L13.002 5.90646C11.7708 6.54315 10.2198 6.34526 9.18731 5.31281C8.15538 4.28087 7.95718 2.73093 8.5927 1.5Z"
        fill="#1AA483" />
</svg>
