<svg width="18" height="18" viewBox="0 0 18 18" fill="none" xmlns="http://www.w3.org/2000/svg">
<g clip-path="url(#clip0_1588_7305)">
<path d="M2.88309 11.5732L1.18075 14.9774C1.09891 15.1409 1.10769 15.3352 1.20369 15.4907C1.29996 15.646 1.46942 15.7406 1.6522 15.7406H4.21298L5.74942 17.7892C5.84926 17.9228 6.00595 18.0001 6.17088 18.0001C6.38992 18.0001 6.56254 17.8694 6.64274 17.7087L8.24689 14.5003C6.07805 14.2929 4.16588 13.1932 2.88309 11.5732Z" fill="#1AA483"/>
<path d="M16.8099 14.9774L15.1076 11.5732C13.8248 13.1932 11.9126 14.2929 9.74377 14.5003L11.3481 17.7087C11.4281 17.8694 11.6007 18.0001 11.8198 18.0001C11.9847 18.0001 12.1415 17.9228 12.2414 17.7892L13.7777 15.7406H16.3385C16.5212 15.7406 16.6907 15.646 16.787 15.4907C16.883 15.3352 16.8918 15.1409 16.8099 14.9774Z" fill="#1AA483"/>
<path d="M9.87793 5.19072L8.99532 3.78076L8.11298 5.19072C8.0406 5.30635 7.92621 5.38943 7.79396 5.42253L6.18048 5.82614L7.24863 7.1011C7.33624 7.20561 7.37991 7.34006 7.37044 7.47615L7.25549 9.13536L8.79811 8.51353C8.87144 8.48401 9.02141 8.4446 9.19238 8.51353L10.7351 9.13536L10.6203 7.47615C10.611 7.34006 10.6547 7.20561 10.7423 7.1011L11.8104 5.82614L10.1969 5.42253C10.0647 5.38943 9.9503 5.30635 9.87793 5.19072Z" fill="#1AA483"/>
<path d="M15.736 6.74066C15.736 3.02385 12.7121 0 8.9953 0C5.27849 0 2.25464 3.02385 2.25464 6.74066C2.25464 10.4573 5.27849 13.4813 8.9953 13.4813C12.7121 13.4813 15.736 10.4575 15.736 6.74066ZM13.1599 5.8575L11.6872 7.61531L11.8454 9.90294C11.8579 10.0842 11.7764 10.2592 11.6294 10.366C11.4823 10.4727 11.2908 10.4963 11.1223 10.4285L8.9953 9.57115L6.86835 10.4285C6.81136 10.4514 6.58435 10.5281 6.36119 10.366C6.21425 10.2592 6.13268 10.0842 6.14517 9.90294L6.30365 7.61531L4.83093 5.85764C4.7142 5.71825 4.6774 5.52873 4.73357 5.35597C4.78973 5.18321 4.93091 5.05138 5.10724 5.00729L7.3317 4.45084L8.54829 2.50694C8.6447 2.353 8.81361 2.25948 8.9953 2.25948C9.17699 2.25948 9.3459 2.353 9.44231 2.50694L10.6592 4.45084L12.8836 5.00729C13.06 5.05138 13.2011 5.18321 13.2573 5.35597C13.3135 5.52873 13.2767 5.71825 13.1599 5.8575Z" fill="#1AA483"/>
</g>
<defs>
<clipPath id="clip0_1588_7305">
<rect width="18" height="18" fill="white"/>
</clipPath>
</defs>
</svg>
