<svg width="337" height="140" viewBox="0 0 337 140" fill="none" xmlns="http://www.w3.org/2000/svg">
<g clip-path="url(#clip0_12_15656)">
<rect x="0.224609" width="336" height="140" rx="15" fill="#161C23"/>
<g clip-path="url(#clip1_12_15656)">
<path d="M136.824 136.352C136.824 136.352 137.285 147.144 154.828 147.144C172.37 147.144 172.831 136.352 172.831 136.352H136.824Z" fill="#313D4B"/>
<path d="M182.133 86.3984L318.334 86.3984V3.0349L182.133 3.0349V86.3984Z" fill="#232D39"/>
<path d="M178.727 86.3984L317.857 86.3984V3.0349L178.727 3.0349V86.3984Z" fill="#313D4B"/>
<path d="M182.133 89.5898L318.334 89.5898V86.4061L182.133 86.4061V89.5898Z" fill="#E6E6E6"/>
<path d="M173.039 89.5898L312.169 89.5898V86.4061L173.039 86.4061V89.5898Z" fill="#232D39"/>
<path d="M313.076 81.6116V7.83789L183.509 7.83789V81.6116L313.076 81.6116Z" fill="#232D39"/>
<path d="M273.18 81.6116L265.516 7.83789H252.271L259.927 81.6116H273.18Z" fill="#232D39"/>
<path d="M310.855 60.5426C310.903 60.5436 310.952 60.5348 310.997 60.5165C311.042 60.4983 311.083 60.4711 311.118 60.4365C311.152 60.402 311.179 60.3608 311.198 60.3154C311.216 60.27 311.225 60.2214 311.224 60.1725V10.9515C311.211 10.8635 311.167 10.7831 311.1 10.7249C311.033 10.6668 310.947 10.6348 310.858 10.6348C310.77 10.6348 310.684 10.6668 310.617 10.7249C310.55 10.7831 310.506 10.8635 310.493 10.9515V60.1725C310.492 60.2208 310.501 60.2687 310.519 60.3136C310.536 60.3584 310.563 60.3993 310.596 60.4338C310.63 60.4682 310.67 60.4956 310.714 60.5143C310.759 60.533 310.806 60.5426 310.855 60.5426Z" fill="#232D39"/>
<path d="M257.083 81.6116L249.427 7.83789H244.261L251.917 81.6116H257.083Z" fill="#232D39"/>
<path d="M184.116 81.6116V7.83789H183.509V81.6116H184.116Z" fill="#232D39"/>
<path opacity="0.5" d="M177.598 14.0972H314.906L315.344 9.70312H178.036L177.598 14.0972Z" fill="#313D4B"/>
<path opacity="0.5" d="M177.598 21.3198H314.906L315.344 16.9258H178.036L177.598 21.3198Z" fill="#313D4B"/>
<path opacity="0.5" d="M177.598 28.5444H314.906L315.344 24.1504H178.036L177.598 28.5444Z" fill="#313D4B"/>
<path opacity="0.5" d="M177.598 35.7671H314.906L315.344 31.373H178.036L177.598 35.7671Z" fill="#313D4B"/>
<path opacity="0.5" d="M177.598 42.9897H314.906L315.344 38.5957H178.036L177.598 42.9897Z" fill="#313D4B"/>
<path opacity="0.5" d="M177.598 50.2221H314.906L315.344 45.8203H178.036L177.598 50.2221Z" fill="#313D4B"/>
<path d="M66.5099 60.3125L149.485 60.3125V5.22504L66.5099 5.22504V60.3125Z" fill="#232D39"/>
<path d="M61.5138 60.3125L147.303 60.3125V5.22504L61.5138 5.22504V60.3125Z" fill="#313D4B"/>
<path d="M68.7012 14.8757V50.6602L140.115 50.6602V14.8757L68.7012 14.8757Z" fill="#232D39"/>
<path d="M22.5314 127.941L105.507 127.941V72.8539H22.5314V127.941Z" fill="#232D39"/>
<path d="M17.5275 127.941L103.316 127.941V72.8539H17.5275V127.941Z" fill="#313D4B"/>
<path d="M24.7148 82.4987L24.7148 118.283H96.1287V82.4987H24.7148Z" fill="#232D39"/>
</g>
<path d="M132.068 131.216C4.65736 118.402 -3.70244 185.371 8.04398 220.458V261.647H350.368V27.7864C339.842 20.3114 317.143 11.494 310.552 36.0241C302.315 66.6869 291.331 147.234 132.068 131.216Z" fill="#232D39"/>
<g clip-path="url(#clip2_12_15656)">
<path d="M213.012 133.629C257.773 133.629 294.059 131.52 294.059 128.919C294.059 126.318 257.773 124.209 213.012 124.209C168.25 124.209 131.964 126.318 131.964 128.919C131.964 131.52 168.25 133.629 213.012 133.629Z" fill="#232D39"/>
<path d="M278.768 25.9495L278.602 29.3906L279.027 29.411L279.193 25.9698L278.768 25.9495Z" fill="#B64521"/>
<path d="M279.371 13.6623L278.905 23.3125L279.331 23.3329L279.797 13.6827L279.371 13.6623Z" fill="#B64521"/>
<path d="M221.402 8.29893H273.235C273.926 8.29447 274.611 8.43092 275.247 8.69987C275.883 8.96883 276.457 9.36459 276.933 9.86277C277.41 10.361 277.779 10.951 278.018 11.5966C278.257 12.2421 278.36 12.9295 278.322 13.6164L273.063 123.606C272.978 125.032 272.354 126.372 271.316 127.359C270.279 128.345 268.905 128.904 267.47 128.924H215.646C214.955 128.928 214.27 128.792 213.634 128.523C212.998 128.254 212.424 127.858 211.947 127.36C211.47 126.862 211.101 126.272 210.863 125.626C210.624 124.98 210.52 124.293 210.559 123.606L215.796 13.6164C215.88 12.1881 216.505 10.8446 217.546 9.85751C218.586 8.87044 219.964 8.31338 221.402 8.29893Z" fill="#B64521"/>
<path d="M290.913 55.4616L291.034 52.936L289.483 52.4866C289.425 51.6456 289.297 50.8107 289.103 49.9902L290.432 48.975L289.571 46.6408L287.936 46.8238C287.557 46.0778 287.112 45.3664 286.607 44.6977L287.468 43.2706L285.758 41.4856L284.291 42.272C283.638 41.7355 282.939 41.258 282.201 40.8448L282.465 39.2305L280.166 38.2652L279.087 39.5384C278.267 39.2986 277.428 39.1301 276.579 39.0349L276.207 37.4746H273.666L273.143 39.0391C272.279 39.1348 271.425 39.3018 270.589 39.5384L269.636 38.2652L267.245 39.2305L267.349 40.8448C266.585 41.2669 265.854 41.7468 265.163 42.2803L263.771 41.4897L261.89 43.2747L262.618 44.7019C262.049 45.3676 261.536 46.0787 261.083 46.828L259.466 46.6449L258.383 48.9791L259.616 49.9943C259.339 50.8077 259.131 51.6428 258.993 52.4908L257.397 52.9402L257.275 55.4658L258.83 55.9151C258.885 56.7566 259.012 57.5919 259.211 58.4116L257.881 59.4226L258.743 61.7568L260.377 61.5737C260.757 62.3211 261.202 63.0339 261.706 63.7041L260.841 65.127L262.551 66.9162L264.022 66.1256C264.669 66.6602 265.361 67.1378 266.091 67.5528L265.832 69.1671L268.131 70.1366L269.21 68.8592C270.029 69.0975 270.869 69.2645 271.718 69.3585L272.094 70.9271H274.631L275.158 69.3585C276.02 69.2644 276.873 69.0974 277.708 68.8592L278.665 70.1366L281.056 69.1671L280.947 67.5528C281.721 67.1378 282.459 66.6605 283.154 66.1256L284.55 66.9162L286.431 65.127L285.704 63.7041C286.27 63.0348 286.783 62.3225 287.238 61.5737L288.856 61.7568L289.939 59.4226L288.685 58.4116C288.959 57.5975 289.165 56.7626 289.303 55.9151L290.913 55.4616ZM285.014 54.2134C284.852 57.1168 283.587 59.8501 281.475 61.859C279.362 63.8679 276.562 65.002 273.64 65.0313C272.233 65.0452 270.839 64.7709 269.543 64.2252C268.247 63.6796 267.077 62.8745 266.107 61.8598C265.137 60.8451 264.388 59.6427 263.904 58.3273C263.421 57.0118 263.215 55.6115 263.299 54.2134C263.462 51.3096 264.729 48.5762 266.841 46.5674C268.954 44.5586 271.755 43.4246 274.677 43.3954C276.082 43.3822 277.475 43.6566 278.769 44.2014C280.064 44.7463 281.232 45.55 282.201 46.5628C283.17 47.5756 283.92 48.7758 284.404 50.0889C284.888 51.4021 285.096 52.8003 285.014 54.1967V54.2134Z" fill="#B64521"/>
<path d="M273.152 9.6313H221.339C220.265 9.64543 219.236 10.0647 218.46 10.8045C217.685 11.5443 217.22 12.5496 217.159 13.6173L212.152 118.19C212.141 118.368 212.168 118.547 212.23 118.714C212.292 118.882 212.388 119.035 212.511 119.164C212.635 119.293 212.785 119.396 212.95 119.465C213.115 119.534 213.293 119.569 213.472 119.567H270.522C270.895 119.564 271.252 119.42 271.522 119.164C271.791 118.909 271.953 118.56 271.973 118.19L276.964 13.6173C276.997 13.1014 276.923 12.5842 276.746 12.0982C276.569 11.6122 276.293 11.168 275.934 10.7936C275.576 10.4191 275.144 10.1226 274.665 9.92252C274.186 9.72249 273.671 9.62333 273.152 9.6313Z" fill="#232D39"/>
<path opacity="0.2" d="M263.834 114.782H220.645C220.021 114.783 219.403 114.657 218.83 114.413C218.256 114.168 217.738 113.81 217.308 113.36C216.878 112.91 216.544 112.378 216.327 111.795C216.111 111.213 216.015 110.593 216.047 109.972L217.376 82.1742C217.45 80.8882 218.012 79.6782 218.948 78.7885C219.883 77.8987 221.123 77.3957 222.417 77.3809H265.602C266.227 77.3771 266.846 77.5008 267.421 77.7442C267.996 77.9876 268.515 78.3456 268.946 78.7962C269.377 79.2469 269.71 79.7805 269.926 80.3643C270.142 80.9481 270.235 81.5697 270.2 82.1908L268.883 109.989C268.808 111.276 268.245 112.487 267.308 113.376C266.37 114.266 265.129 114.768 263.834 114.782ZM222.409 77.7513C221.214 77.764 220.069 78.2278 219.205 79.0488C218.34 79.8698 217.821 80.9869 217.752 82.1742L216.423 109.972C216.389 110.543 216.473 111.114 216.67 111.651C216.867 112.188 217.173 112.679 217.569 113.092C217.966 113.506 218.443 113.834 218.972 114.056C219.501 114.278 220.071 114.389 220.645 114.383H263.834C265.03 114.37 266.176 113.906 267.041 113.084C267.906 112.262 268.426 111.144 268.495 109.956L269.82 82.1575C269.853 81.5876 269.769 81.0169 269.572 80.4809C269.375 79.9449 269.069 79.455 268.673 79.0417C268.278 78.6284 267.801 78.3005 267.272 78.0785C266.744 77.8565 266.175 77.7451 265.602 77.7513H222.409Z" fill="#B64521"/>
<path opacity="0.1" d="M229.774 79.7266H213.326L211.963 108.245H228.416C229.331 108.232 230.207 107.876 230.868 107.247C231.53 106.618 231.928 105.763 231.981 104.853L233.018 83.1135C233.042 82.6758 232.976 82.2379 232.823 81.8266C232.671 81.4154 232.435 81.0396 232.131 80.7223C231.828 80.405 231.462 80.153 231.056 79.9818C230.651 79.8105 230.215 79.7237 229.774 79.7266Z" fill="#B64521"/>
<path opacity="0.1" d="M251.816 93.5538H240.63C240.404 93.554 240.181 93.5087 239.973 93.4206C239.765 93.3326 239.578 93.2037 239.421 93.0415C239.265 92.8794 239.144 92.6875 239.064 92.4774C238.984 92.2672 238.948 92.0432 238.958 91.8187L239.488 80.6804C239.517 80.2151 239.721 79.7778 240.06 79.456C240.398 79.1342 240.847 78.9518 241.315 78.9453H252.505C252.731 78.9451 252.954 78.9904 253.162 79.0784C253.37 79.1664 253.557 79.2954 253.713 79.4575C253.87 79.6196 253.991 79.8115 254.071 80.0217C254.151 80.2319 254.187 80.4559 254.177 80.6804L253.646 91.8187C253.618 92.2847 253.413 92.7226 253.074 93.0445C252.734 93.3664 252.284 93.5483 251.816 93.5538Z" fill="#B64521"/>
<path opacity="0.1" d="M269.673 84.7832C269 84.7916 268.355 85.054 267.868 85.5174C267.382 85.9807 267.09 86.6105 267.052 87.2797L266.287 103.269C266.268 103.592 266.316 103.914 266.428 104.217C266.539 104.521 266.712 104.798 266.935 105.032C267.158 105.266 267.428 105.452 267.726 105.578C268.024 105.704 268.346 105.768 268.67 105.766H273.423L274.422 84.7915L269.673 84.7832Z" fill="#B64521"/>
<path opacity="0.1" d="M256.342 111.124H245.148C244.922 111.124 244.699 111.079 244.491 110.991C244.284 110.903 244.096 110.774 243.94 110.612C243.784 110.45 243.662 110.258 243.582 110.048C243.503 109.838 243.467 109.613 243.476 109.389L244.007 98.2507C244.035 97.7854 244.239 97.3481 244.578 97.0263C244.917 96.7045 245.365 96.5221 245.834 96.5156H257.02C257.245 96.5154 257.469 96.5607 257.676 96.6487C257.884 96.7367 258.072 96.8657 258.228 97.0278C258.384 97.1899 258.506 97.3819 258.585 97.592C258.665 97.8022 258.701 98.0262 258.692 98.2507L258.161 109.389C258.132 109.853 257.93 110.289 257.593 110.611C257.256 110.932 256.809 111.115 256.342 111.124Z" fill="#B64521"/>
<path opacity="0.2" d="M244.434 123.905C244.394 124.612 244.086 125.278 243.571 125.767C243.056 126.257 242.374 126.532 241.662 126.539C241.321 126.539 240.983 126.47 240.669 126.336C240.356 126.203 240.073 126.006 239.838 125.76C239.603 125.513 239.422 125.221 239.304 124.903C239.186 124.584 239.135 124.244 239.154 123.905C239.194 123.198 239.503 122.534 240.018 122.045C240.533 121.557 241.215 121.282 241.926 121.275C242.267 121.275 242.604 121.344 242.917 121.477C243.231 121.611 243.513 121.807 243.748 122.053C243.983 122.299 244.165 122.59 244.283 122.909C244.4 123.227 244.452 123.566 244.434 123.905Z" fill="#232D39"/>
<path opacity="0.2" d="M268.884 70.9398H219.776C219.559 70.9418 219.344 70.8996 219.144 70.8158C218.944 70.7319 218.764 70.6082 218.614 70.4523C218.464 70.2964 218.348 70.1115 218.272 69.9091C218.197 69.7067 218.164 69.4911 218.175 69.2755L219.642 38.5941C219.669 38.1469 219.865 37.7264 220.191 37.4175C220.516 37.1086 220.948 36.9343 221.398 36.9298H270.497C270.714 36.9277 270.929 36.97 271.128 37.0539C271.328 37.1377 271.508 37.2615 271.658 37.4175C271.808 37.5735 271.923 37.7584 271.998 37.9608C272.074 38.1632 272.106 38.3787 272.094 38.5941L270.631 69.2755C270.604 69.7209 270.409 70.1397 270.085 70.4482C269.761 70.7567 269.332 70.9323 268.884 70.9398Z" fill="#B64521"/>
<path opacity="0.6" d="M271.512 29.5739H221.083C220.952 29.5746 220.822 29.5486 220.701 29.4974C220.58 29.4463 220.471 29.371 220.381 29.2762C220.29 29.1815 220.22 29.0693 220.175 28.9466C220.13 28.8239 220.11 28.6933 220.118 28.5628L220.611 18.2025C220.627 17.9316 220.745 17.6767 220.942 17.4891C221.139 17.3015 221.4 17.1952 221.673 17.1914H272.101C272.233 17.1906 272.363 17.2167 272.484 17.2678C272.604 17.319 272.713 17.3943 272.804 17.489C272.894 17.5838 272.964 17.696 273.01 17.8187C273.055 17.9414 273.074 18.072 273.067 18.2025L272.569 28.5503C272.559 28.8234 272.443 29.0819 272.246 29.2724C272.049 29.4629 271.786 29.5709 271.512 29.5739Z" fill="#B64521"/>
<path d="M225.344 47.2188H222.677L221.782 66.042H224.445L225.344 47.2188Z" fill="#B64521"/>
<path d="M230.372 54.1465H227.709L227.141 66.0421H229.803L230.372 54.1465Z" fill="#B64521"/>
<path d="M235.543 58.1406H232.88L232.504 66.0419H235.167L235.543 58.1406Z" fill="#B64521"/>
<path d="M240.713 62.0898H238.05L237.862 66.0426H240.525L240.713 62.0898Z" fill="#B64521"/>
<path d="M246.57 51.75H243.907L243.222 66.0422H245.889L246.57 51.75Z" fill="#B64521"/>
<path d="M252.297 44.1152H249.63L248.585 66.0425H251.248L252.297 44.1152Z" fill="#B64521"/>
<path d="M257.768 41.8066H255.101L253.943 66.0431H256.61L257.768 41.8066Z" fill="#B64521"/>
<path d="M262.68 51.2168H260.013L259.307 66.0416H261.969L262.68 51.2168Z" fill="#B64521"/>
<path d="M267.808 56.0098H265.146L264.665 66.0414H267.332L267.808 56.0098Z" fill="#B64521"/>
<path d="M225.883 102.42H204.038C203.597 102.423 203.161 102.336 202.756 102.165C202.35 101.994 201.984 101.742 201.68 101.425C201.376 101.107 201.141 100.732 200.989 100.32C200.836 99.9091 200.77 99.4711 200.794 99.0334L201.835 77.2934C201.888 76.3843 202.286 75.5292 202.948 74.9001C203.609 74.271 204.485 73.9145 205.4 73.9024H227.241C227.682 73.8995 228.119 73.9864 228.524 74.1579C228.93 74.3294 229.296 74.5818 229.6 74.8995C229.904 75.2172 230.139 75.5935 230.292 76.0053C230.444 76.417 230.51 76.8554 230.485 77.2934L229.448 99.0334C229.394 99.9418 228.995 100.796 228.334 101.424C227.673 102.052 226.797 102.408 225.883 102.42Z" fill="#B64521"/>
<path opacity="0.8" d="M225.883 102.42H204.038C203.597 102.423 203.161 102.336 202.756 102.165C202.35 101.994 201.984 101.742 201.68 101.425C201.376 101.107 201.141 100.732 200.989 100.32C200.836 99.9091 200.77 99.4711 200.794 99.0334L201.835 77.2934C201.888 76.3843 202.286 75.5292 202.948 74.9001C203.609 74.271 204.485 73.9145 205.4 73.9024H227.241C227.682 73.8995 228.119 73.9864 228.524 74.1579C228.93 74.3294 229.296 74.5818 229.6 74.8995C229.904 75.2172 230.139 75.5935 230.292 76.0053C230.444 76.417 230.51 76.8554 230.485 77.2934L229.448 99.0334C229.394 99.9418 228.995 100.796 228.334 101.424C227.673 102.052 226.797 102.408 225.883 102.42Z" fill="#232D39"/>
<path d="M225.774 89.8215L225.933 86.4929L224.378 85.4693C224.231 84.9111 224.025 84.37 223.764 83.855L224.182 82.2739L221.937 79.9272L220.336 80.2725C219.83 79.9899 219.296 79.7598 218.743 79.586L217.79 77.9883H214.446L213.343 79.586C212.764 79.7604 212.204 79.9903 211.671 80.2725L210.103 79.9272L207.628 82.2739L207.9 83.8508C207.592 84.3659 207.334 84.9093 207.131 85.4735L205.484 86.4929L205.325 89.8215L206.876 90.845C207.024 91.4043 207.23 91.9468 207.49 92.4636L207.072 94.0405L209.321 96.3913L210.922 96.046C211.428 96.3269 211.96 96.5569 212.511 96.7325L213.464 98.3261H216.808L217.916 96.7325C218.493 96.5558 219.053 96.326 219.588 96.046L221.155 96.3913L223.63 94.0405L223.358 92.4636C223.665 91.9495 223.923 91.4076 224.127 90.845L225.774 89.8215ZM215.449 92.1474C214.93 92.1553 214.415 92.0562 213.937 91.8565C213.458 91.6567 213.026 91.3605 212.668 90.9865C212.31 90.6125 212.034 90.1688 211.856 89.6833C211.679 89.1979 211.604 88.6811 211.637 88.1655C211.697 87.0978 212.162 86.0925 212.938 85.3527C213.714 84.6129 214.743 84.1936 215.817 84.1795C216.337 84.1715 216.852 84.2707 217.331 84.4707C217.81 84.6707 218.242 84.9673 218.6 85.3418C218.958 85.7162 219.234 86.1604 219.412 86.6464C219.589 87.1324 219.663 87.6496 219.629 88.1655C219.568 89.2325 219.103 90.2367 218.327 90.9757C217.551 91.7146 216.523 92.1333 215.449 92.1474Z" fill="#3D4F64"/>
<path d="M249.078 88.5108H237.892C237.666 88.511 237.443 88.4656 237.235 88.3773C237.027 88.289 236.839 88.1597 236.683 87.9971C236.526 87.8346 236.405 87.6422 236.325 87.4315C236.246 87.2209 236.21 86.9964 236.22 86.7716L236.751 75.6374C236.78 75.1722 236.984 74.7348 237.323 74.413C237.661 74.0912 238.11 73.9088 238.578 73.9023H249.768C249.994 73.9021 250.217 73.9474 250.425 74.0354C250.632 74.1235 250.82 74.2524 250.976 74.4145C251.132 74.5767 251.254 74.7686 251.334 74.9787C251.414 75.1889 251.45 75.4129 251.44 75.6374L250.909 86.7716C250.882 87.2383 250.678 87.6772 250.338 88C249.998 88.3227 249.548 88.5053 249.078 88.5108Z" fill="#B64521"/>
<path opacity="0.6" d="M249.078 88.5108H237.892C237.666 88.511 237.443 88.4656 237.235 88.3773C237.027 88.289 236.839 88.1597 236.683 87.9971C236.526 87.8346 236.405 87.6422 236.325 87.4315C236.246 87.2209 236.21 86.9964 236.22 86.7716L236.751 75.6374C236.78 75.1722 236.984 74.7348 237.323 74.413C237.661 74.0912 238.11 73.9088 238.578 73.9023H249.768C249.994 73.9021 250.217 73.9474 250.425 74.0354C250.632 74.1235 250.82 74.2524 250.976 74.4145C251.132 74.5767 251.254 74.7686 251.334 74.9787C251.414 75.1889 251.45 75.4129 251.44 75.6374L250.909 86.7716C250.882 87.2383 250.678 87.6772 250.338 88C249.998 88.3227 249.548 88.5053 249.078 88.5108Z" fill="#232D39"/>
<path d="M282 100.714H265.932C265.607 100.716 265.286 100.652 264.988 100.526C264.689 100.399 264.42 100.213 264.197 99.9793C263.973 99.7453 263.801 99.4682 263.689 99.1651C263.578 98.862 263.53 98.5393 263.549 98.2171L264.314 82.2231C264.352 81.554 264.644 80.9242 265.13 80.4608C265.617 79.9974 266.262 79.7351 266.935 79.7267H282.999C283.323 79.7238 283.645 79.7874 283.944 79.9134C284.243 80.0395 284.513 80.2253 284.737 80.4594C284.96 80.6934 285.133 80.9707 285.245 81.2741C285.357 81.5775 285.405 81.9005 285.386 82.2231L284.621 98.2129C284.584 98.8828 284.292 99.5136 283.806 99.9779C283.319 100.442 282.674 100.705 282 100.714Z" fill="#B64521"/>
<path opacity="0.4" d="M282 100.714H265.932C265.607 100.716 265.286 100.652 264.988 100.526C264.689 100.399 264.42 100.213 264.197 99.9793C263.973 99.7453 263.801 99.4682 263.689 99.1651C263.578 98.862 263.53 98.5393 263.549 98.2171L264.314 82.2231C264.352 81.554 264.644 80.9242 265.13 80.4608C265.617 79.9974 266.262 79.7351 266.935 79.7267H282.999C283.323 79.7238 283.645 79.7874 283.944 79.9134C284.243 80.0395 284.513 80.2253 284.737 80.4594C284.96 80.6934 285.133 80.9707 285.245 81.2741C285.357 81.5775 285.405 81.9005 285.386 82.2231L284.621 98.2129C284.584 98.8828 284.292 99.5136 283.806 99.9779C283.319 100.442 282.674 100.705 282 100.714Z" fill="#232D39"/>
<path d="M279.735 90.2239L271.597 85.4141L271.137 95.0296L279.735 90.2239Z" fill="#3D4F64"/>
<path d="M253.601 106.077H242.411C242.185 106.077 241.962 106.032 241.754 105.944C241.547 105.856 241.359 105.727 241.203 105.565C241.046 105.403 240.925 105.211 240.845 105.001C240.765 104.79 240.729 104.566 240.739 104.342L241.295 93.2077C241.323 92.7424 241.527 92.3051 241.866 91.9833C242.205 91.6616 242.653 91.4791 243.121 91.4727H254.295C254.521 91.4725 254.744 91.5177 254.952 91.6058C255.159 91.6938 255.347 91.8227 255.503 91.9849C255.659 92.147 255.781 92.3389 255.861 92.549C255.94 92.7592 255.976 92.9832 255.967 93.2077L255.436 104.342C255.408 104.809 255.203 105.248 254.863 105.57C254.522 105.892 254.071 106.074 253.601 106.077Z" fill="#B64521"/>
<path opacity="0.4" d="M253.601 106.077H242.411C242.185 106.077 241.962 106.032 241.754 105.944C241.547 105.856 241.359 105.727 241.203 105.565C241.046 105.403 240.925 105.211 240.845 105.001C240.765 104.79 240.729 104.566 240.739 104.342L241.295 93.2077C241.323 92.7424 241.527 92.3051 241.866 91.9833C242.205 91.6616 242.653 91.4791 243.121 91.4727H254.295C254.521 91.4725 254.744 91.5177 254.952 91.6058C255.159 91.6938 255.347 91.8227 255.503 91.9849C255.659 92.147 255.781 92.3389 255.861 92.549C255.94 92.7592 255.976 92.9832 255.967 93.2077L255.436 104.342C255.408 104.809 255.203 105.248 254.863 105.57C254.522 105.892 254.071 106.074 253.601 106.077Z" fill="#232D39"/>
<path d="M246.988 103.027L243.017 98.8748L243.94 97.9969L247.034 101.23L252.932 95.6211L253.814 96.5406L246.988 103.027Z" fill="#3D4F64"/>
<path d="M97.617 81.781L92.9754 77.1609C92.4896 76.6758 92.2168 76.0188 92.2168 75.3339C92.2168 74.6489 92.4896 73.9919 92.9754 73.5069C93.464 73.0257 94.1236 72.7559 94.8109 72.7559C95.4982 72.7559 96.1578 73.0257 96.6464 73.5069L101.288 78.127C101.771 78.6133 102.042 79.2698 102.042 79.954C102.042 80.6381 101.771 81.2946 101.288 81.781C100.801 82.2646 100.141 82.5361 99.4525 82.5361C98.7644 82.5361 98.1043 82.2646 97.617 81.781Z" fill="#3D4F64"/>
<path d="M97.5451 77.6126L97.1575 77.2268C96.3327 76.4058 94.9954 76.4058 94.1706 77.2268L91.1801 80.2035C90.3553 81.0245 90.3553 82.3556 91.1801 83.1766L91.5677 83.5624C92.3925 84.3834 93.7298 84.3834 94.5546 83.5624L97.5451 80.5857C98.3699 79.7647 98.3699 78.4336 97.5451 77.6126Z" fill="#3D4F64"/>
<path d="M51.1055 127.771L46.7757 123.462C46.6519 123.341 46.5536 123.197 46.4865 123.038C46.4193 122.879 46.3848 122.708 46.3848 122.536C46.3848 122.363 46.4193 122.192 46.4865 122.033C46.5536 121.874 46.6519 121.73 46.7757 121.61L90.8529 79.2778C91.0971 79.0408 91.4246 78.9082 91.7657 78.9082C92.1067 78.9082 92.4342 79.0408 92.6784 79.2778L95.4593 82.0458C95.6985 82.2883 95.8326 82.6145 95.8326 82.9543C95.8326 83.2942 95.6985 83.6204 95.4593 83.8629L52.9309 127.736C52.692 127.979 52.3668 128.119 52.0254 128.126C51.684 128.132 51.3536 128.005 51.1055 127.771Z" fill="#3D4F64"/>
<path d="M96.3699 71.409C95.3213 69.9254 94.4219 68.3427 93.6846 66.6838L94.8764 41.6562C94.8764 41.486 94.8764 41.3208 94.9116 41.1556C95.2031 38.2818 96.499 35.601 98.5733 33.5811C100.648 31.5612 103.369 30.3304 106.262 30.1034C106.528 30.1034 106.795 30.0684 107.061 30.0684H133.165C134.719 30.8997 136.193 31.8698 137.571 32.9666C140.698 35.4621 143.262 38.5859 145.096 42.1342C146.929 45.6826 147.99 49.5757 148.209 53.5597C148.429 57.5437 147.803 61.5291 146.371 65.2558C144.939 68.9825 142.734 72.3669 139.899 75.1882C139.462 75.6237 139.024 76.0341 138.566 76.4296C135.554 79.0651 132.017 81.0387 128.187 82.2215C124.357 83.4044 120.319 83.7699 116.337 83.2943C112.355 82.8186 108.518 81.5124 105.078 79.461C101.637 77.4096 98.6702 74.6591 96.3699 71.389V71.409Z" fill="#B64521"/>
<path d="M99.5725 75.208C98.3956 74.0368 97.3237 72.7656 96.3691 71.4088L97.7873 41.6759C97.9174 39.3435 98.934 37.1477 100.631 35.534C102.328 33.9202 104.578 33.0094 106.925 32.9863H137.57C140.698 35.4819 143.262 38.6057 145.095 42.154C146.928 45.7024 147.989 49.5955 148.209 53.5795C148.428 57.5635 147.802 61.5488 146.37 65.2756C144.938 69.0023 142.733 72.3867 139.898 75.208C139.461 75.6435 139.023 76.0539 138.566 76.4494C133.125 81.2144 126.065 83.7382 118.822 83.5076C111.579 83.277 104.696 80.3093 99.5725 75.208Z" fill="#232D39"/>
<path opacity="0.6" d="M139.899 75.208C139.461 75.6435 139.024 76.054 138.566 76.4494H106.382C106.096 76.4519 105.812 76.396 105.549 76.2851C105.285 76.1743 105.048 76.0108 104.85 75.8049C104.653 75.5989 104.5 75.3549 104.401 75.0878C104.302 74.8207 104.259 74.5362 104.275 74.252L105.341 51.667C105.374 51.0782 105.631 50.5239 106.06 50.1168C106.488 49.7096 107.057 49.48 107.649 49.4746H147.673C148.618 54.0693 148.403 58.8258 147.046 63.3172C145.689 67.8086 143.233 71.8944 139.899 75.208Z" fill="#B64521"/>
<path opacity="0.5" d="M99.5731 75.213C95.584 71.2434 92.8672 66.1854 91.7663 60.6788C90.6653 55.1722 91.2297 49.4643 93.3879 44.277C95.5462 39.0896 99.2014 34.6559 103.891 31.5364C108.581 28.417 114.095 26.752 119.736 26.752C125.377 26.752 130.891 28.417 135.581 31.5364C140.271 34.6559 143.926 39.0896 146.084 44.277C148.242 49.4643 148.807 55.1722 147.706 60.6788C146.605 66.1854 143.888 71.2434 139.899 75.213C134.55 80.5337 127.298 83.5226 119.736 83.5226C112.174 83.5226 104.922 80.5337 99.5731 75.213Z" fill="black"/>
<path d="M130.792 59.1354C126.658 63.2499 121.951 62.9196 118.843 59.8211C115.736 56.7227 115.399 52.0626 119.532 47.928C123.666 43.7934 129.54 42.9875 132.647 46.0809C135.755 49.1744 134.925 55.0208 130.792 59.1354Z" fill="#3D4F64"/>
<path d="M129.645 49.0604C128.005 47.4236 127.674 45.106 128.906 43.8797C130.138 42.6533 132.466 42.9837 134.11 44.6155C135.755 46.2473 136.077 48.5648 134.845 49.7912C133.613 51.0175 131.284 50.7072 129.645 49.0604Z" fill="#3D4F64"/>
<path d="M128.332 51.0077C128.234 51.0054 128.137 50.9807 128.05 50.9356C127.963 50.8905 127.888 50.8261 127.829 50.7474L122.624 43.5194C122.533 43.3916 122.494 43.2344 122.514 43.079L123.042 38.624C123.048 38.5386 123.072 38.4553 123.112 38.3793C123.152 38.3033 123.207 38.236 123.273 38.1816C123.34 38.1272 123.417 38.0868 123.499 38.0627C123.582 38.0386 123.669 38.0314 123.754 38.0416C123.84 38.0517 123.922 38.0789 123.997 38.1216C124.071 38.1644 124.137 38.2216 124.189 38.2901C124.24 38.3585 124.278 38.4367 124.298 38.5199C124.319 38.6031 124.323 38.6896 124.309 38.7742L123.806 42.9838L128.865 49.9916C128.964 50.1284 129.004 50.2985 128.976 50.4646C128.949 50.6307 128.856 50.7792 128.719 50.8776C128.608 50.9627 128.472 51.0085 128.332 51.0077Z" fill="#3D4F64"/>
<path d="M135.594 56.1877C135.461 56.1888 135.331 56.1486 135.222 56.0725L127.971 50.8918C127.895 50.847 127.829 50.7869 127.777 50.7153C127.725 50.6438 127.689 50.5624 127.671 50.4762C127.653 50.39 127.653 50.301 127.671 50.2148C127.689 50.1286 127.725 50.0471 127.776 49.9754C127.827 49.9038 127.893 49.8435 127.969 49.7984C128.045 49.7534 128.13 49.7246 128.218 49.7138C128.305 49.703 128.395 49.7105 128.479 49.7358C128.564 49.761 128.643 49.8036 128.71 49.8607L135.75 54.8962L139.979 54.3957C140.144 54.3831 140.307 54.4342 140.434 54.5383C140.561 54.6424 140.643 54.7915 140.663 54.9544C140.682 55.1172 140.638 55.2813 140.538 55.4122C140.439 55.5432 140.293 55.6309 140.13 55.6571L135.655 56.1576L135.594 56.1877Z" fill="#3D4F64"/>
<path d="M124.179 55.1414C124.047 55.1425 123.919 55.1023 123.812 55.0263L116.771 49.9857L112.542 50.4863C112.375 50.5062 112.206 50.4591 112.074 50.3554C111.941 50.2517 111.856 50.0998 111.836 49.9332C111.816 49.7666 111.863 49.5989 111.967 49.467C112.071 49.3351 112.224 49.2498 112.391 49.2299L116.867 48.6993C117.025 48.6817 117.184 48.7227 117.314 48.8144L124.571 53.9952C124.681 54.0727 124.764 54.1834 124.807 54.311C124.85 54.4387 124.851 54.5766 124.809 54.7047C124.767 54.8328 124.686 54.9443 124.576 55.0228C124.466 55.1014 124.334 55.143 124.199 55.1414H124.179Z" fill="#3D4F64"/>
<path d="M128.855 66.8192H128.78C128.697 66.8098 128.617 66.7843 128.544 66.744C128.471 66.7037 128.406 66.6494 128.355 66.5843C128.303 66.5192 128.264 66.4445 128.242 66.3645C128.219 66.2846 128.212 66.2009 128.222 66.1184L128.725 61.9087L123.661 54.901C123.564 54.7631 123.526 54.593 123.554 54.4273C123.582 54.2615 123.675 54.1135 123.812 54.015C123.879 53.9666 123.956 53.932 124.037 53.9131C124.118 53.8942 124.202 53.8914 124.284 53.9049C124.367 53.9184 124.445 53.9478 124.516 53.9917C124.587 54.0355 124.648 54.0927 124.697 54.1602L129.901 61.3832C129.996 61.5114 130.037 61.6709 130.017 61.8286L129.484 66.2836C129.461 66.433 129.385 66.5693 129.27 66.6676C129.154 66.7659 129.007 66.8197 128.855 66.8192Z" fill="#3D4F64"/>
<path d="M135.966 62.7388C135.882 62.7391 135.799 62.7229 135.722 62.6911C135.644 62.6593 135.573 62.6126 135.514 62.5536L116.098 43.2273C115.979 43.1082 115.912 42.9471 115.912 42.7793C115.912 42.6114 115.979 42.4504 116.098 42.3313C116.157 42.2721 116.227 42.2251 116.304 42.1931C116.381 42.161 116.464 42.1445 116.548 42.1445C116.631 42.1445 116.714 42.161 116.792 42.1931C116.869 42.2251 116.939 42.2721 116.998 42.3313L136.414 61.6576C136.473 61.7163 136.521 61.7861 136.553 61.863C136.585 61.9399 136.602 62.0223 136.602 62.1056C136.602 62.1889 136.585 62.2714 136.553 62.3483C136.521 62.4252 136.473 62.495 136.414 62.5536C136.356 62.6129 136.286 62.6599 136.209 62.6917C136.132 62.7235 136.05 62.7396 135.966 62.7388Z" fill="#3D4F64"/>
<path d="M133.356 46.0116C133.268 46.012 133.181 45.995 133.099 45.9616C132.945 45.8945 132.824 45.7696 132.762 45.614C132.7 45.4585 132.702 45.2848 132.767 45.1307C133.134 44.1986 133.178 43.1716 132.893 42.2117C132.608 41.2518 132.01 40.4138 131.193 39.8298C131.084 39.7209 131.018 39.576 131.007 39.4222C130.997 39.2684 131.043 39.116 131.137 38.9936C131.231 38.8711 131.367 38.7869 131.519 38.7566C131.671 38.7262 131.828 38.7519 131.963 38.8287C133.008 39.5823 133.77 40.6621 134.129 41.8965C134.487 43.1308 134.42 44.4489 133.939 45.6412C133.888 45.7522 133.806 45.8462 133.702 45.9119C133.599 45.9776 133.478 46.0122 133.356 46.0116Z" fill="#3D4F64"/>
<path d="M139.436 47.7789C139.338 47.7786 139.242 47.7558 139.155 47.7124C139.068 47.6689 138.992 47.6061 138.933 47.5287C138.346 46.7157 137.504 46.1205 136.54 45.8367C135.576 45.553 134.544 45.5971 133.607 45.9619C133.453 46.0283 133.278 46.0308 133.121 45.9688C132.965 45.9069 132.839 45.7856 132.773 45.6316C132.706 45.4776 132.703 45.3035 132.766 45.1477C132.828 44.9919 132.95 44.867 133.104 44.8006C134.302 44.3215 135.626 44.2543 136.866 44.6098C138.106 44.9653 139.191 45.7231 139.949 46.7628C139.999 46.8291 140.036 46.9047 140.057 46.9852C140.078 47.0657 140.083 47.1495 140.071 47.2318C140.059 47.3142 140.031 47.3934 139.989 47.465C139.946 47.5365 139.89 47.599 139.823 47.6488C139.713 47.7361 139.576 47.7821 139.436 47.7789Z" fill="#3D4F64"/>
<path d="M142.348 32.6367C137.876 28.1862 132.179 25.1554 125.977 23.9277C119.775 22.7 113.346 23.3304 107.504 25.7393C101.662 28.1481 96.6689 32.2272 93.1558 37.4608C89.6427 42.6943 87.7676 48.8473 87.7676 55.1416C87.7676 61.4359 89.6427 67.5888 93.1558 72.8224C96.6689 78.0559 101.662 82.135 107.504 84.5439C113.346 86.9528 119.775 87.5832 125.977 86.3555C132.179 85.1277 137.876 82.097 142.348 77.6465C145.317 74.6912 147.672 71.1827 149.279 67.3213C150.886 63.4598 151.714 59.3212 151.714 55.1416C151.714 50.962 150.886 46.8233 149.279 42.9619C147.672 39.1005 145.317 35.592 142.348 32.6367ZM100.674 74.1175C96.9025 70.3642 94.3337 65.5819 93.2927 60.3753C92.2517 55.1687 92.7853 49.7718 94.8259 44.8671C96.8666 39.9624 100.323 35.7702 104.757 32.8207C109.191 29.8712 114.405 28.2969 119.738 28.2969C125.072 28.2969 130.285 29.8712 134.72 32.8207C139.154 35.7702 142.61 39.9624 144.651 44.8671C146.691 49.7718 147.225 55.1687 146.184 60.3753C145.143 65.5819 142.574 70.3642 138.802 74.1175C136.299 76.6097 133.327 78.5866 130.056 79.9353C126.785 81.284 123.279 81.9782 119.738 81.9782C116.198 81.9782 112.692 81.284 109.421 79.9353C106.15 78.5866 103.178 76.6097 100.674 74.1175Z" fill="#B64521"/>
</g>
</g>
<rect x="1.72461" y="1.5" width="333" height="137" rx="13.5" stroke="#E53935" stroke-opacity="0.4" stroke-width="3"/>
<defs>
<clipPath id="clip0_12_15656">
<rect x="0.224609" width="336" height="140" rx="15" fill="white"/>
</clipPath>
<clipPath id="clip1_12_15656">
<rect width="300.815" height="236.916" fill="white" transform="translate(17.5273 3.04297)"/>
</clipPath>
<clipPath id="clip2_12_15656">
<rect width="262.784" height="140.634" fill="white" transform="translate(36.333 -7)"/>
</clipPath>
</defs>
</svg>
