<svg width="336" height="140" viewBox="0 0 336 140" fill="none" xmlns="http://www.w3.org/2000/svg">
<g clip-path="url(#clip0_1349_7644)">
<rect width="336" height="140" rx="15" fill="white"/>
<g clip-path="url(#clip1_1349_7644)">
<path d="M136.6 136.351C136.6 136.351 137.061 147.143 154.603 147.143C172.146 147.143 172.607 136.351 172.607 136.351H136.6Z" fill="#F5F5F5"/>
<path d="M181.908 86.3979L318.11 86.3979V3.03442L181.908 3.03442V86.3979Z" fill="#E6E6E6"/>
<path d="M178.503 86.3979L317.633 86.3979V3.03442L178.503 3.03442V86.3979Z" fill="#F0F0F0"/>
<path d="M181.908 89.5894L318.11 89.5894V86.4056L181.908 86.4056V89.5894Z" fill="#E6E6E6"/>
<path d="M172.814 89.5894L311.945 89.5894V86.4056L172.814 86.4056V89.5894Z" fill="#F0F0F0"/>
<path d="M312.852 81.6106V7.83691L183.284 7.83691V81.6106L312.852 81.6106Z" fill="#FAFAFA"/>
<path d="M272.955 81.6106L265.291 7.83691H252.046L259.703 81.6106H272.955Z" fill="white"/>
<path d="M310.63 60.5421C310.679 60.5431 310.727 60.5343 310.773 60.5161C310.818 60.4978 310.859 60.4706 310.893 60.436C310.928 60.4015 310.955 60.3603 310.973 60.3149C310.991 60.2695 311 60.2209 310.999 60.1721V10.951C310.986 10.8631 310.942 10.7826 310.875 10.7245C310.808 10.6663 310.723 10.6343 310.634 10.6343C310.545 10.6343 310.46 10.6663 310.393 10.7245C310.326 10.7826 310.282 10.8631 310.269 10.951V60.1721C310.268 60.2203 310.276 60.2682 310.294 60.3131C310.312 60.3579 310.338 60.3988 310.372 60.4333C310.406 60.4677 310.446 60.4951 310.49 60.5138C310.534 60.5325 310.582 60.5421 310.63 60.5421Z" fill="#F0F0F0"/>
<path d="M256.858 81.6106L249.202 7.83691H244.036L251.693 81.6106H256.858Z" fill="white"/>
<path d="M183.892 81.6106V7.83691H183.284V81.6106H183.892Z" fill="#E6E6E6"/>
<path opacity="0.5" d="M177.373 14.0967H314.681L315.119 9.70264H177.811L177.373 14.0967Z" fill="#E0E0E0"/>
<path opacity="0.5" d="M177.373 21.3198H314.681L315.119 16.9258H177.811L177.373 21.3198Z" fill="#E0E0E0"/>
<path opacity="0.5" d="M177.373 28.543H314.681L315.119 24.1489H177.811L177.373 28.543Z" fill="#E0E0E0"/>
<path opacity="0.5" d="M177.373 35.7661H314.681L315.119 31.3721H177.811L177.373 35.7661Z" fill="#E0E0E0"/>
<path opacity="0.5" d="M177.373 42.9893H314.681L315.119 38.5952H177.811L177.373 42.9893Z" fill="#E0E0E0"/>
<path opacity="0.5" d="M177.373 50.2201H314.681L315.119 45.8184H177.811L177.373 50.2201Z" fill="#E0E0E0"/>
<path d="M66.2853 60.311L149.261 60.311V5.22358L66.2853 5.22358V60.311Z" fill="#E0E0E0"/>
<path d="M61.2887 60.311L147.078 60.311V5.22358L61.2887 5.22358V60.311Z" fill="#F5F5F5"/>
<path d="M68.4763 14.8752V50.6597L139.89 50.6597V14.8752L68.4763 14.8752Z" fill="white"/>
<path d="M22.3071 127.941L105.282 127.941V72.8535H22.3071V127.941Z" fill="#E0E0E0"/>
<path d="M17.3026 127.941L103.092 127.941V72.8535H17.3026V127.941Z" fill="#F5F5F5"/>
<path d="M24.4902 82.4972L24.4902 118.282H95.9041V82.4972H24.4902Z" fill="white"/>
</g>
<path d="M131.843 131.215C4.43251 118.401 -3.92729 185.371 7.81913 220.458V261.646H350.143V27.7859C339.617 20.3109 316.918 11.4935 310.327 36.0237C302.09 66.6864 291.106 147.233 131.843 131.215Z" fill="#FAF0F0"/>
<g clip-path="url(#clip2_1349_7644)">
<path d="M212.786 133.629C257.548 133.629 293.834 131.521 293.834 128.919C293.834 126.318 257.548 124.209 212.786 124.209C168.025 124.209 131.739 126.318 131.739 128.919C131.739 131.521 168.025 133.629 212.786 133.629Z" fill="#F9DDDD"/>
<path d="M278.542 25.9485L278.376 29.3896L278.802 29.41L278.968 25.9689L278.542 25.9485Z" fill="#B64521"/>
<path d="M279.146 13.6623L278.68 23.3125L279.106 23.3329L279.572 13.6827L279.146 13.6623Z" fill="#B64521"/>
<path d="M221.177 8.29893H273.01C273.701 8.29447 274.385 8.43092 275.022 8.69987C275.658 8.96883 276.232 9.36459 276.708 9.86277C277.185 10.361 277.554 10.951 277.793 11.5966C278.032 12.2421 278.135 12.9295 278.097 13.6164L272.838 123.606C272.753 125.032 272.129 126.372 271.091 127.359C270.054 128.345 268.68 128.904 267.245 128.924H215.421C214.73 128.928 214.045 128.792 213.409 128.523C212.773 128.254 212.199 127.858 211.722 127.36C211.245 126.862 210.876 126.272 210.637 125.626C210.399 124.98 210.295 124.293 210.333 123.606L215.571 13.6164C215.655 12.1881 216.28 10.8446 217.321 9.85751C218.361 8.87044 219.739 8.31338 221.177 8.29893Z" fill="#B64521"/>
<path d="M290.687 55.4611L290.808 52.9355L289.258 52.4862C289.199 51.6451 289.072 50.8102 288.877 49.9897L290.206 48.9745L289.345 46.6403L287.711 46.8234C287.331 46.0773 286.886 45.3659 286.382 44.6972L287.243 43.2701L285.533 41.4851L284.066 42.2715C283.413 41.7351 282.714 41.2575 281.976 40.8443L282.239 39.23L279.94 38.2647L278.862 39.5379C278.042 39.2981 277.203 39.1296 276.354 39.0344L275.982 37.4741H273.44L272.918 39.0386C272.054 39.1343 271.2 39.3013 270.364 39.5379L269.411 38.2647L267.02 39.23L267.124 40.8443C266.359 41.2664 265.629 41.7463 264.938 42.2798L263.546 41.4893L261.665 43.2742L262.392 44.7014C261.823 45.3671 261.31 46.0782 260.858 46.8275L259.24 46.6444L258.158 48.9786L259.391 49.9939C259.114 50.8073 258.905 51.6423 258.768 52.4903L257.171 52.9397L257.05 55.4653L258.605 55.9146C258.659 56.7561 258.787 57.5914 258.985 58.4111L257.656 59.4221L258.517 61.7563L260.152 61.5733C260.531 62.3206 260.976 63.0334 261.481 63.7036L260.616 65.1266L262.325 66.9157L263.797 66.1251C264.443 66.6598 265.136 67.1373 265.866 67.5523L265.607 69.1667L267.906 70.1361L268.984 68.8588C269.804 69.097 270.643 69.264 271.492 69.358L271.868 70.9267H274.406L274.932 69.358C275.795 69.264 276.648 69.0969 277.482 68.8588L278.44 70.1361L280.831 69.1667L280.722 67.5523C281.495 67.1373 282.234 66.66 282.929 66.1251L284.325 66.9157L286.206 65.1266L285.479 63.7036C286.045 63.0343 286.558 62.322 287.013 61.5733L288.631 61.7563L289.713 59.4221L288.459 58.4111C288.733 57.597 288.94 56.7621 289.078 55.9146L290.687 55.4611ZM284.789 54.2129C284.627 57.1163 283.361 59.8496 281.249 61.8585C279.137 63.8674 276.336 65.0015 273.415 65.0309C272.008 65.0448 270.613 64.7704 269.317 64.2248C268.021 63.6791 266.852 62.874 265.882 61.8593C264.912 60.8447 264.162 59.6422 263.679 58.3268C263.196 57.0113 262.99 55.611 263.074 54.2129C263.237 51.3091 264.503 48.5758 266.616 46.5669C268.729 44.5581 271.53 43.4241 274.452 43.3949C275.857 43.3817 277.25 43.6561 278.544 44.2009C279.838 44.7458 281.006 45.5495 281.976 46.5623C282.945 47.5751 283.695 48.7753 284.179 50.0885C284.663 51.4016 284.87 52.7998 284.789 54.1962V54.2129Z" fill="#B64521"/>
<path d="M272.926 9.63033H221.114C220.04 9.64445 219.011 10.0637 218.235 10.8035C217.459 11.5434 216.994 12.5486 216.934 13.6163L211.926 118.189C211.916 118.367 211.942 118.546 212.004 118.713C212.066 118.881 212.162 119.034 212.286 119.163C212.41 119.292 212.559 119.395 212.724 119.464C212.89 119.533 213.068 119.568 213.247 119.566H270.297C270.669 119.563 271.027 119.419 271.296 119.164C271.566 118.908 271.727 118.559 271.747 118.189L276.738 13.6163C276.772 13.1004 276.698 12.5832 276.52 12.0972C276.343 11.6112 276.067 11.167 275.709 10.7926C275.351 10.4181 274.919 10.1216 274.44 9.92154C273.961 9.72151 273.445 9.62236 272.926 9.63033Z" fill="white"/>
<path opacity="0.2" d="M263.608 114.782H220.42C219.796 114.782 219.178 114.657 218.604 114.412C218.031 114.168 217.513 113.81 217.083 113.36C216.653 112.91 216.319 112.377 216.102 111.795C215.885 111.212 215.79 110.592 215.822 109.972L217.151 82.1737C217.225 80.8877 217.787 79.6777 218.722 78.788C219.658 77.8983 220.898 77.3952 222.192 77.3805H265.377C266.001 77.3766 266.621 77.5003 267.196 77.7437C267.771 77.9871 268.29 78.3451 268.72 78.7957C269.151 79.2464 269.485 79.78 269.7 80.3638C269.916 80.9477 270.009 81.5692 269.975 82.1903L268.658 109.988C268.583 111.275 268.02 112.486 267.082 113.376C266.145 114.265 264.903 114.768 263.608 114.782ZM222.184 77.7508C220.989 77.7636 219.844 78.2273 218.979 79.0483C218.115 79.8693 217.596 80.9864 217.527 82.1737L216.198 109.972C216.163 110.542 216.247 111.114 216.445 111.651C216.642 112.187 216.948 112.678 217.344 113.092C217.74 113.506 218.218 113.834 218.747 114.056C219.276 114.278 219.846 114.389 220.42 114.382H263.608C264.804 114.369 265.951 113.905 266.816 113.083C267.681 112.262 268.2 111.143 268.269 109.955L269.594 82.157C269.628 81.5872 269.544 81.0164 269.347 80.4804C269.149 79.9444 268.843 79.4545 268.448 79.0412C268.052 78.6279 267.575 78.3 267.047 78.078C266.519 77.856 265.95 77.7446 265.377 77.7508H222.184Z" fill="#B64521"/>
<path opacity="0.1" d="M229.549 79.7266H213.101L211.738 108.245H228.191C229.105 108.232 229.982 107.876 230.643 107.247C231.305 106.618 231.702 105.763 231.756 104.853L232.793 83.1135C232.817 82.6758 232.751 82.2379 232.598 81.8266C232.446 81.4154 232.21 81.0396 231.906 80.7223C231.602 80.405 231.237 80.153 230.831 79.9818C230.426 79.8105 229.99 79.7237 229.549 79.7266Z" fill="#B64521"/>
<path opacity="0.1" d="M251.591 93.5533H240.405C240.179 93.5535 239.956 93.5082 239.748 93.4202C239.541 93.3321 239.353 93.2032 239.197 93.0411C239.041 92.8789 238.919 92.687 238.839 92.4769C238.76 92.2667 238.723 92.0427 238.733 91.8182L239.264 80.6799C239.292 80.2146 239.496 79.7773 239.835 79.4555C240.174 79.1337 240.622 78.9513 241.091 78.9448H252.281C252.506 78.9446 252.73 78.9899 252.937 79.0779C253.145 79.1659 253.333 79.2949 253.489 79.457C253.645 79.6191 253.767 79.8111 253.846 80.0212C253.926 80.2314 253.962 80.4554 253.953 80.6799L253.422 91.8182C253.393 92.2842 253.189 92.7221 252.849 93.044C252.509 93.3659 252.06 93.5478 251.591 93.5533Z" fill="#B64521"/>
<path opacity="0.1" d="M269.448 84.7822C268.775 84.7906 268.13 85.053 267.643 85.5164C267.157 85.9797 266.865 86.6096 266.827 87.2787L266.062 103.268C266.043 103.591 266.091 103.913 266.202 104.216C266.314 104.52 266.487 104.797 266.71 105.031C266.933 105.265 267.202 105.451 267.501 105.577C267.799 105.703 268.121 105.767 268.445 105.765H273.198L274.197 84.7906L269.448 84.7822Z" fill="#B64521"/>
<path opacity="0.1" d="M256.118 111.124H244.924C244.698 111.124 244.474 111.079 244.267 110.991C244.059 110.903 243.872 110.774 243.715 110.612C243.559 110.45 243.438 110.258 243.358 110.048C243.278 109.838 243.242 109.613 243.252 109.389L243.782 98.2507C243.811 97.7854 244.015 97.3481 244.354 97.0263C244.692 96.7045 245.141 96.5221 245.609 96.5156H256.795C257.021 96.5154 257.244 96.5607 257.452 96.6487C257.659 96.7367 257.847 96.8657 258.003 97.0278C258.159 97.1899 258.281 97.3819 258.361 97.592C258.44 97.8022 258.477 98.0262 258.467 98.2507L257.936 109.389C257.908 109.853 257.705 110.289 257.368 110.611C257.031 110.932 256.585 111.115 256.118 111.124Z" fill="#B64521"/>
<path opacity="0.2" d="M244.209 123.906C244.169 124.613 243.861 125.279 243.346 125.768C242.831 126.258 242.149 126.533 241.437 126.54C241.096 126.54 240.758 126.471 240.444 126.337C240.131 126.204 239.848 126.007 239.613 125.761C239.378 125.514 239.197 125.222 239.079 124.904C238.961 124.585 238.91 124.245 238.929 123.906C238.969 123.199 239.278 122.534 239.793 122.046C240.307 121.558 240.989 121.283 241.7 121.276C242.041 121.276 242.379 121.345 242.692 121.478C243.006 121.612 243.288 121.808 243.523 122.054C243.758 122.3 243.94 122.591 244.057 122.91C244.175 123.228 244.227 123.567 244.209 123.906Z" fill="white"/>
<path opacity="0.2" d="M268.658 70.9394H219.55C219.334 70.9414 219.119 70.8991 218.919 70.8153C218.719 70.7314 218.538 70.6077 218.388 70.4518C218.238 70.2959 218.122 70.111 218.047 69.9086C217.971 69.7062 217.938 69.4906 217.949 69.275L219.417 38.5936C219.443 38.1464 219.639 37.7259 219.965 37.417C220.291 37.1081 220.722 36.9338 221.172 36.9293H270.272C270.488 36.9272 270.703 36.9695 270.903 37.0534C271.102 37.1373 271.283 37.261 271.432 37.417C271.582 37.573 271.698 37.7579 271.773 37.9603C271.848 38.1627 271.88 38.3782 271.868 38.5936L270.405 69.275C270.378 69.7204 270.183 70.1392 269.859 70.4477C269.535 70.7562 269.106 70.9318 268.658 70.9394Z" fill="#B64521"/>
<path opacity="0.6" d="M271.287 29.5729H220.859C220.727 29.5737 220.597 29.5476 220.477 29.4965C220.356 29.4453 220.247 29.37 220.156 29.2753C220.066 29.1805 219.996 29.0683 219.95 28.9456C219.905 28.8229 219.886 28.6923 219.893 28.5618L220.386 18.2015C220.402 17.9306 220.521 17.6757 220.718 17.4881C220.914 17.3006 221.176 17.1942 221.448 17.1904H271.877C272.008 17.1897 272.138 17.2157 272.259 17.2669C272.38 17.318 272.489 17.3933 272.579 17.4881C272.67 17.5828 272.74 17.695 272.785 17.8177C272.83 17.9404 272.85 18.071 272.842 18.2015L272.345 28.5493C272.334 28.8224 272.218 29.0809 272.022 29.2715C271.825 29.462 271.562 29.5699 271.287 29.5729Z" fill="#B64521"/>
<path d="M225.118 47.2188H222.451L221.557 66.042H224.22L225.118 47.2188Z" fill="#B64521"/>
<path d="M230.147 54.1465H227.484L226.916 66.0421H229.578L230.147 54.1465Z" fill="#B64521"/>
<path d="M235.318 58.1406H232.655L232.279 66.0419H234.942L235.318 58.1406Z" fill="#B64521"/>
<path d="M240.488 62.0894H237.826L237.637 66.0421H240.3L240.488 62.0894Z" fill="#B64521"/>
<path d="M246.345 51.75H243.682L242.997 66.0422H245.663L246.345 51.75Z" fill="#B64521"/>
<path d="M252.072 44.1152H249.405L248.36 66.0425H251.022L252.072 44.1152Z" fill="#B64521"/>
<path d="M257.543 41.8057H254.876L253.719 66.0421H256.385L257.543 41.8057Z" fill="#B64521"/>
<path d="M262.455 51.2173H259.788L259.082 66.0421H261.744L262.455 51.2173Z" fill="#B64521"/>
<path d="M267.584 56.0107H264.921L264.44 66.0423H267.107L267.584 56.0107Z" fill="#B64521"/>
<path d="M225.658 102.42H203.812C203.372 102.423 202.936 102.336 202.53 102.165C202.125 101.993 201.759 101.741 201.455 101.424C201.151 101.107 200.916 100.731 200.764 100.32C200.611 99.9086 200.545 99.4706 200.569 99.0329L201.61 77.2929C201.663 76.3838 202.061 75.5287 202.723 74.8996C203.384 74.2705 204.26 73.914 205.175 73.9019H227.016C227.457 73.899 227.894 73.9859 228.299 74.1574C228.705 74.3289 229.071 74.5813 229.375 74.899C229.679 75.2167 229.914 75.5931 230.066 76.0048C230.219 76.4165 230.284 76.8549 230.26 77.2929L229.223 99.0329C229.168 99.9413 228.77 100.795 228.109 101.424C227.448 102.052 226.572 102.408 225.658 102.42Z" fill="#B64521"/>
<path opacity="0.8" d="M225.658 102.42H203.812C203.372 102.423 202.936 102.336 202.53 102.165C202.125 101.993 201.759 101.741 201.455 101.424C201.151 101.107 200.916 100.731 200.764 100.32C200.611 99.9086 200.545 99.4706 200.569 99.0329L201.61 77.2929C201.663 76.3838 202.061 75.5287 202.723 74.8996C203.384 74.2705 204.26 73.914 205.175 73.9019H227.016C227.457 73.899 227.894 73.9859 228.299 74.1574C228.705 74.3289 229.071 74.5813 229.375 74.899C229.679 75.2167 229.914 75.5931 230.066 76.0048C230.219 76.4165 230.284 76.8549 230.26 77.2929L229.223 99.0329C229.168 99.9413 228.77 100.795 228.109 101.424C227.448 102.052 226.572 102.408 225.658 102.42Z" fill="white"/>
<path d="M225.549 89.821L225.708 86.4924L224.153 85.4688C224.006 84.9106 223.8 84.3695 223.538 83.8545L223.956 82.2734L221.712 79.9267L220.111 80.272C219.605 79.9894 219.071 79.7593 218.518 79.5855L217.565 77.9878H214.221L213.117 79.5855C212.539 79.7599 211.979 79.9898 211.445 80.272L209.878 79.9267L207.403 82.2734L207.675 83.8503C207.367 84.3654 207.109 84.9088 206.906 85.473L205.259 86.4924L205.1 89.821L206.651 90.8445C206.798 91.4038 207.004 91.9463 207.265 92.4631L206.847 94.04L209.096 96.3908L210.697 96.0455C211.202 96.3264 211.734 96.5564 212.285 96.732L213.238 98.3256H216.583L217.69 96.732C218.268 96.5553 218.828 96.3255 219.362 96.0455L220.93 96.3908L223.404 94.04L223.133 92.4631C223.44 91.949 223.698 91.4071 223.902 90.8445L225.549 89.821ZM215.224 92.1469C214.705 92.1548 214.19 92.0558 213.711 91.856C213.233 91.6562 212.801 91.36 212.443 90.986C212.085 90.612 211.808 90.1683 211.631 89.6829C211.453 89.1974 211.379 88.6806 211.412 88.165C211.472 87.0973 211.937 86.092 212.713 85.3522C213.489 84.6124 214.518 84.1931 215.592 84.179C216.111 84.171 216.627 84.2702 217.105 84.4702C217.584 84.6702 218.017 84.9668 218.375 85.3413C218.733 85.7157 219.009 86.1599 219.186 86.6459C219.363 87.1319 219.438 87.6491 219.404 88.165C219.343 89.232 218.877 90.2362 218.102 90.9752C217.326 91.7141 216.298 92.1328 215.224 92.1469Z" fill="white"/>
<path d="M248.853 88.5103H237.667C237.441 88.5105 237.217 88.4651 237.009 88.3768C236.801 88.2886 236.613 88.1592 236.457 87.9967C236.301 87.8341 236.179 87.6417 236.1 87.431C236.02 87.2204 235.985 86.9959 235.995 86.7711L236.526 75.6369C236.554 75.1717 236.758 74.7343 237.097 74.4125C237.436 74.0908 237.884 73.9083 238.352 73.9019H249.543C249.768 73.9017 249.992 73.9469 250.199 74.035C250.407 74.123 250.594 74.2519 250.751 74.4141C250.907 74.5762 251.029 74.7681 251.108 74.9782C251.188 75.1884 251.224 75.4125 251.215 75.6369L250.684 86.7711C250.656 87.2378 250.452 87.6768 250.112 87.9995C249.772 88.3223 249.322 88.5048 248.853 88.5103Z" fill="#B64521"/>
<path opacity="0.6" d="M248.853 88.5103H237.667C237.441 88.5105 237.217 88.4651 237.009 88.3768C236.801 88.2886 236.613 88.1592 236.457 87.9967C236.301 87.8341 236.179 87.6417 236.1 87.431C236.02 87.2204 235.985 86.9959 235.995 86.7711L236.526 75.6369C236.554 75.1717 236.758 74.7343 237.097 74.4125C237.436 74.0908 237.884 73.9083 238.352 73.9019H249.543C249.768 73.9017 249.992 73.9469 250.199 74.035C250.407 74.123 250.594 74.2519 250.751 74.4141C250.907 74.5762 251.029 74.7681 251.108 74.9782C251.188 75.1884 251.224 75.4125 251.215 75.6369L250.684 86.7711C250.656 87.2378 250.452 87.6768 250.112 87.9995C249.772 88.3223 249.322 88.5048 248.853 88.5103Z" fill="white"/>
<path d="M281.775 100.714H265.707C265.383 100.716 265.061 100.652 264.763 100.526C264.465 100.399 264.195 100.213 263.972 99.9793C263.749 99.7453 263.576 99.4682 263.465 99.1651C263.353 98.862 263.305 98.5393 263.324 98.2171L264.089 82.2231C264.127 81.554 264.419 80.9242 264.906 80.4608C265.392 79.9974 266.037 79.7351 266.71 79.7267H282.774C283.099 79.7238 283.421 79.7874 283.72 79.9134C284.018 80.0395 284.288 80.2253 284.512 80.4594C284.736 80.6934 284.909 80.9707 285.02 81.2741C285.132 81.5775 285.18 81.9005 285.161 82.2231L284.396 98.2129C284.359 98.8828 284.068 99.5136 283.581 99.9779C283.095 100.442 282.449 100.705 281.775 100.714Z" fill="#B64521"/>
<path opacity="0.4" d="M281.775 100.714H265.707C265.383 100.716 265.061 100.652 264.763 100.526C264.465 100.399 264.195 100.213 263.972 99.9793C263.749 99.7453 263.576 99.4682 263.465 99.1651C263.353 98.862 263.305 98.5393 263.324 98.2171L264.089 82.2231C264.127 81.554 264.419 80.9242 264.906 80.4608C265.392 79.9974 266.037 79.7351 266.71 79.7267H282.774C283.099 79.7238 283.421 79.7874 283.72 79.9134C284.018 80.0395 284.288 80.2253 284.512 80.4594C284.736 80.6934 284.909 80.9707 285.02 81.2741C285.132 81.5775 285.18 81.9005 285.161 82.2231L284.396 98.2129C284.359 98.8828 284.068 99.5136 283.581 99.9779C283.095 100.442 282.449 100.705 281.775 100.714Z" fill="white"/>
<path d="M279.51 90.2244L271.371 85.4146L270.911 95.0301L279.51 90.2244Z" fill="white"/>
<path d="M253.376 106.077H242.186C241.96 106.077 241.736 106.032 241.529 105.944C241.321 105.856 241.134 105.727 240.977 105.565C240.821 105.403 240.699 105.211 240.62 105.001C240.54 104.79 240.504 104.566 240.513 104.342L241.069 93.2077C241.098 92.7424 241.302 92.3051 241.641 91.9833C241.979 91.6616 242.428 91.4791 242.896 91.4727H254.069C254.295 91.4725 254.519 91.5177 254.726 91.6058C254.934 91.6938 255.121 91.8227 255.278 91.9849C255.434 92.147 255.556 92.3389 255.635 92.549C255.715 92.7592 255.751 92.9832 255.742 93.2077L255.211 104.342C255.183 104.809 254.978 105.248 254.637 105.57C254.297 105.892 253.846 106.074 253.376 106.077Z" fill="#B64521"/>
<path opacity="0.4" d="M253.376 106.077H242.186C241.96 106.077 241.736 106.032 241.529 105.944C241.321 105.856 241.134 105.727 240.977 105.565C240.821 105.403 240.699 105.211 240.62 105.001C240.54 104.79 240.504 104.566 240.513 104.342L241.069 93.2077C241.098 92.7424 241.302 92.3051 241.641 91.9833C241.979 91.6616 242.428 91.4791 242.896 91.4727H254.069C254.295 91.4725 254.519 91.5177 254.726 91.6058C254.934 91.6938 255.121 91.8227 255.278 91.9849C255.434 92.147 255.556 92.3389 255.635 92.549C255.715 92.7592 255.751 92.9832 255.742 93.2077L255.211 104.342C255.183 104.809 254.978 105.248 254.637 105.57C254.297 105.892 253.846 106.074 253.376 106.077Z" fill="white"/>
<path d="M246.763 103.027L242.792 98.8748L243.716 97.9969L246.809 101.23L252.707 95.6211L253.589 96.5406L246.763 103.027Z" fill="white"/>
<path d="M97.3919 81.78L92.7503 77.1599C92.2645 76.6748 91.9917 76.0178 91.9917 75.3329C91.9917 74.648 92.2645 73.991 92.7503 73.5059C93.2389 73.0247 93.8985 72.7549 94.5858 72.7549C95.2731 72.7549 95.9327 73.0247 96.4213 73.5059L101.063 78.126C101.546 78.6124 101.817 79.2689 101.817 79.953C101.817 80.6371 101.546 81.2937 101.063 81.78C100.576 82.2636 99.9155 82.5351 99.2274 82.5351C98.5393 82.5351 97.8792 82.2636 97.3919 81.78Z" fill="#263238"/>
<path d="M97.3198 77.6116L96.9322 77.2258C96.1074 76.4048 94.7701 76.4048 93.9453 77.2258L90.9548 80.2025C90.1299 81.0235 90.1299 82.3546 90.9548 83.1756L91.3423 83.5614C92.1672 84.3824 93.5045 84.3824 94.3293 83.5614L97.3198 80.5848C98.1446 79.7638 98.1446 78.4326 97.3198 77.6116Z" fill="#263238"/>
<path d="M50.8806 127.771L46.5508 123.462C46.4271 123.341 46.3287 123.197 46.2616 123.038C46.1945 122.879 46.1599 122.708 46.1599 122.536C46.1599 122.363 46.1945 122.192 46.2616 122.033C46.3287 121.874 46.4271 121.73 46.5508 121.61L90.6281 79.2778C90.8722 79.0408 91.1998 78.9082 91.5408 78.9082C91.8818 78.9082 92.2093 79.0408 92.4535 79.2778L95.2344 82.0458C95.4737 82.2883 95.6077 82.6145 95.6077 82.9543C95.6077 83.2942 95.4737 83.6204 95.2344 83.8629L52.7061 127.736C52.4672 127.979 52.142 128.119 51.8005 128.126C51.4591 128.132 51.1288 128.005 50.8806 127.771Z" fill="#263238"/>
<path d="M96.1448 71.409C95.0962 69.9254 94.1968 68.3427 93.4595 66.6838L94.6513 41.6562C94.6513 41.486 94.6513 41.3208 94.6865 41.1556C94.978 38.2818 96.2739 35.601 98.3482 33.5811C100.423 31.5612 103.144 30.3304 106.036 30.1034C106.303 30.1034 106.569 30.0684 106.836 30.0684H132.94C134.494 30.8997 135.968 31.8698 137.346 32.9666C140.473 35.4621 143.037 38.5859 144.871 42.1342C146.704 45.6826 147.765 49.5757 147.984 53.5597C148.204 57.5437 147.577 61.5291 146.146 65.2558C144.714 68.9825 142.508 72.3669 139.674 75.1882C139.236 75.6237 138.799 76.0341 138.341 76.4296C135.329 79.0651 131.792 81.0387 127.962 82.2215C124.131 83.4044 120.094 83.7699 116.112 83.2943C112.13 82.8186 108.293 81.5124 104.853 79.461C101.412 77.4096 98.4451 74.6591 96.1448 71.389V71.409Z" fill="#B64521"/>
<path d="M99.3479 75.208C98.171 74.0368 97.0991 72.7656 96.1445 71.4088L97.5627 41.6759C97.6928 39.3435 98.7094 37.1477 100.406 35.534C102.103 33.9202 104.353 33.0094 106.7 32.9863H137.345C140.473 35.4819 143.037 38.6057 144.87 42.154C146.703 45.7024 147.764 49.5955 147.984 53.5795C148.204 57.5635 147.577 61.5488 146.145 65.2756C144.713 69.0023 142.508 72.3867 139.674 75.208C139.236 75.6435 138.799 76.0539 138.341 76.4494C132.9 81.2144 125.841 83.7382 118.598 83.5076C111.355 83.277 104.471 80.3093 99.3479 75.208Z" fill="white"/>
<path opacity="0.6" d="M139.674 75.208C139.236 75.6435 138.799 76.054 138.341 76.4494H106.157C105.871 76.4519 105.587 76.396 105.324 76.2851C105.061 76.1743 104.823 76.0108 104.625 75.8049C104.428 75.5989 104.275 75.3549 104.176 75.0878C104.077 74.8207 104.034 74.5362 104.05 74.252L105.116 51.667C105.149 51.0782 105.406 50.5239 105.835 50.1168C106.263 49.7096 106.832 49.48 107.424 49.4746H147.448C148.393 54.0693 148.178 58.8258 146.821 63.3172C145.464 67.8086 143.008 71.8944 139.674 75.208Z" fill="#B64521"/>
<path opacity="0.5" d="M99.348 75.213C95.3589 71.2434 92.6421 66.1854 91.5412 60.6788C90.4402 55.1722 91.0046 49.4643 93.1628 44.277C95.3211 39.0896 98.9763 34.6559 103.666 31.5364C108.356 28.417 113.87 26.752 119.511 26.752C125.152 26.752 130.666 28.417 135.355 31.5364C140.045 34.6559 143.701 39.0896 145.859 44.277C148.017 49.4643 148.582 55.1722 147.481 60.6788C146.38 66.1854 143.663 71.2434 139.674 75.213C134.325 80.5337 127.073 83.5226 119.511 83.5226C111.949 83.5226 104.697 80.5337 99.348 75.213Z" fill="white"/>
<path d="M130.566 59.1354C126.433 63.2499 121.726 62.9196 118.618 59.8211C115.51 56.7227 115.173 52.0626 119.307 47.928C123.441 43.7934 129.314 42.9875 132.422 46.0809C135.53 49.1744 134.7 55.0208 130.566 59.1354Z" fill="#263238"/>
<path d="M129.42 49.0594C127.781 47.4226 127.449 45.105 128.681 43.8787C129.913 42.6523 132.241 42.9827 133.885 44.6145C135.53 46.2463 135.852 48.5639 134.62 49.7902C133.388 51.0166 131.059 50.7062 129.42 49.0594Z" fill="#263238"/>
<path d="M128.107 51.0062C128.009 51.0039 127.913 50.9793 127.825 50.9342C127.738 50.889 127.663 50.8247 127.604 50.746L122.4 43.518C122.309 43.3901 122.269 43.2329 122.289 43.0775L122.817 38.6226C122.824 38.5371 122.847 38.4539 122.887 38.3778C122.927 38.3018 122.982 38.2346 123.048 38.1802C123.115 38.1257 123.192 38.0853 123.274 38.0612C123.357 38.0372 123.444 38.03 123.529 38.0401C123.615 38.0502 123.697 38.0775 123.772 38.1202C123.847 38.1629 123.912 38.2202 123.964 38.2886C124.016 38.3571 124.053 38.4352 124.074 38.5184C124.094 38.6016 124.098 38.6881 124.084 38.7727L123.581 42.9824L128.64 49.9901C128.739 50.1269 128.779 50.297 128.751 50.4631C128.724 50.6292 128.632 50.7777 128.494 50.8761C128.384 50.9612 128.247 51.007 128.107 51.0062Z" fill="#263238"/>
<path d="M135.369 56.1867C135.236 56.1878 135.106 56.1476 134.997 56.0716L127.745 50.8908C127.669 50.846 127.603 50.7859 127.552 50.7144C127.5 50.6428 127.464 50.5614 127.446 50.4752C127.427 50.3891 127.427 50.3001 127.445 50.2139C127.463 50.1277 127.499 50.0461 127.551 49.9745C127.602 49.9028 127.668 49.8425 127.744 49.7975C127.82 49.7524 127.904 49.7236 127.992 49.7128C128.08 49.702 128.169 49.7095 128.254 49.7348C128.339 49.7601 128.417 49.8026 128.485 49.8597L135.525 54.8953L139.754 54.3947C139.918 54.3821 140.081 54.4332 140.208 54.5373C140.336 54.6414 140.418 54.7905 140.437 54.9534C140.457 55.1162 140.412 55.2803 140.313 55.4113C140.214 55.5422 140.068 55.6299 139.905 55.6561L135.429 56.1566L135.369 56.1867Z" fill="#263238"/>
<path d="M123.954 55.1409C123.822 55.1421 123.694 55.1018 123.586 55.0258L116.546 49.9853L112.317 50.4858C112.15 50.5057 111.981 50.4586 111.849 50.3549C111.716 50.2512 111.63 50.0993 111.61 49.9327C111.59 49.7661 111.638 49.5984 111.742 49.4665C111.846 49.3346 111.999 49.2493 112.166 49.2294L116.642 48.6988C116.8 48.6812 116.959 48.7222 117.089 48.814L124.346 53.9947C124.456 54.0722 124.539 54.1829 124.582 54.3105C124.625 54.4382 124.625 54.5761 124.584 54.7042C124.542 54.8323 124.461 54.9438 124.351 55.0223C124.241 55.1009 124.109 55.1425 123.974 55.1409H123.954Z" fill="#263238"/>
<path d="M128.631 66.8187H128.555C128.472 66.8094 128.392 66.7838 128.319 66.7435C128.246 66.7032 128.182 66.6489 128.13 66.5838C128.078 66.5187 128.039 66.444 128.017 66.364C127.994 66.2841 127.987 66.2004 127.997 66.1179L128.5 61.9082L123.436 54.9005C123.339 54.7627 123.301 54.5925 123.329 54.4268C123.357 54.261 123.45 54.113 123.587 54.0145C123.654 53.9661 123.731 53.9315 123.812 53.9126C123.893 53.8937 123.977 53.8909 124.06 53.9044C124.142 53.9179 124.22 53.9474 124.291 53.9912C124.362 54.035 124.423 54.0922 124.472 54.1597L129.677 61.3827C129.771 61.5109 129.812 61.6704 129.792 61.8282L129.259 66.2831C129.236 66.4325 129.16 66.5688 129.045 66.6671C128.93 66.7654 128.782 66.8192 128.631 66.8187Z" fill="#263238"/>
<path d="M135.741 62.7393C135.657 62.7396 135.574 62.7234 135.496 62.6916C135.419 62.6598 135.348 62.6131 135.289 62.5541L115.873 43.2278C115.754 43.1087 115.687 42.9476 115.687 42.7798C115.687 42.6119 115.754 42.4509 115.873 42.3318C115.931 42.2726 116.002 42.2256 116.079 42.1936C116.156 42.1615 116.239 42.145 116.323 42.145C116.406 42.145 116.489 42.1615 116.566 42.1936C116.644 42.2256 116.714 42.2726 116.773 42.3318L136.189 61.6581C136.248 61.7168 136.295 61.7866 136.328 61.8634C136.36 61.9403 136.376 62.0228 136.376 62.1061C136.376 62.1894 136.36 62.2719 136.328 62.3488C136.295 62.4257 136.248 62.4955 136.189 62.5541C136.131 62.6134 136.061 62.6604 135.984 62.6922C135.907 62.724 135.825 62.74 135.741 62.7393Z" fill="#263238"/>
<path d="M133.131 46.0107C133.043 46.0111 132.956 45.994 132.875 45.9606C132.721 45.8935 132.6 45.7686 132.537 45.613C132.475 45.4575 132.477 45.2838 132.543 45.1297C132.91 44.1976 132.954 43.1706 132.669 42.2107C132.384 41.2509 131.786 40.4128 130.969 39.8288C130.859 39.7199 130.793 39.5751 130.783 39.4212C130.773 39.2674 130.819 39.1151 130.913 38.9926C131.007 38.8702 131.143 38.7859 131.294 38.7556C131.446 38.7253 131.604 38.7509 131.738 38.8277C132.784 39.5813 133.546 40.6611 133.904 41.8955C134.262 43.1299 134.196 44.4479 133.715 45.6402C133.664 45.7512 133.581 45.8452 133.478 45.9109C133.374 45.9766 133.254 46.0112 133.131 46.0107Z" fill="#263238"/>
<path d="M139.211 47.7775C139.114 47.7771 139.017 47.7543 138.93 47.7109C138.843 47.6675 138.767 47.6046 138.708 47.5272C138.122 46.7143 137.28 46.119 136.315 45.8353C135.351 45.5516 134.319 45.5956 133.383 45.9605C133.228 46.0268 133.053 46.0293 132.897 45.9674C132.74 45.9054 132.615 45.7841 132.548 45.6301C132.481 45.4761 132.479 45.302 132.541 45.1462C132.603 44.9904 132.725 44.8656 132.88 44.7992C134.077 44.32 135.401 44.2529 136.641 44.6084C137.881 44.9639 138.966 45.7217 139.724 46.7613C139.774 46.8276 139.811 46.9032 139.832 46.9837C139.853 47.0642 139.858 47.148 139.846 47.2304C139.835 47.3127 139.807 47.3919 139.764 47.4635C139.722 47.5351 139.665 47.5975 139.598 47.6473C139.489 47.7346 139.352 47.7807 139.211 47.7775Z" fill="#263238"/>
<path d="M142.123 32.6362C137.651 28.1857 131.954 25.155 125.752 23.9272C119.55 22.6995 113.121 23.3299 107.279 25.7388C101.437 28.1476 96.4438 32.2267 92.9307 37.4603C89.4176 42.6939 87.5425 48.8468 87.5425 55.1411C87.5425 61.4354 89.4176 67.5883 92.9307 72.8219C96.4438 78.0554 101.437 82.1346 107.279 84.5434C113.121 86.9523 119.55 87.5827 125.752 86.355C131.954 85.1272 137.651 82.0965 142.123 77.646C145.092 74.6907 147.447 71.1822 149.054 67.3208C150.661 63.4594 151.488 59.3207 151.488 55.1411C151.488 50.9615 150.661 46.8228 149.054 42.9614C147.447 39.1 145.092 35.5915 142.123 32.6362ZM100.449 74.1171C96.6774 70.3638 94.1086 65.5814 93.0676 60.3748C92.0266 55.1682 92.5602 49.7713 94.6008 44.8666C96.6415 39.9619 100.098 35.7697 104.532 32.8202C108.966 29.8707 114.18 28.2964 119.513 28.2964C124.847 28.2964 130.06 29.8707 134.495 32.8202C138.929 35.7697 142.385 39.9619 144.426 44.8666C146.466 49.7713 147 55.1682 145.959 60.3748C144.918 65.5814 142.349 70.3638 138.577 74.1171C136.074 76.6092 133.102 78.5861 129.831 79.9348C126.56 81.2836 123.054 81.9777 119.513 81.9777C115.973 81.9777 112.467 81.2836 109.196 79.9348C105.925 78.5861 102.953 76.6092 100.449 74.1171Z" fill="#B64521"/>
</g>
</g>
<rect x="1.5" y="1.5" width="333" height="137" rx="13.5" stroke="#E53935" stroke-opacity="0.4" stroke-width="3"/>
<defs>
<clipPath id="clip0_1349_7644">
<rect width="336" height="140" rx="15" fill="white"/>
</clipPath>
<clipPath id="clip1_1349_7644">
<rect width="300.815" height="236.916" fill="white" transform="translate(17.3027 3.04199)"/>
</clipPath>
<clipPath id="clip2_1349_7644">
<rect width="262.784" height="140.634" fill="white" transform="translate(36.1079 -7)"/>
</clipPath>
</defs>
</svg>
