<svg width="16" height="17" viewBox="0 0 16 17" fill="none" xmlns="http://www.w3.org/2000/svg">
<path d="M13.3333 16.5H12C10.5267 16.5 9.33333 15.3067 9.33333 13.8333V9.16667C9.33333 7.69333 10.5267 6.5 12 6.5H13.3333C14.8067 6.5 16 7.69333 16 9.16667V13.8333C16 15.3067 14.8067 16.5 13.3333 16.5ZM8 9.83333H6L5.83333 9.64C5.58 9.34 5.20667 9.16667 4.81333 9.16667H1.66667C0.746667 9.16667 0 9.91333 0 10.8333C0 11.7533 0.746667 12.5 1.66667 12.5H8V9.83333ZM4.82 7.83333C5.47333 7.83333 6.1 8.07333 6.58667 8.5H8.06667C8.38667 6.61333 10.0267 5.16667 12.0067 5.16667H13.34C13.8067 5.16667 14.2533 5.25333 14.6733 5.4V3.83333C14.6733 1.99333 13.18 0.5 11.34 0.5H4.66667C2.82667 0.5 1.33333 1.99333 1.33333 3.83333V7.90667C1.54667 7.86 1.77333 7.83333 2 7.83333H4.82Z" fill="#1AA483"/>
</svg>
