<svg width="14" height="15" viewBox="0 0 14 15" fill="none" xmlns="http://www.w3.org/2000/svg">
<path fill-rule="evenodd" clip-rule="evenodd" d="M0.698503 3.00014C3.0402 3.03283 5.3018 2.14832 7 0.535645C8.6125 2.06339 10.7905 2.99939 13.1875 2.99939H13.3015C13.5925 3.88439 13.75 4.83014 13.75 5.81264C13.75 10.0066 10.882 13.5301 7 14.5291C3.118 13.5294 0.250003 10.0059 0.250003 5.81189C0.249232 4.85677 0.400629 3.90763 0.698503 3.00014ZM9.75858 6.17577C9.95921 5.89489 9.89416 5.50455 9.61327 5.30392C9.33239 5.10329 8.94205 5.16834 8.74142 5.44923L6.35775 8.78636L5.19194 7.62056C4.94786 7.37648 4.55214 7.37648 4.30806 7.62056C4.06398 7.86464 4.06398 8.26036 4.30806 8.50444L5.99556 10.1919C6.12547 10.3219 6.30596 10.388 6.48905 10.3729C6.67214 10.3577 6.8393 10.2628 6.94608 10.1133L9.75858 6.17577Z" fill="#1AA483"/>
</svg>