<svg width="18" height="18" viewBox="0 0 18 18" fill="none" xmlns="http://www.w3.org/2000/svg">
<path d="M6.3 1.75H3.45C3.02996 1.75 2.81994 1.75 2.65951 1.83175C2.51839 1.90365 2.40365 2.01839 2.33175 2.15951C2.25 2.31994 2.25 2.52996 2.25 2.95V5.8C2.25 6.22004 2.25 6.43006 2.33175 6.59049C2.40365 6.73161 2.51839 6.84635 2.65951 6.91825C2.81994 7 3.02996 7 3.45 7H6.3C6.72004 7 6.93006 7 7.09049 6.91825C7.23161 6.84635 7.34635 6.73161 7.41825 6.59049C7.5 6.43006 7.5 6.22004 7.5 5.8V2.95C7.5 2.52996 7.5 2.31994 7.41825 2.15951C7.34635 2.01839 7.23161 1.90365 7.09049 1.83175C6.93006 1.75 6.72004 1.75 6.3 1.75Z" fill="#1AA483"/>
<path d="M14.55 1.75H11.7C11.28 1.75 11.0699 1.75 10.9095 1.83175C10.7684 1.90365 10.6537 2.01839 10.5817 2.15951C10.5 2.31994 10.5 2.52996 10.5 2.95V5.8C10.5 6.22004 10.5 6.43006 10.5817 6.59049C10.6537 6.73161 10.7684 6.84635 10.9095 6.91825C11.0699 7 11.28 7 11.7 7H14.55C14.97 7 15.1801 7 15.3405 6.91825C15.4816 6.84635 15.5963 6.73161 15.6683 6.59049C15.75 6.43006 15.75 6.22004 15.75 5.8V2.95C15.75 2.52996 15.75 2.31994 15.6683 2.15951C15.5963 2.01839 15.4816 1.90365 15.3405 1.83175C15.1801 1.75 14.97 1.75 14.55 1.75Z" fill="#1AA483"/>
<path d="M14.55 10H11.7C11.28 10 11.0699 10 10.9095 10.0817C10.7684 10.1537 10.6537 10.2684 10.5817 10.4095C10.5 10.5699 10.5 10.78 10.5 11.2V14.05C10.5 14.47 10.5 14.6801 10.5817 14.8405C10.6537 14.9816 10.7684 15.0963 10.9095 15.1683C11.0699 15.25 11.28 15.25 11.7 15.25H14.55C14.97 15.25 15.1801 15.25 15.3405 15.1683C15.4816 15.0963 15.5963 14.9816 15.6683 14.8405C15.75 14.6801 15.75 14.47 15.75 14.05V11.2C15.75 10.78 15.75 10.5699 15.6683 10.4095C15.5963 10.2684 15.4816 10.1537 15.3405 10.0817C15.1801 10 14.97 10 14.55 10Z" fill="#1AA483"/>
<path d="M6.3 10H3.45C3.02996 10 2.81994 10 2.65951 10.0817C2.51839 10.1537 2.40365 10.2684 2.33175 10.4095C2.25 10.5699 2.25 10.78 2.25 11.2V14.05C2.25 14.47 2.25 14.6801 2.33175 14.8405C2.40365 14.9816 2.51839 15.0963 2.65951 15.1683C2.81994 15.25 3.02996 15.25 3.45 15.25H6.3C6.72004 15.25 6.93006 15.25 7.09049 15.1683C7.23161 15.0963 7.34635 14.9816 7.41825 14.8405C7.5 14.6801 7.5 14.47 7.5 14.05V11.2C7.5 10.78 7.5 10.5699 7.41825 10.4095C7.34635 10.2684 7.23161 10.1537 7.09049 10.0817C6.93006 10 6.72004 10 6.3 10Z" fill="#1AA483"/>
</svg>
