<svg width="18" height="18" viewBox="0 0 18 18" fill="none" xmlns="http://www.w3.org/2000/svg">
    <path
        d="M2.56685 9.35818L4.71223 10.925L3.89747 13.4483C3.7658 13.8396 3.76413 14.263 3.89272 14.6554C4.0213 15.0478 4.27324 15.3881 4.61099 15.6256C4.94295 15.8707 5.34524 16.002 5.7579 16C6.17056 15.9979 6.57151 15.8626 6.901 15.6141L8.99877 14.0702L11.0971 15.6123C11.4285 15.8561 11.8286 15.9884 12.24 15.9904C12.6513 15.9924 13.0527 15.864 13.3864 15.6235C13.7201 15.383 13.969 15.0429 14.0972 14.652C14.2255 14.2612 14.2265 13.8397 14.1001 13.4483L13.2853 10.925L15.4307 9.35818C15.7616 9.11622 16.0076 8.77588 16.1336 8.38576C16.2595 7.99564 16.259 7.57569 16.132 7.18591C16.005 6.79613 15.7581 6.45645 15.4265 6.21538C15.0949 5.97431 14.6956 5.8442 14.2857 5.84361H11.6504L10.8507 3.35111C10.7249 2.95877 10.4778 2.61651 10.145 2.37368C9.81213 2.13085 9.41077 2 8.99877 2C8.58677 2 8.18542 2.13085 7.85258 2.37368C7.51975 2.61651 7.27263 2.95877 7.14688 3.35111L6.34718 5.84361H3.71427C3.30432 5.8442 2.90505 5.97431 2.57347 6.21538C2.24189 6.45645 1.99498 6.79613 1.86799 7.18591C1.74101 7.57569 1.74044 7.99564 1.86639 8.38576C1.99233 8.77588 2.23833 9.11622 2.56927 9.35818H2.56685Z"
        fill="#1AA483" />
</svg>
