<svg width="16" height="17" viewBox="0 0 16 17" fill="none" xmlns="http://www.w3.org/2000/svg">
<path d="M10.6678 2.33333C10.6678 3.77533 8.78783 5.56733 7.85116 6.31867C7.70459 6.43617 7.52235 6.5002 7.33449 6.5002C7.14664 6.5002 6.96439 6.43617 6.81783 6.31867C5.88116 5.56667 4.00116 3.77533 4.00116 2.33333C3.98013 1.86948 4.14368 1.41618 4.45602 1.0726C4.76837 0.729027 5.20407 0.523146 5.66783 0.5C6.13158 0.523146 6.56729 0.729027 6.87963 1.0726C7.19197 1.41618 7.35552 1.86948 7.33449 2.33333C7.31347 1.86948 7.47701 1.41618 7.78936 1.0726C8.1017 0.729027 8.53741 0.523146 9.00116 0.5C9.46491 0.523146 9.90062 0.729027 10.213 1.0726C10.5253 1.41618 10.6889 1.86948 10.6678 2.33333ZM15.5598 8.73333L10.4265 14.3393C9.80151 15.0208 9.0416 15.5648 8.19505 15.9368C7.3485 16.3088 6.43383 16.5006 5.50916 16.5H2.66783C1.96058 16.5 1.28231 16.219 0.782208 15.719C0.282111 15.2189 0.00115967 14.5406 0.00115967 13.8333V10.5C0.00115967 9.79276 0.282111 9.11448 0.782208 8.61438C1.28231 8.11428 1.96058 7.83333 2.66783 7.83333H7.85916C8.07953 7.83376 8.29702 7.88343 8.49572 7.97873C8.69442 8.07402 8.86931 8.21252 9.0076 8.3841C9.14588 8.55568 9.24407 8.756 9.29498 8.97041C9.34589 9.18482 9.34823 9.4079 9.30183 9.62333C9.22965 9.92468 9.06709 10.1968 8.83593 10.4031C8.60478 10.6095 8.31607 10.7403 8.00849 10.778L5.23316 11.1667C5.05824 11.1918 4.90044 11.2853 4.79443 11.4267C4.68842 11.568 4.64289 11.7457 4.66783 11.9207C4.69276 12.0957 4.7862 12.2537 4.92761 12.3598C5.06901 12.466 5.24678 12.5116 5.42183 12.4867L8.25649 12.0867C8.92414 11.9883 9.53446 11.654 9.97684 11.1444C10.4192 10.6348 10.6643 9.98351 10.6678 9.30867C10.6646 9.16597 10.6501 9.02375 10.6245 8.88333L12.9858 6.392C13.2972 6.05483 13.7294 5.85457 14.1879 5.83496C14.6465 5.81535 15.0941 5.97798 15.4332 6.28733C15.7705 6.59648 15.9728 7.0258 15.9965 7.48274C16.0202 7.93968 15.8634 8.38762 15.5598 8.73V8.73333Z" fill="#1AA483"/>
</svg>
