<svg width="14" height="15" viewBox="0 0 14 15" fill="none" xmlns="http://www.w3.org/2000/svg">
<path fill-rule="evenodd" clip-rule="evenodd" d="M5.48461 14.0142L5.04628 13.0283C4.8901 12.6765 4.62634 12.3833 4.29295 12.1908C3.95936 11.9984 3.57345 11.9164 3.19045 11.9567L2.11795 12.0708C1.79872 12.1044 1.47661 12.0447 1.19058 11.899C0.904553 11.7534 0.666868 11.5279 0.506281 11.25C0.345647 10.9721 0.269119 10.6535 0.285982 10.333C0.302845 10.0124 0.412375 9.70368 0.601282 9.44417L1.23628 8.57167C1.46274 8.26024 1.58468 7.88506 1.58461 7.5C1.58468 7.11494 1.46274 6.73976 1.23628 6.42833L0.601282 5.55583C0.412375 5.29632 0.302845 4.98755 0.285982 4.66701C0.269119 4.34646 0.345647 4.02791 0.506281 3.75C0.66671 3.47193 0.904366 3.24637 1.19043 3.10067C1.4765 2.95497 1.7987 2.8954 2.11795 2.92917L3.19378 3.04333C3.57678 3.08356 3.96269 3.00159 4.29628 2.80917C4.62844 2.61619 4.89098 2.32302 5.04628 1.97167L5.48461 0.985833C5.61492 0.692378 5.82757 0.443036 6.09678 0.268049C6.36599 0.0930619 6.6802 -5.23485e-05 7.00128 2.20791e-08C7.32237 -5.23485e-05 7.63657 0.0930619 7.90578 0.268049C8.17499 0.443036 8.38764 0.692378 8.51795 0.985833L8.95962 1.97167C9.11492 2.32302 9.37746 2.61619 9.70961 2.80917C10.0432 3.00159 10.4291 3.08356 10.8121 3.04333L11.8846 2.92917C12.2039 2.8954 12.5261 2.95497 12.8121 3.10067C13.0982 3.24637 13.3359 3.47193 13.4963 3.75C13.6569 4.02791 13.7334 4.34646 13.7166 4.66701C13.6997 4.98755 13.5902 5.29632 13.4013 5.55583L12.7663 6.42833C12.5398 6.73976 12.4179 7.11494 12.4179 7.5C12.416 7.88611 12.5368 8.26285 12.7629 8.57583L13.3979 9.44833C13.5869 9.70785 13.6964 10.0166 13.7132 10.3372C13.7301 10.6577 13.6536 10.9763 13.4929 11.2542C13.3325 11.5322 13.0949 11.7578 12.8088 11.9035C12.5227 12.0492 12.2005 12.1088 11.8813 12.075L10.8088 11.9608C10.4258 11.9206 10.0399 12.0026 9.70628 12.195C9.37479 12.3869 9.11232 12.6785 8.95628 13.0283L8.51795 14.0142C8.38764 14.3076 8.17499 14.557 7.90578 14.732C7.63657 14.9069 7.32237 15.0001 7.00128 15C6.6802 15.0001 6.36599 14.9069 6.09678 14.732C5.82757 14.557 5.61492 14.3076 5.48461 14.0142ZM9.25 7.5C9.25 8.74264 8.24264 9.75 7 9.75C5.75736 9.75 4.75 8.74264 4.75 7.5C4.75 6.25736 5.75736 5.25 7 5.25C8.24264 5.25 9.25 6.25736 9.25 7.5Z" fill="#1AA483"/>
</svg>
