<svg width="14" height="17" viewBox="0 0 14 17" fill="none" xmlns="http://www.w3.org/2000/svg">
<path d="M11.2 5.7C12.3598 5.7 13.3 4.7598 13.3 3.6C13.3 2.4402 12.3598 1.5 11.2 1.5C10.0402 1.5 9.10001 2.4402 9.10001 3.6C9.10001 4.7598 10.0402 5.7 11.2 5.7Z" fill="#1AA483"/>
<path d="M2.80001 10.6C3.95981 10.6 4.90001 9.6598 4.90001 8.5C4.90001 7.3402 3.95981 6.4 2.80001 6.4C1.64021 6.4 0.700012 7.3402 0.700012 8.5C0.700012 9.6598 1.64021 10.6 2.80001 10.6Z" fill="#1AA483"/>
<path d="M11.2 15.5C12.3598 15.5 13.3 14.5598 13.3 13.4C13.3 12.2402 12.3598 11.3 11.2 11.3C10.0402 11.3 9.10001 12.2402 9.10001 13.4C9.10001 14.5598 10.0402 15.5 11.2 15.5Z" fill="#1AA483"/>
<path d="M4.61301 9.557L9.39401 12.343M9.38701 4.657L4.61301 7.443M13.3 3.6C13.3 4.7598 12.3598 5.7 11.2 5.7C10.0402 5.7 9.10001 4.7598 9.10001 3.6C9.10001 2.4402 10.0402 1.5 11.2 1.5C12.3598 1.5 13.3 2.4402 13.3 3.6ZM4.90001 8.5C4.90001 9.6598 3.95981 10.6 2.80001 10.6C1.64021 10.6 0.700012 9.6598 0.700012 8.5C0.700012 7.3402 1.64021 6.4 2.80001 6.4C3.95981 6.4 4.90001 7.3402 4.90001 8.5ZM13.3 13.4C13.3 14.5598 12.3598 15.5 11.2 15.5C10.0402 15.5 9.10001 14.5598 9.10001 13.4C9.10001 12.2402 10.0402 11.3 11.2 11.3C12.3598 11.3 13.3 12.2402 13.3 13.4Z" stroke="#1AA483" stroke-width="1.25" stroke-linecap="round" stroke-linejoin="round"/>
</svg>
