<svg width="18" height="18" viewBox="0 0 18 18" fill="none" xmlns="http://www.w3.org/2000/svg">
<path d="M15.7228 2.01632C15.3471 1.70282 14.9062 1.47694 14.4323 1.35506C13.9584 1.23319 13.4633 1.21839 12.9829 1.31174L11.8203 1.59647C11.2135 1.70765 10.665 2.02807 10.2701 2.50196C9.87521 2.97584 9.659 3.57318 9.65908 4.19003V14.3843C9.222 14.4483 8.77795 14.4483 8.34087 14.3843V4.19003C8.34306 3.57887 8.13184 2.98612 7.74365 2.51407C7.35547 2.04202 6.81468 1.72028 6.21461 1.60438L4.97946 1.30383C4.50435 1.21689 4.01594 1.23545 3.5488 1.35819C3.08165 1.48093 2.6472 1.70485 2.2762 2.01411C1.90519 2.32337 1.60669 2.71039 1.40184 3.1478C1.19699 3.5852 1.09079 4.06229 1.09076 4.54529L1.09076 11.659C1.0908 12.4306 1.36163 13.1778 1.85606 13.7703C2.35049 14.3628 3.03716 14.763 3.79637 14.9011L7.93948 15.6544C8.64073 15.7819 9.35921 15.7819 10.0605 15.6544L14.2069 14.9011C14.9655 14.7623 15.6514 14.3618 16.1451 13.7694C16.6389 13.177 16.9093 12.4302 16.9092 11.659V4.54529C16.9095 4.06246 16.8033 3.5855 16.5983 3.14838C16.3932 2.71126 16.0943 2.32473 15.7228 2.01632Z" fill="#1AA483"/>
</svg>
